<?xml version="1.0" encoding="UTF-8" standalone="no"?>
<!-- Created with Inkscape (http://www.inkscape.org/) -->

<svg
   version="1.1"
   id="svg1454"
   width="1706.6667"
   height="960"
   viewBox="0 0 1706.6667 960"
   sodipodi:docname="Social Media Icon Set EPS File.svg"
   inkscape:version="1.2.2 (b0a8486541, 2022-12-01)"
   xmlns:inkscape="http://www.inkscape.org/namespaces/inkscape"
   xmlns:sodipodi="http://sodipodi.sourceforge.net/DTD/sodipodi-0.dtd"
   xmlns="http://www.w3.org/2000/svg"
   xmlns:svg="http://www.w3.org/2000/svg">
  <defs
     id="defs1458">
    <linearGradient
       x1="880.992"
       y1="595.39203"
       x2="702.90302"
       y2="417.035"
       gradientUnits="userSpaceOnUse"
       gradientTransform="scale(10)"
       spreadMethod="pad"
       id="linearGradient1476">
      <stop
         style="stop-opacity:1;stop-color:#bb228f"
         offset="0"
         id="stop1470" />
      <stop
         style="stop-opacity:1;stop-color:#ed1c24"
         offset="0.481"
         id="stop1472" />
      <stop
         style="stop-opacity:1;stop-color:#fcb81a"
         offset="1"
         id="stop1474" />
    </linearGradient>
  </defs>
  <sodipodi:namedview
     id="namedview1456"
     pagecolor="#ffffff"
     bordercolor="#000000"
     borderopacity="0.25"
     inkscape:showpageshadow="2"
     inkscape:pageopacity="0.0"
     inkscape:pagecheckerboard="0"
     inkscape:deskcolor="#d1d1d1"
     showgrid="false"
     inkscape:zoom="0.571875"
     inkscape:cx="811.36612"
     inkscape:cy="480.87432"
     inkscape:window-width="1366"
     inkscape:window-height="707"
     inkscape:window-x="1280"
     inkscape:window-y="134"
     inkscape:window-maximized="1"
     inkscape:current-layer="g1462">
    <inkscape:page
       x="0"
       y="0"
       id="page1460"
       width="1706.6667"
       height="960" />
  </sodipodi:namedview>
  <g
     id="g1462"
     inkscape:groupmode="layer"
     inkscape:label="Page 1"
     transform="matrix(1.3333333,0,0,-1.3333333,0,960)">
    <g
       id="g1464"
       transform="scale(0.1)">
      <path
         d="m 2887.41,5561.53 c 1.15,-23.26 1.58,-46.79 1.58,-70.05 0,-716.21 -544.98,-1541.79 -1541.51,-1541.79 -306.15,0 -590.769,89.7 -830.609,243.57 42.488,-5.03 85.551,-7.61 129.18,-7.61 254.051,0 487.569,86.69 672.869,231.8 -236.97,4.45 -437.19,160.9 -506.092,376.19 33.012,-6.17 67.031,-9.47 101.91,-9.47 49.524,0 97.452,6.46 142.812,18.8 -247.878,49.95 -434.609,268.83 -434.609,531.49 0,2.3 0,4.45 0,6.75 73.059,-40.62 156.739,-65.02 245.438,-67.89 -145.399,97.31 -241.129,262.94 -241.129,451.11 0,99.18 26.691,192.33 73.488,272.42 267.102,-327.96 666.552,-543.55 1116.802,-566.22 -9.19,39.75 -13.92,80.95 -13.92,123.58 0,299.11 242.42,541.53 541.68,541.53 155.87,0 296.68,-65.59 395.57,-170.94 123.29,24.4 239.26,69.47 344.04,131.47 -40.48,-126.45 -126.45,-232.66 -238.26,-299.69 109.66,13.21 213.86,42.06 311.17,85.26 -72.62,-108.8 -164.48,-204.1 -270.41,-280.31"
         style="fill:#00c4fa;fill-opacity:1;fill-rule:nonzero;stroke:none"
         id="path1466"
         inkscape:label="TW" />
      <path
         d="m 6101.5,5016.16 c 0,596.24 -483.35,1079.58 -1079.59,1079.58 -596.24,0 -1079.59,-483.34 -1079.59,-1079.58 0,-538.86 394.79,-985.48 910.9,-1066.47 v 754.4 h -274.11 v 312.07 h 274.11 V 5254 c 0,270.58 161.18,420.03 407.78,420.03 118.11,0 241.66,-21.09 241.66,-21.09 v -265.67 h -136.13 c -134.11,0 -175.94,-83.22 -175.94,-168.6 v -202.51 h 299.42 l -47.86,-312.07 h -251.56 v -754.4 c 516.12,80.99 910.91,527.61 910.91,1066.47"
         style="fill:#4267b2;fill-opacity:1;fill-rule:nonzero;stroke:none"
         id="path1468"
         inkscape:label="FB" />
      <path
         d="m 8316.61,5022.72 c 0,196.98 -160.69,357.67 -357.67,357.67 -196.99,0 -357.68,-160.69 -357.68,-357.67 0,-196.99 160.69,-357.68 357.68,-357.68 196.98,0 357.67,160.69 357.67,357.68 z m 192.79,0 c 0,-304.57 -245.9,-550.47 -550.46,-550.47 -304.57,0 -550.47,245.9 -550.47,550.47 0,304.56 245.9,550.46 550.47,550.46 304.56,0 550.46,-245.9 550.46,-550.46 z m 150.94,572.81 c 0,-71.26 -57.32,-128.49 -128.5,-128.49 -71.18,0 -128.49,57.31 -128.49,128.49 0,71.18 57.31,128.5 128.49,128.5 71.18,0 128.5,-57.32 128.5,-128.5 z m -701.4,307.42 c -156.49,0 -491.81,12.61 -632.91,-43.27 -48.91,-19.59 -85.22,-43.28 -122.95,-81.02 -37.74,-37.73 -61.52,-74.04 -81.02,-122.95 -55.88,-141.1 -43.27,-476.42 -43.27,-632.91 0,-156.48 -12.61,-491.8 43.27,-632.9 19.59,-48.91 43.28,-85.22 81.02,-122.95 37.73,-37.74 74.04,-61.52 122.95,-81.02 141.1,-55.88 476.42,-43.28 632.91,-43.28 156.48,0 491.8,-12.6 632.9,43.28 48.91,19.59 85.22,43.28 122.95,81.02 37.74,37.73 61.52,74.04 81.02,122.95 55.88,141.1 43.27,476.42 43.27,632.9 0,156.49 12.61,491.81 -43.27,632.91 -19.59,48.91 -43.28,85.22 -81.02,122.95 -37.73,37.74 -74.04,61.52 -122.95,81.02 -141.1,55.88 -476.42,43.27 -632.9,43.27 z m 1073.02,-880.23 c 0,-148.08 1.43,-294.82 -6.97,-442.9 -8.41,-171.86 -47.49,-324.14 -173.21,-449.86 -125.72,-125.73 -278,-164.89 -449.86,-173.21 -148.08,-8.4 -294.82,-6.97 -442.9,-6.97 -148.07,0 -294.81,-1.43 -442.89,6.97 -171.86,8.41 -324.14,47.48 -449.86,173.21 -125.73,125.72 -164.89,278 -173.21,449.86 -8.4,148.08 -6.97,294.82 -6.97,442.9 0,148.07 -1.43,294.81 6.97,442.89 8.41,171.86 47.48,324.14 173.21,449.86 125.72,125.73 278,164.89 449.86,173.21 148.08,8.4 294.82,6.97 442.89,6.97 148.08,0 294.82,1.43 442.9,-6.97 171.86,-8.41 324.14,-47.48 449.86,-173.21 125.72,-125.72 164.89,-278 173.21,-449.86 8.4,-148.08 6.97,-294.82 6.97,-442.89"
         style="fill:url(#linearGradient1476);fill-opacity:1;fill-rule:nonzero;stroke:none"
         id="path1478"
         inkscape:label="IG" />
      <path
         d="m 10409.9,4062.79 c -351.7,176.26 -593.35,540.1 -593.35,959.93 0,592.22 480.85,1073.02 1073.05,1073.02 592.2,0 1073,-480.8 1073,-1073.02 0,-592.23 -480.8,-1073.03 -1073,-1073.03 -100.9,0 -198.5,13.94 -291,40 72.4,141.56 111.3,316.61 145.7,496.27 100.2,-60.94 153.8,-124.4 281.8,-134.38 472,-36.57 735.7,471.12 671.2,939.83 -57.2,415.13 -471.5,626.74 -912.9,577.25 -349,-39.19 -696.9,-321.51 -711.4,-724.97 -9.1,-246.49 60.9,-431.41 295.3,-483.32 101.6,179.56 -32.7,218.96 -53.7,349.04 -86.1,532.17 613.8,895.18 979.9,523.45 253.5,-257.31 86.7,-1048.58 -322.1,-966.52 -391.5,78.8 191.7,708.79 -120.9,832.35 -253.9,100.55 -388.9,-307.33 -268.4,-510.11 -54.3,-267.7 -156.6,-523.45 -173.2,-825.79"
         style="fill:#fa0000;fill-opacity:1;fill-rule:evenodd;stroke:none"
         id="path1480"
         inkscape:label="PT" />
      <path
         d="m 10889.6,3250.31 c -1369.59,0 -1393.56,-121.79 -1393.56,-1073.03 0,-951.23 23.97,-1073.02 1393.56,-1073.02 1369.6,0 1393.5,121.79 1393.5,1073.02 0,951.24 -23.9,1073.03 -1393.5,1073.03 z m 446.6,-1119.57 -625.7,-292.09 c -54.7,-25.36 -99.6,3.07 -99.6,63.55 v 550.17 c 0,60.34 44.9,88.91 99.6,63.55 l 625.7,-292.09 c 54.8,-25.64 54.8,-67.45 0,-93.09"
         style="fill:#fa0000;fill-opacity:1;fill-rule:nonzero;stroke:none"
         id="path1482"
         inkscape:label="YT" />
      <path
         d="m 8892.09,1104.26 -489.86,466.53 58.32,-186.61 H 7259.22 c -128.83,0 -233.26,104.44 -233.26,233.26 v 1399.61 c 0,128.83 104.43,233.26 233.26,233.26 h 1399.61 c 128.82,0 233.26,-104.43 233.26,-233.26 z m -933.07,1604.87 c -250.52,0 -425.47,-107.35 -425.47,-107.35 96.23,86.02 263.89,137.05 263.89,137.05 l -16.03,14.58 c -157.46,-2.92 -300.34,-112.26 -300.34,-112.26 -160.37,-335.33 -150.17,-623.99 -150.17,-623.99 131.22,-169.12 325.12,-157.45 325.12,-157.45 l 65.61,84.55 c -116.64,24.78 -189.53,128.3 -189.53,128.3 0,0 174.95,-119.21 426.92,-119.21 251.98,0 426.93,119.21 426.93,119.21 0,0 -72.89,-103.52 -189.52,-128.3 l 65.6,-84.55 c 0,0 193.9,-11.67 325.12,157.45 0,0 10.2,288.66 -150.17,623.99 0,0 -142.88,109.34 -300.34,112.26 l -16.03,-14.58 c 0,0 167.66,-51.03 263.88,-137.05 0,0 -174.95,107.35 -425.47,107.35 z m -193.01,-353.5 c 60.79,0 109.84,-53.31 108.77,-118.36 0,-65.05 -47.98,-118.37 -108.77,-118.37 -59.71,0 -108.77,53.32 -108.77,118.37 0,65.05 47.99,118.36 108.77,118.36 z m 389.22,0 c 60.79,0 108.78,-53.31 108.78,-118.37 0,-65.04 -47.99,-118.36 -108.78,-118.36 -59.72,0 -108.77,53.32 -108.77,118.36 0,65.06 47.99,118.37 108.77,118.37"
         style="fill:#bebebe;fill-opacity:1;fill-rule:nonzero;stroke:none"
         id="path1484"
         inkscape:label="DC-B" />
      <path
         d="m 5790.75,3106.71 c -143.38,67.09 -296.7,115.84 -456.99,143.6 -19.68,-35.59 -42.68,-83.46 -58.54,-121.54 -170.38,25.63 -339.21,25.63 -506.46,0 -15.85,38.08 -39.37,85.95 -59.24,121.54 -160.46,-27.76 -313.95,-76.69 -457.33,-143.96 -289.21,-437.03 -367.61,-863.21 -328.41,-1283.34 191.82,-143.25 377.71,-230.26 560.47,-287.21 45.13,62.11 85.37,128.13 120.04,197.7 -66.03,25.09 -129.27,56.05 -189.03,92 15.85,11.74 31.36,24.02 46.34,36.66 364.48,-170.48 760.49,-170.48 1120.61,0 15.15,-12.64 30.66,-24.92 46.34,-36.66 -59.93,-36.12 -123.35,-67.08 -189.38,-92.18 34.67,-69.39 74.74,-135.59 120.04,-197.69 182.93,56.94 369,143.95 560.82,287.38 46,487.04 -78.57,909.3 -329.28,1283.7 z M 4653.95,2081.38 c -109.42,0 -199.14,102.15 -199.14,226.53 0,124.39 87.81,226.7 199.14,226.7 111.33,0 201.05,-102.14 199.13,-226.7 0.18,-124.38 -87.8,-226.53 -199.13,-226.53 z m 735.91,0 c -109.41,0 -199.13,102.15 -199.13,226.53 0,124.39 87.8,226.7 199.13,226.7 111.33,0 201.06,-102.14 199.14,-226.7 0,-124.38 -87.81,-226.53 -199.14,-226.53"
         style="fill:#5865f2;fill-opacity:1;fill-rule:nonzero;stroke:none"
         id="path1486"
         inkscape:label="DC" />
      <path
         d="m 4885.14,1124.08 c -26.29,13.13 -46.16,30.94 -59.41,53.44 -13.24,22.5 -19.93,47.82 -19.93,75.95 0,28.12 6.88,53.3 20.65,75.47 13.77,22.17 33.97,39.58 60.59,52.24 26.62,12.66 58.42,18.95 95.47,18.95 45.89,0 83.99,-9.84 114.29,-29.53 v -85.79 c -10.69,7.5 -23.15,13.59 -37.38,18.28 -14.23,4.69 -29.44,7.03 -45.7,7.03 -28.46,0 -50.68,-5.29 -66.75,-15.94 -16.07,-10.64 -24.12,-24.51 -24.12,-41.72 0,-16.87 7.79,-30.67 23.4,-41.52 15.61,-10.78 38.23,-16.21 67.93,-16.21 15.28,0 30.36,2.28 45.24,6.77 14.82,4.55 27.61,10.11 38.29,16.67 v -82.97 c -33.63,-20.63 -72.64,-30.94 -117.04,-30.94 -37.37,0.13 -69.24,6.69 -95.53,19.82 z m -324.97,-9.85 c -24.79,6.56 -47.15,16.07 -67.02,28.6 v 77.82 c 15.02,-11.86 35.14,-21.63 60.39,-29.34 25.24,-7.63 49.64,-11.45 73.24,-11.45 11.01,0 19.35,1.48 24.98,4.42 5.64,2.95 8.47,6.5 8.47,10.58 0,4.69 -1.51,8.58 -4.6,11.72 -3.08,3.15 -9.05,5.76 -17.89,7.97 l -55.08,12.66 c -31.54,7.5 -53.91,17.88 -67.21,31.21 -13.31,13.26 -19.94,30.67 -19.94,52.24 0,18.15 5.77,33.88 17.45,47.34 11.6,13.46 28.12,23.85 49.56,31.15 21.45,7.36 46.49,11.05 75.27,11.05 25.71,0 49.25,-2.82 70.7,-8.44 21.43,-5.63 39.14,-12.79 53.24,-21.57 v -73.6 c -14.44,8.77 -30.96,15.67 -49.84,20.9 -18.82,5.15 -38.16,7.7 -58.1,7.7 -28.78,0 -43.14,-5.02 -43.14,-15 0,-4.69 2.23,-8.17 6.69,-10.52 4.46,-2.34 12.65,-4.75 24.52,-7.3 l 45.9,-8.44 c 29.97,-5.29 52.32,-14.6 67.01,-27.85 14.69,-13.27 22.03,-32.89 22.03,-58.87 0,-28.46 -12.12,-51.03 -36.45,-67.78 -24.33,-16.74 -58.82,-25.11 -103.54,-25.11 -26.29,0.07 -51.86,3.35 -76.64,9.91 z m 1569.28,337.06 v -337.53 h -112.46 v 61.41 c -9.51,-23.1 -23.93,-40.71 -43.34,-52.77 -19.41,-11.99 -43.41,-18.01 -71.86,-18.01 -25.44,0 -47.6,6.29 -66.56,18.95 -18.95,12.66 -33.56,30 -43.86,52.04 -10.23,22.03 -15.41,46.94 -15.41,74.8 -0.32,28.73 5.12,54.52 16.33,77.35 11.15,22.84 26.94,40.65 47.27,53.44 20.33,12.8 43.54,19.23 69.57,19.23 53.58,0 89.51,-23.78 107.86,-71.26 v 122.35 z m -918.17,-327.21 c -26.49,13.12 -46.68,31.07 -60.59,53.91 -13.89,22.83 -20.91,48.28 -20.91,76.41 0,28.13 6.95,53.24 20.91,75.27 13.97,22.04 34.03,39.32 60.4,51.84 26.28,12.52 57.69,18.75 94.08,18.75 36.4,0 67.8,-6.23 94.1,-18.75 26.29,-12.52 46.36,-29.67 60.13,-51.57 13.77,-21.9 20.65,-47.01 20.65,-75.47 0,-28.13 -6.88,-53.58 -20.65,-76.42 -13.77,-22.83 -33.91,-40.78 -60.4,-53.91 -26.49,-13.12 -57.76,-19.69 -93.89,-19.69 -36.13,0 -67.41,6.5 -93.83,19.63 z m -880.46,199.3 c 34.36,-15.13 76.98,-15.8 112.12,0 v -211.09 h -112.12 z m 1425.01,59.47 v -101.26 c -11.67,7.84 -26.75,11.72 -45.43,11.72 -24.47,0 -43.35,-7.57 -56.47,-22.7 -13.17,-15.14 -19.73,-38.71 -19.73,-70.59 v -86.26 h -112.45 v 274.25 h 110.16 v -87.2 c 6.09,31.88 16,55.39 29.63,70.59 13.58,15.13 31.14,22.7 52.52,22.7 16.2,0 30.1,-3.75 41.77,-11.25 z m -1841.46,59.07 h 179 c 43.15,0 79.6,-6.9 109.51,-20.63 29.83,-13.73 52.19,-32.88 67.01,-57.39 14.81,-24.51 22.29,-52.57 22.29,-84.18 0,-30.94 -7.74,-59 -23.21,-84.12 -15.48,-25.18 -39.02,-45.07 -70.68,-59.74 -31.67,-14.66 -70.89,-22.03 -117.77,-22.03 h -166.15 z m 1436.37,-234.67 c 11.16,11.39 16.79,26.46 16.79,45.21 0,18.75 -5.58,33.68 -16.79,44.74 -11.14,11.11 -26.36,16.67 -45.63,16.67 -19.61,0 -34.95,-5.56 -46.16,-16.67 -11.15,-11.12 -16.72,-25.99 -16.72,-44.74 0,-18.75 5.57,-33.82 16.72,-45.21 11.15,-11.38 26.55,-17.14 46.16,-17.14 19.27,0.07 34.49,5.76 45.63,17.14 z m 649.47,1.88 c 11.48,11.38 17.18,26.18 17.18,44.27 0,17.48 -5.58,31.74 -16.72,42.66 -11.15,10.91 -26.43,16.4 -45.64,16.4 -18.95,0 -34.09,-5.55 -45.44,-16.67 -11.35,-11.12 -16.98,-25.52 -16.98,-43.33 0,-17.82 5.63,-32.35 16.98,-43.6 11.35,-11.25 26.3,-16.88 44.98,-16.88 18.95,0.07 34.16,5.76 45.64,17.15 z m -1921.53,-11.92 c 29.05,0 51.42,7.43 67.02,22.23 15.61,14.87 23.41,35.1 23.41,60.75 0,23.77 -6.96,42.72 -20.85,56.92 -13.9,14.2 -34.95,21.36 -63.08,21.36 h -56 v -161.26 z m 308.25,161.6 c 30.96,0 56.07,23.03 56.07,51.43 0,28.41 -25.11,51.44 -56.07,51.44 -30.96,0 -56.06,-23.03 -56.06,-51.44 0,-28.4 25.1,-51.43 56.06,-51.43"
         style="fill:#5865f2;fill-opacity:1;fill-rule:nonzero;stroke:none"
         id="path1488"
         inkscape:label="DC-txt" />
      <path
         d="m 1628,2405.15 v 83.67 c -29.03,4.59 -58.36,7.1 -87.76,7.51 -284.57,0.57 -536.44,-183.79 -621.912,-455.15 -85.476,-271.36 15.402,-566.87 248.912,-729.36 -245.021,262.23 -231.041,673.45 31.19,918.48 116.82,109.04 269.81,171.32 429.57,174.85"
         style="fill:#25f4ee;fill-opacity:1;fill-rule:nonzero;stroke:none"
         id="path1490"
         inkscape:label="path1490" />
      <path
         d="m 1643.79,1457.77 c 159.06,0.19 289.8,125.51 296.84,284.48 v 1418.31 h 259.09 c -5.3,29.62 -7.82,59.67 -7.51,89.75 H 1837.84 V 1833.43 c -5.89,-159.73 -137.01,-286.28 -296.84,-286.57 -47.73,0.38 -94.79,12.17 -137.1,34.23 55.6,-77.03 144.88,-122.93 239.89,-123.32 z m 1039.79,1221.59 v 78.82 c -95.36,0 -188.64,28.14 -268.03,80.91 69.58,-80.96 163.71,-137.06 268.03,-159.73"
         style="fill:#25f4ee;fill-opacity:1;fill-rule:nonzero;stroke:none"
         id="path1492" />
      <path
         d="m 2415.65,2839 c -78.25,89.06 -121.4,203.67 -121.33,322.22 h -94.6 c 24.61,-132.46 102.76,-249.1 215.93,-322.22 z m -875.41,-697.13 c -164.29,-0.85 -296.84,-134.73 -295.98,-299.03 0.55,-109.74 61.78,-210.61 158.88,-261.75 -96.13,132.73 -66.46,318.33 66.27,414.55 50.71,36.72 111.76,56.47 174.38,56.38 29.76,-0.38 59.33,-5.04 87.75,-13.79 v 360.64 c -28.99,4.38 -58.37,6.66 -87.75,6.85 H 1628 v -274.21 c -28.62,7.79 -58.19,11.22 -87.76,10.36"
         style="fill:#fe2c55;fill-opacity:1;fill-rule:nonzero;stroke:none"
         id="path1494" />
      <path
         d="m 2683.58,2679.36 v -274.21 c -176.5,0.34 -348.49,56.24 -491.47,159.73 v -720.42 c -0.76,-359.5 -292.37,-650.54 -651.87,-650.54 -133.49,-0.25 -263.82,40.95 -372.9,117.9 244.64,-263.08 656.24,-278.11 919.42,-33.47 132.29,122.97 207.55,295.65 207.56,476.26 v 718.42 c 143.47,-102.76 315.66,-157.92 492.14,-157.64 v 352.94 c -34.61,0.19 -69.03,3.8 -102.88,11.03"
         style="fill:#fe2c55;fill-opacity:1;fill-rule:nonzero;stroke:none"
         id="path1496" />
      <path
         d="m 2192.11,1844.37 v 720.42 c 143.43,-102.85 315.64,-158.02 492.14,-157.65 v 274.21 c -104.27,22.05 -198.59,77.39 -268.7,157.65 -113.1,73.18 -191.24,189.79 -215.93,322.22 H 1940.53 V 1742.25 c -6.75,-164.2 -145.19,-291.8 -309.39,-285.15 -90.95,3.69 -175.35,48.95 -228.76,122.66 -145.38,76.54 -201.19,256.43 -124.65,401.81 51.11,97.12 152,158.36 261.75,158.87 29.76,-0.28 59.33,-4.84 87.76,-13.69 v 278.3 c -358.83,-6.08 -644.83,-306.06 -638.752,-664.89 2.762,-162.45 66.332,-318.11 178.092,-436.04 110.15,-74.41 240.66,-112.97 373.57,-110.39 359.59,0.1 651.2,291.14 651.96,650.64"
         style="display:inline;fill:#ffffff;fill-opacity:1;fill-rule:nonzero;stroke:none"
         id="path1498"
         inkscape:label="path1498" />
    </g>
  </g>
</svg>
