<?xml version="1.0" encoding="UTF-8" standalone="no"?>
<!-- Created with Inkscape (http://www.inkscape.org/) -->

<svg
   width="297mm"
   height="210mm"
   viewBox="0 0 1122.5197 793.70081"
   version="1.1"
   id="svg5"
   inkscape:version="1.2.2 (b0a8486541, 2022-12-01)"
   sodipodi:docname="zonkuburdatu.svg"
   xmlns:inkscape="http://www.inkscape.org/namespaces/inkscape"
   xmlns:sodipodi="http://sodipodi.sourceforge.net/DTD/sodipodi-0.dtd"
   xmlns="http://www.w3.org/2000/svg"
   xmlns:svg="http://www.w3.org/2000/svg">
  <sodipodi:namedview
     id="namedview7"
     pagecolor="#ffffff"
     bordercolor="#000000"
     borderopacity="0.25"
     inkscape:showpageshadow="2"
     inkscape:pageopacity="0.0"
     inkscape:pagecheckerboard="0"
     inkscape:deskcolor="#d1d1d1"
     inkscape:document-units="mm"
     showgrid="false"
     inkscape:zoom="0.35667606"
     inkscape:cx="881.75248"
     inkscape:cy="347.65439"
     inkscape:window-width="1366"
     inkscape:window-height="744"
     inkscape:window-x="0"
     inkscape:window-y="0"
     inkscape:window-maximized="1"
     inkscape:current-layer="layer2" />
  <defs
     id="defs2" />
  <g
     inkscape:label="Layer 1"
     inkscape:groupmode="layer"
     id="layer1">
    <text
       xml:space="preserve"
       style="font-style:normal;font-variant:normal;font-weight:normal;font-stretch:normal;font-size:200px;font-family:amiri;-inkscape-font-specification:amiri;display:none;fill:#fefefe"
       x="709.04474"
       y="160.5831"
       id="text236"><tspan
         sodipodi:role="line"
         id="tspan234"
         x="709.04474"
         y="160.5831"
         style="font-size:200px;text-align:end;text-anchor:end;fill:#030303;fill-opacity:1">زون</tspan><tspan
         sodipodi:role="line"
         x="709.04474"
         y="410.5831"
         style="font-size:200px;text-align:end;text-anchor:end;fill:#030303;fill-opacity:1"
         id="tspan892"> قبور</tspan><tspan
         sodipodi:role="line"
         x="709.04474"
         y="660.58313"
         style="font-size:200px;text-align:end;text-anchor:end;fill:#030303;fill-opacity:1"
         id="tspan894"> داتو</tspan></text>
    <g
       aria-label="زون
 قبور
 داتو"
       id="text1812"
       style="font-size:200px;font-family:amiri;-inkscape-font-specification:amiri;fill:#fefefe" />
  </g>
  <g
     inkscape:groupmode="layer"
     id="layer2"
     inkscape:label="datu"
     transform="translate(0,76.905398)">
    <path
       d="m 435.1626,362.20615 q 2.76397,-8.63739 5.18243,-13.81982 2.76397,-5.52792 4.83694,-7.9464 3.10946,-3.45495 7.94639,-0.69098 45.60539,25.22116 53.55179,68.06259 2.07297,11.74684 1.72747,22.4572 -0.34549,10.71035 -3.45495,19.69324 -2.07297,5.18243 -7.25541,8.29189 -16.23828,8.63738 -34.54953,12.78333 -18.31126,4.14594 -38.00449,4.49143 -27.63963,0.69099 -19.34775,-35.24052 1.03649,-3.80046 4.14594,-4.49145 2.41848,0 5.18244,2.41848 6.90991,5.52792 25.91216,3.10945 41.45944,-5.18243 54.93376,-13.12883 1.03649,-0.69098 0.69099,-4.14594 -6.21892,-34.54953 -56.31575,-53.89728 -6.90991,-2.76396 -5.18243,-7.94639 z"
       style="font-size:200px;font-family:amiri;-inkscape-font-specification:amiri;text-align:end;text-anchor:end;fill:#030303;stroke-width:1.72748"
       id="path1828"
       inkscape:label="d" />
    <path
       d="m 332.20462,241.97375 q 7.2554,-16.92927 9.32837,-0.69099 l 7.94639,84.64637 q 13.12882,114.35898 -3.10946,145.10807 -2.41846,4.14594 -3.80044,2.07297 -1.38199,-1.72748 -1.38199,-5.87343 0.69099,-29.0216 -4.14594,-65.29863 0,-1.38198 -7.25541,-65.64412 l -7.6009,-62.53466 q -0.69098,-6.90991 1.38199,-11.74685 z"
       style="font-size:200px;font-family:amiri;-inkscape-font-specification:amiri;text-align:end;text-anchor:end;fill:#030303;stroke-width:1.72748"
       id="path1830"
       inkscape:label="a" />
    <path
       d="m 256.54095,400.55613 9.67387,-21.42071 q 2.76397,-6.21892 6.21892,-0.34549 6.90991,12.78333 8.29189,27.98512 1.38198,14.8563 -3.10946,32.82206 -8.29189,33.85855 -41.80494,33.85855 -3.45496,0 -7.2554,-17.62027 -1.72748,-8.98287 1.72747,-12.09233 2.07297,-1.72748 5.52793,-1.38198 20.38423,1.03648 30.74909,-11.05586 0.69099,-0.69099 0,-2.41846 -2.07297,-9.67387 -9.32838,-20.03874 -2.76396,-3.80045 -0.69099,-8.29189 z m 19.69324,-89.8288 q 0.69099,-1.03649 2.76396,-0.69098 6.90991,2.41846 12.78333,5.87341 6.21892,3.45496 11.74684,8.29189 1.38199,1.38198 0.3455,3.10946 l -16.58378,26.25765 q -0.69099,1.03649 -3.10946,-0.69099 -1.03649,-1.03649 -5.87342,-3.80045 -4.83694,-3.10945 -13.81981,-8.29188 l -13.12883,20.38422 q -1.03649,1.72748 -3.45495,-0.34549 -1.38198,-1.03649 -7.25541,-4.83694 -5.87342,-3.80045 -16.92927,-10.36486 -1.38198,-1.03649 -0.34549,-2.07298 l 16.92927,-25.22116 q 0.69098,-1.03648 2.76396,-0.69099 5.87342,1.72748 11.05586,4.83693 5.18243,2.76397 9.67386,6.56442 z"
       style="font-size:200px;font-family:amiri;-inkscape-font-specification:amiri;text-align:end;text-anchor:end;fill:#030303;stroke-width:1.72748"
       id="path1832"
       inkscape:label="t" />
    <path
       d="m 228.90154,477.25611 q -10.71035,61.49818 -65.29862,86.02836 -6.90991,3.10945 -13.47432,4.83692 -6.56441,2.07298 -12.43784,2.41847 -12.43783,0.69099 -44.223402,-21.07521 -3.800446,-2.76397 -2.418472,-5.18243 1.381983,-2.41847 4.836936,-0.691 28.676118,14.85631 72.208538,-10.01936 36.96801,-21.07522 50.44232,-58.38872 0,-1.38199 -1.03649,-1.72748 -25.56664,-0.69099 -36.968,-6.90991 -12.09234,-6.9099 -8.98288,-26.94864 0.3455,-2.41846 1.03649,-4.83694 0.69099,-2.76395 1.72748,-5.87341 7.2554,-21.42071 21.42071,-29.36711 14.16531,-7.94639 23.83918,5.52792 10.01937,13.81982 11.40135,37.31351 1.38197,0 2.41846,0 1.38199,-0.3455 2.76397,-0.3455 5.18243,0 6.21892,7.9464 1.03648,7.60089 -1.03649,15.54728 -2.07297,7.9464 -5.18243,7.9464 h -6.56441 q 0,1.03649 -0.691,3.80045 z m -16.58377,-38.69548 q -6.90991,-14.51081 -16.58378,-14.16531 -5.87342,1.03649 -9.32838,5.52792 -1.72747,2.07298 0.691,4.83693 5.52792,7.25541 23.83918,6.56442 2.07297,0 1.38198,-2.76396 z"
       style="font-size:200px;font-family:amiri;-inkscape-font-specification:amiri;text-align:end;text-anchor:end;fill:#030303;stroke-width:1.72748"
       id="path1834"
       inkscape:label="u" />
  </g>
  <g
     inkscape:groupmode="layer"
     id="layer3"
     inkscape:label="kubur"
     transform="translate(313.06831,326.9054)">
    <path
       d="m 678.25716,82.14805 q 4.49139,0 11.05583,5.527931 31.0946,26.948639 29.36713,68.408079 -1.03653,21.76621 -10.7104,34.54954 -25.5666,32.82206 -69.44457,32.82206 -4.49138,0 -6.56436,-7.94639 -1.03653,-3.80045 -0.69102,-7.94639 0,-4.14595 0.69102,-7.6009 1.38195,-6.90991 6.56436,-7.6009 43.18695,-3.10946 64.95318,-24.87567 -1.03653,-10.71036 -3.10951,-13.47432 -2.4184,-3.80045 -4.14595,-3.10946 -1.38196,0.3455 -1.72747,1.38199 -5.87343,15.20179 -17.9657,17.96576 -38.00455,8.29188 -34.89504,-29.36711 1.38196,-17.96576 13.81983,-38.69548 11.74685,-20.03874 22.80267,-20.03874 z m -11.40133,37.3135 q -7.6009,0.3455 -9.32837,13.47433 0,2.07296 0.34543,2.07296 6.90996,2.07297 14.16534,1.03649 6.90987,-1.03649 9.32836,-4.49144 -7.9464,-12.78333 -14.51076,-12.09234 z M 689.31299,1.6476284 q 0.69102,-1.03648593 2.764,-0.69099063 6.90988,2.41846783 12.7833,5.87342103 6.21893,3.4549552 11.74685,8.2918902 1.38196,1.381982 0.34551,3.109459 l -16.58383,26.257646 q -0.69093,1.036489 -3.10942,-0.690987 -1.03653,-1.036489 -5.87343,-3.800446 -4.83697,-3.10946 -13.81983,-8.291897 l -13.1288,20.384231 q -1.03653,1.727477 -3.45494,-0.345493 -1.38204,-1.03649 -7.25546,-4.836936 -5.87335,-3.800454 -16.92926,-10.364867 -1.38196,-1.03648 -0.34551,-2.07297 L 653.38151,9.2485268 q 0.69094,-1.036486 2.76391,-0.69099 5.87343,1.7274772 11.05592,4.8369352 5.1824,2.763963 9.67387,6.564411 z"
       style="font-size:200px;font-family:amiri;-inkscape-font-specification:amiri;text-align:end;text-anchor:end;fill:#030303;stroke-width:1.72748"
       id="path1820"
       inkscape:label="k" />
    <path
       d="m 638.5254,192.36108 q 6.21893,1.72747 6.56436,3.80045 0.69102,2.76396 0,8.29189 -2.41841,19.00224 -6.56436,19.00224 -18.65673,0 -37.31353,-21.07522 -15.89281,19.00225 -46.9874,21.07522 -3.45493,0 -4.49138,-5.18243 l -2.764,-14.51081 q -1.03645,-3.10946 1.38204,-7.2554 2.0729,-3.45495 5.87334,-4.14594 38.00455,-3.10946 51.13336,-22.8027 1.72746,-2.76396 4.83697,-2.76396 3.10943,0 3.10943,3.10945 0,2.76397 0.69102,4.14595 11.40134,15.5473 24.53015,18.31126 z m -45.95087,69.79006 q 0.69094,-1.03648 2.76392,-0.69098 13.81982,4.83693 24.53022,14.5108 1.38196,1.38199 0.34543,2.76396 l -16.23823,26.25766 q -1.03653,1.72747 -3.45494,-0.3455 -1.38204,-1.03649 -7.25546,-4.83694 -5.87343,-3.80045 -16.92926,-10.36486 -1.72747,-1.03649 -0.69102,-2.07297 z"
       style="font-size:200px;font-family:amiri;-inkscape-font-specification:amiri;text-align:end;text-anchor:end;fill:#030303;stroke-width:1.72748"
       id="path1822"
       inkscape:label="b" />
    <path
       d="m 547.31485,227.25611 q -10.71041,61.49818 -65.29861,86.02836 -6.90995,3.10945 -13.47436,4.83693 -6.56441,2.07297 -12.43783,2.41846 -12.43784,0.691 -44.22342,-21.07521 -3.80044,-2.76396 -2.41846,-5.18243 1.38198,-2.41847 4.83694,-0.69099 28.67611,14.8563 72.20851,-10.01937 36.96802,-21.07522 50.44234,-58.38872 0,-1.38198 -1.03645,-1.72748 -25.56668,-0.69099 -36.96802,-6.90991 -12.09236,-6.9099 -8.98293,-26.94863 0.34551,-2.41847 1.03653,-4.83694 0.69102,-2.76396 1.72747,-5.87342 7.25538,-21.42071 21.42072,-29.36711 14.16533,-7.94639 23.83921,5.52792 10.01929,13.81982 11.40133,37.31351 1.38196,0 2.41841,0 1.38204,-0.3455 2.764,-0.3455 5.1824,0 6.21893,7.9464 1.03645,7.6009 -1.03653,15.54729 -2.07297,7.94639 -5.1824,7.94639 h -6.56445 q 0,1.03649 -0.69093,3.80045 z m -16.58383,-38.69548 q -6.90987,-14.51081 -16.58374,-14.16531 -5.87343,1.03648 -9.32836,5.52793 -1.72747,2.07297 0.69093,4.83693 5.528,7.2554 23.83921,6.56441 2.07298,0 1.38196,-2.76396 z"
       style="font-size:200px;font-family:amiri;-inkscape-font-specification:amiri;text-align:end;text-anchor:end;fill:#030303;stroke-width:1.72748"
       id="path1824"
       inkscape:label="u" />
    <path
       d="m 382.16798,127.06245 q 0.3455,-1.38198 1.03648,-1.72747 1.72748,-0.69099 5.18244,2.76396 13.47432,13.81981 20.03873,36.96801 6.90991,23.83917 4.83694,46.29637 -4.14595,30.4036 -24.18468,55.97025 -20.03873,25.91216 -52.5153,34.20405 -8.29189,2.41847 -16.58377,-0.3455 -20.03874,-6.9099 -32.47657,-12.09233 -12.78333,-4.83694 -17.62027,-7.9464 Q 268.5,280.1169 268.5,279.08042 q 0,-1.38198 1.03648,-2.41847 1.03649,-1.03648 3.10946,-0.34549 12.09234,3.45495 22.11171,4.49144 10.01936,1.38198 18.65675,0.34549 8.63739,-1.03649 18.31126,-5.18243 10.01936,-3.80045 21.07522,-11.05585 32.82206,-21.07522 48.02385,-49.75134 1.38198,-2.07297 0.691,-5.52792 -5.18244,-18.31126 -26.94865,-45.2599 -1.03649,-1.72748 -0.69099,-2.76396 z"
       style="font-size:200px;font-family:amiri;-inkscape-font-specification:amiri;text-align:end;text-anchor:end;fill:#030303;stroke-width:1.72748"
       id="path1826"
       inkscape:label="r" />
  </g>
  <g
     inkscape:groupmode="layer"
     id="layer4"
     inkscape:label="zon">
    <path
       d="m 693.01359,146.49492 q 0.24792,-0.99166 0.74375,-1.23957 1.23957,-0.49583 3.71872,1.98331 9.66866,9.91659 14.37904,26.52687 4.95829,17.1061 3.4708,33.22055 -2.97497,21.81648 -17.35402,40.16216 -14.37904,18.59359 -37.68301,24.54354 -5.94995,1.7354 -11.8999,-0.24792 -14.37904,-4.95829 -23.30397,-8.67701 -9.17284,-3.4708 -12.64364,-5.70203 -0.99166,-0.74374 -0.99166,-1.48749 0,-0.99166 0.74375,-1.7354 0.74374,-0.74374 2.23123,-0.24791 8.67701,2.47914 15.86653,3.22289 7.18952,0.99165 13.38739,0.24791 6.19786,-0.74374 13.13947,-3.71872 7.18952,-2.72706 15.12279,-7.93326 23.55188,-15.12279 34.46012,-35.6997 0.99166,-1.48749 0.49583,-3.96663 -3.71872,-13.13948 -19.33734,-32.47681 -0.74374,-1.23957 -0.49583,-1.98332 z M 667.72631,69.393492 q 0.49583,-0.743744 1.98331,-0.495829 9.91659,3.470803 17.60194,10.412411 0.99166,0.991658 0.24791,1.983317 L 675.90749,100.1349 q -0.74375,1.23957 -2.47915,-0.247917 -0.99166,-0.743744 -5.2062,-3.470804 -4.21455,-2.72706 -12.14782,-7.437437 -1.23957,-0.743744 -0.49583,-1.487487 z"
       style="font-size:200px;font-family:amiri;-inkscape-font-specification:amiri;text-align:end;text-anchor:end;fill:#030303;stroke-width:1.23957"
       id="path1814"
       inkscape:label="z" />
    <path
       d="m 574.75842,167.56766 q 8.67701,-24.04771 20.329,-23.7998 7.18952,0 13.38738,9.91658 3.22289,4.95829 4.95829,10.41241 1.73541,5.45413 2.72706,11.65199 1.98332,12.39573 -3.71871,34.46013 -5.70204,22.06439 -21.81649,40.41007 -16.36236,18.59359 -26.03103,19.58525 -9.91658,0.99166 -26.27894,-1.48749 -8.18118,-1.23957 -13.88321,-2.97497 -5.94995,-1.48749 -9.66867,-2.97498 -2.72706,-1.23957 -2.47915,-2.97497 0.49583,-1.98332 3.22289,-1.48749 19.33734,2.72706 36.93927,-1.48748 5.20621,-1.23958 12.64364,-6.19787 7.68536,-4.95829 17.60194,-13.6353 9.91658,-8.67701 15.86653,-15.86653 5.94995,-7.18952 7.68535,-13.13947 -1.23957,-10.41241 -2.97497,-11.40407 -9.42076,14.62696 -24.04772,7.18952 -14.62696,-7.43744 -4.46246,-36.19553 z m 22.56023,9.17284 q -7.18953,-11.65199 -15.37071,-0.99166 6.19787,6.94161 15.37071,0.99166 z"
       style="font-size:200px;font-family:amiri;-inkscape-font-specification:amiri;text-align:end;text-anchor:end;fill:#030303;stroke-width:1.23957"
       id="path1816"
       inkscape:label="o" />
    <path
       d="m 499.64019,101.62238 q 4.21454,8.18118 7.93326,17.84985 3.71872,9.66867 6.44578,21.32066 2.72706,11.40407 3.22289,22.56022 0.49583,10.90825 -1.23957,21.81649 -1.98332,11.8999 -7.43744,20.32899 -14.37904,22.56023 -50.32666,26.03103 -25.5352,2.47915 -39.1705,-10.1645 -13.13947,-12.64364 -12.14781,-34.70804 1.23957,-22.56023 15.12279,-41.64965 1.98331,-2.72706 3.71872,-1.48748 2.23123,1.23957 -0.24792,4.95829 -15.3707,25.78312 -5.94995,41.89756 9.17284,15.86653 37.4351,15.86653 32.97264,-0.49582 52.30997,-21.56856 0.49583,-0.49583 0.49583,-2.23123 0.24792,-11.40407 -7.18952,-30.98933 -3.71872,-9.66867 -6.94161,-16.61027 -3.22289,-7.18953 -6.19786,-11.40407 -1.7354,-2.47915 -0.99166,-4.21455 l 7.43744,-18.34568 q 1.23957,-2.974974 3.71872,0.74374 z M 453.77599,64.4352 q 0.49583,-0.743743 1.98332,-0.495829 9.91658,3.470804 17.60193,10.412412 0.99166,0.991658 0.24792,1.983316 l -11.65199,18.841507 q -0.74374,1.239573 -2.47914,-0.247914 -0.99166,-0.743744 -5.20621,-3.470804 -4.21455,-2.72706 -12.14781,-7.437437 -1.23958,-0.743744 -0.49583,-1.487487 z"
       style="font-size:200px;font-family:amiri;-inkscape-font-specification:amiri;text-align:end;text-anchor:end;fill:#030303;stroke-width:1.23957"
       id="path1818"
       inkscape:label="n" />
  </g>
</svg>
