<?xml version="1.0" encoding="UTF-8" standalone="no"?>
<!-- Created with Inkscape (http://www.inkscape.org/) -->

<svg
   sodipodi:docname="businesscard.svg"
   inkscape:version="1.2.2 (b0a8486541, 2022-12-01)"
   id="svg4914"
   version="1.1"
   viewBox="0 0 88.9 50.8"
   height="192"
   width="336"
   xmlns:inkscape="http://www.inkscape.org/namespaces/inkscape"
   xmlns:sodipodi="http://sodipodi.sourceforge.net/DTD/sodipodi-0.dtd"
   xmlns="http://www.w3.org/2000/svg"
   xmlns:svg="http://www.w3.org/2000/svg">
  <sodipodi:namedview
     id="namedview4916"
     pagecolor="#505050"
     bordercolor="#eeeeee"
     borderopacity="1"
     inkscape:showpageshadow="0"
     inkscape:pageopacity="0"
     inkscape:pagecheckerboard="0"
     inkscape:deskcolor="#505050"
     inkscape:document-units="px"
     showgrid="false"
     inkscape:zoom="1.3304083"
     inkscape:cx="101.47261"
     inkscape:cy="83.433033"
     inkscape:window-width="1366"
     inkscape:window-height="713"
     inkscape:window-x="0"
     inkscape:window-y="31"
     inkscape:window-maximized="1"
     inkscape:current-layer="layer7" />
  <defs
     id="defs4911" />
  <g
     inkscape:label="Layer 1"
     inkscape:groupmode="layer"
     id="layer1" />
  <g
     inkscape:groupmode="layer"
     id="layer3"
     inkscape:label="back"
     style="display:none">
    <g
       inkscape:groupmode="layer"
       id="layer5"
       inkscape:label="@darwishzainstd">
      <text
         xml:space="preserve"
         style="font-size:5.29167px;font-family:'Comic Neue';-inkscape-font-specification:'Comic Neue';fill:#ffffff;fill-opacity:1;stroke:#000000;stroke-width:0.131173;stroke-dasharray:none"
         x="28.111464"
         y="42.746532"
         id="text6388"
         inkscape:label="darwishzainstd"><tspan
           sodipodi:role="line"
           id="tspan6386"
           style="font-style:normal;font-variant:normal;font-weight:normal;font-stretch:normal;font-size:5.29167px;font-family:'Nova Square';-inkscape-font-specification:'Nova Square';fill:#ffffff;fill-opacity:1;stroke:none;stroke-width:0.131173"
           x="28.111464"
           y="42.746532">darwishzainstd</tspan></text>
      <text
         xml:space="preserve"
         style="font-style:normal;font-variant:normal;font-weight:normal;font-stretch:normal;font-size:5.29167px;font-family:'Comic Neue';-inkscape-font-specification:'Comic Neue';fill:#ffffff;fill-opacity:1;stroke:none;stroke-width:0.131173;stroke-dasharray:none"
         x="23.921741"
         y="42.320717"
         id="text6512"
         inkscape:label="@"><tspan
           sodipodi:role="line"
           id="tspan6510"
           style="font-style:normal;font-variant:normal;font-weight:normal;font-stretch:normal;font-family:'Comic Neue';-inkscape-font-specification:'Comic Neue';stroke-width:0.131173"
           x="23.921741"
           y="42.320717">@</tspan></text>
    </g>
    <g
       inkscape:groupmode="layer"
       id="layer6"
       inkscape:label="outline">
      <path
         style="display:inline;fill:none;fill-opacity:1;stroke:#fffffd;stroke-width:0.131173;stroke-dasharray:none;stroke-dashoffset:0;stroke-opacity:1"
         d="M 44.48299,38.582313 V 12.12398 h -6.614584 z"
         id="path4861"
         sodipodi:nodetypes="cccc"
         inkscape:label="DF0024"
         inkscape:export-filename="./output/darwishzainstd-outlinelight.png"
         inkscape:export-xdpi="96"
         inkscape:export-ydpi="96" />
      <path
         style="display:inline;fill:none;fill-opacity:1;stroke:#fffffd;stroke-width:0.131173;stroke-dasharray:none;stroke-dashoffset:0;stroke-opacity:1"
         d="M 57.712156,25.353147 V 38.582313 H 44.48299 Z"
         id="path4863"
         sodipodi:nodetypes="cccc"
         inkscape:label="2E6DB4" />
      <path
         style="display:inline;fill:none;fill-opacity:1;stroke:#fffffd;stroke-width:0.131173;stroke-dasharray:none;stroke-dashoffset:0;stroke-opacity:1"
         d="M 41.837156,27.99898 31.253823,38.582313 H 44.48299 Z"
         id="path4865"
         sodipodi:nodetypes="cccc"
         inkscape:label="F3C300" />
      <path
         style="display:inline;fill:none;fill-opacity:1;stroke:#fffffd;stroke-width:0.131173;stroke-dasharray:none;stroke-dashoffset:0;stroke-opacity:1"
         d="M 44.48299,25.353147 V 38.582313 L 57.646569,25.30677 Z"
         id="path4867"
         sodipodi:nodetypes="cccc"
         inkscape:label="00AC9F" />
    </g>
  </g>
  <g
     inkscape:groupmode="layer"
     id="layer4"
     inkscape:label="front">
    <g
       inkscape:groupmode="layer"
       id="layer7"
       inkscape:label="darwishzainstd@jeli.com.my"
       transform="translate(0,-2.1166667)">
      <text
         xml:space="preserve"
         style="font-style:normal;font-variant:normal;font-weight:normal;font-stretch:normal;font-size:5.29167px;font-family:'Nova Square';-inkscape-font-specification:'Nova Square';fill:#000000;fill-opacity:0;stroke:none;stroke-width:0.131173;stroke-dasharray:none"
         x="50.544216"
         y="11.527911"
         id="text8134"
         inkscape:label="jeli.com.my"><tspan
           sodipodi:role="line"
           id="tspan8132"
           style="font-style:normal;font-variant:normal;font-weight:normal;font-stretch:normal;font-family:'Nova Square';-inkscape-font-specification:'Nova Square';fill:#000000;fill-opacity:1;stroke-width:0.131173"
           x="50.544216"
           y="11.527911">jeli.com.my</tspan></text>
      <text
         xml:space="preserve"
         style="font-style:normal;font-variant:normal;font-weight:normal;font-stretch:normal;font-size:5.29167px;font-family:'Comic Neue';-inkscape-font-specification:'Comic Neue';fill:#000000;fill-opacity:1;stroke:none;stroke-width:0.131173;stroke-dasharray:none"
         x="46.49609"
         y="11.609933"
         id="text8138"
         inkscape:label="@"><tspan
           sodipodi:role="line"
           id="tspan8136"
           style="stroke-width:0.131173"
           x="46.49609"
           y="11.609933">@</tspan></text>
      <text
         xml:space="preserve"
         style="font-style:normal;font-variant:normal;font-weight:normal;font-stretch:normal;font-size:5.29167px;font-family:'Nova Square';-inkscape-font-specification:'Nova Square';fill:#ffffff;fill-opacity:1;stroke:none;stroke-width:0.131173;stroke-dasharray:none"
         x="9.8303766"
         y="12.038557"
         id="text6927"
         inkscape:label="darwishzainstd"><tspan
           sodipodi:role="line"
           id="tspan6925"
           style="font-style:normal;font-variant:normal;font-weight:normal;font-stretch:normal;font-family:'Nova Square';-inkscape-font-specification:'Nova Square';fill:#000000;fill-opacity:1;stroke-width:0.131173"
           x="9.8303766"
           y="12.038557">darwishzainstd</tspan></text>
      <g
         inkscape:label="QR Code: https://jeli.com.my"
         transform="matrix(0.11764315,0,0,0.11764315,60.880264,23.25568)"
         id="g1215">
        <rect
           x="0"
           y="0"
           width="148"
           height="148"
           style="fill:#ffffff;stroke:none"
           id="rect1209" />
        <g
           style="fill:#000000;stroke:none"
           id="g1213">
          <path
             d="m 127.6,132 h -3.2 c -0.22091,0 -0.4,-0.17909 -0.4,-0.4 v -7.2 c 0,-0.22091 0.17909,-0.4 0.4,-0.4 h 3.6 v 7.6 c 0,0.22091 -0.17909,0.4 -0.4,0.4 z m -16,0 h -7.2 c -0.22091,0 -0.4,-0.17909 -0.4,-0.4 v -7.2 c 0,-0.22091 0.17909,-0.4 0.4,-0.4 h 3.6 v 3.6 c 0,0.22091 0.17909,0.4 0.4,0.4 h 3.6 v 3.6 c 0,0.22091 -0.17909,0.4 -0.4,0.4 z m -16,0 h -7.2 c -0.220914,0 -0.4,-0.17909 -0.4,-0.4 v -3.2 c 0,-0.22091 -0.179086,-0.4 -0.4,-0.4 h -7.2 c -0.220914,0 -0.4,0.17909 -0.4,0.4 v 3.2 c 0,0.22091 -0.179086,0.4 -0.4,0.4 h -7.2 c -0.220914,0 -0.4,-0.17909 -0.4,-0.4 v -3.2 c 0,-0.22091 -0.179086,-0.4 -0.4,-0.4 h -3.2 c -0.220914,0 -0.4,-0.17909 -0.4,-0.4 v -3.2 C 68,124.17909 67.820914,124 67.6,124 H 64 v -4 h 3.6 c 0.220914,0 0.4,-0.17909 0.4,-0.4 v -3.2 c 0,-0.22091 0.179086,-0.4 0.4,-0.4 h 3.2 c 0.220914,0 0.4,-0.17909 0.4,-0.4 V 108 h 11.6 c 0.220914,0 0.4,-0.17909 0.4,-0.4 v -3.2 C 84,104.17909 83.820914,104 83.6,104 H 72 v -3.6 c 0,-0.22091 0.179086,-0.4 0.4,-0.4 h 3.2 c 0.220914,0 0.4,-0.179086 0.4,-0.4 V 96.4 C 76,96.179086 76.179086,96 76.4,96 h 3.2 c 0.220914,0 0.4,0.179086 0.4,0.4 v 3.2 c 0,0.220914 0.179086,0.4 0.4,0.4 h 3.2 c 0.220914,0 0.4,-0.179086 0.4,-0.4 V 88 h 3.6 C 87.820914,88 88,87.820914 88,87.6 V 84.4 C 88,84.179086 88.179086,84 88.4,84 h 3.2 C 91.820914,84 92,83.820914 92,83.6 V 80.4 C 92,80.179086 91.820914,80 91.6,80 H 76.4 C 76.179086,80 76,80.179086 76,80.4 v 3.2 c 0,0.220914 0.179086,0.4 0.4,0.4 h 7.2 c 0.220914,0 0.4,0.179086 0.4,0.4 V 88 H 80.4 C 80.179086,88 80,88.179086 80,88.4 v 3.2 C 80,91.820914 79.820914,92 79.6,92 H 72 V 84.4 C 72,84.179086 71.820914,84 71.6,84 H 60.4 C 60.179086,84 60,83.820914 60,83.6 V 80.4 C 60,80.179086 60.179086,80 60.4,80 h 3.2 C 63.820914,80 64,79.820914 64,79.6 V 68.4 C 64,68.179086 64.179086,68 64.4,68 h 3.2 C 67.820914,68 68,67.820914 68,67.6 V 64.4 C 68,64.179086 67.820914,64 67.6,64 H 56.4 C 56.179086,64 56,63.820914 56,63.6 V 60.4 C 56,60.179086 55.820914,60 55.6,60 H 52.4 C 52.179086,60 52,59.820914 52,59.6 V 56.4 C 52,56.179086 51.820914,56 51.6,56 H 48.4 C 48.179086,56 48,56.179086 48,56.4 v 3.2 C 48,59.820914 47.820914,60 47.6,60 H 40 v -4 h 3.6 C 43.820914,56 44,55.820914 44,55.6 V 52.4 C 44,52.179086 43.820914,52 43.6,52 H 40 V 48.4 C 40,48.179086 40.179086,48 40.4,48 h 7.2 C 47.820914,48 48,47.820914 48,47.6 V 40.4 C 48,40.179086 48.179086,40 48.4,40 h 3.2 c 0.220914,0 0.4,0.179086 0.4,0.4 v 7.2 c 0,0.220914 0.179086,0.4 0.4,0.4 H 56 v 7.6 c 0,0.220914 0.179086,0.4 0.4,0.4 h 3.2 c 0.220914,0 0.4,0.179086 0.4,0.4 v 3.2 c 0,0.220914 0.179086,0.4 0.4,0.4 h 3.2 C 63.820914,60 64,59.820914 64,59.6 V 56.4 C 64,56.179086 64.179086,56 64.4,56 H 72 v 3.6 c 0,0.220914 0.179086,0.4 0.4,0.4 H 76 v 4 H 72.4 C 72.179086,64 72,64.179086 72,64.4 v 11.2 c 0,0.220914 0.179086,0.4 0.4,0.4 h 3.2 C 75.820914,76 76,75.820914 76,75.6 V 72.4 C 76,72.179086 76.179086,72 76.4,72 h 3.2 C 79.820914,72 80,71.820914 80,71.6 V 68 h 3.6 C 83.820914,68 84,67.820914 84,67.6 V 64.4 C 84,64.179086 84.179086,64 84.4,64 h 3.2 C 87.820914,64 88,63.820914 88,63.6 V 56.4 C 88,56.179086 87.820914,56 87.6,56 H 84.4 C 84.179086,56 84,56.179086 84,56.4 v 3.2 C 84,59.820914 83.820914,60 83.6,60 H 76 V 56.4 C 76,56.179086 75.820914,56 75.6,56 H 72 V 52 H 87.6 C 87.820914,52 88,51.820914 88,51.6 V 48.4 C 88,48.179086 88.179086,48 88.4,48 h 7.2 c 0.220914,0 0.4,0.179086 0.4,0.4 V 52 H 92.4 C 92.179086,52 92,52.179086 92,52.4 v 3.2 c 0,0.220914 0.179086,0.4 0.4,0.4 h 3.2 C 95.820914,56 96,55.820914 96,55.6 V 52 h 4 V 64 H 96 V 60.4 C 96,60.179086 95.820914,60 95.6,60 H 92.4 C 92.179086,60 92,60.179086 92,60.4 v 3.2 c 0,0.220914 0.179086,0.4 0.4,0.4 H 96 V 88 H 92.4 C 92.179086,88 92,88.179086 92,88.4 v 3.2 C 92,91.820914 91.820914,92 91.6,92 H 88.4 C 88.179086,92 88,92.179086 88,92.4 v 3.2 c 0,0.220914 0.179086,0.4 0.4,0.4 h 7.2 C 95.820914,96 96,95.820914 96,95.6 V 88 h 3.6 c 0.220914,0 0.4,0.179086 0.4,0.4 v 3.2 c 0,0.220914 0.17909,0.4 0.4,0.4 h 3.2 c 0.22091,0 0.4,-0.179086 0.4,-0.4 v -7.2 c 0,-0.220914 0.17909,-0.4 0.4,-0.4 h 3.2 c 0.22091,0 0.4,-0.179086 0.4,-0.4 v -3.2 c 0,-0.220914 0.17909,-0.4 0.4,-0.4 h 3.2 c 0.22091,0 0.4,-0.179086 0.4,-0.4 v -3.2 c 0,-0.220914 -0.17909,-0.4 -0.4,-0.4 h -3.2 c -0.22091,0 -0.4,-0.179086 -0.4,-0.4 v -3.2 c 0,-0.220914 -0.17909,-0.4 -0.4,-0.4 h -3.2 C 104.17909,72 104,71.820914 104,71.6 V 68 h 3.6 c 0.22091,0 0.4,-0.179086 0.4,-0.4 V 60 h 8 v 3.6 c 0,0.220914 -0.17909,0.4 -0.4,0.4 h -3.2 c -0.22091,0 -0.4,0.179086 -0.4,0.4 v 7.2 c 0,0.220914 0.17909,0.4 0.4,0.4 h 3.2 c 0.22091,0 0.4,-0.179086 0.4,-0.4 v -3.2 c 0,-0.220914 0.17909,-0.4 0.4,-0.4 h 3.2 c 0.22091,0 0.4,-0.179086 0.4,-0.4 v -3.2 c 0,-0.220914 0.17909,-0.4 0.4,-0.4 h 7.2 c 0.22091,0 0.4,-0.179086 0.4,-0.4 V 60 h 3.6 c 0.22091,0 0.4,0.179086 0.4,0.4 v 23.2 c 0,0.220914 -0.17909,0.4 -0.4,0.4 H 124 V 72 h 3.6 c 0.22091,0 0.4,-0.179086 0.4,-0.4 v -3.2 c 0,-0.220914 -0.17909,-0.4 -0.4,-0.4 h -3.2 c -0.22091,0 -0.4,0.179086 -0.4,0.4 V 72 h -3.6 c -0.22091,0 -0.4,0.179086 -0.4,0.4 V 84 h -7.6 c -0.22091,0 -0.4,0.179086 -0.4,0.4 v 3.2 c 0,0.220914 -0.17909,0.4 -0.4,0.4 h -3.2 c -0.22091,0 -0.4,0.179086 -0.4,0.4 v 7.2 c 0,0.220914 0.17909,0.4 0.4,0.4 h 3.2 c 0.22091,0 0.4,-0.179086 0.4,-0.4 v -3.2 c 0,-0.220914 0.17909,-0.4 0.4,-0.4 h 3.2 c 0.22091,0 0.4,-0.179086 0.4,-0.4 v -3.2 c 0,-0.220914 0.17909,-0.4 0.4,-0.4 h 3.2 c 0.22091,0 0.4,-0.179086 0.4,-0.4 V 84 h 4 v 7.6 c 0,0.220914 0.17909,0.4 0.4,0.4 h 7.2 c 0.22091,0 0.4,0.179086 0.4,0.4 v 11.2 c 0,0.22091 -0.17909,0.4 -0.4,0.4 H 124 v -4 h 3.6 c 0.22091,0 0.4,-0.179086 0.4,-0.4 v -3.2 c 0,-0.220914 -0.17909,-0.4 -0.4,-0.4 h -3.2 c -0.22091,0 -0.4,0.179086 -0.4,0.4 v 3.6 h -3.6 c -0.22091,0 -0.4,0.17909 -0.4,0.4 v 3.6 h -3.6 c -0.22091,0 -0.4,0.17909 -0.4,0.4 v 7.2 c 0,0.22091 0.17909,0.4 0.4,0.4 h 7.2 c 0.22091,0 0.4,-0.17909 0.4,-0.4 V 108 h 7.6 c 0.22091,0 0.4,0.17909 0.4,0.4 v 7.2 c 0,0.22091 -0.17909,0.4 -0.4,0.4 h -3.2 c -0.22091,0 -0.4,0.17909 -0.4,0.4 v 3.6 h -3.6 c -0.22091,0 -0.4,-0.17909 -0.4,-0.4 v -3.2 c 0,-0.22091 -0.17909,-0.4 -0.4,-0.4 h -3.2 c -0.22091,0 -0.4,0.17909 -0.4,0.4 v 3.2 c 0,0.22091 -0.17909,0.4 -0.4,0.4 H 112 v -3.6 c 0,-0.22091 -0.17909,-0.4 -0.4,-0.4 H 96 v -7.6 c 0,-0.22091 -0.179086,-0.4 -0.4,-0.4 h -7.2 c -0.220914,0 -0.4,0.17909 -0.4,0.4 v 7.2 c 0,0.22091 -0.179086,0.4 -0.4,0.4 h -3.2 c -0.220914,0 -0.4,-0.17909 -0.4,-0.4 v -3.2 c 0,-0.22091 -0.179086,-0.4 -0.4,-0.4 h -3.2 c -0.220914,0 -0.4,0.17909 -0.4,0.4 v 7.2 c 0,0.22091 0.179086,0.4 0.4,0.4 h 3.2 c 0.220914,0 0.4,0.17909 0.4,0.4 v 3.2 c 0,0.22091 0.179086,0.4 0.4,0.4 h 3.2 c 0.220914,0 0.4,-0.17909 0.4,-0.4 v -3.2 c 0,-0.22091 0.179086,-0.4 0.4,-0.4 H 92 v 7.6 c 0,0.22091 0.179086,0.4 0.4,0.4 h 3.2 c 0.220914,0 0.4,0.17909 0.4,0.4 v 3.2 c 0,0.22091 -0.179086,0.4 -0.4,0.4 z m -32,0 H 52.4 C 52.179086,132 52,131.82091 52,131.6 V 124 h 3.6 c 0.220914,0 0.4,-0.17909 0.4,-0.4 v -3.2 c 0,-0.22091 0.179086,-0.4 0.4,-0.4 H 60 v 3.6 c 0,0.22091 0.179086,0.4 0.4,0.4 H 64 v 7.6 c 0,0.22091 -0.179086,0.4 -0.4,0.4 z m -20,0 H 16.4 c -0.220914,0 -0.4,-0.17909 -0.4,-0.4 v -27.2 c 0,-0.22091 0.179086,-0.4 0.4,-0.4 h 27.2 c 0.220914,0 0.4,0.17909 0.4,0.4 v 27.2 c 0,0.22091 -0.179086,0.4 -0.4,0.4 z m 72,-4 H 112 v -4 h 3.6 c 0.22091,0 0.4,0.17909 0.4,0.4 v 3.2 c 0,0.22091 -0.17909,0.4 -0.4,0.4 z M 40,127.6 V 108.4 C 40,108.17909 39.820914,108 39.6,108 H 20.4 c -0.220914,0 -0.4,0.17909 -0.4,0.4 v 19.2 c 0,0.22091 0.179086,0.4 0.4,0.4 h 19.2 c 0.220914,0 0.4,-0.17909 0.4,-0.4 z M 131.6,124 H 128 v -4 h 3.6 c 0.22091,0 0.4,0.17909 0.4,0.4 v 3.2 c 0,0.22091 -0.17909,0.4 -0.4,0.4 z m -20,0 H 108 v -3.6 c 0,-0.22091 0.17909,-0.4 0.4,-0.4 h 3.6 v 4 z m -12,0 H 96.4 C 96.179086,124 96,123.82091 96,123.6 V 120 h 3.6 c 0.220914,0 0.4,0.17909 0.4,0.4 v 3.2 c 0,0.22091 -0.179086,0.4 -0.4,0.4 z M 76,123.6 v -3.2 c 0,-0.22091 -0.179086,-0.4 -0.4,-0.4 h -3.2 c -0.220914,0 -0.4,0.17909 -0.4,0.4 v 3.2 c 0,0.22091 0.179086,0.4 0.4,0.4 h 3.2 c 0.220914,0 0.4,-0.17909 0.4,-0.4 z M 51.6,124 h -3.2 c -0.220914,0 -0.4,-0.17909 -0.4,-0.4 v -7.2 c 0,-0.22091 0.179086,-0.4 0.4,-0.4 H 52 v 8 z m -16,0 H 24.4 c -0.220914,0 -0.4,-0.17909 -0.4,-0.4 v -11.2 c 0,-0.22091 0.179086,-0.4 0.4,-0.4 h 11.2 c 0.220914,0 0.4,0.17909 0.4,0.4 v 11.2 c 0,0.22091 -0.179086,0.4 -0.4,0.4 z m 60,-4 H 92 v -3.6 c 0,-0.22091 0.179086,-0.4 0.4,-0.4 H 96 v 4 z m -32,0 H 60 v -11.6 c 0,-0.22091 0.179086,-0.4 0.4,-0.4 H 68 v 3.6 c 0,0.22091 -0.179086,0.4 -0.4,0.4 h -3.2 c -0.220914,0 -0.4,0.17909 -0.4,0.4 v 7.6 z m -8,-4 H 52 v -3.6 c 0,-0.22091 0.179086,-0.4 0.4,-0.4 h 3.2 c 0.220914,0 0.4,0.17909 0.4,0.4 v 3.2 c 0,0.22091 -0.179086,0.4 -0.4,0.4 z m 56.4,-4.4 v -11.2 c 0,-0.22091 -0.17909,-0.4 -0.4,-0.4 h -11.2 c -0.22091,0 -0.4,0.17909 -0.4,0.4 v 11.2 c 0,0.22091 0.17909,0.4 0.4,0.4 h 11.2 c 0.22091,0 0.4,-0.17909 0.4,-0.4 z m 11.6,-3.6 h -3.2 c -0.22091,0 -0.4,-0.17909 -0.4,-0.4 V 104 h 4 v 4 z m -16,0 h -3.2 c -0.22091,0 -0.4,-0.17909 -0.4,-0.4 v -3.2 c 0,-0.22091 0.17909,-0.4 0.4,-0.4 h 3.2 c 0.22091,0 0.4,0.17909 0.4,0.4 v 3.2 c 0,0.22091 -0.17909,0.4 -0.4,0.4 z m -36,0 H 68 v -3.6 c 0,-0.22091 0.179086,-0.4 0.4,-0.4 H 72 v 4 z m -20,0 H 48.4 C 48.179086,108 48,107.82091 48,107.6 V 100 h 4 v 7.6 c 0,0.22091 -0.179086,0.4 -0.4,0.4 z M 96,103.6 v -3.2 c 0,-0.22091 -0.179086,-0.4 -0.4,-0.4 h -7.2 c -0.220914,0 -0.4,0.17909 -0.4,0.4 v 3.2 c 0,0.22091 0.179086,0.4 0.4,0.4 h 7.2 c 0.220914,0 0.4,-0.17909 0.4,-0.4 z M 59.6,104 h -3.2 c -0.220914,0 -0.4,-0.17909 -0.4,-0.4 v -3.2 C 56,100.17909 55.820914,100 55.6,100 H 52 V 96.4 C 52,96.179086 52.179086,96 52.4,96 h 7.2 c 0.220914,0 0.4,0.179086 0.4,0.4 v 7.2 c 0,0.22091 -0.179086,0.4 -0.4,0.4 z m 8,-4 H 64.4 C 64.179086,100 64,99.820914 64,99.6 V 92.4 C 64,92.179086 64.179086,92 64.4,92 H 72 v 3.6 C 72,95.820914 71.820914,96 71.6,96 H 68.4 C 68.179086,96 68,96.179086 68,96.4 v 3.2 c 0,0.220914 -0.179086,0.4 -0.4,0.4 z m -20,0 H 40.4 C 40.179086,100 40,99.820914 40,99.6 V 96.4 C 40,96.179086 40.179086,96 40.4,96 h 3.2 C 43.820914,96 44,95.820914 44,95.6 V 92 h 3.6 c 0.220914,0 0.4,0.179086 0.4,0.4 v 7.6 z m -20,0 H 20.4 C 20.179086,100 20,99.820914 20,99.6 V 96.4 C 20,96.179086 20.179086,96 20.4,96 h 3.2 C 23.820914,96 24,95.820914 24,95.6 V 92.4 C 24,92.179086 24.179086,92 24.4,92 H 28 v 7.6 c 0,0.220914 -0.179086,0.4 -0.4,0.4 z m 8,-4 H 32.4 C 32.179086,96 32,95.820914 32,95.6 V 92.4 C 32,92.179086 31.820914,92 31.6,92 H 28 V 88.4 C 28,88.179086 27.820914,88 27.6,88 H 24.4 C 24.179086,88 24,87.820914 24,87.6 V 84.4 C 24,84.179086 23.820914,84 23.6,84 H 20.4 C 20.179086,84 20,83.820914 20,83.6 V 80 H 35.6 C 35.820914,80 36,79.820914 36,79.6 V 76 h 4 v 3.6 c 0,0.220914 0.179086,0.4 0.4,0.4 h 3.2 c 0.220914,0 0.4,0.179086 0.4,0.4 v 3.2 C 44,83.820914 43.820914,84 43.6,84 H 40.4 C 40.179086,84 40,84.179086 40,84.4 V 88 H 36 V 84.4 C 36,84.179086 35.820914,84 35.6,84 H 32.4 C 32.179086,84 32,84.179086 32,84.4 v 3.2 c 0,0.220914 0.179086,0.4 0.4,0.4 H 36 v 7.6 c 0,0.220914 -0.179086,0.4 -0.4,0.4 z m 24,-4 H 56.4 C 56.179086,92 56,91.820914 56,91.6 V 88 h 3.6 c 0.220914,0 0.4,0.179086 0.4,0.4 v 3.2 c 0,0.220914 -0.179086,0.4 -0.4,0.4 z m -16,0 H 40.4 C 40.179086,92 40,91.820914 40,91.6 V 88 h 3.6 c 0.220914,0 0.4,0.179086 0.4,0.4 V 92 Z m -24,0 H 16.4 C 16.179086,92 16,91.820914 16,91.6 V 88.4 C 16,88.179086 16.179086,88 16.4,88 h 3.2 c 0.220914,0 0.4,0.179086 0.4,0.4 v 3.2 c 0,0.220914 -0.179086,0.4 -0.4,0.4 z m 36,-4 H 52.4 C 52.179086,88 52,87.820914 52,87.6 V 84.4 C 52,84.179086 52.179086,84 52.4,84 h 3.2 c 0.220914,0 0.4,0.179086 0.4,0.4 V 88 Z m 0,-8 H 52.4 C 52.179086,80 52,79.820914 52,79.6 V 76 h 4 v 3.6 c 0,0.220914 -0.179086,0.4 -0.4,0.4 z m -36,0 H 16.4 C 16.179086,80 16,79.820914 16,79.6 V 64.4 C 16,64.179086 16.179086,64 16.4,64 H 20 v 3.6 c 0,0.220914 0.179086,0.4 0.4,0.4 H 24 v 7.6 C 24,75.820914 23.820914,76 23.6,76 H 20.4 C 20.179086,76 20,76.179086 20,76.4 V 80 Z M 92,75.6 V 68.4 C 92,68.179086 91.820914,68 91.6,68 H 88.4 C 88.179086,68 88,68.179086 88,68.4 v 3.2 C 88,71.820914 87.820914,72 87.6,72 H 84.4 C 84.179086,72 84,72.179086 84,72.4 v 3.2 c 0,0.220914 0.179086,0.4 0.4,0.4 h 7.2 C 91.820914,76 92,75.820914 92,75.6 Z M 59.6,76 H 56 v -4 h 3.6 c 0.220914,0 0.4,0.179086 0.4,0.4 v 3.2 c 0,0.220914 -0.179086,0.4 -0.4,0.4 z m -8,0 H 48.4 C 48.179086,76 48,75.820914 48,75.6 V 72 h 4 v 4 z m -8,0 H 40 V 72.4 C 40,72.179086 40.179086,72 40.4,72 H 44 v 3.6 c 0,0.220914 -0.179086,0.4 -0.4,0.4 z m -8,0 H 28.4 C 28.179086,76 28,75.820914 28,75.6 V 68 h 4 v 3.6 c 0,0.220914 0.179086,0.4 0.4,0.4 h 3.2 c 0.220914,0 0.4,0.179086 0.4,0.4 V 76 Z m 20,-4 H 52 v -4 h 3.6 c 0.220914,0 0.4,0.179086 0.4,0.4 V 72 Z m -8,0 H 44 v -4 h 4 v 4 z m 56,-4 h -3.2 C 100.17909,68 100,67.820914 100,67.6 V 64 h 3.6 c 0.22091,0 0.4,0.179086 0.4,0.4 V 68 Z m -24,0 H 76.4 C 76.179086,68 76,67.820914 76,67.6 V 64 h 3.6 c 0.220914,0 0.4,0.179086 0.4,0.4 V 68 Z m -28,0 H 48 V 64.4 C 48,64.179086 48.179086,64 48.4,64 h 3.2 c 0.220914,0 0.4,0.179086 0.4,0.4 V 68 Z m -8,0 H 32 v -4 h 3.6 C 35.820914,64 36,63.820914 36,63.6 V 60 h 4 v 3.6 c 0,0.220914 0.179086,0.4 0.4,0.4 h 3.2 c 0.220914,0 0.4,0.179086 0.4,0.4 V 68 Z m -16,0 H 24 V 64.4 C 24,64.179086 23.820914,64 23.6,64 H 20 V 56.4 C 20,56.179086 19.820914,56 19.6,56 H 16.4 C 16.179086,56 16,55.820914 16,55.6 V 52.4 C 16,52.179086 16.179086,52 16.4,52 h 7.2 C 23.820914,52 24,51.820914 24,51.6 V 48.4 C 24,48.179086 24.179086,48 24.4,48 h 7.2 c 0.220914,0 0.4,0.179086 0.4,0.4 v 3.2 c 0,0.220914 0.179086,0.4 0.4,0.4 H 40 v 4 H 36.4 C 36.179086,56 36,56.179086 36,56.4 V 60 H 32 V 56.4 C 32,56.179086 31.820914,56 31.6,56 H 24.4 C 24.179086,56 24,56.179086 24,56.4 v 3.2 c 0,0.220914 0.179086,0.4 0.4,0.4 H 32 v 4 H 28.4 C 28.179086,64 28,64.179086 28,64.4 V 68 Z m 100,-8 h -3.2 c -0.22091,0 -0.4,-0.179086 -0.4,-0.4 v -3.2 c 0,-0.220914 0.17909,-0.4 0.4,-0.4 h 3.6 v 4 z m -8,0 H 116 v -4 h 3.6 c 0.22091,0 0.4,0.179086 0.4,0.4 v 3.2 c 0,0.220914 -0.17909,0.4 -0.4,0.4 z m -12,0 h -3.2 C 104.17909,60 104,59.820914 104,59.6 V 52.4 C 104,52.179086 103.82091,52 103.6,52 H 100 v -3.6 c 0,-0.220914 0.17909,-0.4 0.4,-0.4 h 7.2 c 0.22091,0 0.4,0.179086 0.4,0.4 v 3.2 c 0,0.220914 0.17909,0.4 0.4,0.4 h 3.2 c 0.22091,0 0.4,-0.179086 0.4,-0.4 v -3.2 c 0,-0.220914 0.17909,-0.4 0.4,-0.4 h 3.2 c 0.22091,0 0.4,0.179086 0.4,0.4 V 56 h -7.6 c -0.22091,0 -0.4,0.179086 -0.4,0.4 V 60 Z m 24,-4 H 128 v -3.6 c 0,-0.220914 0.17909,-0.4 0.4,-0.4 h 3.2 c 0.22091,0 0.4,0.179086 0.4,0.4 v 3.2 c 0,0.220914 -0.17909,0.4 -0.4,0.4 z m -60,-4 H 68.4 C 68.179086,52 68,51.820914 68,51.6 V 44 h 3.6 C 71.820914,44 72,43.820914 72,43.6 V 36.4 C 72,36.179086 71.820914,36 71.6,36 H 64.4 C 64.179086,36 64,35.820914 64,35.6 V 32 h 7.6 C 71.820914,32 72,31.820914 72,31.6 V 28.4 C 72,28.179086 72.179086,28 72.4,28 h 7.2 c 0.220914,0 0.4,0.179086 0.4,0.4 V 32 H 76.4 C 76.179086,32 76,32.179086 76,32.4 V 47.6 C 76,47.820914 75.820914,48 75.6,48 H 72.4 C 72.179086,48 72,48.179086 72,48.4 V 52 Z m -8,0 H 60.4 C 60.179086,52 60,51.820914 60,51.6 V 48.4 C 60,48.179086 59.820914,48 59.6,48 H 56 V 36 h 3.6 c 0.220914,0 0.4,0.179086 0.4,0.4 v 7.2 c 0,0.220914 0.179086,0.4 0.4,0.4 H 64 v 7.6 c 0,0.220914 -0.179086,0.4 -0.4,0.4 z m 68,-8 H 104.4 C 104.17909,44 104,43.820914 104,43.6 V 16.4 c 0,-0.220914 0.17909,-0.4 0.4,-0.4 h 27.2 c 0.22091,0 0.4,0.179086 0.4,0.4 v 27.2 c 0,0.220914 -0.17909,0.4 -0.4,0.4 z m -32,0 H 96.4 C 96.179086,44 96,43.820914 96,43.6 V 40.4 C 96,40.179086 95.820914,40 95.6,40 H 92.4 C 92.179086,40 92,40.179086 92,40.4 v 3.2 C 92,43.820914 91.820914,44 91.6,44 H 88.4 C 88.179086,44 88,43.820914 88,43.6 V 40.4 C 88,40.179086 87.820914,40 87.6,40 H 84.4 C 84.179086,40 84,40.179086 84,40.4 v 3.2 C 84,43.820914 83.820914,44 83.6,44 H 80.4 C 80.179086,44 80,43.820914 80,43.6 V 32 h 4 v 3.6 c 0,0.220914 0.179086,0.4 0.4,0.4 h 7.2 C 91.820914,36 92,35.820914 92,35.6 V 32.4 C 92,32.179086 92.179086,32 92.4,32 h 3.2 c 0.220914,0 0.4,0.179086 0.4,0.4 v 3.2 c 0,0.220914 0.179086,0.4 0.4,0.4 h 3.2 c 0.220914,0 0.4,0.179086 0.4,0.4 v 7.2 c 0,0.220914 -0.179086,0.4 -0.4,0.4 z m -32,0 H 64 V 40.4 C 64,40.179086 64.179086,40 64.4,40 h 3.2 c 0.220914,0 0.4,0.179086 0.4,0.4 V 44 Z m -24,0 H 16.4 C 16.179086,44 16,43.820914 16,43.6 V 16.4 C 16,16.179086 16.179086,16 16.4,16 h 27.2 c 0.220914,0 0.4,0.179086 0.4,0.4 V 43.6 C 44,43.820914 43.820914,44 43.6,44 Z M 128,39.6 V 20.4 c 0,-0.220914 -0.17909,-0.4 -0.4,-0.4 h -19.2 c -0.22091,0 -0.4,0.179086 -0.4,0.4 v 19.2 c 0,0.220914 0.17909,0.4 0.4,0.4 h 19.2 c 0.22091,0 0.4,-0.179086 0.4,-0.4 z m -88,0 V 20.4 C 40,20.179086 39.820914,20 39.6,20 H 20.4 C 20.179086,20 20,20.179086 20,20.4 v 19.2 c 0,0.220914 0.179086,0.4 0.4,0.4 H 39.6 C 39.820914,40 40,39.820914 40,39.6 Z M 123.6,36 H 112.4 C 112.17909,36 112,35.820914 112,35.6 V 24.4 c 0,-0.220914 0.17909,-0.4 0.4,-0.4 h 11.2 c 0.22091,0 0.4,0.179086 0.4,0.4 v 11.2 c 0,0.220914 -0.17909,0.4 -0.4,0.4 z m -68,0 H 48.4 C 48.179086,36 48,35.820914 48,35.6 V 32.4 C 48,32.179086 48.179086,32 48.4,32 h 3.2 C 51.820914,32 52,31.820914 52,31.6 V 24.4 C 52,24.179086 52.179086,24 52.4,24 H 56 v 12 z m -20,0 H 24.4 C 24.179086,36 24,35.820914 24,35.6 V 24.4 C 24,24.179086 24.179086,24 24.4,24 h 11.2 c 0.220914,0 0.4,0.179086 0.4,0.4 v 11.2 c 0,0.220914 -0.179086,0.4 -0.4,0.4 z m 52,-4 H 84 V 28.4 C 84,28.179086 84.179086,28 84.4,28 h 3.2 c 0.220914,0 0.4,0.179086 0.4,0.4 v 3.2 c 0,0.220914 -0.179086,0.4 -0.4,0.4 z m -24,0 H 60.4 C 60.179086,32 60,31.820914 60,31.6 V 28.4 C 60,28.179086 60.179086,28 60.4,28 H 64 v 4 z m 32,-4 H 92.4 C 92.179086,28 92,27.820914 92,27.6 V 24 h 3.6 c 0.220914,0 0.4,0.179086 0.4,0.4 v 3.2 c 0,0.220914 -0.179086,0.4 -0.4,0.4 z m -28,0 H 64 v -4 h 4 v 3.6 c 0,0.220914 -0.179086,0.4 -0.4,0.4 z m 24,-4 H 84.4 C 84.179086,24 84,23.820914 84,23.6 V 16.4 C 84,16.179086 84.179086,16 84.4,16 h 3.2 c 0.220914,0 0.4,0.179086 0.4,0.4 v 3.2 c 0,0.220914 0.179086,0.4 0.4,0.4 h 3.2 c 0.220914,0 0.4,0.179086 0.4,0.4 V 24 Z m -12,0 H 76.4 C 76.179086,24 76,23.820914 76,23.6 V 20 h 3.6 c 0.220914,0 0.4,0.179086 0.4,0.4 v 3.2 c 0,0.220914 -0.179086,0.4 -0.4,0.4 z m -8,0 H 68 v -4 h 4 v 3.6 c 0,0.220914 -0.179086,0.4 -0.4,0.4 z m -8,0 H 56 V 16.4 C 56,16.179086 56.179086,16 56.4,16 h 11.2 c 0.220914,0 0.4,0.179086 0.4,0.4 V 20 H 64.4 C 64.179086,20 64,20.179086 64,20.4 V 24 Z m 12,-4 H 72 V 16.4 C 72,16.179086 72.179086,16 72.4,16 h 3.2 c 0.220914,0 0.4,0.179086 0.4,0.4 V 20 Z"
             id="path1211" />
        </g>
      </g>
    </g>
  </g>
</svg>
