<?xml version="1.0" encoding="UTF-8" standalone="no"?>
<!-- Created with Inkscape (http://www.inkscape.org/) -->

<svg
   sodipodi:docname="businesscard.svg"
   inkscape:version="1.2.2 (b0a8486541, 2022-12-01)"
   id="svg4914"
   version="1.1"
   viewBox="0 0 88.9 50.8"
   height="192"
   width="336"
   xmlns:inkscape="http://www.inkscape.org/namespaces/inkscape"
   xmlns:sodipodi="http://sodipodi.sourceforge.net/DTD/sodipodi-0.dtd"
   xmlns="http://www.w3.org/2000/svg"
   xmlns:svg="http://www.w3.org/2000/svg">
  <sodipodi:namedview
     id="namedview4916"
     pagecolor="#505050"
     bordercolor="#eeeeee"
     borderopacity="1"
     inkscape:showpageshadow="0"
     inkscape:pageopacity="0"
     inkscape:pagecheckerboard="0"
     inkscape:deskcolor="#505050"
     inkscape:document-units="px"
     showgrid="false"
     inkscape:zoom="2"
     inkscape:cx="85.5"
     inkscape:cy="163"
     inkscape:window-width="1280"
     inkscape:window-height="969"
     inkscape:window-x="1366"
     inkscape:window-y="31"
     inkscape:window-maximized="1"
     inkscape:current-layer="layer7" />
  <defs
     id="defs4911" />
  <g
     inkscape:label="Layer 1"
     inkscape:groupmode="layer"
     id="layer1" />
  <g
     inkscape:groupmode="layer"
     id="layer3"
     inkscape:label="back"
     style="display:none"
     transform="translate(0,10.599707)">
    <g
       inkscape:groupmode="layer"
       id="layer6"
       inkscape:label="outline"
       transform="translate(-30.775149,-11.991969)">
      <path
         style="display:inline;fill:none;fill-opacity:1;stroke:#000000;stroke-width:0.396875;stroke-linecap:butt;stroke-linejoin:round;stroke-dasharray:none;stroke-dashoffset:0;stroke-opacity:1"
         d="M 75.225112,38.450302 V 11.991969 h -6.614584 z"
         id="path4861"
         sodipodi:nodetypes="cccc"
         inkscape:label="DF0024"
         inkscape:export-filename="./output/darwishzainstd-outlinelight.png"
         inkscape:export-xdpi="96"
         inkscape:export-ydpi="96" />
      <path
         style="display:inline;fill:none;fill-opacity:1;stroke:#000000;stroke-width:0.396875;stroke-linecap:butt;stroke-linejoin:round;stroke-dasharray:none;stroke-dashoffset:0;stroke-opacity:1"
         d="m 88.454324,25.221136 -9.1e-5,13.229166 H 75.225112 Z"
         id="path4863"
         sodipodi:nodetypes="cccc"
         inkscape:label="2E6DB4" />
      <path
         style="display:inline;fill:none;fill-opacity:1;stroke:#000000;stroke-width:0.396875;stroke-linecap:butt;stroke-linejoin:round;stroke-dasharray:none;stroke-dashoffset:0;stroke-opacity:1"
         d="M 72.579278,27.866969 61.995945,38.450302 h 13.229167 z"
         id="path4865"
         sodipodi:nodetypes="cccc"
         inkscape:label="F3C300" />
      <path
         style="display:inline;fill:none;fill-opacity:1;stroke:#000000;stroke-width:0.396875;stroke-linecap:butt;stroke-linejoin:round;stroke-dasharray:none;stroke-dashoffset:0;stroke-opacity:1"
         d="m 75.22501,25.244324 1.02e-4,13.205978 13.229166,-13.252355 z"
         id="path4867"
         sodipodi:nodetypes="cccc"
         inkscape:label="00AC9F" />
    </g>
    <path
       id="rect5320"
       style="display:none;fill:#00fb00;fill-opacity:0.674367;stroke:none;stroke-width:0.373487;stroke-linejoin:round"
       d="m 31.220834,26.65677 h 26.458333 v 3.96875 H 31.220834 Z"
       inkscape:label="guide" />
    <g
       inkscape:groupmode="layer"
       id="layer5"
       inkscape:label="@darwishzainstd"
       transform="matrix(1.051082,0,0,1.051082,-2.2528155,-3.2965959)"
       style="display:inline">
      <g
         aria-label="darwishzainstd"
         id="text6388"
         style="font-size:2.79326px;font-family:'Comic Neue';-inkscape-font-specification:'Comic Neue';stroke:#000000;stroke-width:0.0692408"
         inkscape:label="@darwishzainstd"
         transform="translate(3.963449e-4,-9.8434102)">
        <path
           d="m 36.439292,41.241428 q -0.409169,0 -0.409169,-0.409169 v -0.681948 q 0,-0.409169 0.409169,-0.409169 h 0.313696 q 0.09275,0 0.13639,0.04228 v -0.533284 l 0.25914,-0.12275 h 0.01364 v 1.70487 q 0,0.409169 -0.409169,0.409169 z m 0,-0.245501 h 0.313696 q 0.13639,0 0.13639,-0.163668 v -0.681948 q 0,-0.163667 -0.13639,-0.163667 h -0.313696 q -0.13639,0 -0.13639,0.163667 v 0.681948 q 0,0.163668 0.13639,0.163668 z"
           style="-inkscape-font-specification:'Nova Square';stroke:none"
           id="path5041" />
        <path
           d="m 37.980495,40.995927 h 0.286418 q 0.13639,0 0.13639,-0.163668 v -0.186853 q 0,-0.163668 -0.13639,-0.163668 h -0.286418 q -0.13639,0 -0.13639,0.163668 v 0.186853 q 0,0.163668 0.13639,0.163668 z m 0,0.245501 q -0.409169,0 -0.409169,-0.409169 v -0.186853 q 0,-0.409169 0.409169,-0.409169 h 0.286418 q 0.07092,0 0.13639,0.04092 v -0.126843 q 0,-0.163667 -0.13639,-0.163667 h -0.488275 v -0.01364 l 0.109112,-0.231863 h 0.379163 q 0.409169,0 0.409169,0.409169 v 1.022923 l -0.25914,0.12275 h -0.01364 v -0.09547 q -0.05183,0.04092 -0.13639,0.04092 z"
           style="-inkscape-font-specification:'Nova Square';stroke:none"
           id="path5043" />
        <path
           d="m 39.085251,41.295984 v -1.145673 q 0,-0.409169 0.409169,-0.409169 h 0.340974 v 0.01364 l -0.109111,0.231863 H 39.49442 q -0.136389,0 -0.136389,0.163667 v 1.022923 l -0.259141,0.12275 z"
           style="-inkscape-font-specification:'Nova Square';stroke:none"
           id="path5045" />
        <path
           d="m 40.476426,41.241428 q -0.409169,0 -0.409169,-0.409169 v -1.022922 l 0.25914,-0.122751 h 0.01364 v 1.145673 q 0,0.163668 0.13639,0.163668 h 0.313696 q 0.13639,0 0.13639,-0.163668 v -1.022922 l 0.25914,-0.122751 h 0.01364 v 1.145673 q 0,0.163668 0.13639,0.163668 h 0.313696 q 0.136389,0 0.136389,-0.163668 v -1.022922 l 0.259141,-0.122751 h 0.01364 v 1.145673 q 0,0.409169 -0.409169,0.409169 h -0.313696 q -0.188218,0 -0.27278,-0.100928 -0.09002,0.100928 -0.272779,0.100928 z"
           style="-inkscape-font-specification:'Nova Square';stroke:none"
           id="path5047" />
        <path
           d="m 42.556368,39.439721 q -0.04774,-0.0491 -0.04774,-0.117295 0,-0.06956 0.04774,-0.118659 0.04774,-0.0491 0.115931,-0.0491 0.06819,0 0.115931,0.0491 0.04774,0.0491 0.04774,0.118659 0,0.0682 -0.04774,0.117295 -0.04774,0.0491 -0.115931,0.0491 -0.0682,0 -0.115931,-0.0491 z m -0.02046,1.856263 v -1.486647 l 0.259141,-0.122751 h 0.01364 v 1.486648 l -0.259141,0.12275 z"
           style="-inkscape-font-specification:'Nova Square';stroke:none"
           id="path5049" />
        <path
           d="m 43.654305,41.241428 q -0.409169,0 -0.409169,-0.409169 v -0.0491 l 0.25914,-0.122751 h 0.01364 v 0.171851 q 0,0.163668 0.13639,0.163668 h 0.313696 q 0.13639,0 0.13639,-0.163668 v -0.107747 q 0,-0.163668 -0.13639,-0.163668 h -0.256413 q -0.409169,0 -0.409169,-0.410533 0,-0.409169 0.409169,-0.409169 h 0.159576 q 0.409169,0 0.409169,0.330063 l -0.25914,0.122751 h -0.01364 v -0.04364 q 0,-0.163667 -0.13639,-0.163667 h -0.159576 q -0.136389,0 -0.136389,0.163667 0,0.165032 0.136389,0.165032 h 0.256413 q 0.409169,0 0.409169,0.409169 v 0.107747 q 0,0.409169 -0.409169,0.409169 z"
           style="-inkscape-font-specification:'Nova Square';stroke:none"
           id="path5051" />
        <path
           d="m 44.813617,41.295984 v -2.045845 l 0.25914,-0.12275 h 0.01364 v 0.656034 q 0.06001,-0.04228 0.13639,-0.04228 h 0.313696 q 0.409169,0 0.409169,0.409169 v 1.022923 l -0.259141,0.12275 h -0.01364 v -1.145673 q 0,-0.163667 -0.136389,-0.163667 h -0.313696 q -0.13639,0 -0.13639,0.163667 v 1.022923 l -0.25914,0.12275 z"
           style="-inkscape-font-specification:'Nova Square';stroke:none"
           id="path5053" />
        <path
           d="m 46.21843,41.241428 v -0.01364 l 0.713318,-1.238418 h -0.699679 v -0.01364 l 0.110476,-0.23459 h 1.02565 v 0.01364 l -0.711954,1.238418 h 0.725593 v 0.01364 l -0.110475,0.23459 z"
           style="-inkscape-font-specification:'Nova Square';stroke:none"
           id="path5055" />
        <path
           d="m 47.995587,40.995927 h 0.286418 q 0.13639,0 0.13639,-0.163668 v -0.186853 q 0,-0.163668 -0.13639,-0.163668 h -0.286418 q -0.13639,0 -0.13639,0.163668 v 0.186853 q 0,0.163668 0.13639,0.163668 z m 0,0.245501 q -0.409169,0 -0.409169,-0.409169 v -0.186853 q 0,-0.409169 0.409169,-0.409169 h 0.286418 q 0.07092,0 0.13639,0.04092 v -0.126843 q 0,-0.163667 -0.13639,-0.163667 H 47.79373 v -0.01364 l 0.109112,-0.231863 h 0.379163 q 0.409169,0 0.409169,0.409169 v 1.022923 l -0.25914,0.12275 h -0.01364 v -0.09547 q -0.05183,0.04092 -0.13639,0.04092 z"
           style="-inkscape-font-specification:'Nova Square';stroke:none"
           id="path5057" />
        <path
           d="m 49.188996,39.439721 q -0.04774,-0.0491 -0.04774,-0.117295 0,-0.06956 0.04774,-0.118659 0.04774,-0.0491 0.115932,-0.0491 0.06819,0 0.115931,0.0491 0.04774,0.0491 0.04774,0.118659 0,0.0682 -0.04774,0.117295 -0.04774,0.0491 -0.115931,0.0491 -0.06819,0 -0.115932,-0.0491 z m -0.02046,1.856263 v -1.486647 l 0.25914,-0.122751 h 0.01364 v 1.486648 l -0.25914,0.12275 z"
           style="-inkscape-font-specification:'Nova Square';stroke:none"
           id="path5059" />
        <path
           d="m 49.918682,41.295984 v -1.145673 q 0,-0.409169 0.409168,-0.409169 h 0.313697 q 0.409169,0 0.409169,0.409169 v 1.022923 l -0.259141,0.12275 h -0.01364 v -1.145673 q 0,-0.163667 -0.136389,-0.163667 H 50.32785 q -0.136389,0 -0.136389,0.163667 v 1.022923 l -0.259141,0.12275 z"
           style="-inkscape-font-specification:'Nova Square';stroke:none"
           id="path5061" />
        <path
           d="m 51.828136,41.241428 q -0.409169,0 -0.409169,-0.409169 v -0.0491 l 0.25914,-0.122751 h 0.01364 v 0.171851 q 0,0.163668 0.13639,0.163668 h 0.313696 q 0.13639,0 0.13639,-0.163668 v -0.107747 q 0,-0.163668 -0.13639,-0.163668 H 51.88542 q -0.409169,0 -0.409169,-0.410533 0,-0.409169 0.409169,-0.409169 h 0.159576 q 0.409169,0 0.409169,0.330063 l -0.259141,0.122751 h -0.01364 v -0.04364 q 0,-0.163667 -0.136389,-0.163667 H 51.88542 q -0.13639,0 -0.13639,0.163667 0,0.165032 0.13639,0.165032 h 0.256412 q 0.409169,0 0.409169,0.409169 v 0.107747 q 0,0.409169 -0.409169,0.409169 z"
           style="-inkscape-font-specification:'Nova Square';stroke:none"
           id="path5063" />
        <path
           d="m 53.099287,41.295984 v -1.306613 h -0.350521 v -0.01364 l 0.110475,-0.23459 h 0.240046 v -0.491003 l 0.25914,-0.12275 h 0.01364 v 0.613753 h 0.350522 v 0.01364 l -0.110476,0.23459 h -0.240046 v 1.183863 l -0.25914,0.12275 z"
           style="-inkscape-font-specification:'Nova Square';stroke:none"
           id="path5065" />
        <path
           d="m 54.370441,41.241428 q -0.409169,0 -0.409169,-0.409169 v -0.681948 q 0,-0.409169 0.409169,-0.409169 h 0.313696 q 0.09275,0 0.136389,0.04228 v -0.533284 l 0.259141,-0.12275 h 0.01364 v 1.70487 q 0,0.409169 -0.409169,0.409169 z m 0,-0.245501 h 0.313696 q 0.136389,0 0.136389,-0.163668 v -0.681948 q 0,-0.163667 -0.136389,-0.163667 h -0.313696 q -0.13639,0 -0.13639,0.163667 v 0.681948 q 0,0.163668 0.13639,0.163668 z"
           style="-inkscape-font-specification:'Nova Square';stroke:none"
           id="path5067" />
        <path
           d="m 34.798299,41.295981 q -0.270946,0 -0.497201,-0.12011 -0.226254,-0.12011 -0.36033,-0.340778 -0.134077,-0.220667 -0.134077,-0.508373 0,-0.287706 0.131284,-0.519547 0.131283,-0.234634 0.363123,-0.365917 0.231841,-0.134076 0.519547,-0.134076 0.25698,0 0.469268,0.122903 0.215081,0.12011 0.337984,0.332398 0.122903,0.212288 0.122903,0.469268 0,0.251393 -0.122903,0.396643 -0.122903,0.142456 -0.329605,0.142456 -0.106144,0 -0.217874,-0.05587 -0.108937,-0.05586 -0.156423,-0.170389 -0.148042,0.189942 -0.321224,0.189942 -0.150837,0 -0.240221,-0.09776 -0.08938,-0.100558 -0.08938,-0.268153 0,-0.139663 0.06145,-0.262567 0.06424,-0.122903 0.173182,-0.198321 0.11173,-0.07542 0.243013,-0.07542 0.131284,0 0.259774,0.07821 0.06424,0.0419 0.06424,0.08659 0,0.03631 -0.02514,0.06145 -0.02514,0.02235 -0.06145,0.02235 -0.02514,0 -0.06145,-0.02514 -0.09776,-0.05587 -0.173182,-0.05587 -0.08659,0 -0.159216,0.05307 -0.06983,0.05028 -0.111731,0.13687 -0.0391,0.0838 -0.0391,0.178769 0,0.09497 0.0419,0.148042 0.0419,0.05028 0.114523,0.05028 0.09776,0 0.187149,-0.117317 0.08938,-0.12011 0.12849,-0.223461 0.02514,-0.05587 0.081,-0.05587 0.03352,0 0.05866,0.02514 0.02514,0.02235 0.02514,0.05866 0,0.01955 -0.01117,0.05866 -0.01117,0.03911 -0.01117,0.0838 0,0.09497 0.07262,0.15363 0.07262,0.05586 0.173182,0.05586 0.122903,0 0.198321,-0.09218 0.07821,-0.09497 0.07821,-0.282119 0,-0.192735 -0.08939,-0.365917 -0.08659,-0.173182 -0.259773,-0.279326 -0.173182,-0.108937 -0.410609,-0.108937 -0.217874,0 -0.410609,0.100557 -0.192735,0.09776 -0.312846,0.290499 -0.12011,0.189942 -0.12011,0.458095 0,0.259773 0.122904,0.444128 0.125696,0.181562 0.315638,0.270946 0.192735,0.09218 0.388263,0.09218 0.254187,0 0.483234,-0.148043 0.03911,-0.02793 0.06424,-0.02793 0.03631,0 0.05866,0.02514 0.02514,0.02514 0.02514,0.05866 0,0.02235 -0.01397,0.0419 -0.01117,0.01955 -0.0419,0.0419 -0.09497,0.06983 -0.245807,0.12011 -0.148043,0.05028 -0.335191,0.05028 z"
           id="path5098"
           style="font-size:2.79326px;font-family:'Comic Neue';-inkscape-font-specification:'Comic Neue';display:inline;stroke-width:0.0692408" />
      </g>
    </g>
  </g>
  <g
     inkscape:groupmode="layer"
     id="layer4"
     inkscape:label="front"
     style="display:inline">
    <g
       aria-label="جلي"
       id="text5616"
       style="font-size:2.64583px;font-family:Amiri;-inkscape-font-specification:Amiri;text-align:end;text-anchor:end;fill:#000000;fill-opacity:1;stroke-width:0.396875;stroke-linejoin:round"
       inkscape:label="جلي"
       transform="matrix(4.7605126,0,0,4.7605126,-76.405372,-113.59793)">
      <path
         d="m 22.729974,28.016632 q 0.05292,0.02381 0.119063,0.04763 0.06615,0.02117 0.14552,0.04233 0.07937,0.01852 0.156104,0.03175 0.07673,0.01058 0.150812,0.0079 0.02381,0 0.03704,0.01058 0.01323,0.01058 0.0026,0.03704 -0.02381,0.05027 -0.04233,0.08731 -0.01588,0.03704 -0.0291,0.05821 -0.02646,0.04233 -0.04763,0.04233 -0.07144,-0.0079 -0.153459,-0.0053 -0.07937,0.0026 -0.169333,0.01852 -0.08996,0.01588 -0.169333,0.0344 -0.07937,0.01852 -0.148166,0.04233 -0.396875,0.132292 -0.49477,0.140229 -0.0979,0.0079 -0.182563,0 -0.0079,-0.253999 0.0079,-0.283104 0.03704,-0.07144 0.07937,-0.137583 0.04233,-0.06615 0.08996,-0.127 0.153458,-0.193145 0.248708,-0.187854 0.04763,0.0026 0.148166,0.03704 0.100542,0.0344 0.251354,0.103187 z m -0.169333,0.211667 q -0.164041,-0.0926 -0.317499,-0.0979 -0.07937,0 -0.150813,0.0635 -0.06879,0.06085 -0.108479,0.174625 0.121708,0.0079 0.46302,-0.07938 l 0.113771,-0.0291 q 0.01323,-0.0053 0.01588,-0.01058 0.0053,-0.0079 -0.01588,-0.02117 z m 0.07673,0.597957 q 0.0053,-0.0079 0.02117,-0.0053 0.105833,0.03704 0.187854,0.111125 0.01058,0.01058 0.0026,0.02117 l -0.124354,0.201083 q -0.0079,0.01323 -0.02646,-0.0026 -0.01058,-0.0079 -0.05556,-0.03704 -0.04498,-0.0291 -0.129646,-0.07937 -0.01323,-0.0079 -0.0053,-0.01588 z"
         id="path5618"
         style="fill:#000000;fill-opacity:1" />
      <path
         d="m 21.433518,26.799551 q 0.0053,-0.01588 0.02911,-0.01852 0.02381,-0.0026 0.02646,0.01587 0.108479,0.828145 0.15875,1.05304 0.103187,0.447145 0.259291,0.523875 0.0979,0.05027 0.0635,0.171978 -0.01852,0.07408 -0.0635,0.06615 -0.161396,-0.01852 -0.301625,-0.362478 -0.01588,0.293687 -0.126999,0.492124 -0.02646,0.05027 -0.07937,0.09525 -0.05292,0.04498 -0.08467,0.05556 l 0.01588,-0.103187 q 0.108479,-0.08467 0.15875,-0.214312 0.05292,-0.134938 0.0291,-0.473604 0,-0.01852 -0.01587,-0.132291 -0.01588,-0.116417 -0.04498,-0.325438 l -0.07408,-0.507999 q -0.0026,-0.02646 -0.0026,-0.05292 -0.0026,-0.0291 0,-0.05821 0.0026,-0.0291 0.01588,-0.08467 0.01323,-0.05821 0.03704,-0.140229 z"
         id="path5620"
         style="fill:#000000;fill-opacity:1" />
      <path
         d="m 21.330331,28.789215 q 0.02646,-0.02381 0.04233,-0.03969 0.01852,-0.01323 0.02381,-0.02117 0.330729,0.04498 0.407458,0.105833 0.07408,0.06085 0.07938,0.08731 0.0079,0.103188 -0.02646,0.198438 -0.0344,0.0979 -0.111125,0.156104 -0.111125,0.08731 -0.232833,0.150812 -0.119063,0.06615 -0.254,0.105833 -0.267229,0.07938 -0.529166,0.02646 -0.182562,-0.03969 -0.296333,-0.169333 -0.28575,-0.322791 0.134937,-1.042457 0.01058,-0.01852 0.02646,-0.01852 0.01852,0 0.02646,0.01323 0.01058,0.01323 -0.0026,0.03439 -0.06879,0.121709 -0.113771,0.219604 -0.04233,0.09525 -0.05556,0.171979 -0.02646,0.150812 0.05556,0.309562 0.08202,0.156104 0.248708,0.203729 0.164042,0.04233 0.357188,0.01852 0.193145,-0.02117 0.410103,-0.116417 0.169333,-0.07673 0.256646,-0.171978 -0.08996,-0.05556 -0.463021,-0.119063 z m -0.222249,1.026582 q 0.0053,-0.0079 0.02117,-0.0053 0.05292,0.01852 0.0979,0.04498 0.04763,0.02646 0.08996,0.0635 0.01058,0.01058 0.0026,0.02381 l -0.127,0.201083 q -0.0053,0.0079 -0.02381,-0.0053 -0.0079,-0.0079 -0.04498,-0.03175 -0.03704,-0.02117 -0.105834,-0.06085 l -0.100541,0.156104 q -0.0079,0.01323 -0.02646,-0.0026 -0.01058,-0.0079 -0.05556,-0.03704 -0.04498,-0.0291 -0.129645,-0.07937 -0.01058,-0.0079 -0.0026,-0.01588 l 0.129645,-0.193146 q 0.0053,-0.0079 0.02117,-0.0053 0.04498,0.01323 0.08467,0.0344 0.03969,0.02381 0.07408,0.05292 z"
         id="path5622"
         style="fill:#000000;fill-opacity:1" />
    </g>
    <g
       inkscape:groupmode="layer"
       id="g4916"
       inkscape:label="@darwishzainstd@jeli.com.my copy"
       transform="translate(7.1168576,-22.561215)"
       sodipodi:insensitive="true"
       style="display:none">
      <path
         id="rect424"
         style="fill:#f3c300;fill-opacity:0.7;stroke-width:1.03153;stroke-dasharray:4.12612, 1.03153"
         d="M 9.7799713,0.47797734 H 79.208454 V 10.729966 H 9.7799713 Z"
         sodipodi:nodetypes="ccccc"
         inkscape:label="email"
         transform="translate(0,2.1166667)" />
      <path
         id="rect429"
         style="fill:#00ac9f;fill-opacity:0.501961;stroke-width:0.621056;stroke-dasharray:2.48423, 0.621056"
         d="M 50.409399,2.8247718 H 80.69119 V 15.645492 H 50.409399 Z"
         sodipodi:nodetypes="ccccc"
         inkscape:label="website"
         transform="translate(0,2.1166667)" />
      <path
         id="rect427"
         style="fill:#2e6db4;fill-opacity:0.501961;stroke-width:0.640456;stroke-dasharray:2.56183, 0.640456"
         d="M -4.7483741,5.4662713 H 47.007891 V 12.240516 H -4.7483741 Z"
         sodipodi:nodetypes="ccccc"
         inkscape:label="social"
         transform="translate(0,2.1166667)" />
      <text
         xml:space="preserve"
         style="font-size:2.64583px;font-family:'Comic Neue';-inkscape-font-specification:'Comic Neue';fill:#ffffff;fill-opacity:1;stroke-width:0.79375;stroke-dasharray:3.175, 0.79375"
         x="40.731983"
         y="4.9212298"
         id="text3438"
         inkscape:label="emel"
         transform="translate(0,2.1166667)"><tspan
           sodipodi:role="line"
           id="tspan3436"
           style="stroke-width:0.79375"
           x="40.731983"
           y="4.9212298">e-mel</tspan></text>
      <text
         xml:space="preserve"
         style="font-size:2.64583px;line-height:1.85208px;font-family:'Comic Neue';-inkscape-font-specification:'Comic Neue';text-align:end;text-anchor:end;fill:#ffffff;fill-opacity:1;stroke-width:0.79375;stroke-dasharray:3.175, 0.79375"
         x="5.1217189"
         y="8.1042032"
         id="text2911"
         inkscape:label="mediasosial"
         transform="translate(0,2.1166667)"><tspan
           id="tspan2909"
           style="font-size:2.64583px;text-align:end;text-anchor:end;fill:#ffffff;fill-opacity:1;stroke-width:0.79375"
           x="5.1217189"
           y="8.1042032"
           sodipodi:role="line">media</tspan><tspan
           style="font-size:2.64583px;text-align:end;text-anchor:end;fill:#ffffff;fill-opacity:1;stroke-width:0.79375"
           x="5.1217189"
           y="9.9562836"
           id="tspan2963"
           sodipodi:role="line">sosial</tspan></text>
      <text
         xml:space="preserve"
         style="font-size:2.64583px;line-height:1.85208px;font-family:'Comic Neue';-inkscape-font-specification:'Comic Neue';text-align:center;text-anchor:middle;fill:#ffffff;fill-opacity:1;stroke-width:0.79375;stroke-dasharray:3.175, 0.79375"
         x="78.861969"
         y="12.272422"
         id="text3442"
         inkscape:label="lamansesawang"
         transform="translate(0,2.1166667)"><tspan
           style="text-align:end;text-anchor:end;stroke-width:0.79375"
           sodipodi:role="line"
           id="tspan3446"
           x="78.861969"
           y="12.272422">laman</tspan><tspan
           sodipodi:role="line"
           style="text-align:end;text-anchor:end;stroke-width:0.79375"
           x="78.861969"
           y="14.124502"
           id="tspan3444">sesawang</tspan></text>
      <text
         xml:space="preserve"
         style="font-style:normal;font-variant:normal;font-weight:normal;font-stretch:normal;font-size:5.29167px;font-family:'Nova Square';-inkscape-font-specification:'Nova Square';fill:#000000;fill-opacity:0;stroke:none;stroke-width:0.131173;stroke-dasharray:none"
         x="50.544216"
         y="11.527911"
         id="text4902"
         inkscape:label="jeli.com.my"><tspan
           sodipodi:role="line"
           id="tspan4900"
           style="font-style:normal;font-variant:normal;font-weight:normal;font-stretch:normal;font-family:'Nova Square';-inkscape-font-specification:'Nova Square';fill:#000000;fill-opacity:1;stroke-width:0.131173"
           x="50.544216"
           y="11.527911">jeli.com.my</tspan></text>
      <text
         xml:space="preserve"
         style="font-style:normal;font-variant:normal;font-weight:normal;font-stretch:normal;font-size:5.29167px;font-family:'Comic Neue';-inkscape-font-specification:'Comic Neue';fill:#000000;fill-opacity:1;stroke:none;stroke-width:0.131173;stroke-dasharray:none"
         x="46.49609"
         y="11.609933"
         id="text4906"
         inkscape:label="@"><tspan
           sodipodi:role="line"
           id="tspan4904"
           style="stroke-width:0.131173"
           x="46.49609"
           y="11.609933">@</tspan></text>
      <text
         xml:space="preserve"
         style="font-style:normal;font-variant:normal;font-weight:normal;font-stretch:normal;font-size:5.29167px;font-family:'Nova Square';-inkscape-font-specification:'Nova Square';fill:#ffffff;fill-opacity:1;stroke:none;stroke-width:0.131173;stroke-dasharray:none"
         x="9.8303766"
         y="12.038557"
         id="text4910"
         inkscape:label="darwishzainstd"><tspan
           sodipodi:role="line"
           id="tspan4908"
           style="font-style:normal;font-variant:normal;font-weight:normal;font-stretch:normal;font-family:'Nova Square';-inkscape-font-specification:'Nova Square';fill:#000000;fill-opacity:1;stroke-width:0.131173"
           x="9.8303766"
           y="12.038557">darwishzainstd</tspan></text>
      <text
         xml:space="preserve"
         style="font-style:normal;font-variant:normal;font-weight:normal;font-stretch:normal;font-size:5.29167px;font-family:'Comic Neue';-inkscape-font-specification:'Comic Neue';fill:#000000;fill-opacity:1;stroke:none;stroke-width:0.131173;stroke-dasharray:none"
         x="5.640656"
         y="11.609933"
         id="text4914"
         inkscape:label="@"><tspan
           sodipodi:role="line"
           id="tspan4912"
           style="stroke-width:0.131173"
           x="5.640656"
           y="11.609933">@</tspan></text>
    </g>
    <g
       inkscape:label="QR Code: https://jeli.com.my"
       transform="matrix(0.11764315,0,0,0.11764315,60.880265,21.139013)"
       id="g1215">
      <rect
         x="0"
         y="0"
         width="148"
         height="148"
         style="fill:#ffffff;stroke:none"
         id="rect1209" />
      <g
         style="fill:#000000;stroke:none"
         id="g1213">
        <path
           d="m 127.6,132 h -3.2 c -0.22091,0 -0.4,-0.17909 -0.4,-0.4 v -7.2 c 0,-0.22091 0.17909,-0.4 0.4,-0.4 h 3.6 v 7.6 c 0,0.22091 -0.17909,0.4 -0.4,0.4 z m -16,0 h -7.2 c -0.22091,0 -0.4,-0.17909 -0.4,-0.4 v -7.2 c 0,-0.22091 0.17909,-0.4 0.4,-0.4 h 3.6 v 3.6 c 0,0.22091 0.17909,0.4 0.4,0.4 h 3.6 v 3.6 c 0,0.22091 -0.17909,0.4 -0.4,0.4 z m -16,0 h -7.2 c -0.220914,0 -0.4,-0.17909 -0.4,-0.4 v -3.2 c 0,-0.22091 -0.179086,-0.4 -0.4,-0.4 h -7.2 c -0.220914,0 -0.4,0.17909 -0.4,0.4 v 3.2 c 0,0.22091 -0.179086,0.4 -0.4,0.4 h -7.2 c -0.220914,0 -0.4,-0.17909 -0.4,-0.4 v -3.2 c 0,-0.22091 -0.179086,-0.4 -0.4,-0.4 h -3.2 c -0.220914,0 -0.4,-0.17909 -0.4,-0.4 v -3.2 C 68,124.17909 67.820914,124 67.6,124 H 64 v -4 h 3.6 c 0.220914,0 0.4,-0.17909 0.4,-0.4 v -3.2 c 0,-0.22091 0.179086,-0.4 0.4,-0.4 h 3.2 c 0.220914,0 0.4,-0.17909 0.4,-0.4 V 108 h 11.6 c 0.220914,0 0.4,-0.17909 0.4,-0.4 v -3.2 C 84,104.17909 83.820914,104 83.6,104 H 72 v -3.6 c 0,-0.22091 0.179086,-0.4 0.4,-0.4 h 3.2 c 0.220914,0 0.4,-0.179086 0.4,-0.4 V 96.4 C 76,96.179086 76.179086,96 76.4,96 h 3.2 c 0.220914,0 0.4,0.179086 0.4,0.4 v 3.2 c 0,0.220914 0.179086,0.4 0.4,0.4 h 3.2 c 0.220914,0 0.4,-0.179086 0.4,-0.4 V 88 h 3.6 C 87.820914,88 88,87.820914 88,87.6 V 84.4 C 88,84.179086 88.179086,84 88.4,84 h 3.2 C 91.820914,84 92,83.820914 92,83.6 V 80.4 C 92,80.179086 91.820914,80 91.6,80 H 76.4 C 76.179086,80 76,80.179086 76,80.4 v 3.2 c 0,0.220914 0.179086,0.4 0.4,0.4 h 7.2 c 0.220914,0 0.4,0.179086 0.4,0.4 V 88 H 80.4 C 80.179086,88 80,88.179086 80,88.4 v 3.2 C 80,91.820914 79.820914,92 79.6,92 H 72 V 84.4 C 72,84.179086 71.820914,84 71.6,84 H 60.4 C 60.179086,84 60,83.820914 60,83.6 V 80.4 C 60,80.179086 60.179086,80 60.4,80 h 3.2 C 63.820914,80 64,79.820914 64,79.6 V 68.4 C 64,68.179086 64.179086,68 64.4,68 h 3.2 C 67.820914,68 68,67.820914 68,67.6 V 64.4 C 68,64.179086 67.820914,64 67.6,64 H 56.4 C 56.179086,64 56,63.820914 56,63.6 V 60.4 C 56,60.179086 55.820914,60 55.6,60 H 52.4 C 52.179086,60 52,59.820914 52,59.6 V 56.4 C 52,56.179086 51.820914,56 51.6,56 H 48.4 C 48.179086,56 48,56.179086 48,56.4 v 3.2 C 48,59.820914 47.820914,60 47.6,60 H 40 v -4 h 3.6 C 43.820914,56 44,55.820914 44,55.6 V 52.4 C 44,52.179086 43.820914,52 43.6,52 H 40 V 48.4 C 40,48.179086 40.179086,48 40.4,48 h 7.2 C 47.820914,48 48,47.820914 48,47.6 V 40.4 C 48,40.179086 48.179086,40 48.4,40 h 3.2 c 0.220914,0 0.4,0.179086 0.4,0.4 v 7.2 c 0,0.220914 0.179086,0.4 0.4,0.4 H 56 v 7.6 c 0,0.220914 0.179086,0.4 0.4,0.4 h 3.2 c 0.220914,0 0.4,0.179086 0.4,0.4 v 3.2 c 0,0.220914 0.179086,0.4 0.4,0.4 h 3.2 C 63.820914,60 64,59.820914 64,59.6 V 56.4 C 64,56.179086 64.179086,56 64.4,56 H 72 v 3.6 c 0,0.220914 0.179086,0.4 0.4,0.4 H 76 v 4 H 72.4 C 72.179086,64 72,64.179086 72,64.4 v 11.2 c 0,0.220914 0.179086,0.4 0.4,0.4 h 3.2 C 75.820914,76 76,75.820914 76,75.6 V 72.4 C 76,72.179086 76.179086,72 76.4,72 h 3.2 C 79.820914,72 80,71.820914 80,71.6 V 68 h 3.6 C 83.820914,68 84,67.820914 84,67.6 V 64.4 C 84,64.179086 84.179086,64 84.4,64 h 3.2 C 87.820914,64 88,63.820914 88,63.6 V 56.4 C 88,56.179086 87.820914,56 87.6,56 H 84.4 C 84.179086,56 84,56.179086 84,56.4 v 3.2 C 84,59.820914 83.820914,60 83.6,60 H 76 V 56.4 C 76,56.179086 75.820914,56 75.6,56 H 72 V 52 H 87.6 C 87.820914,52 88,51.820914 88,51.6 V 48.4 C 88,48.179086 88.179086,48 88.4,48 h 7.2 c 0.220914,0 0.4,0.179086 0.4,0.4 V 52 H 92.4 C 92.179086,52 92,52.179086 92,52.4 v 3.2 c 0,0.220914 0.179086,0.4 0.4,0.4 h 3.2 C 95.820914,56 96,55.820914 96,55.6 V 52 h 4 V 64 H 96 V 60.4 C 96,60.179086 95.820914,60 95.6,60 H 92.4 C 92.179086,60 92,60.179086 92,60.4 v 3.2 c 0,0.220914 0.179086,0.4 0.4,0.4 H 96 V 88 H 92.4 C 92.179086,88 92,88.179086 92,88.4 v 3.2 C 92,91.820914 91.820914,92 91.6,92 H 88.4 C 88.179086,92 88,92.179086 88,92.4 v 3.2 c 0,0.220914 0.179086,0.4 0.4,0.4 h 7.2 C 95.820914,96 96,95.820914 96,95.6 V 88 h 3.6 c 0.220914,0 0.4,0.179086 0.4,0.4 v 3.2 c 0,0.220914 0.17909,0.4 0.4,0.4 h 3.2 c 0.22091,0 0.4,-0.179086 0.4,-0.4 v -7.2 c 0,-0.220914 0.17909,-0.4 0.4,-0.4 h 3.2 c 0.22091,0 0.4,-0.179086 0.4,-0.4 v -3.2 c 0,-0.220914 0.17909,-0.4 0.4,-0.4 h 3.2 c 0.22091,0 0.4,-0.179086 0.4,-0.4 v -3.2 c 0,-0.220914 -0.17909,-0.4 -0.4,-0.4 h -3.2 c -0.22091,0 -0.4,-0.179086 -0.4,-0.4 v -3.2 c 0,-0.220914 -0.17909,-0.4 -0.4,-0.4 h -3.2 C 104.17909,72 104,71.820914 104,71.6 V 68 h 3.6 c 0.22091,0 0.4,-0.179086 0.4,-0.4 V 60 h 8 v 3.6 c 0,0.220914 -0.17909,0.4 -0.4,0.4 h -3.2 c -0.22091,0 -0.4,0.179086 -0.4,0.4 v 7.2 c 0,0.220914 0.17909,0.4 0.4,0.4 h 3.2 c 0.22091,0 0.4,-0.179086 0.4,-0.4 v -3.2 c 0,-0.220914 0.17909,-0.4 0.4,-0.4 h 3.2 c 0.22091,0 0.4,-0.179086 0.4,-0.4 v -3.2 c 0,-0.220914 0.17909,-0.4 0.4,-0.4 h 7.2 c 0.22091,0 0.4,-0.179086 0.4,-0.4 V 60 h 3.6 c 0.22091,0 0.4,0.179086 0.4,0.4 v 23.2 c 0,0.220914 -0.17909,0.4 -0.4,0.4 H 124 V 72 h 3.6 c 0.22091,0 0.4,-0.179086 0.4,-0.4 v -3.2 c 0,-0.220914 -0.17909,-0.4 -0.4,-0.4 h -3.2 c -0.22091,0 -0.4,0.179086 -0.4,0.4 V 72 h -3.6 c -0.22091,0 -0.4,0.179086 -0.4,0.4 V 84 h -7.6 c -0.22091,0 -0.4,0.179086 -0.4,0.4 v 3.2 c 0,0.220914 -0.17909,0.4 -0.4,0.4 h -3.2 c -0.22091,0 -0.4,0.179086 -0.4,0.4 v 7.2 c 0,0.220914 0.17909,0.4 0.4,0.4 h 3.2 c 0.22091,0 0.4,-0.179086 0.4,-0.4 v -3.2 c 0,-0.220914 0.17909,-0.4 0.4,-0.4 h 3.2 c 0.22091,0 0.4,-0.179086 0.4,-0.4 v -3.2 c 0,-0.220914 0.17909,-0.4 0.4,-0.4 h 3.2 c 0.22091,0 0.4,-0.179086 0.4,-0.4 V 84 h 4 v 7.6 c 0,0.220914 0.17909,0.4 0.4,0.4 h 7.2 c 0.22091,0 0.4,0.179086 0.4,0.4 v 11.2 c 0,0.22091 -0.17909,0.4 -0.4,0.4 H 124 v -4 h 3.6 c 0.22091,0 0.4,-0.179086 0.4,-0.4 v -3.2 c 0,-0.220914 -0.17909,-0.4 -0.4,-0.4 h -3.2 c -0.22091,0 -0.4,0.179086 -0.4,0.4 v 3.6 h -3.6 c -0.22091,0 -0.4,0.17909 -0.4,0.4 v 3.6 h -3.6 c -0.22091,0 -0.4,0.17909 -0.4,0.4 v 7.2 c 0,0.22091 0.17909,0.4 0.4,0.4 h 7.2 c 0.22091,0 0.4,-0.17909 0.4,-0.4 V 108 h 7.6 c 0.22091,0 0.4,0.17909 0.4,0.4 v 7.2 c 0,0.22091 -0.17909,0.4 -0.4,0.4 h -3.2 c -0.22091,0 -0.4,0.17909 -0.4,0.4 v 3.6 h -3.6 c -0.22091,0 -0.4,-0.17909 -0.4,-0.4 v -3.2 c 0,-0.22091 -0.17909,-0.4 -0.4,-0.4 h -3.2 c -0.22091,0 -0.4,0.17909 -0.4,0.4 v 3.2 c 0,0.22091 -0.17909,0.4 -0.4,0.4 H 112 v -3.6 c 0,-0.22091 -0.17909,-0.4 -0.4,-0.4 H 96 v -7.6 c 0,-0.22091 -0.179086,-0.4 -0.4,-0.4 h -7.2 c -0.220914,0 -0.4,0.17909 -0.4,0.4 v 7.2 c 0,0.22091 -0.179086,0.4 -0.4,0.4 h -3.2 c -0.220914,0 -0.4,-0.17909 -0.4,-0.4 v -3.2 c 0,-0.22091 -0.179086,-0.4 -0.4,-0.4 h -3.2 c -0.220914,0 -0.4,0.17909 -0.4,0.4 v 7.2 c 0,0.22091 0.179086,0.4 0.4,0.4 h 3.2 c 0.220914,0 0.4,0.17909 0.4,0.4 v 3.2 c 0,0.22091 0.179086,0.4 0.4,0.4 h 3.2 c 0.220914,0 0.4,-0.17909 0.4,-0.4 v -3.2 c 0,-0.22091 0.179086,-0.4 0.4,-0.4 H 92 v 7.6 c 0,0.22091 0.179086,0.4 0.4,0.4 h 3.2 c 0.220914,0 0.4,0.17909 0.4,0.4 v 3.2 c 0,0.22091 -0.179086,0.4 -0.4,0.4 z m -32,0 H 52.4 C 52.179086,132 52,131.82091 52,131.6 V 124 h 3.6 c 0.220914,0 0.4,-0.17909 0.4,-0.4 v -3.2 c 0,-0.22091 0.179086,-0.4 0.4,-0.4 H 60 v 3.6 c 0,0.22091 0.179086,0.4 0.4,0.4 H 64 v 7.6 c 0,0.22091 -0.179086,0.4 -0.4,0.4 z m -20,0 H 16.4 c -0.220914,0 -0.4,-0.17909 -0.4,-0.4 v -27.2 c 0,-0.22091 0.179086,-0.4 0.4,-0.4 h 27.2 c 0.220914,0 0.4,0.17909 0.4,0.4 v 27.2 c 0,0.22091 -0.179086,0.4 -0.4,0.4 z m 72,-4 H 112 v -4 h 3.6 c 0.22091,0 0.4,0.17909 0.4,0.4 v 3.2 c 0,0.22091 -0.17909,0.4 -0.4,0.4 z M 40,127.6 V 108.4 C 40,108.17909 39.820914,108 39.6,108 H 20.4 c -0.220914,0 -0.4,0.17909 -0.4,0.4 v 19.2 c 0,0.22091 0.179086,0.4 0.4,0.4 h 19.2 c 0.220914,0 0.4,-0.17909 0.4,-0.4 z M 131.6,124 H 128 v -4 h 3.6 c 0.22091,0 0.4,0.17909 0.4,0.4 v 3.2 c 0,0.22091 -0.17909,0.4 -0.4,0.4 z m -20,0 H 108 v -3.6 c 0,-0.22091 0.17909,-0.4 0.4,-0.4 h 3.6 v 4 z m -12,0 H 96.4 C 96.179086,124 96,123.82091 96,123.6 V 120 h 3.6 c 0.220914,0 0.4,0.17909 0.4,0.4 v 3.2 c 0,0.22091 -0.179086,0.4 -0.4,0.4 z M 76,123.6 v -3.2 c 0,-0.22091 -0.179086,-0.4 -0.4,-0.4 h -3.2 c -0.220914,0 -0.4,0.17909 -0.4,0.4 v 3.2 c 0,0.22091 0.179086,0.4 0.4,0.4 h 3.2 c 0.220914,0 0.4,-0.17909 0.4,-0.4 z M 51.6,124 h -3.2 c -0.220914,0 -0.4,-0.17909 -0.4,-0.4 v -7.2 c 0,-0.22091 0.179086,-0.4 0.4,-0.4 H 52 v 8 z m -16,0 H 24.4 c -0.220914,0 -0.4,-0.17909 -0.4,-0.4 v -11.2 c 0,-0.22091 0.179086,-0.4 0.4,-0.4 h 11.2 c 0.220914,0 0.4,0.17909 0.4,0.4 v 11.2 c 0,0.22091 -0.179086,0.4 -0.4,0.4 z m 60,-4 H 92 v -3.6 c 0,-0.22091 0.179086,-0.4 0.4,-0.4 H 96 v 4 z m -32,0 H 60 v -11.6 c 0,-0.22091 0.179086,-0.4 0.4,-0.4 H 68 v 3.6 c 0,0.22091 -0.179086,0.4 -0.4,0.4 h -3.2 c -0.220914,0 -0.4,0.17909 -0.4,0.4 v 7.6 z m -8,-4 H 52 v -3.6 c 0,-0.22091 0.179086,-0.4 0.4,-0.4 h 3.2 c 0.220914,0 0.4,0.17909 0.4,0.4 v 3.2 c 0,0.22091 -0.179086,0.4 -0.4,0.4 z m 56.4,-4.4 v -11.2 c 0,-0.22091 -0.17909,-0.4 -0.4,-0.4 h -11.2 c -0.22091,0 -0.4,0.17909 -0.4,0.4 v 11.2 c 0,0.22091 0.17909,0.4 0.4,0.4 h 11.2 c 0.22091,0 0.4,-0.17909 0.4,-0.4 z m 11.6,-3.6 h -3.2 c -0.22091,0 -0.4,-0.17909 -0.4,-0.4 V 104 h 4 v 4 z m -16,0 h -3.2 c -0.22091,0 -0.4,-0.17909 -0.4,-0.4 v -3.2 c 0,-0.22091 0.17909,-0.4 0.4,-0.4 h 3.2 c 0.22091,0 0.4,0.17909 0.4,0.4 v 3.2 c 0,0.22091 -0.17909,0.4 -0.4,0.4 z m -36,0 H 68 v -3.6 c 0,-0.22091 0.179086,-0.4 0.4,-0.4 H 72 v 4 z m -20,0 H 48.4 C 48.179086,108 48,107.82091 48,107.6 V 100 h 4 v 7.6 c 0,0.22091 -0.179086,0.4 -0.4,0.4 z M 96,103.6 v -3.2 c 0,-0.22091 -0.179086,-0.4 -0.4,-0.4 h -7.2 c -0.220914,0 -0.4,0.17909 -0.4,0.4 v 3.2 c 0,0.22091 0.179086,0.4 0.4,0.4 h 7.2 c 0.220914,0 0.4,-0.17909 0.4,-0.4 z M 59.6,104 h -3.2 c -0.220914,0 -0.4,-0.17909 -0.4,-0.4 v -3.2 C 56,100.17909 55.820914,100 55.6,100 H 52 V 96.4 C 52,96.179086 52.179086,96 52.4,96 h 7.2 c 0.220914,0 0.4,0.179086 0.4,0.4 v 7.2 c 0,0.22091 -0.179086,0.4 -0.4,0.4 z m 8,-4 H 64.4 C 64.179086,100 64,99.820914 64,99.6 V 92.4 C 64,92.179086 64.179086,92 64.4,92 H 72 v 3.6 C 72,95.820914 71.820914,96 71.6,96 H 68.4 C 68.179086,96 68,96.179086 68,96.4 v 3.2 c 0,0.220914 -0.179086,0.4 -0.4,0.4 z m -20,0 H 40.4 C 40.179086,100 40,99.820914 40,99.6 V 96.4 C 40,96.179086 40.179086,96 40.4,96 h 3.2 C 43.820914,96 44,95.820914 44,95.6 V 92 h 3.6 c 0.220914,0 0.4,0.179086 0.4,0.4 v 7.6 z m -20,0 H 20.4 C 20.179086,100 20,99.820914 20,99.6 V 96.4 C 20,96.179086 20.179086,96 20.4,96 h 3.2 C 23.820914,96 24,95.820914 24,95.6 V 92.4 C 24,92.179086 24.179086,92 24.4,92 H 28 v 7.6 c 0,0.220914 -0.179086,0.4 -0.4,0.4 z m 8,-4 H 32.4 C 32.179086,96 32,95.820914 32,95.6 V 92.4 C 32,92.179086 31.820914,92 31.6,92 H 28 V 88.4 C 28,88.179086 27.820914,88 27.6,88 H 24.4 C 24.179086,88 24,87.820914 24,87.6 V 84.4 C 24,84.179086 23.820914,84 23.6,84 H 20.4 C 20.179086,84 20,83.820914 20,83.6 V 80 H 35.6 C 35.820914,80 36,79.820914 36,79.6 V 76 h 4 v 3.6 c 0,0.220914 0.179086,0.4 0.4,0.4 h 3.2 c 0.220914,0 0.4,0.179086 0.4,0.4 v 3.2 C 44,83.820914 43.820914,84 43.6,84 H 40.4 C 40.179086,84 40,84.179086 40,84.4 V 88 H 36 V 84.4 C 36,84.179086 35.820914,84 35.6,84 H 32.4 C 32.179086,84 32,84.179086 32,84.4 v 3.2 c 0,0.220914 0.179086,0.4 0.4,0.4 H 36 v 7.6 c 0,0.220914 -0.179086,0.4 -0.4,0.4 z m 24,-4 H 56.4 C 56.179086,92 56,91.820914 56,91.6 V 88 h 3.6 c 0.220914,0 0.4,0.179086 0.4,0.4 v 3.2 c 0,0.220914 -0.179086,0.4 -0.4,0.4 z m -16,0 H 40.4 C 40.179086,92 40,91.820914 40,91.6 V 88 h 3.6 c 0.220914,0 0.4,0.179086 0.4,0.4 V 92 Z m -24,0 H 16.4 C 16.179086,92 16,91.820914 16,91.6 V 88.4 C 16,88.179086 16.179086,88 16.4,88 h 3.2 c 0.220914,0 0.4,0.179086 0.4,0.4 v 3.2 c 0,0.220914 -0.179086,0.4 -0.4,0.4 z m 36,-4 H 52.4 C 52.179086,88 52,87.820914 52,87.6 V 84.4 C 52,84.179086 52.179086,84 52.4,84 h 3.2 c 0.220914,0 0.4,0.179086 0.4,0.4 V 88 Z m 0,-8 H 52.4 C 52.179086,80 52,79.820914 52,79.6 V 76 h 4 v 3.6 c 0,0.220914 -0.179086,0.4 -0.4,0.4 z m -36,0 H 16.4 C 16.179086,80 16,79.820914 16,79.6 V 64.4 C 16,64.179086 16.179086,64 16.4,64 H 20 v 3.6 c 0,0.220914 0.179086,0.4 0.4,0.4 H 24 v 7.6 C 24,75.820914 23.820914,76 23.6,76 H 20.4 C 20.179086,76 20,76.179086 20,76.4 V 80 Z M 92,75.6 V 68.4 C 92,68.179086 91.820914,68 91.6,68 H 88.4 C 88.179086,68 88,68.179086 88,68.4 v 3.2 C 88,71.820914 87.820914,72 87.6,72 H 84.4 C 84.179086,72 84,72.179086 84,72.4 v 3.2 c 0,0.220914 0.179086,0.4 0.4,0.4 h 7.2 C 91.820914,76 92,75.820914 92,75.6 Z M 59.6,76 H 56 v -4 h 3.6 c 0.220914,0 0.4,0.179086 0.4,0.4 v 3.2 c 0,0.220914 -0.179086,0.4 -0.4,0.4 z m -8,0 H 48.4 C 48.179086,76 48,75.820914 48,75.6 V 72 h 4 v 4 z m -8,0 H 40 V 72.4 C 40,72.179086 40.179086,72 40.4,72 H 44 v 3.6 c 0,0.220914 -0.179086,0.4 -0.4,0.4 z m -8,0 H 28.4 C 28.179086,76 28,75.820914 28,75.6 V 68 h 4 v 3.6 c 0,0.220914 0.179086,0.4 0.4,0.4 h 3.2 c 0.220914,0 0.4,0.179086 0.4,0.4 V 76 Z m 20,-4 H 52 v -4 h 3.6 c 0.220914,0 0.4,0.179086 0.4,0.4 V 72 Z m -8,0 H 44 v -4 h 4 v 4 z m 56,-4 h -3.2 C 100.17909,68 100,67.820914 100,67.6 V 64 h 3.6 c 0.22091,0 0.4,0.179086 0.4,0.4 V 68 Z m -24,0 H 76.4 C 76.179086,68 76,67.820914 76,67.6 V 64 h 3.6 c 0.220914,0 0.4,0.179086 0.4,0.4 V 68 Z m -28,0 H 48 V 64.4 C 48,64.179086 48.179086,64 48.4,64 h 3.2 c 0.220914,0 0.4,0.179086 0.4,0.4 V 68 Z m -8,0 H 32 v -4 h 3.6 C 35.820914,64 36,63.820914 36,63.6 V 60 h 4 v 3.6 c 0,0.220914 0.179086,0.4 0.4,0.4 h 3.2 c 0.220914,0 0.4,0.179086 0.4,0.4 V 68 Z m -16,0 H 24 V 64.4 C 24,64.179086 23.820914,64 23.6,64 H 20 V 56.4 C 20,56.179086 19.820914,56 19.6,56 H 16.4 C 16.179086,56 16,55.820914 16,55.6 V 52.4 C 16,52.179086 16.179086,52 16.4,52 h 7.2 C 23.820914,52 24,51.820914 24,51.6 V 48.4 C 24,48.179086 24.179086,48 24.4,48 h 7.2 c 0.220914,0 0.4,0.179086 0.4,0.4 v 3.2 c 0,0.220914 0.179086,0.4 0.4,0.4 H 40 v 4 H 36.4 C 36.179086,56 36,56.179086 36,56.4 V 60 H 32 V 56.4 C 32,56.179086 31.820914,56 31.6,56 H 24.4 C 24.179086,56 24,56.179086 24,56.4 v 3.2 c 0,0.220914 0.179086,0.4 0.4,0.4 H 32 v 4 H 28.4 C 28.179086,64 28,64.179086 28,64.4 V 68 Z m 100,-8 h -3.2 c -0.22091,0 -0.4,-0.179086 -0.4,-0.4 v -3.2 c 0,-0.220914 0.17909,-0.4 0.4,-0.4 h 3.6 v 4 z m -8,0 H 116 v -4 h 3.6 c 0.22091,0 0.4,0.179086 0.4,0.4 v 3.2 c 0,0.220914 -0.17909,0.4 -0.4,0.4 z m -12,0 h -3.2 C 104.17909,60 104,59.820914 104,59.6 V 52.4 C 104,52.179086 103.82091,52 103.6,52 H 100 v -3.6 c 0,-0.220914 0.17909,-0.4 0.4,-0.4 h 7.2 c 0.22091,0 0.4,0.179086 0.4,0.4 v 3.2 c 0,0.220914 0.17909,0.4 0.4,0.4 h 3.2 c 0.22091,0 0.4,-0.179086 0.4,-0.4 v -3.2 c 0,-0.220914 0.17909,-0.4 0.4,-0.4 h 3.2 c 0.22091,0 0.4,0.179086 0.4,0.4 V 56 h -7.6 c -0.22091,0 -0.4,0.179086 -0.4,0.4 V 60 Z m 24,-4 H 128 v -3.6 c 0,-0.220914 0.17909,-0.4 0.4,-0.4 h 3.2 c 0.22091,0 0.4,0.179086 0.4,0.4 v 3.2 c 0,0.220914 -0.17909,0.4 -0.4,0.4 z m -60,-4 H 68.4 C 68.179086,52 68,51.820914 68,51.6 V 44 h 3.6 C 71.820914,44 72,43.820914 72,43.6 V 36.4 C 72,36.179086 71.820914,36 71.6,36 H 64.4 C 64.179086,36 64,35.820914 64,35.6 V 32 h 7.6 C 71.820914,32 72,31.820914 72,31.6 V 28.4 C 72,28.179086 72.179086,28 72.4,28 h 7.2 c 0.220914,0 0.4,0.179086 0.4,0.4 V 32 H 76.4 C 76.179086,32 76,32.179086 76,32.4 V 47.6 C 76,47.820914 75.820914,48 75.6,48 H 72.4 C 72.179086,48 72,48.179086 72,48.4 V 52 Z m -8,0 H 60.4 C 60.179086,52 60,51.820914 60,51.6 V 48.4 C 60,48.179086 59.820914,48 59.6,48 H 56 V 36 h 3.6 c 0.220914,0 0.4,0.179086 0.4,0.4 v 7.2 c 0,0.220914 0.179086,0.4 0.4,0.4 H 64 v 7.6 c 0,0.220914 -0.179086,0.4 -0.4,0.4 z m 68,-8 H 104.4 C 104.17909,44 104,43.820914 104,43.6 V 16.4 c 0,-0.220914 0.17909,-0.4 0.4,-0.4 h 27.2 c 0.22091,0 0.4,0.179086 0.4,0.4 v 27.2 c 0,0.220914 -0.17909,0.4 -0.4,0.4 z m -32,0 H 96.4 C 96.179086,44 96,43.820914 96,43.6 V 40.4 C 96,40.179086 95.820914,40 95.6,40 H 92.4 C 92.179086,40 92,40.179086 92,40.4 v 3.2 C 92,43.820914 91.820914,44 91.6,44 H 88.4 C 88.179086,44 88,43.820914 88,43.6 V 40.4 C 88,40.179086 87.820914,40 87.6,40 H 84.4 C 84.179086,40 84,40.179086 84,40.4 v 3.2 C 84,43.820914 83.820914,44 83.6,44 H 80.4 C 80.179086,44 80,43.820914 80,43.6 V 32 h 4 v 3.6 c 0,0.220914 0.179086,0.4 0.4,0.4 h 7.2 C 91.820914,36 92,35.820914 92,35.6 V 32.4 C 92,32.179086 92.179086,32 92.4,32 h 3.2 c 0.220914,0 0.4,0.179086 0.4,0.4 v 3.2 c 0,0.220914 0.179086,0.4 0.4,0.4 h 3.2 c 0.220914,0 0.4,0.179086 0.4,0.4 v 7.2 c 0,0.220914 -0.179086,0.4 -0.4,0.4 z m -32,0 H 64 V 40.4 C 64,40.179086 64.179086,40 64.4,40 h 3.2 c 0.220914,0 0.4,0.179086 0.4,0.4 V 44 Z m -24,0 H 16.4 C 16.179086,44 16,43.820914 16,43.6 V 16.4 C 16,16.179086 16.179086,16 16.4,16 h 27.2 c 0.220914,0 0.4,0.179086 0.4,0.4 V 43.6 C 44,43.820914 43.820914,44 43.6,44 Z M 128,39.6 V 20.4 c 0,-0.220914 -0.17909,-0.4 -0.4,-0.4 h -19.2 c -0.22091,0 -0.4,0.179086 -0.4,0.4 v 19.2 c 0,0.220914 0.17909,0.4 0.4,0.4 h 19.2 c 0.22091,0 0.4,-0.179086 0.4,-0.4 z m -88,0 V 20.4 C 40,20.179086 39.820914,20 39.6,20 H 20.4 C 20.179086,20 20,20.179086 20,20.4 v 19.2 c 0,0.220914 0.179086,0.4 0.4,0.4 H 39.6 C 39.820914,40 40,39.820914 40,39.6 Z M 123.6,36 H 112.4 C 112.17909,36 112,35.820914 112,35.6 V 24.4 c 0,-0.220914 0.17909,-0.4 0.4,-0.4 h 11.2 c 0.22091,0 0.4,0.179086 0.4,0.4 v 11.2 c 0,0.220914 -0.17909,0.4 -0.4,0.4 z m -68,0 H 48.4 C 48.179086,36 48,35.820914 48,35.6 V 32.4 C 48,32.179086 48.179086,32 48.4,32 h 3.2 C 51.820914,32 52,31.820914 52,31.6 V 24.4 C 52,24.179086 52.179086,24 52.4,24 H 56 v 12 z m -20,0 H 24.4 C 24.179086,36 24,35.820914 24,35.6 V 24.4 C 24,24.179086 24.179086,24 24.4,24 h 11.2 c 0.220914,0 0.4,0.179086 0.4,0.4 v 11.2 c 0,0.220914 -0.179086,0.4 -0.4,0.4 z m 52,-4 H 84 V 28.4 C 84,28.179086 84.179086,28 84.4,28 h 3.2 c 0.220914,0 0.4,0.179086 0.4,0.4 v 3.2 c 0,0.220914 -0.179086,0.4 -0.4,0.4 z m -24,0 H 60.4 C 60.179086,32 60,31.820914 60,31.6 V 28.4 C 60,28.179086 60.179086,28 60.4,28 H 64 v 4 z m 32,-4 H 92.4 C 92.179086,28 92,27.820914 92,27.6 V 24 h 3.6 c 0.220914,0 0.4,0.179086 0.4,0.4 v 3.2 c 0,0.220914 -0.179086,0.4 -0.4,0.4 z m -28,0 H 64 v -4 h 4 v 3.6 c 0,0.220914 -0.179086,0.4 -0.4,0.4 z m 24,-4 H 84.4 C 84.179086,24 84,23.820914 84,23.6 V 16.4 C 84,16.179086 84.179086,16 84.4,16 h 3.2 c 0.220914,0 0.4,0.179086 0.4,0.4 v 3.2 c 0,0.220914 0.179086,0.4 0.4,0.4 h 3.2 c 0.220914,0 0.4,0.179086 0.4,0.4 V 24 Z m -12,0 H 76.4 C 76.179086,24 76,23.820914 76,23.6 V 20 h 3.6 c 0.220914,0 0.4,0.179086 0.4,0.4 v 3.2 c 0,0.220914 -0.179086,0.4 -0.4,0.4 z m -8,0 H 68 v -4 h 4 v 3.6 c 0,0.220914 -0.179086,0.4 -0.4,0.4 z m -8,0 H 56 V 16.4 C 56,16.179086 56.179086,16 56.4,16 h 11.2 c 0.220914,0 0.4,0.179086 0.4,0.4 V 20 H 64.4 C 64.179086,20 64,20.179086 64,20.4 V 24 Z m 12,-4 H 72 V 16.4 C 72,16.179086 72.179086,16 72.4,16 h 3.2 c 0.220914,0 0.4,0.179086 0.4,0.4 V 20 Z"
           id="path1211" />
      </g>
    </g>
    <g
       inkscape:groupmode="layer"
       id="layer7"
       inkscape:label="@darwishzainstd@jeli.com.my"
       transform="matrix(0.57133027,0,0,0.57133027,3.5546006,5.144629)"
       style="display:inline">
      <g
         aria-label="jeli.com.my"
         id="text8134"
         style="font-size:5.29167px;font-family:'Nova Square';-inkscape-font-specification:'Nova Square';fill-opacity:0;stroke-width:0.131173"
         inkscape:label="jeli.com.my">
        <path
           d="m 50.544216,12.587279 v -0.02584 l 0.206706,-0.439249 h 0.05168 q 0.258383,0 0.258383,-0.310059 V 8.8148969 l 0.490926,-0.2325441 h 0.02584 v 3.2297792 q 0,0.775147 -0.775147,0.775147 z m 0.555522,-4.4725982 q -0.09043,-0.093018 -0.09043,-0.2222088 0,-0.131775 0.09043,-0.2247926 0.09043,-0.093018 0.219625,-0.093018 0.129191,0 0.219625,0.093018 0.09043,0.093018 0.09043,0.2247926 0,0.1291911 -0.09043,0.2222088 -0.09043,0.093018 -0.219625,0.093018 -0.129191,0 -0.219625,-0.093018 z"
           style="fill-opacity:1"
           id="path6372" />
        <path
           d="m 53.257231,11.527911 q -0.775147,0 -0.775147,-0.775147 V 9.4608527 q 0,-0.775147 0.775147,-0.775147 h 0.594279 q 0.775147,0 0.775147,0.775147 V 9.5977953 L 53.0066,10.85095 q 0.03617,0.211873 0.250631,0.211873 h 0.594279 q 0.258382,0 0.258382,-0.310059 v -0.136942 l 0.490927,-0.232544 h 0.02584 v 0.369486 q 0,0.775147 -0.775147,0.775147 z M 52.998848,10.31093 54.107308,9.4169277 Q 54.091805,9.1507939 53.85151,9.1507939 h -0.594279 q -0.258383,0 -0.258383,0.3100588 z"
           style="fill-opacity:1"
           id="path6369" />
        <path
           d="M 55.530995,11.631264 V 7.7555294 l 0.490926,-0.2325441 h 0.02584 V 11.39872 l -0.490927,0.232544 z"
           style="fill-opacity:1"
           id="path6366" />
        <path
           d="m 57.120046,8.1146808 q -0.09043,-0.093018 -0.09043,-0.2222088 0,-0.131775 0.09043,-0.2247926 0.09043,-0.093018 0.219625,-0.093018 0.129191,0 0.219625,0.093018 0.09043,0.093018 0.09043,0.2247926 0,0.1291911 -0.09043,0.2222088 -0.09043,0.093018 -0.219625,0.093018 -0.129191,0 -0.219625,-0.093018 z m -0.03876,3.5165832 V 8.8148969 l 0.490926,-0.2325441 h 0.02584 V 11.39872 l -0.490926,0.232544 z"
           style="fill-opacity:1"
           id="path6363" />
        <path
           d="m 58.67034,11.48657 q -0.09043,-0.09302 -0.09043,-0.222209 0,-0.131775 0.09043,-0.224792 0.09043,-0.09302 0.219625,-0.09302 0.129191,0 0.219625,0.09302 0.09043,0.09302 0.09043,0.224792 0,0.129191 -0.09043,0.222209 -0.09043,0.09302 -0.219625,0.09302 -0.129191,0 -0.219625,-0.09302 z"
           style="fill-opacity:1"
           id="path6360" />
        <path
           d="m 60.827832,11.527911 q -0.775147,0 -0.775147,-0.775147 V 9.4608527 q 0,-0.775147 0.775147,-0.775147 h 0.594279 q 0.775147,0 0.775147,0.775147 v 0.1369426 l -0.490926,0.2325441 h -0.02584 V 9.4608527 q 0,-0.3100588 -0.258383,-0.3100588 H 60.82783 q -0.258382,0 -0.258382,0.3100588 v 1.2919113 q 0,0.310059 0.258382,0.310059 h 0.594279 q 0.258383,0 0.258383,-0.310059 v -0.136942 l 0.490926,-0.232544 h 0.02584 v 0.369486 q 0,0.775147 -0.775147,0.775147 z"
           style="fill-opacity:1"
           id="path6357" />
        <path
           d="m 63.747553,11.062823 h 0.594279 q 0.258382,0 0.258382,-0.310059 V 9.4608527 q 0,-0.3100588 -0.258382,-0.3100588 h -0.594279 q -0.258383,0 -0.258383,0.3100588 v 1.2919113 q 0,0.310059 0.258383,0.310059 z m 0,0.465088 q -0.775147,0 -0.775147,-0.775147 V 9.4608527 q 0,-0.775147 0.775147,-0.775147 h 0.594279 q 0.775147,0 0.775147,0.775147 v 1.2919113 q 0,0.775147 -0.775147,0.775147 z"
           style="fill-opacity:1"
           id="path6354" />
        <path
           d="M 65.892126,11.631264 V 9.4608527 q 0,-0.775147 0.775147,-0.775147 h 0.59428 q 0.356567,0 0.516764,0.1912029 0.170533,-0.1912029 0.516765,-0.1912029 h 0.594279 q 0.775147,0 0.775147,0.775147 V 11.39872 l -0.490926,0.232544 h -0.02584 V 9.4608527 q 0,-0.3100588 -0.258383,-0.3100588 H 68.29508 q -0.258382,0 -0.258382,0.3100588 V 11.39872 l -0.490927,0.232544 h -0.02584 V 9.4608527 q 0,-0.3100588 -0.258382,-0.3100588 h -0.59428 q -0.258382,0 -0.258382,0.3100588 V 11.39872 l -0.490926,0.232544 z"
           style="fill-opacity:1"
           id="path6351" />
        <path
           d="m 70.607604,11.48657 q -0.09043,-0.09302 -0.09043,-0.222209 0,-0.131775 0.09043,-0.224792 0.09043,-0.09302 0.219625,-0.09302 0.129191,0 0.219625,0.09302 0.09043,0.09302 0.09043,0.224792 0,0.129191 -0.09043,0.222209 -0.09043,0.09302 -0.219625,0.09302 -0.129191,0 -0.219625,-0.09302 z"
           style="fill-opacity:1"
           id="path6348" />
        <path
           d="M 71.989949,11.631264 V 9.4608527 q 0,-0.775147 0.775146,-0.775147 h 0.59428 q 0.356567,0 0.516764,0.1912029 0.170533,-0.1912029 0.516765,-0.1912029 h 0.594279 q 0.775147,0 0.775147,0.775147 V 11.39872 l -0.490926,0.232544 h -0.02584 V 9.4608527 q 0,-0.3100588 -0.258383,-0.3100588 h -0.594279 q -0.258382,0 -0.258382,0.3100588 V 11.39872 l -0.490927,0.232544 h -0.02584 V 9.4608527 q 0,-0.3100588 -0.258382,-0.3100588 h -0.59428 q -0.258382,0 -0.258382,0.3100588 V 11.39872 l -0.490926,0.232544 z"
           style="fill-opacity:1"
           id="path6345" />
        <path
           d="m 77.312625,11.527911 q -0.775147,0 -0.775147,-0.775147 V 8.8148969 l 0.490926,-0.2325441 h 0.02584 v 2.1704112 q 0,0.310059 0.258383,0.310059 h 0.594279 q 0.258382,0 0.258382,-0.310059 V 8.8148969 l 0.490927,-0.2325441 h 0.02584 v 3.2297792 q 0,0.775147 -0.775147,0.775147 h -1.100709 v -0.02584 l 0.206706,-0.439249 h 0.894003 q 0.258382,0 0.258382,-0.310059 v -0.361736 q -0.100769,0.07752 -0.258382,0.07752 z"
           style="fill-opacity:1"
           id="path6342" />
      </g>
      <g
         aria-label="@"
         id="text8138"
         style="font-size:5.29167px;font-family:'Comic Neue';-inkscape-font-specification:'Comic Neue';stroke-width:0.131173"
         inkscape:label="@">
        <path
           d="m 48.739758,12.1391 q -0.513292,0 -0.941917,-0.227542 -0.428626,-0.227542 -0.682626,-0.645584 -0.254,-0.418042 -0.254,-0.963084 0,-0.5450415 0.248709,-0.9842501 0.248708,-0.4445003 0.687917,-0.6932088 0.439208,-0.2540001 0.98425,-0.2540001 0.486834,0 0.889001,0.2328334 0.407458,0.2275418 0.640292,0.6297087 0.232833,0.4021669 0.232833,0.8890009 0,0.47625 -0.232833,0.751417 -0.232834,0.269875 -0.624417,0.269875 -0.201084,0 -0.41275,-0.105833 -0.206376,-0.105834 -0.296334,-0.322792 -0.280458,0.359833 -0.608542,0.359833 -0.28575,0 -0.455084,-0.185208 -0.169333,-0.1905 -0.169333,-0.508001 0,-0.264583 0.116417,-0.4974165 0.121708,-0.2328334 0.328083,-0.3757085 0.211667,-0.1428751 0.460376,-0.1428751 0.248708,0 0.492125,0.1481667 0.121708,0.079375 0.121708,0.1640418 0,0.068792 -0.04762,0.1164167 -0.04763,0.042333 -0.116417,0.042333 -0.04762,0 -0.116416,-0.047625 -0.185209,-0.1058334 -0.328084,-0.1058334 -0.164042,0 -0.301625,0.1005417 -0.132292,0.09525 -0.211667,0.2592926 -0.07408,0.15875 -0.07408,0.338666 0,0.179917 0.07938,0.280459 0.07937,0.09525 0.216958,0.09525 0.185209,0 0.354542,-0.22225 0.169334,-0.227542 0.243417,-0.423334 0.04763,-0.105833 0.153459,-0.105833 0.0635,0 0.111125,0.04763 0.04763,0.04233 0.04763,0.111125 0,0.03704 -0.02117,0.111125 -0.02117,0.07408 -0.02117,0.15875 0,0.179917 0.137584,0.291042 0.137583,0.105833 0.328083,0.105833 0.232834,0 0.375709,-0.174625 0.148167,-0.179916 0.148167,-0.534458 0,-0.3651259 -0.169334,-0.6932095 -0.164042,-0.3280835 -0.492125,-0.529167 -0.328084,-0.2063751 -0.777876,-0.2063751 -0.41275,0 -0.777875,0.1905001 -0.365125,0.1852085 -0.592667,0.5503337 -0.227542,0.3598335 -0.227542,0.8678338 0,0.492126 0.232833,0.841376 0.238126,0.343958 0.597959,0.513292 0.365125,0.174625 0.735542,0.174625 0.481542,0 0.915459,-0.280458 0.07408,-0.05292 0.121709,-0.05292 0.06879,0 0.111125,0.04763 0.04762,0.04763 0.04762,0.111125 0,0.04233 -0.02646,0.07938 -0.02117,0.03704 -0.07937,0.07937 -0.179916,0.132292 -0.465667,0.227542 -0.280458,0.09525 -0.635,0.09525 z"
           id="path6339" />
      </g>
      <g
         aria-label="darwishzainstd"
         id="text6927"
         style="font-size:5.29167px;font-family:'Nova Square';-inkscape-font-specification:'Nova Square';fill:#ffffff;stroke-width:0.131173"
         inkscape:label="darwishzainstd">
        <path
           d="m 10.993097,12.038557 q -0.775147,0 -0.775147,-0.775147 V 9.9714985 q 0,-0.7751469 0.775147,-0.7751469 h 0.594279 q 0.1757,0 0.258383,0.080099 V 8.2661752 l 0.490926,-0.2325441 h 0.02584 V 11.26341 q 0,0.775147 -0.775147,0.775147 z m 0,-0.465088 h 0.594279 q 0.258383,0 0.258383,-0.310059 V 9.9714985 q 0,-0.3100588 -0.258383,-0.3100588 h -0.594279 q -0.258382,0 -0.258382,0.3100588 V 11.26341 q 0,0.310059 0.258382,0.310059 z"
           style="fill:#000000"
           id="path6336" />
        <path
           d="m 13.912817,11.573469 h 0.542603 q 0.258382,0 0.258382,-0.310059 v -0.353984 q 0,-0.310058 -0.258382,-0.310058 h -0.542603 q -0.258382,0 -0.258382,0.310058 v 0.353984 q 0,0.310059 0.258382,0.310059 z m 0,0.465088 q -0.775147,0 -0.775147,-0.775147 v -0.353984 q 0,-0.775147 0.775147,-0.775147 h 0.542603 q 0.134359,0 0.258382,0.07752 V 9.9714985 q 0,-0.3100588 -0.258382,-0.3100588 h -0.925009 v -0.025838 l 0.206706,-0.4392499 h 0.718303 q 0.775147,0 0.775147,0.7751469 v 1.9378673 l -0.490926,0.232544 h -0.02584 v -0.180868 q -0.09818,0.07752 -0.258382,0.07752 z"
           style="fill:#000000"
           id="path6333" />
        <path
           d="M 16.005714,12.14191 V 9.9714985 q 0,-0.7751469 0.775147,-0.7751469 h 0.645955 v 0.025838 l -0.206705,0.4392499 h -0.43925 q -0.258383,0 -0.258383,0.3100588 v 1.9378677 l -0.490926,0.232544 z"
           style="fill:#000000"
           id="path6330" />
        <path
           d="m 18.641214,12.038557 q -0.775147,0 -0.775147,-0.775147 V 9.3255427 l 0.490926,-0.2325441 h 0.02584 V 11.26341 q 0,0.310059 0.258383,0.310059 h 0.594279 q 0.258382,0 0.258382,-0.310059 V 9.3255427 l 0.490927,-0.2325441 h 0.02584 V 11.26341 q 0,0.310059 0.258382,0.310059 h 0.59428 q 0.258382,0 0.258382,-0.310059 V 9.3255427 L 21.61261,9.0929986 h 0.02584 V 11.26341 q 0,0.775147 -0.775147,0.775147 h -0.59428 q -0.356567,0 -0.516764,-0.191203 -0.170533,0.191203 -0.516765,0.191203 z"
           style="fill:#000000"
           id="path6327" />
        <path
           d="m 22.581544,8.6253266 q -0.09043,-0.093018 -0.09043,-0.2222087 0,-0.131775 0.09043,-0.2247927 0.09043,-0.093018 0.219625,-0.093018 0.129191,0 0.219625,0.093018 0.09043,0.093018 0.09043,0.2247927 0,0.1291911 -0.09043,0.2222087 -0.09043,0.093018 -0.219625,0.093018 -0.129191,0 -0.219625,-0.093018 z M 22.542787,12.14191 V 9.3255427 l 0.490926,-0.2325441 h 0.02584 v 2.8163674 l -0.490926,0.232544 z"
           style="fill:#000000"
           id="path6324" />
        <path
           d="m 24.661522,12.038557 q -0.775147,0 -0.775147,-0.775147 v -0.09302 l 0.490926,-0.232544 h 0.02584 v 0.325562 q 0,0.310059 0.258383,0.310059 h 0.594279 q 0.258382,0 0.258382,-0.310059 v -0.204122 q 0,-0.310059 -0.258382,-0.310059 h -0.485759 q -0.775147,0 -0.775147,-0.7777305 0,-0.7751469 0.775147,-0.7751469 h 0.302307 q 0.775147,0 0.775147,0.6252852 L 25.35657,10.054181 H 25.33073 V 9.971498 q 0,-0.3100588 -0.258383,-0.3100588 H 24.77004 q -0.258382,0 -0.258382,0.3100588 0,0.312643 0.258382,0.312643 h 0.485759 q 0.775147,0 0.775147,0.775147 v 0.204122 q 0,0.775147 -0.775147,0.775147 z"
           style="fill:#000000"
           id="path6321" />
        <path
           d="M 26.857771,12.14191 V 8.2661752 l 0.490926,-0.2325441 h 0.02584 v 1.242819 q 0.113688,-0.080099 0.258382,-0.080099 h 0.594279 q 0.775147,0 0.775147,0.7751469 v 1.937868 L 28.511418,12.14191 H 28.48558 V 9.9714985 q 0,-0.3100588 -0.258383,-0.3100588 h -0.594279 q -0.258382,0 -0.258382,0.3100588 v 1.9378675 l -0.490927,0.232544 z"
           style="fill:#000000"
           id="path6318" />
        <path
           d="m 29.519108,12.038557 v -0.02584 l 1.35134,-2.3461116 h -1.325501 v -0.025838 l 0.209289,-0.4444176 h 1.943035 v 0.025838 l -1.348755,2.3461112 h 1.374593 v 0.02584 l -0.209289,0.444418 z"
           style="fill:#000000"
           id="path6315" />
        <path
           d="m 32.885831,11.573469 h 0.542603 q 0.258382,0 0.258382,-0.310059 v -0.353984 q 0,-0.310058 -0.258382,-0.310058 h -0.542603 q -0.258382,0 -0.258382,0.310058 v 0.353984 q 0,0.310059 0.258382,0.310059 z m 0,0.465088 q -0.775147,0 -0.775147,-0.775147 v -0.353984 q 0,-0.775147 0.775147,-0.775147 h 0.542603 q 0.134359,0 0.258382,0.07752 V 9.9714985 q 0,-0.3100588 -0.258382,-0.3100588 h -0.925009 v -0.025838 l 0.206706,-0.4392499 h 0.718303 q 0.775147,0 0.775147,0.7751469 v 1.9378673 l -0.490927,0.232544 h -0.02584 v -0.180868 q -0.09819,0.07752 -0.258382,0.07752 z"
           style="fill:#000000"
           id="path6312" />
        <path
           d="m 35.146675,8.6253266 q -0.09043,-0.093018 -0.09043,-0.2222087 0,-0.131775 0.09043,-0.2247927 0.09043,-0.093018 0.219625,-0.093018 0.129191,0 0.219625,0.093018 0.09043,0.093018 0.09043,0.2247927 0,0.1291911 -0.09043,0.2222087 -0.09043,0.093018 -0.219625,0.093018 -0.129191,0 -0.219625,-0.093018 z M 35.107918,12.14191 V 9.3255427 l 0.490926,-0.2325441 h 0.02584 v 2.8163674 l -0.490926,0.232544 z"
           style="fill:#000000"
           id="path6309" />
        <path
           d="M 36.529021,12.14191 V 9.9714985 q 0,-0.7751469 0.775147,-0.7751469 h 0.59428 q 0.775147,0 0.775147,0.7751469 V 11.909366 L 38.182668,12.14191 H 38.15683 V 9.9714985 q 0,-0.3100588 -0.258382,-0.3100588 h -0.59428 q -0.258382,0 -0.258382,0.3100588 V 11.909366 L 36.55486,12.14191 Z"
           style="fill:#000000"
           id="path6306" />
        <path
           d="m 40.146373,12.038557 q -0.775147,0 -0.775147,-0.775147 v -0.09302 l 0.490927,-0.232544 h 0.02584 v 0.325562 q 0,0.310059 0.258382,0.310059 h 0.59428 q 0.258382,0 0.258382,-0.310059 v -0.204122 q 0,-0.310059 -0.258382,-0.310059 h -0.485759 q -0.775147,0 -0.775147,-0.7777305 0,-0.7751469 0.775147,-0.7751469 h 0.302307 q 0.775147,0 0.775147,0.6252852 l -0.490926,0.2325442 h -0.02584 V 9.971496 q 0,-0.3100588 -0.258383,-0.3100588 h -0.302307 q -0.258382,0 -0.258382,0.3100588 0,0.312643 0.258382,0.312643 h 0.485759 q 0.775147,0 0.775147,0.775147 v 0.204122 q 0,0.775147 -0.775147,0.775147 z"
           style="fill:#000000"
           id="path6303" />
        <path
           d="M 42.554496,12.14191 V 9.6666074 h -0.664042 v -0.025838 l 0.209289,-0.4444176 h 0.454753 V 8.2661752 l 0.490927,-0.2325441 h 0.02584 v 1.1627205 h 0.664042 v 0.025838 l -0.209289,0.4444176 h -0.454753 v 2.2427588 l -0.490927,0.232544 z"
           style="fill:#000000"
           id="path6300" />
        <path
           d="m 44.962621,12.038557 q -0.775147,0 -0.775147,-0.775147 V 9.9714985 q 0,-0.7751469 0.775147,-0.7751469 h 0.59428 q 0.1757,0 0.258382,0.080099 V 8.2661752 l 0.490926,-0.2325441 h 0.02584 V 11.26341 q 0,0.775147 -0.775147,0.775147 z m 0,-0.465088 h 0.59428 q 0.258382,0 0.258382,-0.310059 V 9.9714985 q 0,-0.3100588 -0.258382,-0.3100588 h -0.59428 q -0.258382,0 -0.258382,0.3100588 V 11.26341 q 0,0.310059 0.258382,0.310059 z"
           style="fill:#000000"
           id="path6297" />
      </g>
      <text
         xml:space="preserve"
         style="font-style:normal;font-variant:normal;font-weight:normal;font-stretch:normal;font-size:4.631px;font-family:Amiri;-inkscape-font-specification:Amiri;text-align:end;text-anchor:end;fill:#000000;fill-opacity:1;stroke:none;stroke-width:0.694651;stroke-linecap:butt;stroke-linejoin:round;stroke-dasharray:none;stroke-opacity:1"
         x="33.000172"
         y="64.580505"
         id="text6428"><tspan
           sodipodi:role="line"
           id="tspan6426"
           style="stroke-width:0.694651"
           x="33.000168"
           y="64.580505">darwishzainstd@jeli.com.my</tspan></text>
    </g>
    <text
       xml:space="preserve"
       style="font-size:2.64583px;font-family:'Comic Neue';-inkscape-font-specification:'Comic Neue';text-align:end;text-anchor:end;fill:#00fb00;fill-opacity:0.674367;stroke:none;stroke-width:0.396875;stroke-linecap:butt;stroke-linejoin:round;stroke-dasharray:none;stroke-opacity:1"
       x="-8.9035883"
       y="22.492651"
       id="text5554"><tspan
         sodipodi:role="line"
         id="tspan5552"
         style="stroke-width:0.396875"
         x="-8.9035883"
         y="22.492651" /></text>
    <text
       xml:space="preserve"
       style="font-size:2.64583px;font-family:Amiri;-inkscape-font-specification:Amiri;text-align:end;text-anchor:end;fill:#00fb00;fill-opacity:0.674367;stroke:none;stroke-width:0.396875;stroke-linecap:butt;stroke-linejoin:round;stroke-dasharray:none;stroke-opacity:1;font-weight:normal;font-style:normal;font-stretch:normal;font-variant:normal"
       x="-8.6755219"
       y="20.940886"
       id="text5608"><tspan
         sodipodi:role="line"
         id="tspan5606"
         style="stroke-width:0.396875;-inkscape-font-specification:Amiri;font-family:Amiri;font-weight:normal;font-style:normal;font-stretch:normal;font-variant:normal"
         x="-8.6755219"
         y="20.940886" /></text>
    <text
       xml:space="preserve"
       style="font-style:normal;font-variant:normal;font-weight:normal;font-stretch:normal;font-size:2.64583px;font-family:Amiri;-inkscape-font-specification:Amiri;text-align:end;text-anchor:end;fill:#00fb00;fill-opacity:0.674367;stroke:none;stroke-width:0.396875;stroke-linecap:butt;stroke-linejoin:round;stroke-dasharray:none;stroke-opacity:1"
       x="-8.2289495"
       y="20.283161"
       id="text5612"><tspan
         sodipodi:role="line"
         id="tspan5610"
         style="stroke-width:0.396875"
         x="-8.2289495"
         y="20.283161" /></text>
  </g>
</svg>
