<?xml version="1.0" encoding="UTF-8" standalone="no"?>
<!-- Generator: Adobe Illustrator 27.8.1, SVG Export Plug-In . SVG Version: 6.00 Build 0)  -->

<svg
   version="1.1"
   id="Layer_1"
   x="0px"
   y="0px"
   viewBox="0 0 2000 1000"
   style="enable-background:new 0 0 2000 1000;"
   xml:space="preserve"
   sodipodi:docname="jeli.svg"
   inkscape:export-filename="../assets/media/jeli.png"
   inkscape:export-xdpi="96"
   inkscape:export-ydpi="96"
   inkscape:version="1.2.2 (b0a8486541, 2022-12-01)"
   xmlns:inkscape="http://www.inkscape.org/namespaces/inkscape"
   xmlns:sodipodi="http://sodipodi.sourceforge.net/DTD/sodipodi-0.dtd"
   xmlns="http://www.w3.org/2000/svg"
   xmlns:svg="http://www.w3.org/2000/svg"><defs
   id="defs4114" /><sodipodi:namedview
   id="namedview4112"
   pagecolor="#ffffff"
   bordercolor="#000000"
   borderopacity="0.25"
   inkscape:showpageshadow="2"
   inkscape:pageopacity="0.0"
   inkscape:pagecheckerboard="0"
   inkscape:deskcolor="#d1d1d1"
   showgrid="false"
   inkscape:zoom="0.529"
   inkscape:cx="897.9206"
   inkscape:cy="500.94518"
   inkscape:window-width="1366"
   inkscape:window-height="695"
   inkscape:window-x="0"
   inkscape:window-y="0"
   inkscape:window-maximized="1"
   inkscape:current-layer="Layer_1" />
<style
   type="text/css"
   id="style4077">
	.st0{fill:#FFA500;}
	.st1{fill:#CC0001;}
	.st2{fill-rule:evenodd;clip-rule:evenodd;fill:#FFFFFF;}
</style>
<g
   id="g4109">
	<g
   id="g4081">
		<rect
   class="st0"
   width="2000"
   height="1000"
   id="rect4079" />
	</g>
	<g
   id="g4091">
		<g
   id="g4085">
			<rect
   class="st1"
   width="1000"
   height="500"
   id="rect4083" />
		</g>
		<g
   id="g4089">
			<rect
   x="1000"
   y="500"
   class="st1"
   width="1000"
   height="500"
   id="rect4087" />
		</g>
	</g>
	<g
   id="g4107">
		<g
   id="g4105">
			<path
   id="path22"
   class="st2"
   d="M428.6,179.1l-2.9,2.6c-18.9,18.9-30.6,45-30.6,73.9c0,57.7,46.8,104.5,104.4,104.5     S604,313.2,604,255.5c0-28.8-11.7-55-30.6-73.9l-2.9-2.6l1.4,0.8c34.4,23.3,57.1,62.7,57.1,107.3c0,71.5-57.9,129.4-129.4,129.4     s-129.4-57.9-129.4-129.4c0-44.7,22.6-84.1,57.1-107.3L428.6,179.1z" />
			<path
   id="path24"
   class="st2"
   d="M453.7,178.7h35.1l10.8-35l10.8,35h35.1l-28.4,21.7l10.8,35l-28.4-21.7l-28.4,21.7l10.8-35     L453.7,178.7z" />
			<path
   id="path26"
   class="st2"
   d="M434.7,327.9h11.4V132.4h-11.4V327.9z" />
			<path
   id="path28"
   class="st2"
   d="M553.2,327.9h11.4V132.4h-11.4V327.9z" />
			<g
   id="g32">
				<path
   id="path38"
   class="st2"
   d="M424.8,154.4v-23.6l15.6-12l15.6,12v23.6l-15.6-12L424.8,154.4z" />
			</g>
			<g
   id="g42">
				<path
   id="path48"
   class="st2"
   d="M543.3,154.4v-23.6l15.6-12l15.6,12v23.6l-15.6-12L543.3,154.4z" />
			</g>
			<path
   id="path50"
   class="st2"
   d="M428.3,107.9l12.1-24.6l12.1,24.6l-12.1,24.6L428.3,107.9z" />
			<path
   id="path52"
   class="st2"
   d="M546.6,107.9l12.1-24.6l12.1,24.6l-12.1,24.6L546.6,107.9z" />
			<path
   id="path54"
   class="st2"
   d="M335.7,148.6c11.8-0.2,24.6,7.4,37,17.1l6.8,5.6l15.5-13.6c1.6,13.9-0.7,25.2,7.4,33.3     c36.4,36.5,86.1,86.5,92.7,105.8c-22.2-4.2-85.2-69.1-112.1-84c-13.9-7.7-32.7-1.3-53.1,1.7l33.2-29l-2.8-4     c-11.2-12.1-30.3-10-39,0.3c-0.5-5.2-5.1-14.9-10-17.2C318.4,153.3,326.8,148.8,335.7,148.6L335.7,148.6z" />
			<path
   id="path56"
   class="st2"
   d="M664.3,148.6c-11.8-0.2-24.6,7.4-37,17.1l-6.8,5.6L605,157.7c-1.6,13.9,0.7,25.2-7.4,33.3     c-36.4,36.5-86.1,86.5-92.7,105.7c22.2-4.2,85.2-69,112.1-83.9c13.9-7.7,32.7-1.3,53.1,1.7l-33.2-29l2.8-4     c11.2-12.1,30.3-10,39,0.3c0.5-5.2,5.1-14.9,10-17.2C681.6,153.3,673.2,148.8,664.3,148.6L664.3,148.6z" />
		</g>
	</g>
</g>
</svg>
