<?xml version="1.0" encoding="UTF-8" standalone="no"?>
<!-- Created with Inkscape (http://www.inkscape.org/) -->

<svg
   width="1000"
   height="1000"
   viewBox="0 0 264.58333 264.58334"
   version="1.1"
   id="svg5"
   inkscape:version="1.2.2 (b0a8486541, 2022-12-01)"
   sodipodi:docname="jeli-jawi.svg"
   inkscape:export-filename="./output/dark-profile1.png"
   inkscape:export-xdpi="96"
   inkscape:export-ydpi="96"
   xmlns:inkscape="http://www.inkscape.org/namespaces/inkscape"
   xmlns:sodipodi="http://sodipodi.sourceforge.net/DTD/sodipodi-0.dtd"
   xmlns:xlink="http://www.w3.org/1999/xlink"
   xmlns="http://www.w3.org/2000/svg"
   xmlns:svg="http://www.w3.org/2000/svg">
  <sodipodi:namedview
     id="namedview7"
     pagecolor="#ffffff"
     bordercolor="#000000"
     borderopacity="0.25"
     inkscape:showpageshadow="2"
     inkscape:pageopacity="0.0"
     inkscape:pagecheckerboard="true"
     inkscape:deskcolor="#d1d1d1"
     inkscape:document-units="px"
     showgrid="false"
     inkscape:zoom="0.18509413"
     inkscape:cx="94.546488"
     inkscape:cy="32.415939"
     inkscape:window-width="1366"
     inkscape:window-height="707"
     inkscape:window-x="0"
     inkscape:window-y="0"
     inkscape:window-maximized="1"
     inkscape:current-layer="g292" />
  <defs
     id="defs2" />
  <path
     id="rect2072"
     style="display:none;fill:#ff9595;fill-opacity:0.988235;stroke-width:0.266456"
     d="M 1.1245984e-6,8.9944291e-7 H 264.58334 V 264.58334 H 1.1245984e-6 Z"
     inkscape:label="bg" />
  <g
     inkscape:label="jeli-amiri"
     inkscape:groupmode="layer"
     id="layer1"
     style="display:none"
     inkscape:export-filename="../jeli_react/src/llogo.svg"
     inkscape:export-xdpi="96"
     inkscape:export-ydpi="96">
    <g
       aria-label="جلي"
       transform="scale(0.9518934,1.0505378)"
       id="text3126"
       style="font-size:176.389px;display:inline;fill:#ffffff;stroke-width:16.202"
       inkscape:label="jeli@Amiri 550-path">
      <path
         d="m 198.85335,94.076328 q 3.52778,1.587501 7.9375,3.175002 4.40973,1.411112 9.7014,2.82222 5.29167,1.23473 10.40695,2.11667 5.11528,0.70556 10.05417,0.52917 1.58751,0 2.46945,0.70556 0.88195,0.70555 0.17639,2.46944 -1.5875,3.35139 -2.82222,5.82084 -1.05834,2.46945 -1.94028,3.88056 -1.76389,2.82222 -3.17501,2.82222 -4.7625,-0.52917 -10.23056,-0.35278 -5.29167,0.17639 -11.28889,1.23473 -5.99723,1.05833 -11.2889,2.29305 -5.29167,1.23473 -9.87779,2.82223 -26.45835,8.81945 -32.98474,9.34861 -6.52639,0.52917 -12.17084,0 -0.52917,-16.93334 0.52917,-18.87362 2.46944,-4.7625 5.29167,-9.17223 2.82222,-4.40972 5.99722,-8.46667 10.23056,-12.876397 16.58057,-12.523619 3.175,0.176389 9.87778,2.469446 6.70279,2.293057 16.75696,6.879171 z m -11.2889,14.111122 q -10.93612,-6.17362 -21.16668,-6.52639 -5.29167,0 -10.05417,4.23333 -4.58612,4.05695 -7.23195,11.64168 8.11389,0.52916 30.86808,-5.29167 l 7.58472,-1.94028 q 0.88195,-0.35278 1.05834,-0.70556 0.35277,-0.52917 -1.05834,-1.41111 z m 5.11528,39.86391 q 0.35278,-0.52916 1.41112,-0.35277 7.05556,2.46944 12.52362,7.40833 0.70555,0.70556 0.17638,1.41112 l -8.29028,13.40556 q -0.52917,0.88195 -1.76389,-0.17639 -0.70556,-0.52916 -3.70417,-2.46944 -2.99861,-1.94028 -8.64306,-5.29167 -0.88194,-0.52917 -0.35278,-1.05834 z"
         style="font-family:Amiri;-inkscape-font-specification:Amiri"
         id="path3128" />
      <path
         d="m 112.42279,12.937385 q 0.35278,-1.058334 1.94028,-1.234723 1.5875,-0.176389 1.76389,1.058334 7.23195,55.209759 10.58334,70.202825 6.87918,29.809739 17.28613,34.925019 6.52639,3.3514 4.23333,11.46529 -1.23472,4.93889 -4.23333,4.40972 -10.75973,-1.23472 -20.10835,-24.16529 -1.05833,19.57918 -8.46667,32.80836 -1.76389,3.35139 -5.29167,6.35 -3.52778,2.99861 -5.64445,3.70417 l 1.05833,-6.87917 q 7.23195,-5.64445 10.58334,-14.28751 3.52778,-8.99584 1.94028,-31.573633 0,-1.234724 -1.05833,-8.819451 -1.05834,-7.761116 -2.99861,-21.695848 l -4.9389,-33.866689 q -0.17639,-1.76389 -0.17639,-3.52778 -0.17639,-1.940279 0,-3.880559 0.17639,-1.940279 1.05834,-5.644448 0.88194,-3.880558 2.46944,-9.348617 z"
         style="font-family:Amiri;-inkscape-font-specification:Amiri"
         id="path3130" />
      <path
         d="m 105.54365,145.58192 q 1.76389,-1.5875 2.82222,-2.64584 1.23472,-0.88194 1.5875,-1.41111 22.04863,2.99861 27.16391,7.05556 4.93889,4.05695 5.29167,5.82084 0.52917,6.87917 -1.76389,13.22917 -2.29306,6.5264 -7.40834,10.40696 -7.40834,5.82083 -15.52223,10.05417 -7.93751,4.40972 -16.93335,7.05556 -17.815286,5.29167 -35.277798,1.76389 -12.170841,-2.64584 -19.755569,-11.2889 -19.050012,-21.51946 8.99584,-69.49727 0.705556,-1.23472 1.76389,-1.23472 1.234723,0 1.76389,0.88195 0.705556,0.88194 -0.176389,2.29305 -4.586114,8.1139 -7.584727,14.64029 -2.822224,6.35001 -3.704169,11.46529 -1.763891,10.05417 3.704169,20.63751 5.468059,10.40695 16.580566,13.58195 10.936119,2.82223 23.812516,1.23473 12.876401,-1.41112 27.340301,-7.76112 11.28889,-5.11528 17.10973,-11.46528 -5.99723,-3.70417 -30.86808,-7.93751 z m -14.81668,68.43893 q 0.352778,-0.52916 1.411112,-0.35277 3.527781,1.23472 6.526394,2.99861 3.175004,1.76389 5.997224,4.23333 0.70556,0.70556 0.17639,1.58751 l -8.466671,13.40556 q -0.352778,0.52917 -1.587501,-0.35278 -0.529167,-0.52916 -2.998614,-2.11667 -2.469446,-1.41111 -7.05556,-4.05694 l -6.702782,10.40695 q -0.529167,0.88194 -1.76389,-0.17639 -0.705556,-0.52917 -3.704169,-2.46945 -2.998614,-1.94028 -8.643062,-5.29167 -0.705556,-0.52916 -0.176389,-1.05833 l 8.643062,-12.8764 q 0.352778,-0.52917 1.411112,-0.35278 2.998613,0.88195 5.644448,2.29306 2.645835,1.5875 4.938892,3.52778 z"
         style="font-family:Amiri;-inkscape-font-specification:Amiri"
         id="path3132" />
    </g>
    <text
       xml:space="preserve"
       style="font-size:176.389px;display:none;fill:#ffffff;fill-opacity:1;stroke-width:16.202"
       x="26.697763"
       y="133.76385"
       id="text5440"
       transform="scale(0.9518934,1.0505378)"
       inkscape:label="jeli@Amiri 550"><tspan
         id="tspan5438"
         style="font-style:normal;font-variant:normal;font-weight:normal;font-stretch:normal;font-size:176.389px;font-family:Amiri;-inkscape-font-specification:Amiri;fill:#ffffff;fill-opacity:1;stroke-width:16.202"
         x="0"
         y="0"
         sodipodi:role="line">جلي</tspan></text>
  </g>
  <g
     inkscape:label="jeli-amiri-profile"
     inkscape:groupmode="layer"
     id="g292"
     style="display:inline"
     inkscape:export-filename="../jeli_react/src/llogo.svg"
     inkscape:export-xdpi="96"
     inkscape:export-ydpi="96"
     transform="matrix(0.85000004,0,0,0.85000004,10.84791,10.847908)">
    <g
       aria-label="جلي"
       transform="scale(0.9518934,1.0505378)"
       id="text290"
       style="font-size:194.423px;display:inline;fill:#050505;stroke-width:16.202;fill-opacity:1"
       inkscape:label="jeli-profile">
      <path
         d="m 216.09318,100.69155 q 3.88846,1.7498 8.74903,3.49961 4.86058,1.55538 10.69327,3.11077 5.83269,1.36096 11.47096,2.33307 5.63826,0.7777 11.08211,0.58327 1.7498,0 2.72192,0.7777 0.97211,0.77769 0.19442,2.72192 -1.7498,3.69403 -3.11077,6.41596 -1.16653,2.72192 -2.13865,4.2773 -1.94423,3.11077 -3.49961,3.11077 -5.24942,-0.58327 -11.27654,-0.38885 -5.83269,0.19443 -12.44307,1.36097 -6.61038,1.16653 -12.44307,2.52749 -5.83269,1.36097 -10.88769,3.11077 -29.16345,9.72115 -36.3571,10.30442 -7.19365,0.58327 -13.41519,0 -0.58327,-18.66461 0.58327,-20.80326 2.72192,-5.24942 5.83269,-10.11 3.11077,-4.86057 6.61038,-9.3323 11.27654,-14.192879 18.27576,-13.804033 3.49962,0.194423 10.88769,2.721922 7.38808,2.527499 18.47019,7.582501 z m -12.44307,15.55384 q -12.05423,-6.80481 -23.33076,-7.19365 -5.83269,0 -11.08212,4.66615 -5.05499,4.47173 -7.97134,12.83192 8.94346,0.58326 34.02403,-5.83269 l 8.36019,-2.13866 q 0.97211,-0.38884 1.16653,-0.77769 0.38885,-0.58327 -1.16653,-1.55538 z m 5.63826,43.9396 q 0.38885,-0.58327 1.55539,-0.38885 7.77692,2.72192 13.80403,8.16577 0.77769,0.77769 0.19442,1.55538 l -9.13788,14.77615 q -0.58327,0.97211 -1.94423,-0.19443 -0.77769,-0.58326 -4.08288,-2.72192 -3.30519,-2.13865 -9.52673,-5.83269 -0.97211,-0.58327 -0.38884,-1.16654 z"
         style="font-family:Amiri;-inkscape-font-specification:Amiri;fill:#050505;fill-opacity:1"
         id="path3011" />
      <path
         d="m 120.82596,11.256964 q 0.38885,-1.166538 2.13866,-1.3609611 1.7498,-0.194423 1.94423,1.1665381 7.97134,60.8544 11.66538,77.380356 7.58249,32.857483 19.05345,38.495753 7.19365,3.69404 4.66615,12.6375 -1.36096,5.44384 -4.66615,4.86057 -11.8598,-1.36096 -22.16422,-26.63595 -1.16654,21.58095 -9.33231,36.16268 -1.94423,3.69404 -5.83269,6.99923 -3.88846,3.30519 -6.22153,4.08288 l 1.16653,-7.5825 q 7.97135,-6.22153 11.66539,-15.74826 3.88846,-9.91557 2.13865,-34.80172 0,-1.36096 -1.16654,-9.721148 -1.16654,-8.554612 -3.30519,-23.91403 l -5.44384,-37.329217 q -0.19443,-1.94423 -0.19443,-3.88846 -0.19442,-2.138653 0,-4.277306 0.19443,-2.138653 1.16654,-6.221536 0.97212,-4.277306 2.72192,-10.304419 z"
         style="font-family:Amiri;-inkscape-font-specification:Amiri;fill:#050505;fill-opacity:1"
         id="path3013" />
      <path
         d="m 113.24349,157.46306 q 1.94423,-1.7498 3.11077,-2.91634 1.36096,-0.97212 1.74981,-1.55539 24.30287,3.3052 29.94114,7.77692 5.44384,4.47173 5.83269,6.41596 0.58327,7.5825 -1.94423,14.58173 -2.5275,7.19365 -8.16577,11.47096 -8.16576,6.41595 -17.10922,11.08211 -8.74904,4.86057 -18.66461,7.77692 -19.636723,5.83269 -38.8846,1.94423 -13.415188,-2.91635 -21.775377,-12.44307 -20.997684,-23.71961 9.915573,-76.60267 0.777692,-1.36096 1.94423,-1.36096 1.360962,0 1.944231,0.97212 0.777692,0.97211 -0.194423,2.52749 -5.054999,8.94346 -8.36019,16.13711 -3.110768,6.99923 -4.082883,12.6375 -1.94423,11.08211 4.082883,22.74749 6.027113,11.47096 18.275763,14.97057 12.054226,3.11077 26.247105,1.36096 14.192878,-1.55538 30.135568,-8.55461 12.44307,-5.63827 18.85903,-12.63749 -6.61038,-4.08289 -34.02403,-8.74904 z m -16.331531,75.43613 q 0.388846,-0.58327 1.555384,-0.38885 3.888457,1.36096 7.193647,3.30519 3.49962,1.94423 6.61039,4.66616 0.77769,0.77769 0.19442,1.7498 l -9.3323,14.77615 q -0.38885,0.58327 -1.74981,-0.38884 -0.58327,-0.58327 -3.305193,-2.33308 -2.721922,-1.55538 -7.77692,-4.47173 l -7.388074,11.47096 q -0.583269,0.97211 -1.94423,-0.19443 -0.777692,-0.58326 -4.082883,-2.72192 -3.305191,-2.13865 -9.526727,-5.83269 -0.777692,-0.58327 -0.194423,-1.16654 l 9.526727,-14.19288 q 0.388846,-0.58326 1.555384,-0.38884 3.305191,0.97211 6.221536,2.5275 2.916345,1.7498 5.443844,3.88846 z"
         style="font-family:Amiri;-inkscape-font-specification:Amiri;fill:#050505;fill-opacity:1"
         id="path3015" />
    </g>
    <g
       aria-label="jeli.com.my"
       transform="rotate(-15,-80.153775,-266.81078)"
       id="text2553"
       style="font-size:26.4583px;font-family:'Kaushan Script';-inkscape-font-specification:'Kaushan Script';display:inline;fill:#050505;stroke-width:0.654481;fill-opacity:1"
       inkscape:label="jeli.com.my@Kaushan Script-85px-30d">
      <path
         d="m -23.842385,283.98775 q 0.978958,-3.91584 1.905,-5.715 0.9525,-1.82563 1.984375,-1.82563 0.740833,0 1.772708,0.71438 -0.846667,1.50812 -1.322917,2.51354 -0.449791,0.97896 -0.661458,1.79917 -0.449792,1.5875 -0.9525,3.30729 -0.502708,1.69333 -1.005417,3.25437 -0.47625,1.56104 -0.899583,2.80459 -0.396875,1.27 -0.635,1.93145 -0.582083,1.56105 -1.164167,2.64584 -0.555624,1.08479 -1.164166,1.7727 -0.608542,0.68792 -1.27,1.00542 -0.687917,0.3175 -1.481667,0.3175 -0.582083,0 -1.137708,-0.13229 -0.582083,-0.10583 -1.084792,-0.3175 -0.502708,-0.18521 -0.899583,-0.47625 -0.396875,-0.29104 -0.635,-0.60854 0.02646,-0.18521 0.185209,-0.37042 0.132291,-0.15875 0.264583,-0.18521 0.449791,0.47625 0.9525,0.68792 0.47625,0.21167 1.164166,0.21167 0.846667,0 1.508125,-0.50271 0.635,-0.50271 1.296459,-1.95792 0.661458,-1.42875 1.42875,-4.04812 0.767291,-2.59292 1.852083,-6.82625 z m 4.312708,-9.63084 q 0,-0.13229 0.07937,-0.44979 -0.3175,-0.3175 -0.3175,-0.89958 0,-0.23813 0.05292,-0.66146 0.07937,-0.42333 0.185208,-0.89958 0.132292,-0.50271 0.264583,-1.00542 0.15875,-0.50271 0.3175,-0.87312 0.3175,0 0.767292,0.1852 0.47625,0.15875 0.9525,0.4498 0.47625,0.26458 0.873125,0.60854 0.396875,0.3175 0.608541,0.60854 -0.3175,0.29104 -0.79375,0.82021 -0.47625,0.52916 -0.926041,1.11125 -0.449792,0.55562 -0.820208,1.05833 -0.370417,0.47625 -0.449792,0.68792 -0.3175,-0.0529 -0.555625,-0.26459 -0.238125,-0.23812 -0.238125,-0.47625 z"
         id="path3139"
         style="fill:#050505;fill-opacity:1" />
      <path
         d="m -8.7082178,277.98171 q -0.1058334,1.64041 -0.5820834,2.83104 -0.4762499,1.16416 -1.3758328,2.06375 -0.873125,0.87312 -2.143125,1.5875 -1.27,0.71437 -2.963334,1.37583 0,0.15875 -0.02646,0.34396 0,0.15875 0,0.34396 0,0.34396 0.05292,0.71437 0.05292,0.37042 0.185208,0.68792 0.132292,0.3175 0.370417,0.52917 0.238125,0.1852 0.608541,0.1852 0.714375,0 1.402292,-0.3175 0.687917,-0.3175 1.296458,-0.76729 0.635,-0.47625 1.164167,-1.00541 0.555625,-0.55563 0.9789582,-1.00542 0.2645833,0.23812 0.4497916,0.44979 -1.1906248,1.5875 -2.6193748,2.64583 -1.402292,1.03188 -2.672292,1.32292 -1.825624,-0.21167 -2.857499,-1.32292 -1.005417,-1.1377 -1.005417,-2.7252 0,-1.0848 0.291042,-2.19605 0.3175,-1.1377 0.846666,-2.16958 0.555625,-1.05833 1.27,-1.98437 0.740833,-0.92605 1.561042,-1.61396 0.846666,-0.68792 1.719791,-1.08479 0.899584,-0.39688 1.772709,-0.39688 1.2170829,0.15875 2.2754162,1.50813 z m -1.8256252,0.87312 q -0.714375,0.10583 -1.481666,0.58208 -0.767292,0.47625 -1.455209,1.27 -0.661458,0.79375 -1.217083,1.85209 -0.555625,1.05833 -0.873125,2.27541 2.116667,-1.05833 3.518958,-2.59291 1.402292,-1.56104 1.508125,-3.38667 z"
         id="path3141"
         style="fill:#050505;fill-opacity:1" />
      <path
         d="m -7.5176116,287.24212 q 0,-1.16416 0.555625,-3.25437 0.555625,-2.11667 1.5610416,-4.92125 1.6404166,-4.47146 3.0691665,-7.43479 1.45520826,-2.9898 2.83104153,-4.65667 0.31749998,0.0529 0.76729167,0.26458 0.4762499,0.21167 0.9260416,0.47625 0.4497916,0.23813 0.7937499,0.50271 0.3704167,0.26458 0.47625,0.42333 -2.0637499,2.43417 -3.62479147,5.23875 -1.56104163,2.80459 -2.85749983,6.42938 -1.11125,3.12208 -1.6933333,5.63562 -0.5820833,2.48709 -0.5820833,4.15396 0,0.44979 0,0.55563 0,0.10583 0.026458,0.21166 -0.3704166,-0.0529 -0.6349999,-0.1852 -0.2645834,-0.1323 -0.3439583,-0.3175 -0.052917,-0.1323 -0.2910417,-0.39688 -0.238125,-0.23812 -0.4233333,-0.37042 -0.238125,-0.15875 -0.396875,-0.8202 -0.15875,-0.68792 -0.1587497,-1.53459 z"
         id="path3143"
         style="fill:#050505;fill-opacity:1" />
      <path
         d="m -1.2205276,287.16275 q 0,-0.23813 0.026458,-0.58209 0.052917,-0.37041 0.15875,-0.9525 0.10583336,-0.60854 0.26458335,-1.4552 0.18520832,-0.84667 0.44979164,-2.0373 0.0529167,-0.26458 0.23812499,-0.84666 0.18520833,-0.58209 0.47624998,-1.21709 0.31749998,-0.66145 0.74083334,-1.27 0.4497916,-0.60854 1.0583332,-0.89958 0.4497917,0.10583 1.190625,0.55563 0.7408333,0.42333 1.2699999,1.19062 -0.6085416,0.68792 -1.0318749,1.37583 -0.396875,0.68792 -0.7408333,1.42875 -0.3175,0.74084 -0.6085417,1.53459 -0.2645833,0.79375 -0.6085416,1.66687 -0.2910417,0.74084 -0.5291666,1.53459 -0.23812503,0.76729 -0.26458336,1.34937 0,0.47625 -0.0264583,0.66146 0,0.21167 -0.13229167,0.21167 -0.10583332,0 -0.42333331,-0.1323 -0.31749998,-0.13229 -0.6614583,-0.39687 -0.31749998,-0.29104 -0.5820833,-0.71438 -0.26458336,-0.42333 -0.26458306,-1.00541 z m 5.0535414,-11.48292 q 0,-0.15875 0.079375,-0.47625 -0.1322916,-0.13229 -0.238125,-0.39687 -0.079375,-0.26459 -0.079375,-0.47625 0,-0.23813 0.052917,-0.635 0.079375,-0.42334 0.1852083,-0.89959 0.1058334,-0.47625 0.2645833,-0.97896 0.15875,-0.52916 0.3175,-0.9525 0.3175,0 0.7672917,0.18521 0.4762499,0.15875 0.9524999,0.44979 0.47625,0.26459 0.873125,0.60855 0.396875,0.3175 0.6085416,0.60854 -0.2910416,0.29104 -0.7672916,0.82021 -0.47625,0.5027 -0.9260416,1.08479 -0.4497917,0.55562 -0.8202083,1.05833 -0.3704167,0.50271 -0.47625,0.71438 -0.3175,-0.0529 -0.555625,-0.26459 -0.238125,-0.23812 -0.2381253,-0.44979 z"
         id="path3145"
         style="fill:#050505;fill-opacity:1" />
      <path
         d="M 5.7380166,289.94087 Q 5.3146833,289.88796 4.8384333,289.57046 4.3886417,289.27941 4.25635,288.909 q 0,-0.3175 0.079375,-0.82021 0.1058333,-0.50271 0.238125,-1.00542 0.1322917,-0.52916 0.2645833,-0.97896 0.1322917,-0.47625 0.1852083,-0.71437 0.3175,0 0.79375,0.15875 0.5027083,0.15875 1.0054166,0.44979 0.5291667,0.26458 0.9789583,0.635 0.47625,0.34396 0.714375,0.71438 -0.238125,0.52916 -0.6085417,1.00541 -0.3704166,0.47625 -0.7937499,0.82021 -0.396875,0.37042 -0.7672917,0.55563 -0.3704166,0.21166 -0.6085416,0.21166 z"
         id="path3147"
         style="fill:#050505;fill-opacity:1" />
      <path
         d="m 11.082575,284.27879 q 0,-1.50813 0.608541,-2.91042 0.635,-1.42875 1.640417,-2.51354 1.031875,-1.11125 2.328333,-1.77271 1.322917,-0.68791 2.725208,-0.68791 1.375834,0 2.116667,0.68791 0.740833,0.68792 0.740833,1.95792 0,0.60854 -0.185208,1.19062 -0.15875,0.55563 -0.449792,1.00542 -0.264583,0.44979 -0.635,0.74083 -0.370416,0.26459 -0.740833,0.26459 -0.3175,0 -0.661458,-0.18521 -0.3175,-0.21167 -0.529167,-0.52917 1.772708,-1.61396 1.772708,-2.93687 0,-0.76729 -0.608541,-0.76729 -0.529167,0 -1.322917,0.5027 -0.79375,0.50271 -1.534583,1.32292 -1.137708,1.27 -1.74625,2.83104 -0.582083,1.53459 -0.582083,3.22792 0,2.14312 0.9525,2.56646 0.396875,-0.0529 0.926041,-0.23813 0.529167,-0.18521 1.137708,-0.47625 0.608542,-0.3175 1.243542,-0.71437 0.661458,-0.39688 1.27,-0.84667 0.105833,0.0794 0.185208,0.23813 0.07937,0.15875 0.07937,0.29104 -0.449791,0.55562 -1.031875,1.08479 -0.582083,0.52917 -1.217083,0.97896 -0.635,0.42333 -1.243541,0.71437 -0.582084,0.3175 -1.031875,0.39688 -0.873125,-0.0794 -1.640417,-0.55563 -0.767292,-0.44979 -1.349375,-1.19062 -0.555625,-0.74084 -0.899583,-1.69334 -0.3175,-0.9525 -0.3175,-1.98437 z"
         id="path3149"
         style="fill:#050505;fill-opacity:1" />
      <path
         d="m 25.158407,289.8615 q -1.508125,-0.15875 -2.407708,-1.32292 -0.899583,-1.16417 -0.899583,-2.96333 0,-1.05834 0.3175,-2.19604 0.3175,-1.13771 0.899583,-2.19605 0.582083,-1.08479 1.375833,-2.03729 0.79375,-0.9525 1.719792,-1.64041 1.455208,-1.0848 2.725208,-1.0848 0.846667,0.4498 1.666875,1.87855 0.132292,0 0.238125,0 0.105833,-0.0265 0.238125,-0.0265 1.402292,0 1.402292,2.48708 0,1.66688 -0.555625,3.175 -0.529167,1.48167 -1.508125,2.69875 -0.9525,1.21708 -2.301875,2.06375 -1.322917,0.82021 -2.910417,1.16417 z m 1.349375,-8.33438 q -0.449792,0.60854 -0.846666,1.32292 -0.396875,0.71437 -0.687917,1.45521 -0.291042,0.71437 -0.449792,1.40229 -0.15875,0.66146 -0.15875,1.19062 0,0.635 0.211667,1.21709 0.211667,0.58208 0.47625,0.66146 1.190625,-0.26459 2.169583,-0.97896 1.005417,-0.74084 1.719792,-1.82563 0.740833,-1.08479 1.137708,-2.46062 0.423333,-1.37584 0.423333,-2.93688 0,-0.68791 -0.07937,-1.08479 -0.07938,-0.39687 -0.264583,-0.68792 -1.164167,0.34396 -2.090208,1.11125 -0.899584,0.7673 -1.561042,1.61396 z"
         id="path3151"
         style="fill:#050505;fill-opacity:1" />
      <path
         d="m 48.997365,280.81275 q -0.423333,0.0265 -1.031875,0.55562 -0.608541,0.50271 -1.322916,1.32292 -0.687917,0.79375 -1.455209,1.77271 -0.740833,0.97896 -1.455208,1.95791 -0.687917,0.9525 -1.296458,1.79917 -0.608542,0.84667 -1.031875,1.34938 -0.582084,-0.23813 -1.005417,-0.68792 -0.423333,-0.47625 -0.608541,-1.16417 0.132291,-0.82021 0.370416,-1.69333 0.238125,-0.89958 0.608542,-1.85208 0.396875,-0.9525 0.9525,-1.98438 0.582083,-1.05833 1.402291,-2.2225 -0.396875,0.0265 -1.084791,0.58208 -0.687917,0.52917 -1.481667,1.4023 -0.79375,0.84666 -1.640416,1.93145 -0.846667,1.05834 -1.5875,2.09021 -0.978959,1.37584 -1.640417,2.40771 -0.635,1.03188 -0.926042,1.21708 -0.687916,-0.5027 -0.9525,-1.08479 -0.264583,-0.58208 -0.396874,-1.29646 0.02646,-0.635 0.185208,-1.5875 0.185208,-0.9525 0.502708,-1.95791 0.608542,-1.93146 1.561042,-3.83646 0.978958,-1.905 1.878541,-3.4925 0.740834,0.15875 1.322917,0.50271 0.608542,0.34396 1.27,1.00541 -0.264583,0.82021 -0.820208,1.74625 -0.555625,0.89959 -1.164167,1.905 -0.608542,1.00542 -1.11125,2.06375 -0.502708,1.05834 -0.661458,2.14313 0.740833,-1.05833 1.74625,-2.43417 1.031875,-1.37583 2.090208,-2.59291 1.084791,-1.21709 2.143125,-2.06375 1.058333,-0.84667 1.905,-0.84667 0.3175,0 0.687916,0.10583 0.370417,0.10584 0.687917,0.26459 0.3175,0.15875 0.529167,0.3175 0.211666,0.13229 0.238125,0.21166 -0.132292,0.52917 -0.635,1.45521 -0.47625,0.89958 -1.031875,1.905 -0.555625,1.00542 -1.031875,1.95792 -0.47625,0.92604 -0.555625,1.48166 1.296458,-1.7727 2.434166,-3.20145 1.137709,-1.45521 2.143125,-2.48709 1.005417,-1.03187 1.852083,-1.5875 0.873125,-0.55562 1.640417,-0.55562 0.529167,0 0.978958,0.29104 0.47625,0.26458 0.661459,0.79375 -0.238125,0.79375 -0.79375,1.905 -0.529167,1.11125 -1.084792,2.35479 -0.555625,1.21708 -1.005417,2.40771 -0.423333,1.19062 -0.423333,2.14312 0,0.55563 0.15875,0.74084 0.15875,0.15875 0.449792,0.15875 0.3175,0 0.582083,-0.10584 0.291042,-0.13229 0.423333,-0.13229 0.15875,0.10584 0.185209,0.26459 0.02646,0.15875 0.02646,0.29104 -0.529167,0.42333 -1.084792,0.68791 -0.555625,0.29105 -1.243541,0.29105 -0.635,0 -1.058334,-0.21167 -0.396875,-0.21167 -0.661458,-0.58208 -0.264583,-0.37042 -0.370416,-0.84667 -0.105834,-0.47625 -0.105834,-1.03188 0,-0.89958 0.238125,-1.7727 0.238125,-0.89959 0.555625,-1.69334 0.343958,-0.82021 0.714375,-1.50812 0.370417,-0.71438 0.635,-1.27 z"
         id="path3153"
         style="fill:#050505;fill-opacity:1" />
      <path
         d="m 54.685887,289.94087 q -0.423333,-0.0529 -0.899583,-0.37041 -0.449792,-0.29105 -0.582084,-0.66146 0,-0.3175 0.07937,-0.82021 0.105834,-0.50271 0.238125,-1.00542 0.132292,-0.52916 0.264584,-0.97896 0.132291,-0.47625 0.185208,-0.71437 0.3175,0 0.79375,0.15875 0.502708,0.15875 1.005416,0.44979 0.529167,0.26458 0.978959,0.635 0.47625,0.34396 0.714375,0.71438 -0.238125,0.52916 -0.608542,1.00541 -0.370417,0.47625 -0.79375,0.82021 -0.396875,0.37042 -0.767292,0.55563 -0.370416,0.21166 -0.608541,0.21166 z"
         id="path3155"
         style="fill:#050505;fill-opacity:1" />
      <path
         d="m 75.614411,280.81275 q -0.423333,0.0265 -1.031875,0.55562 -0.608541,0.50271 -1.322916,1.32292 -0.687917,0.79375 -1.455208,1.77271 -0.740834,0.97896 -1.455209,1.95791 -0.687916,0.9525 -1.296458,1.79917 -0.608542,0.84667 -1.031875,1.34938 -0.582083,-0.23813 -1.005416,-0.68792 -0.423334,-0.47625 -0.608542,-1.16417 0.132292,-0.82021 0.370417,-1.69333 0.238125,-0.89958 0.608541,-1.85208 0.396875,-0.9525 0.9525,-1.98438 0.582083,-1.05833 1.402292,-2.2225 -0.396875,0.0265 -1.084792,0.58208 -0.687917,0.52917 -1.481666,1.4023 -0.79375,0.84666 -1.640417,1.93145 -0.846667,1.05834 -1.5875,2.09021 -0.978958,1.37584 -1.640417,2.40771 -0.635,1.03188 -0.926041,1.21708 -0.687917,-0.5027 -0.9525,-1.08479 -0.264583,-0.58208 -0.396875,-1.29646 0.02646,-0.635 0.185208,-1.5875 0.185209,-0.9525 0.502708,-1.95791 0.608542,-1.93146 1.561042,-3.83646 0.978958,-1.905 1.878542,-3.4925 0.740833,0.15875 1.322916,0.50271 0.608542,0.34396 1.27,1.00541 -0.264583,0.82021 -0.820208,1.74625 -0.555625,0.89959 -1.164167,1.905 -0.608541,1.00542 -1.11125,2.06375 -0.502708,1.05834 -0.661458,2.14313 0.740833,-1.05833 1.74625,-2.43417 1.031875,-1.37583 2.090208,-2.59291 1.084792,-1.21709 2.143125,-2.06375 1.058333,-0.84667 1.905,-0.84667 0.3175,0 0.687917,0.10583 0.370416,0.10584 0.687916,0.26459 0.3175,0.15875 0.529167,0.3175 0.211667,0.13229 0.238125,0.21166 -0.132292,0.52917 -0.635,1.45521 -0.47625,0.89958 -1.031875,1.905 -0.555625,1.00542 -1.031875,1.95792 -0.47625,0.92604 -0.555625,1.48166 1.296458,-1.7727 2.434167,-3.20145 1.137708,-1.45521 2.143125,-2.48709 1.005416,-1.03187 1.852083,-1.5875 0.873125,-0.55562 1.640416,-0.55562 0.529167,0 0.978959,0.29104 0.47625,0.26458 0.661458,0.79375 -0.238125,0.79375 -0.79375,1.905 -0.529167,1.11125 -1.084792,2.35479 -0.555625,1.21708 -1.005416,2.40771 -0.423334,1.19062 -0.423334,2.14312 0,0.55563 0.15875,0.74084 0.15875,0.15875 0.449792,0.15875 0.3175,0 0.582083,-0.10584 0.291042,-0.13229 0.423334,-0.13229 0.15875,0.10584 0.185208,0.26459 0.02646,0.15875 0.02646,0.29104 -0.529166,0.42333 -1.084791,0.68791 -0.555625,0.29105 -1.243542,0.29105 -0.635,0 -1.058333,-0.21167 -0.396875,-0.21167 -0.661458,-0.58208 -0.264584,-0.37042 -0.370417,-0.84667 -0.105833,-0.47625 -0.105833,-1.03188 0,-0.89958 0.238125,-1.7727 0.238125,-0.89959 0.555625,-1.69334 0.343958,-0.82021 0.714374,-1.50812 0.370417,-0.71438 0.635,-1.27 z"
         id="path3157"
         style="fill:#050505;fill-opacity:1" />
      <path
         d="m 90.510437,284.83441 q -0.608542,1.93146 -1.217084,3.51896 -0.608541,1.5875 -1.296458,2.91042 -0.687917,1.34937 -1.481667,2.46062 -0.79375,1.13771 -1.746249,2.14313 -1.217084,1.27 -2.513542,1.93146 -1.296458,0.68791 -2.592917,0.68791 -0.661458,0 -1.322916,-0.15875 -0.635,-0.13229 -1.190625,-0.39687 -0.582083,-0.23813 -1.005417,-0.58209 -0.449791,-0.3175 -0.635,-0.68791 0,-0.3175 0.370417,-0.55563 0.3175,0.29104 0.529167,0.44979 0.211666,0.15875 0.423333,0.26459 0.185208,0.10583 0.423333,0.13229 0.211667,0.0265 0.502709,0.0265 1.508124,0 2.936874,-0.89959 1.455209,-0.87312 2.725209,-2.51354 1.296458,-1.61395 2.354791,-3.94229 1.058333,-2.30187 1.799167,-5.15937 -0.343959,0.52916 -0.846667,1.29646 -0.502708,0.76729 -1.11125,1.53458 -0.608541,0.74083 -1.27,1.34937 -0.635,0.60855 -1.243541,0.82021 -0.423334,-0.0265 -0.899584,-0.18521 -0.449791,-0.13229 -0.873125,-0.39687 -0.396875,-0.26458 -0.714375,-0.635 -0.3175,-0.37042 -0.423333,-0.84667 0,-0.76729 0.05292,-1.21708 0.05292,-0.47625 0.185208,-1.03188 0.238125,-1.00541 0.687917,-2.27541 0.47625,-1.27 1.084791,-2.48709 0.635,-1.24354 1.375834,-2.30187 0.767291,-1.08479 1.5875,-1.69333 0.211666,0 0.529166,0.0529 0.3175,0.0265 0.661458,0.13229 0.343959,0.10584 0.661459,0.26459 0.3175,0.13229 0.555625,0.37041 -0.291042,0.26459 -1.27,1.77271 -0.978958,1.50813 -2.169583,4.33917 -0.132292,0.29104 -0.3175,0.84667 -0.185209,0.55562 -0.370417,1.16416 -0.15875,0.60854 -0.291042,1.19063 -0.132291,0.58208 -0.132291,0.92604 0,0.21167 0.05292,0.3175 0.07937,0.10583 0.132292,0.15875 0.47625,-0.0794 1.27,-0.76729 0.79375,-0.71438 1.799166,-2.19604 0.635,-0.9525 1.164167,-1.87855 0.529167,-0.9525 1.031875,-1.905 0.529167,-0.9525 1.084792,-1.95791 0.555625,-1.00542 1.190625,-2.06375 0.343958,0 0.740833,0.0794 0.396875,0.0794 0.767292,0.21167 0.370416,0.10583 0.634999,0.26458 0.291042,0.13229 0.423334,0.29104 -0.820209,1.74625 -1.534583,3.41313 -0.714375,1.66687 -1.27,3.41312 z"
         id="path3159"
         style="fill:#050505;fill-opacity:1" />
    </g>
    <text
       xml:space="preserve"
       style="font-style:normal;font-variant:normal;font-weight:normal;font-stretch:normal;font-size:26.4583px;font-family:'Kaushan Script';-inkscape-font-specification:'Kaushan Script';display:none;fill:#ffffff;fill-opacity:1;stroke-width:0.654481"
       x="-26.990927"
       y="288.93546"
       id="text3137"
       transform="rotate(-30)"
       inkscape:label="jeli.com.my@Kaushan Script-85px-30d"><tspan
         sodipodi:role="line"
         id="tspan3135"
         style="font-style:normal;font-variant:normal;font-weight:normal;font-stretch:normal;font-size:26.4583px;font-family:'Kaushan Script';-inkscape-font-specification:'Kaushan Script';fill:#ffffff;fill-opacity:1;stroke-width:0.654481"
         x="-26.990927"
         y="288.93546">jeli.com.my</tspan></text>
  </g>
  <g
     inkscape:groupmode="layer"
     id="g363"
     inkscape:label="kelantan"
     transform="matrix(0.75297614,0,0,0.75297614,35.494563,243.53934)"
     style="display:inline">
    <circle
       style="display:inline;fill:#cc0000;fill-opacity:0.988235;stroke-width:0.212475"
       id="path417"
       cx="421.24423"
       cy="-236.61525"
       r="32.071712" />
    <g
       id="g361"
       transform="matrix(0.37579337,0,0,0.37579337,323.47767,-230.43769)">
      <path
         id="path341"
         style="display:inline;fill:#ffffff;fill-opacity:1;fill-rule:evenodd;stroke:none;stroke-width:0.352778"
         d="m 233.2717,-43.151042 -1.07597,0.977194 c -7.11906,7.119056 -11.52172,16.9545 -11.52172,27.820056 0,21.7311113 17.61067,39.345306 39.33825,39.345306 21.72758,0 39.33825,-17.6141947 39.33825,-39.345306 0,-10.865556 -4.40267,-20.701 -11.52172,-27.820056 l -1.07598,-0.977194 0.51506,0.310444 c 12.96458,8.763 21.49122,23.600834 21.49122,40.4283339 0,26.9275281 -21.82636,48.7538891 -48.74683,48.7538891 -26.92047,0 -48.74684,-21.826361 -48.74684,-48.7538891 0,-16.8274999 8.52664,-31.6653339 21.49123,-40.4283339 z" />
      <path
         id="path343"
         style="display:inline;fill:#ffffff;fill-opacity:1;fill-rule:evenodd;stroke:none;stroke-width:0.352778"
         d="m 242.71909,-43.292153 h 13.21153 l 4.08164,-13.193889 4.08164,13.193889 h 13.21153 l -10.68917,8.156222 4.08517,13.193889 -10.68917,-8.156222 -10.68917,8.156222 4.08517,-13.193889 z" />
      <path
         id="path345"
         style="display:inline;fill:#ffffff;fill-opacity:1;fill-rule:evenodd;stroke:none;stroke-width:0.352778"
         d="m 235.56476,12.898292 h 4.27567 v -73.617668 h -4.27567 z" />
      <path
         id="path347"
         style="display:inline;fill:#ffffff;fill-opacity:1;fill-rule:evenodd;stroke:none;stroke-width:0.352778"
         d="m 280.18409,12.898292 h 4.27567 v -73.617668 h -4.27567 z" />
      <path
         id="path349"
         style="display:inline;fill:#ffffff;fill-opacity:1;fill-rule:evenodd;stroke:none;stroke-width:0.352778"
         d="m 233.15176,-69.969209 4.572,-9.249833 4.572,9.249833 -4.572,9.249833 z" />
      <path
         id="path351"
         style="display:inline;fill:#ffffff;fill-opacity:1;fill-rule:evenodd;stroke:none;stroke-width:0.352778"
         d="m 277.72876,-69.969209 4.572,-9.249833 4.572,9.249833 -4.572,9.249833 z" />
      <path
         id="path353"
         style="display:inline;fill:#ffffff;fill-opacity:1;fill-rule:evenodd;stroke:none;stroke-width:0.352778"
         d="m 198.26204,-54.623376 c 4.46263,-0.07055 9.27452,2.801056 13.93472,6.441723 l 2.55411,2.0955 5.84553,-5.11175 c 0.61736,5.252861 -0.27164,9.49325 2.77636,12.551833 13.70894,13.761861 32.43086,32.6001948 34.925,39.8603615 -8.37847,-1.59455555 -32.07809,-26.0138335 -42.21339,-31.6265275 -5.22464,-2.896306 -12.30489,-0.504473 -19.99545,0.635 l 12.49187,-10.918473 -1.06539,-1.520472 c -4.20159,-4.543778 -11.43,-3.760611 -14.6932,0.123472 -0.17286,-1.9685 -1.91558,-5.623278 -3.78178,-6.466416 2.7305,-4.293306 5.87728,-6.007806 9.22162,-6.064251 z" />
      <path
         id="path355"
         style="display:inline;fill:#ffffff;fill-opacity:1;fill-rule:evenodd;stroke:none;stroke-width:0.352778"
         d="m 322.05881,-54.623376 c -4.46263,-0.07055 -9.27452,2.801056 -13.93472,6.434667 l -2.55411,2.0955 -5.84553,-5.108222 c -0.61736,5.252861 0.27164,9.486194 -2.77636,12.54125 -13.70894,13.754806 -32.43086,32.5755002 -34.925,39.8321392 8.37847,-1.59455559 32.07809,-25.9926672 42.21339,-31.6018332 5.22464,-2.896306 12.30489,-0.504473 19.99545,0.635 l -12.49187,-10.911417 1.06539,-1.520472 c 4.20159,-4.54025 11.43,-3.757084 14.6932,0.123472 0.17286,-1.964972 1.91558,-5.616222 3.78178,-6.462889 -2.7305,-4.289778 -5.87728,-6.00075 -9.22162,-6.057195 z" />
      <path
         id="path357"
         style="display:inline;fill:#ffffff;fill-opacity:1;fill-rule:evenodd;stroke:none;stroke-width:0.352778"
         d="m 231.83943,-52.464375 v -8.875889 l 5.86316,-4.501445 5.86317,4.501445 v 8.875889 l -5.86317,-4.501445 z" />
      <path
         id="path359"
         style="display:inline;fill:#ffffff;fill-opacity:1;fill-rule:evenodd;stroke:none;stroke-width:0.352778"
         d="m 276.45876,-52.464375 v -8.875889 l 5.86317,-4.501445 5.86316,4.501445 v 8.875889 l -5.86316,-4.501445 z" />
    </g>
  </g>
  <g
     inkscape:groupmode="layer"
     id="layer5"
     inkscape:label="curved-135"
     style="display:none">
    <text
       xml:space="preserve"
       style="font-style:normal;font-variant:normal;font-weight:normal;font-stretch:normal;font-size:35.2778px;font-family:'Kaushan Script';-inkscape-font-specification:'Kaushan Script';text-align:center;text-anchor:middle;display:inline;fill:#000000;fill-opacity:1;stroke-width:5.29167;stroke-linecap:round;stroke-linejoin:round"
       id="text2335"
       inkscape:label="jeli.com.my-dark"
       transform="translate(-38.360126,-18.1468)"><textPath
         xlink:href="#path2323"
         startOffset="50%"
         id="textPath2341"><tspan
           id="tspan2331"
           style="font-style:normal;font-variant:normal;font-weight:normal;font-stretch:normal;font-size:35.2778px;font-family:'Kaushan Script';-inkscape-font-specification:'Kaushan Script';fill:#000000;fill-opacity:1;stroke-width:5.29167">jeli.com.my</tspan></textPath></text>
  </g>
  <g
     inkscape:groupmode="layer"
     id="layer2"
     inkscape:label="guide"
     style="display:none">
    <path
       id="rect1492"
       style="display:inline;fill:#160c28;fill-opacity:1;stroke:none;stroke-width:16.4712;stroke-linecap:round;stroke-linejoin:round;stroke-opacity:1"
       inkscape:label="jeli.com.my-path"
       d="M 142.875,142.875 V 275.16667 A 132.29167,132.29167 0 0 0 275.16667,142.875 Z" />
    <path
       id="path2323"
       style="display:inline;fill:#00ff00;stroke-width:0.750555;stroke-linecap:round;stroke-linejoin:round"
       d="M 62.297448,55.221497 A 119.0625,119.0625 0 0 0 55.221483,223.45254 119.0625,119.0625 0 0 0 223.45254,230.52852 119.0625,119.0625 0 0 0 230.5285,62.297447 119.0625,119.0625 0 0 0 62.297448,55.221497 Z"
       inkscape:label="circle" />
    <circle
       style="display:none;fill:#160c28;stroke-width:12.1903;stroke-linecap:round;stroke-linejoin:round"
       id="path289"
       cx="142.875"
       cy="142.875"
       r="132.29167"
       inkscape:label="circle" />
    <circle
       style="display:none;fill:none;stroke:#000000;stroke-width:6.77632;stroke-linecap:round;stroke-linejoin:round;stroke-opacity:1"
       id="path1252"
       cx="142.875"
       cy="142.875"
       r="128.9035"
       inkscape:label="fullcircle" />
    <rect
       style="display:none;fill:#160c28;fill-opacity:1;stroke:none;stroke-width:23.2938;stroke-linecap:round;stroke-linejoin:round;stroke-opacity:1"
       id="rect1438"
       width="264.58334"
       height="264.58334"
       x="0"
       y="0"
       inkscape:label="full" />
  </g>
</svg>
