<?xml version="1.0" encoding="UTF-8" standalone="no"?>
<!-- Created with Inkscape (http://www.inkscape.org/) -->

<svg
   width="1200"
   height="480"
   viewBox="0 0 317.49999 127"
   version="1.1"
   id="svg5"
   inkscape:version="1.2.2 (b0a8486541, 2022-12-01)"
   sodipodi:docname="hidarishoya-banner.svg"
   xml:space="preserve"
   inkscape:export-filename="./hidarishoya/videoplayer.png"
   inkscape:export-xdpi="96"
   inkscape:export-ydpi="96"
   xmlns:inkscape="http://www.inkscape.org/namespaces/inkscape"
   xmlns:sodipodi="http://sodipodi.sourceforge.net/DTD/sodipodi-0.dtd"
   xmlns="http://www.w3.org/2000/svg"
   xmlns:svg="http://www.w3.org/2000/svg"><sodipodi:namedview
     id="namedview7"
     pagecolor="#505050"
     bordercolor="#eeeeee"
     borderopacity="1"
     inkscape:showpageshadow="0"
     inkscape:pageopacity="0"
     inkscape:pagecheckerboard="0"
     inkscape:deskcolor="#505050"
     inkscape:document-units="px"
     showgrid="false"
     inkscape:zoom="0.25"
     inkscape:cx="114"
     inkscape:cy="-356"
     inkscape:window-width="1280"
     inkscape:window-height="1000"
     inkscape:window-x="1366"
     inkscape:window-y="0"
     inkscape:window-maximized="1"
     inkscape:current-layer="layer1" /><defs
     id="defs2"><filter
       style="color-interpolation-filters:sRGB;"
       inkscape:label="Drop Shadow"
       id="filter5053"
       x="-0.15756321"
       y="-0.53173773"
       width="1.3718201"
       height="2.2548028"><feFlood
         flood-opacity="0.929412"
         flood-color="rgb(0,0,0)"
         result="flood"
         id="feFlood5043" /><feComposite
         in="flood"
         in2="SourceGraphic"
         operator="in"
         result="composite1"
         id="feComposite5045" /><feGaussianBlur
         in="composite1"
         stdDeviation="6.94801"
         result="blur"
         id="feGaussianBlur5047" /><feOffset
         dx="6"
         dy="6"
         result="offset"
         id="feOffset5049" /><feComposite
         in="SourceGraphic"
         in2="offset"
         operator="over"
         result="fbSourceGraphic"
         id="feComposite5051" /><feColorMatrix
         result="fbSourceGraphicAlpha"
         in="fbSourceGraphic"
         values="0 0 0 -1 0 0 0 0 -1 0 0 0 0 -1 0 0 0 0 1 0"
         id="feColorMatrix5055" /><feFlood
         id="feFlood5057"
         flood-opacity="0.929412"
         flood-color="rgb(0,0,0)"
         result="flood"
         in="fbSourceGraphic" /><feComposite
         in2="fbSourceGraphic"
         id="feComposite5059"
         in="flood"
         operator="in"
         result="composite1" /><feGaussianBlur
         id="feGaussianBlur5061"
         in="composite1"
         stdDeviation="6.94801"
         result="blur" /><feOffset
         id="feOffset5063"
         dx="6"
         dy="6"
         result="offset" /><feComposite
         in2="offset"
         id="feComposite5065"
         in="fbSourceGraphic"
         operator="over"
         result="fbSourceGraphic" /><feColorMatrix
         result="fbSourceGraphicAlpha"
         in="fbSourceGraphic"
         values="0 0 0 -1 0 0 0 0 -1 0 0 0 0 -1 0 0 0 0 1 0"
         id="feColorMatrix5067" /><feFlood
         id="feFlood5069"
         flood-opacity="0.929412"
         flood-color="rgb(0,0,0)"
         result="flood"
         in="fbSourceGraphic" /><feComposite
         in2="fbSourceGraphic"
         id="feComposite5071"
         in="flood"
         operator="in"
         result="composite1" /><feGaussianBlur
         id="feGaussianBlur5073"
         in="composite1"
         stdDeviation="6.94801"
         result="blur" /><feOffset
         id="feOffset5075"
         dx="6"
         dy="6"
         result="offset" /><feComposite
         in2="offset"
         id="feComposite5077"
         in="fbSourceGraphic"
         operator="over"
         result="composite2" /></filter></defs><g
     inkscape:label="content"
     inkscape:groupmode="layer"
     id="layer1"><rect
       style="display:inline;fill:#121212;fill-opacity:1;stroke-width:9.69739;stroke-linejoin:round"
       id="rect4908"
       width="541.86664"
       height="304.79999"
       x="-112.18332"
       y="-88.899994"
       inkscape:label="bg"
       inkscape:export-filename="./hidarishoya/rect4908.png"
       inkscape:export-xdpi="96"
       inkscape:export-ydpi="96" /><path
       id="path546"
       style="fill:#00d4ff;stroke-width:0.129429;fill-opacity:1"
       d="m 209.95656,-124.2615 a 26.458332,26.458332 0 0 1 -26.45833,26.458331 26.458332,26.458332 0 0 1 -26.45833,-26.458331 26.458332,26.458332 0 0 1 26.45833,-26.45834 26.458332,26.458332 0 0 1 26.45833,26.45834 z" /><path
       id="path602"
       style="fill:#121212;stroke-width:0.129429;fill-opacity:1"
       d="m 284.25009,-141.26976 a 26.458332,26.458332 0 0 1 -26.45833,26.45833 26.458332,26.458332 0 0 1 -26.45833,-26.45833 26.458332,26.458332 0 0 1 26.45833,-26.45834 26.458332,26.458332 0 0 1 26.45833,26.45834 z" /><path
       id="path604"
       style="fill:#f2c14e;stroke-width:0.129429;fill-opacity:1"
       d="m 360.63057,-125.88751 a 26.458332,26.458332 0 0 1 -26.45833,26.458329 26.458332,26.458332 0 0 1 -26.45833,-26.458329 26.458332,26.458332 0 0 1 26.45833,-26.45834 26.458332,26.458332 0 0 1 26.45833,26.45834 z" /><path
       id="path1162"
       style="fill:#e5e5e5;fill-opacity:1;stroke-width:0.129429"
       d="m 443.71335,-134.3493 a 26.458332,26.458332 0 0 1 -26.45833,26.45833 26.458332,26.458332 0 0 1 -26.45833,-26.45833 26.458332,26.458332 0 0 1 26.45833,-26.45834 26.458332,26.458332 0 0 1 26.45833,26.45834 z" /></g><g
     inkscape:groupmode="layer"
     id="layer4"
     inkscape:label="banner"
     style="display:inline"><path
       id="rect10702"
       style="fill:#00d4ff;fill-opacity:1;stroke-width:0.38231"
       d="M -26.845298,89.667308 H 344.34528 V 107.44713 H -26.845298 Z"
       inkscape:label="horizontal" /><g
       aria-label="@hidarishoya"
       id="text1584"
       style="font-size:7.9375px;font-family:'Vampiro One';-inkscape-font-specification:'Vampiro One';text-align:end;text-anchor:end;display:inline;fill:#121212;fill-opacity:1;stroke-width:1.56085;stroke-linejoin:round"
       inkscape:label="@hidarishoya@VampiroOne30px"
       transform="translate(-119.12746,-19.543422)"><path
         d="m 256.29141,119.98977 q -1.98437,1.60337 -4.07987,1.60337 -0.68263,0 -1.24619,-0.22225 -0.56356,-0.22225 -0.96837,-0.60325 -0.39688,-0.381 -0.61913,-0.89694 -0.22225,-0.51593 -0.22225,-1.15093 0,-0.635 0.17463,-1.23032 0.18256,-0.60325 0.50006,-1.10331 0.3175,-0.508 0.74612,-0.91281 0.42863,-0.40481 0.92869,-0.68263 1.05569,-0.57943 2.17488,-0.57943 0.64293,0 1.19062,0.23018 0.55563,0.23019 0.96044,0.635 0.40481,0.40482 0.64294,0.96044 0.43656,1.03981 0.0556,2.30188 -0.87313,0.55562 -2.24631,1.11125 -0.37307,0.14287 -0.635,0.23018 l -0.52388,-0.58737 q -0.54769,0.39687 -1.23825,0.61119 l -0.84137,-0.77788 q 0,-1.15094 0.65087,-1.98437 0.6985,-0.92075 1.88119,-1.02394 l 0.4445,0.68262 q 0.0635,-0.0873 0.34925,-0.43656 l 0.66675,0.53181 q -0.42863,0.55563 -0.89694,1.41288 -0.14287,0.26194 -0.24606,0.50006 0.49212,-0.11906 1.03981,-0.3175 0.55563,-0.20637 0.68263,-0.27781 0.14287,-0.42863 0.14287,-0.889 0,-0.46038 -0.17462,-0.8255 -0.16669,-0.36513 -0.46038,-0.62706 -0.61912,-0.57944 -1.48431,-0.57944 -0.61913,0 -1.24619,0.26987 -0.62706,0.26194 -1.12712,0.73819 -0.50007,0.46831 -0.81757,1.11919 -0.30956,0.64294 -0.30956,1.40494 0,0.92075 0.57944,1.50018 0.59531,0.59532 1.53987,0.59532 0.94457,0 1.80975,-0.35719 0.87313,-0.34925 1.80975,-1.04775 z m -4.24656,-1.26207 q 1.03981,-0.28575 1.36525,-1.18268 0.10319,-0.29369 0.16669,-0.66675 -0.74613,0.15081 -1.15094,0.66675 -0.36512,0.48418 -0.381,1.18268 z"
         id="path1586"
         style="fill:#121212;fill-opacity:1" /><path
         d="m 259.28386,116.99733 q 0.73818,-0.56356 1.69862,-1.07156 l 0.96044,0.75406 q -0.26194,1.12712 -0.92075,2.032 0.79375,-0.26988 1.80181,-0.78581 l 0.16669,0.80168 q -0.32544,0.21432 -0.99219,0.54769 -1.143,0.56356 -1.57956,0.70644 l -0.98425,-0.6985 q 0.47625,-0.5715 0.79375,-1.12713 0.32544,-0.56356 0.42069,-0.98425 -1.03982,0.51594 -1.37319,0.73025 -0.32544,0.21432 -0.58738,0.39688 -0.38893,0.96044 -0.59531,1.68275 l -0.94456,-0.61119 q 0.26194,-0.89694 1.15094,-2.68287 0.80962,-1.63513 1.45256,-2.58763 l 0.80962,0.61119 q -0.66675,1.0795 -1.27793,2.286 z"
         id="path1588"
         style="fill:#121212;fill-opacity:1" /><path
         d="m 264.7131,115.27489 q -0.18256,-0.1905 -0.18256,-0.46037 0,-0.26988 0.18256,-0.45244 0.1905,-0.1905 0.46038,-0.1905 0.26987,0 0.45244,0.1905 0.1905,0.18256 0.1905,0.45244 0,0.26987 -0.1905,0.46037 -0.18257,0.18256 -0.45244,0.18256 -0.26988,0 -0.46038,-0.18256 z m -1.19856,3.4925 q 0.80963,-0.24606 1.94469,-0.84137 l 0.16669,0.80168 q -0.76994,0.50007 -1.85738,0.97632 -0.36512,0.15875 -0.71437,0.27781 l -0.91282,-0.84138 q 0.38894,-1.06362 1.397,-2.65112 0.30163,-0.47625 0.58738,-0.83344 l 0.78581,0.57944 q -0.57944,0.79375 -1.12712,1.91294 -0.15875,0.33337 -0.26988,0.61912 z"
         id="path1590"
         style="fill:#121212;fill-opacity:1" /><path
         d="m 267.57855,119.26745 q -0.62707,0.49213 -1.44463,0.71438 l -0.98425,-0.91281 q 0,-0.62707 0.1905,-1.23032 0.1905,-0.60325 0.56356,-1.08743 0.37307,-0.48419 0.92075,-0.80169 0.55563,-0.32544 1.27794,-0.38894 l 0.43656,0.66675 q 0.61913,-1.19856 1.30175,-2.12725 l 0.76994,0.66675 q -0.78581,1.00013 -1.62719,2.84163 -0.254,0.55562 -0.45243,1.08743 0.84931,-0.254 1.778,-0.76993 l 0.17462,0.80168 q -0.53975,0.40482 -1.74625,0.99219 -0.34131,0.15875 -0.54769,0.23019 z m -1.31763,-0.42862 q 0.84931,-0.23019 1.54781,-1.12713 0.20638,-0.45243 0.30957,-1.12712 -0.81757,0.0794 -1.34144,0.72231 -0.51594,0.635 -0.51594,1.53194 z"
         id="path1592"
         style="fill:#121212;fill-opacity:1" /><path
         d="m 272.42836,119.26745 q -0.62706,0.49213 -1.44462,0.71438 l -0.98425,-0.91281 q 0,-0.62707 0.1905,-1.23032 0.1905,-0.60325 0.56356,-1.08743 0.37306,-0.48419 0.92075,-0.80169 0.55562,-0.32544 1.27794,-0.38894 l 0.52387,0.80169 q 0.0953,-0.15081 0.40481,-0.52388 l 0.77788,0.66675 q -0.78581,1.02394 -1.30175,2.19075 l -0.0238,0.0159 q 0.46037,-0.11906 1.0795,-0.40481 0.61912,-0.29369 0.78581,-0.381 l 0.17462,0.80168 q -0.46831,0.34132 -1.55575,0.88107 -0.42862,0.21431 -0.77787,0.34131 z m -1.31762,-0.42862 q 0.84931,-0.23019 1.54781,-1.12713 0.20637,-0.45243 0.30956,-1.12712 -0.81756,0.0794 -1.34144,0.72231 -0.51593,0.635 -0.51593,1.53194 z"
         id="path1594"
         style="fill:#121212;fill-opacity:1" /><path
         d="m 275.46048,116.21152 q 0.381,-0.51594 0.9525,-1.07157 l 0.73819,0.5715 q -0.0873,0.36513 -0.15082,0.53182 1.02394,-0.11113 1.47638,-0.22225 0.45244,-0.11113 0.78581,-0.19844 l 0.22225,0.94456 q -0.32544,0.0953 -0.68262,0.16669 -0.54769,0.86519 -0.91282,1.83356 1.31763,-0.45244 1.94469,-0.84137 l 0.17463,0.80168 q -0.73025,0.47625 -1.91294,0.97632 -0.381,0.15875 -0.73025,0.27781 l -0.84138,-0.84138 q 0.51594,-1.18268 1.10332,-2.03993 -0.55563,0.0476 -0.98425,0.0635 -0.127,0.23812 -0.68263,1.19062 l -0.58737,0.37306 -0.75407,-0.4445 q 0.65882,-0.71437 0.889,-1.00012 0.23019,-0.28575 0.39688,-0.49213 -0.23019,-0.254 -0.4445,-0.57943 z"
         id="path1596"
         style="fill:#121212;fill-opacity:1" /><path
         d="m 281.72316,115.27489 q -0.18256,-0.1905 -0.18256,-0.46037 0,-0.26988 0.18256,-0.45244 0.1905,-0.1905 0.46038,-0.1905 0.26987,0 0.45244,0.1905 0.1905,0.18256 0.1905,0.45244 0,0.26987 -0.1905,0.46037 -0.18257,0.18256 -0.45244,0.18256 -0.26988,0 -0.46038,-0.18256 z m -1.19856,3.4925 q 0.80963,-0.24606 1.94469,-0.84137 l 0.16669,0.80168 q -0.76994,0.50007 -1.85738,0.97632 -0.36512,0.15875 -0.71437,0.27781 l -0.91282,-0.84138 q 0.38894,-1.06362 1.397,-2.65112 0.30163,-0.47625 0.58738,-0.83344 l 0.78581,0.57944 q -0.57944,0.79375 -1.12712,1.91294 -0.15875,0.33337 -0.26988,0.61912 z"
         id="path1598"
         style="fill:#121212;fill-opacity:1" /><path
         d="m 283.50117,120.04533 q -0.5715,-0.381 -1.00013,-0.72231 -0.38893,-0.34132 -0.84931,-0.81757 l 0.81756,-0.57943 q 0.55563,0.57943 0.81757,0.77787 0.26193,0.1905 0.46831,0.32544 0.22225,-0.0238 0.72231,-0.15081 l -1.31762,-1.24619 q -0.18257,-0.1905 -0.28575,-0.34131 0.30162,-0.53975 1.03981,-1.11919 0.69056,-0.53975 1.31762,-0.72231 l 1.27,1.02393 q -0.13493,0.53975 -0.635,1.42875 l -0.84931,-0.635 q 0.16669,-0.24606 0.29369,-0.53181 0.127,-0.28575 0.15081,-0.381 -0.4445,0.16669 -0.91281,0.60325 -0.16669,0.15875 -0.30163,0.32544 0.15082,0.23019 0.46038,0.48419 0.52387,0.45243 0.88106,0.77787 0.88106,-0.30162 1.49225,-0.61912 l 0.16669,0.80168 q -0.635,0.45244 -1.78594,0.84138 -1.06362,0.35719 -1.96056,0.47625 z"
         id="path1600"
         style="fill:#121212;fill-opacity:1" /><path
         d="m 288.53354,116.99733 q 0.73819,-0.56356 1.69862,-1.07156 l 0.96044,0.75406 q -0.26194,1.12712 -0.92075,2.032 0.79375,-0.26988 1.80181,-0.78581 l 0.16669,0.80168 q -0.32544,0.21432 -0.99219,0.54769 -1.143,0.56356 -1.57956,0.70644 l -0.98425,-0.6985 q 0.47625,-0.5715 0.79375,-1.12713 0.32544,-0.56356 0.42069,-0.98425 -1.03981,0.51594 -1.37319,0.73025 -0.32544,0.21432 -0.58737,0.39688 -0.38894,0.96044 -0.59532,1.68275 l -0.94456,-0.61119 q 0.26194,-0.89694 1.15094,-2.68287 0.80962,-1.63513 1.45256,-2.58763 l 0.80963,0.61119 q -0.66675,1.0795 -1.27794,2.286 z"
         id="path1602"
         style="fill:#121212;fill-opacity:1" /><path
         d="m 294.89941,118.87058 q -0.762,0.88106 -2.00819,1.11125 l -1.12712,-0.94456 q 0,-0.762 0.30162,-1.50813 0.381,-0.93662 1.25413,-1.51606 0.60325,-0.40481 1.30969,-0.50006 l 1.26206,1.0795 q -0.13494,0.85725 -0.46038,1.49225 0.5715,-0.0318 1.29382,-0.15875 l 0.17462,0.80168 q -1.03187,0.42863 -1.61925,0.57944 z m -2.07169,0.0318 q 0.90488,-0.20638 1.50813,-1.11919 0.254,-0.38894 0.36512,-0.74612 0.11113,-0.35719 0.11907,-0.5715 -0.64294,0.0873 -1.22238,0.68262 -0.72231,0.73819 -0.76994,1.75419 z"
         id="path1604"
         style="fill:#121212;fill-opacity:1" /><path
         d="m 299.73336,118.6007 q 1.28587,-0.37306 1.80181,-0.67468 l 0.17462,0.80168 q -0.635,0.47625 -1.42081,0.86519 -0.27781,0.14288 -0.48419,0.21431 l -0.38893,-0.42862 q -0.22225,1.00806 -0.52388,1.61131 -0.28575,0.55563 -0.80962,1.11125 -0.87313,-0.0238 -1.91294,-0.27781 -0.32544,-0.0794 -0.59531,-0.17463 l -0.0476,-1.30968 q 0.53181,-0.46832 1.18269,-0.79375 l -0.46038,-0.33338 q 0.0714,-1.04775 1.08744,-2.69875 0.3175,-0.51594 0.6985,-1.03187 l 0.8255,0.62706 q -1.38906,1.95262 -1.50019,2.87337 0.42069,-0.0635 0.67469,-0.19843 0.508,-0.26988 0.80963,-0.78582 0.68262,-1.36525 1.22237,-2.12725 l 0.84138,0.65882 q -0.77788,1.19062 -1.17475,2.07168 z m -3.40519,2.31775 q 0.73025,0.16669 1.2065,0.18257 0.51594,-0.43657 0.80962,-1.37319 -1.29381,0.52387 -2.01612,1.19062 z"
         id="path1606"
         style="fill:#121212;fill-opacity:1" /><path
         d="m 303.65449,119.26745 q -0.62707,0.49213 -1.44463,0.71438 l -0.98425,-0.91281 q 0,-0.62707 0.1905,-1.23032 0.1905,-0.60325 0.56356,-1.08743 0.37307,-0.48419 0.92075,-0.80169 0.55563,-0.32544 1.27794,-0.38894 l 0.52388,0.80169 q 0.0952,-0.15081 0.40481,-0.52388 l 0.77787,0.66675 q -0.78581,1.02394 -1.30175,2.19075 l -0.0238,0.0159 q 0.46038,-0.11906 1.0795,-0.40481 0.61913,-0.29369 0.78581,-0.381 l 0.17463,0.80168 q -0.46831,0.34132 -1.55575,0.88107 -0.42863,0.21431 -0.77788,0.34131 z m -1.31763,-0.42862 q 0.84931,-0.23019 1.54781,-1.12713 0.20638,-0.45243 0.30957,-1.12712 -0.81757,0.0794 -1.34144,0.72231 -0.51594,0.635 -0.51594,1.53194 z"
         id="path1608"
         style="fill:#121212;fill-opacity:1" /></g><g
       aria-label="SHOYA"
       id="text3738"
       style="font-size:52.9167px;font-family:'Vampiro One';-inkscape-font-specification:'Vampiro One';text-align:end;text-anchor:end;display:inline;fill:#00d4ff;stroke-width:0.264583"
       inkscape:label="SHOYA"><path
         d="m 99.774334,50.244371 q -5.662087,3.016252 -10.26584,8.043338 0.582084,1.852084 1.693335,3.968752 1.11125,2.063752 2.328334,4.445003 3.227919,6.032504 4.603753,10.318756 l -4.445003,7.090838 Q 83.793491,81.51814 76.120569,76.86147 73.739318,75.379803 71.410983,73.792302 l 3.545419,-6.455838 q 8.043338,5.556254 14.710842,8.149172 -1.27,-3.122085 -3.810002,-7.514171 -2.540002,-4.445003 -3.704169,-6.667504 -1.111251,-2.275418 -1.746251,-4.49792 3.280835,-4.074585 8.360838,-8.043338 4.65667,-3.651252 8.890006,-5.662087 l 10.212924,6.826255 q -1.00542,4.497919 -4.60375,11.165423 -0.89959,1.693334 -1.58751,2.698752 l -6.349999,-3.651253 q 2.116668,-3.386668 4.445003,-9.895422 z"
         id="path13530" /><path
         d="m 125.43891,71.781467 q -3.91584,-2.540001 -7.14376,-4.286253 -4.49792,8.572506 -7.35542,15.345843 l -6.19125,-5.662087 q 2.64583,-5.873753 6.82625,-13.123341 l -4.18042,-2.010834 3.59834,-6.191254 4.23333,2.010834 q 4.86834,-7.937504 8.73126,-12.858757 l 5.715,5.132919 q -2.16958,2.857502 -7.62,11.165424 3.38667,1.905001 6.87917,4.074586 7.72584,-13.282092 12.59417,-19.420429 l 5.71501,5.13292 q -6.24417,8.413755 -12.01209,18.573761 l 4.49792,3.333752 -4.12751,6.032504 -3.75708,-2.857502 q -2.27542,4.497919 -3.65125,8.202088 l -6.13834,-5.662086 q 1.27,-2.857502 3.38667,-6.932088 z"
         id="path13532" /><path
         d="m 178.14391,60.880627 q -5.60917,-5.027086 -10.4775,-7.990421 -5.3975,2.804585 -9.57792,9.525005 -4.33917,6.932088 -4.86834,14.075842 8.30792,-2.275418 14.18168,-11.271257 1.95791,-3.069168 3.43958,-6.985004 l 7.3025,2.645835 q -3.54541,9.948339 -9.26042,15.398759 -6.19125,5.926671 -15.98084,7.778755 l -7.83167,-7.196671 q 1.53458,-16.298343 13.38792,-26.246682 4.12751,-3.492502 9.68376,-6.085421 7.03792,3.598336 12.38251,9.207506 z"
         id="path13534" /><path
         d="m 195.28897,62.626878 q 8.36084,-7.302504 14.71085,-16.404176 l 5.92667,5.662086 q -9.84251,12.488341 -20.63752,19.050012 -2.91041,4.497919 -5.715,12.541257 l -6.56167,-5.662086 q 2.2225,-5.556254 3.175,-7.302505 1.00542,-1.799167 2.06375,-3.492502 -1.21708,-10.583339 1.95792,-24.394598 l 7.09084,6.508754 q -1.79917,7.037921 -2.01084,13.493758 z"
         id="path13536" /><path
         d="m 222.96441,67.759798 q -5.87376,7.514171 -9.26043,15.081259 l -5.76792,-5.344587 q 3.43959,-6.455837 9.04876,-13.493758 l -3.175,-1.799167 4.55083,-5.715004 3.43959,1.905001 q 6.45584,-6.87917 12.48834,-11.430007 l 3.91584,3.545419 q 0.79375,-3.280835 1.27,-6.455837 l 6.61458,5.715003 q -3.12208,15.87501 -12.64709,34.025438 l -6.0325,-5.503337 q 1.69333,-3.069169 2.43417,-4.497919 -2.91042,-3.227919 -6.87917,-6.032504 z m 4.60375,-5.397503 q 2.8575,2.169584 5.23875,4.709586 3.22792,-8.043338 4.76251,-14.128759 -4.65667,3.651253 -10.00126,9.419173 z"
         id="path13538" /></g><path
       id="path10854"
       style="fill:#00d4ff;stroke-width:0.264583"
       d="m 38.932761,-13.264353 h 22.28548 L 18.884901,134.18135 H -3.4005698 Z"
       sodipodi:nodetypes="ccccc"
       inkscape:label="angled 1" /><path
       id="path10856"
       style="fill:#00d4ff;stroke-width:0.264583"
       d="m 76.195561,-10.849854 h 22.28548 L 56.147701,136.59585 h -22.28547 z"
       sodipodi:nodetypes="ccccc"
       inkscape:label="angled 2" /></g><g
     id="g13803"
     transform="matrix(0.26458333,0,0,0.26458333,-406.1524,-238.64563)"
     style="display:inline"
     inkscape:label="profile"
     inkscape:export-filename="./hidarishoya/profile.png"
     inkscape:export-xdpi="96"
     inkscape:export-ydpi="96"><path
       id="rect493"
       style="display:inline;fill:#121212;fill-opacity:1"
       d="M 1000,0 V 1000 H 0 V 0 Z"
       inkscape:label="bg"
       sodipodi:nodetypes="ccccc" /></g><path
     id="path13812"
     style="display:inline;font-size:713.776px;font-family:'Vampiro One';-inkscape-font-specification:'Vampiro One';stroke-width:0.606072;stroke:none;stroke-opacity:1;fill:#00d4ff;fill-opacity:1"
     d="m 345.00386,253.01105 c -29.49554,37.57646 -62.82895,86.66818 -100.00144,147.27537 l -48.48625,-23.03179 -41.21254,70.91191 47.88016,23.02989 C 171.26397,526.55101 145.20231,576.65323 125,621.50256 l 70.90999,64.85042 c 21.81859,-51.71814 49.90121,-110.30674 84.24531,-175.7625 24.64697,13.33356 51.91929,29.6981 81.81882,49.09241 -16.16191,31.11171 -29.09076,57.57753 -38.78791,79.39612 l 70.3039,64.85042 c 10.50524,-28.28336 24.44461,-59.59771 41.81863,-93.94181 l 22.10729,18.81735 c 17.77818,12.12143 35.75761,23.83953 53.93972,35.15287 58.58698,35.55623 125.66003,63.23276 201.21702,83.03112 l 50.90901,-81.21457 c -10.50525,-32.72788 -28.0805,-72.12252 -52.72746,-118.184 -9.29314,-18.18217 -18.18364,-35.15109 -26.66868,-50.90897 -8.48497,-16.16191 -14.94846,-31.31383 -19.39295,-45.45552 35.15213,-38.38456 74.34464,-69.09262 117.5778,-92.12336 -17.77811,49.69791 -34.74897,87.47572 -50.91088,113.3348 l 72.72844,41.82054 c 5.25267,-7.67692 11.31377,-17.98031 18.18263,-30.90986 C 849.74592,432.43799 867.32304,389.80972 875,355.46564 L 758.02829,277.28183 c -32.32382,15.35381 -66.26553,36.97111 -101.82174,64.85041 -38.7886,30.3036 -70.7074,61.01166 -95.75837,92.12336 4.84858,16.97001 11.51416,34.14105 19.99911,51.51513 8.88915,16.97001 23.03239,42.42534 42.42677,76.36537 19.39421,33.53597 33.93993,62.22493 43.63708,86.06376 -50.91002,-19.79835 -107.07339,-50.91063 -168.48875,-93.33565 l -23.92387,-19.4235 c 44.04118,-77.57722 89.89927,-148.48833 137.577,-212.73194 l -65.45465,-58.78893 c -37.17249,46.86956 -85.25557,121.01241 -144.24656,222.42845 -26.66724,-16.56596 -52.92904,-32.12211 -78.7881,-46.66782 41.61697,-63.43554 70.70816,-106.0619 87.27416,-127.8805 z"
     transform="matrix(0.26458333,0,0,0.26458333,-406.1524,-238.64563)"
     inkscape:label="hs" /><g
     inkscape:groupmode="layer"
     id="layer3"
     inkscape:label="title"
     style="display:inline"><rect
       style="fill:#121212;fill-opacity:1;stroke-width:0.266668"
       id="rect11652"
       width="421.25552"
       height="51.511555"
       x="-57.307236"
       y="313.22397"
       inkscape:export-filename="./hidarishoya/peripherals.png"
       inkscape:export-xdpi="96"
       inkscape:export-ydpi="96"
       inkscape:label="back" /><path
       id="path10933"
       style="fill:#00d4ff;fill-opacity:1;stroke-width:0.261337"
       d="M -48.150255,357.08215 H 354.79131 v 7.65338 H -48.150255 Z"
       inkscape:label="horizontal" /><path
       id="path10935"
       style="fill:#00d4ff;stroke-width:0.113891"
       d="m -19.835866,312.77487 h 9.592861 l -18.222531,63.4685 h -9.592857 z"
       sodipodi:nodetypes="ccccc"
       inkscape:label="angled 1" /><path
       id="path10937"
       style="fill:#00d4ff;stroke-width:0.113891"
       d="m -3.7959668,313.8142 h 9.5928592 l -18.2225284,63.4685 h -9.592857 z"
       sodipodi:nodetypes="ccccc"
       inkscape:label="angled 2" /><g
       aria-label="ABOUT"
       id="text10993"
       style="font-size:42.1521px;font-family:'Vampiro One';-inkscape-font-specification:'Vampiro One';text-align:center;text-anchor:middle;display:none;fill:#00d4ff;stroke-width:0.21076"
       inkscape:label="about"><path
         d="m 92.242098,337.14656 q -4.678883,5.9856 -7.376617,12.01335 l -4.594579,-4.25736 q 2.739886,-5.14256 7.208009,-10.74879 l -2.529126,-1.43317 3.62508,-4.55242 2.739887,1.51747 q 5.142556,-5.47977 9.947898,-9.10485 l 3.11925,2.82419 q 0.63228,-2.61343 1.01165,-5.14256 l 5.26902,4.55243 q -2.48698,12.64563 -10.07436,27.1038 l -4.805335,-4.38382 q 1.348867,-2.44482 1.938996,-3.58293 -2.318365,-2.57128 -5.479773,-4.80534 z m 3.667233,-4.29951 q 2.276213,1.72823 4.173059,3.75154 2.57128,-6.40712 3.79369,-11.25462 -3.70939,2.9085 -7.966749,7.50308 z"
         id="path13519" /><path
         d="m 129.96826,336.21922 q 1.98115,1.30671 4.00445,2.9928 l -0.84304,5.31116 q -5.73269,3.66723 -14.16311,4.55243 -2.40267,0.25291 -4.55242,0.25291 l -4.76319,-4.29951 q 5.39547,-11.92905 12.77209,-20.86529 -3.24572,-0.46368 -5.14256,-0.46368 l 1.81254,-5.0161 q 5.05825,0.21076 9.73713,1.01165 4.67889,0.75874 9.14701,2.69774 l 3.20356,7.1237 q -4.51027,4.72104 -11.21246,6.70219 z m -6.9551,-2.9085 q 4.21521,-1.01165 6.32282,-2.0233 3.37217,-1.55963 5.60623,-3.54078 -4.42597,-2.23406 -11.38107,-3.37216 l 3.75154,3.03495 q -3.11926,4.0466 -4.29952,5.90129 z m -5.98559,10.28511 q 6.74433,-0.25291 11.1703,-2.65558 -1.47532,-1.68608 -5.26901,-3.45647 -1.0538,-0.46367 -2.0233,-0.88519 -2.23406,3.62508 -3.87799,6.99724 z"
         id="path13521" /><path
         d="m 166.93564,331.66679 q -4.46812,-4.00445 -8.34611,-6.36497 -4.29952,2.23406 -7.62953,7.58738 -3.45647,5.52193 -3.878,11.21246 6.61788,-1.81254 11.29677,-8.9784 1.55962,-2.44482 2.73988,-5.56408 l 5.81699,2.10761 q -2.82419,7.92459 -7.37661,12.26626 -4.9318,4.72104 -12.72994,6.19636 l -6.23851,-5.73269 q 1.22241,-12.98284 10.66448,-20.90744 3.28787,-2.78204 7.71384,-4.84749 5.60623,2.86634 9.86359,7.33447 z"
         id="path13523" /><path
         d="m 181.77321,345.53483 q -3.0771,1.60178 -8.30396,3.45647 l -5.31117,-5.1004 q 5.22686,-13.78374 14.03665,-25.24911 l 4.55243,4.51028 q -4.55243,5.52192 -8.89409,13.99449 -1.26457,2.52913 -2.27622,4.88965 5.05826,-1.13811 8.51473,-2.52913 v 0.0843 q 6.70218,-13.82588 11.33891,-19.47427 l 4.63673,4.51028 q -6.57572,7.92459 -13.53082,25.41771 z"
         id="path13525" /><path
         d="m 199.39281,344.64964 q 2.57127,-6.40712 5.60623,-11.25461 3.0771,-4.88965 5.81699,-8.68334 -5.05826,-1.60178 -8.8941,-2.57127 l 3.11926,-4.8475 q 9.27346,1.77039 21.32896,6.44927 l -2.90849,5.81699 q -6.57573,-2.73988 -11.38107,-4.42597 l 3.58293,3.20356 q -4.84749,6.57573 -8.64118,14.79539 -1.30672,2.73989 -2.69774,6.02775 z"
         id="path13527" /></g><g
       aria-label="AFFILIATE"
       id="text13258"
       style="font-size:42.1521px;font-family:'Vampiro One';-inkscape-font-specification:'Vampiro One';text-align:center;text-anchor:middle;display:none;fill:#00d4ff;stroke-width:0.21076"
       inkscape:label="affiliate"><path
         d="m 57.593051,337.14656 q -4.678883,5.9856 -7.376617,12.01335 l -4.594579,-4.25736 q 2.739886,-5.14256 7.208009,-10.74879 l -2.529126,-1.43317 3.62508,-4.55242 2.739887,1.51747 q 5.142556,-5.47977 9.947895,-9.10485 l 3.119256,2.82419 q 0.632281,-2.61343 1.01165,-5.14256 l 5.269013,4.55243 q -2.486974,12.64563 -10.074352,27.1038 l -4.80534,-4.38382 q 1.348868,-2.44482 1.938997,-3.58293 -2.318365,-2.57128 -5.479773,-4.80534 z m 3.667233,-4.29951 q 2.276213,1.72823 4.173058,3.75154 2.571278,-6.40712 3.793689,-11.25462 -3.709385,2.9085 -7.966747,7.50308 z"
         id="path13500" /><path
         d="m 74.748989,344.73394 q 3.330016,-7.33446 9.442071,-16.14425 1.81254,-2.61343 3.372168,-4.51028 -2.950647,-0.46367 -4.847492,-0.46367 l 1.938997,-5.22686 q 11.25461,0.37937 20.443767,4.0466 l -2.40267,6.11205 q -6.112053,-2.69773 -13.825887,-4.25736 l 3.62508,2.9928 q -1.981148,2.57128 -4.257362,5.85914 2.571278,0.50583 8.346116,2.31837 l -2.065453,5.14255 -5.142556,-1.68608 q -1.938997,-0.59013 -4.088754,-1.13811 -3.62508,6.11206 -5.732685,11.38107 z"
         id="path13502" /><path
         d="m 99.365799,344.73394 q 3.330021,-7.33446 9.442071,-16.14425 1.81254,-2.61343 3.37217,-4.51028 -2.95065,-0.46367 -4.84749,-0.46367 l 1.93899,-5.22686 q 11.25461,0.37937 20.44377,4.0466 l -2.40267,6.11205 q -6.11205,-2.69773 -13.82589,-4.25736 l 3.62508,2.9928 q -1.98115,2.57128 -4.25736,5.85914 2.57128,0.50583 8.34612,2.31837 l -2.06546,5.14255 -5.14255,-1.68608 q -1.939,-0.59013 -4.08876,-1.13811 -3.62508,6.11206 -5.73268,11.38107 z"
         id="path13504" /><path
         d="m 124.57274,344.69179 q 6.19636,-13.95235 15.09045,-25.79709 l 4.29951,4.38382 q -4.29951,5.94345 -7.0394,10.87524 -4.84749,8.76764 -7.50307,15.00615 z"
         id="path13506" /><path
         d="m 147.67212,342.03621 q 4.38381,0.92734 11.21245,1.60178 l -1.81254,5.85914 q -5.77483,-0.50583 -8.30396,-0.9695 -2.48697,-0.46367 -3.92015,-0.75874 l -5.05825,-4.59458 q 5.14256,-10.70663 15.13261,-24.27961 l 4.34166,4.38382 q -5.52192,7.58738 -11.59182,18.75769 z"
         id="path13508" /><path
         d="m 161.2451,344.69179 q 6.19636,-13.95235 15.09045,-25.79709 l 4.29952,4.38382 q -4.29952,5.94345 -7.0394,10.87524 -4.84749,8.76764 -7.50308,15.00615 z"
         id="path13510" /><path
         d="m 187.59018,337.14656 q -4.67888,5.9856 -7.37662,12.01335 l -4.59457,-4.25736 q 2.73988,-5.14256 7.20801,-10.74879 l -2.52913,-1.43317 3.62508,-4.55242 2.73989,1.51747 q 5.14255,-5.47977 9.94789,-9.10485 l 3.11926,2.82419 q 0.63228,-2.61343 1.01165,-5.14256 l 5.26901,4.55243 q -2.48697,12.64563 -10.07435,27.1038 l -4.80534,-4.38382 q 1.34887,-2.44482 1.939,-3.58293 -2.31837,-2.57128 -5.47978,-4.80534 z m 3.66724,-4.29951 q 2.27621,1.72823 4.17305,3.75154 2.57128,-6.40712 3.79369,-11.25462 -3.70938,2.9085 -7.96674,7.50308 z"
         id="path13512" /><path
         d="m 208.45551,344.64964 q 2.57128,-6.40712 5.60623,-11.25461 3.07711,-4.88965 5.81699,-8.68334 -5.05825,-1.60178 -8.89409,-2.57127 l 3.11925,-4.8475 q 9.27347,1.77039 21.32897,6.44927 l -2.9085,5.81699 q -6.57573,-2.73988 -11.38106,-4.42597 l 3.58292,3.20356 q -4.84749,6.57573 -8.64118,14.79539 -1.30671,2.73989 -2.69773,6.02775 z"
         id="path13514" /><path
         d="m 237.1611,342.33127 q 5.73269,1.26456 12.85639,1.51748 l -1.72823,5.43762 q -6.36497,-0.12646 -13.48868,-1.68609 l -4.80534,-4.38382 q 2.95065,-6.78648 8.76764,-15.1326 1.64393,-2.40267 3.20356,-4.29951 -2.95065,-0.46368 -4.84749,-0.46368 l 1.98115,-5.22686 q 11.84474,0.37937 21.0339,4.29952 l -2.40267,6.1542 q -6.36497,-3.03495 -14.45817,-4.55242 l 3.62508,2.9928 q -2.0233,2.44482 -3.66724,4.97394 4.17306,0.92735 8.30397,1.30672 l -1.89685,5.35332 q -6.44927,-1.13811 -9.44207,-1.939 -1.60178,2.65558 -3.03495,5.64838 z"
         id="path13516" /></g><g
       aria-label="SCHEDULE"
       id="text13372"
       style="font-size:42.1521px;font-family:'Vampiro One';-inkscape-font-specification:'Vampiro One';text-align:center;text-anchor:middle;display:none;fill:#00d4ff;stroke-width:0.21076"
       inkscape:label="schedule"><path
         d="m 66.845509,323.19422 q -4.510275,2.40267 -8.177508,6.40712 0.463673,1.47532 1.348867,3.1614 0.885195,1.64394 1.854693,3.54078 2.571278,4.80534 3.667233,8.21966 l -3.540777,5.64838 q -7.882442,-2.06545 -13.994497,-5.77484 -1.896844,-1.18026 -3.751537,-2.44482 l 2.824191,-5.14255 q 6.407119,4.42597 11.718284,6.49142 -1.011651,-2.48697 -3.034952,-5.9856 -2.0233,-3.54078 -2.950647,-5.31116 -0.885194,-1.81254 -1.391019,-3.58293 2.61343,-3.24571 6.660032,-6.40712 3.709385,-2.9085 7.081553,-4.51028 l 8.135355,5.43762 q -0.80089,3.58293 -3.667233,8.8941 -0.716585,1.34887 -1.264563,2.14976 l -5.058252,-2.9085 q 1.686084,-2.69773 3.540777,-7.88244 z"
         id="path13483" /><path
         d="m 78.268706,342.71064 q 6.660032,-0.46367 12.139805,-3.16141 l 1.643932,4.80534 q -6.912944,4.25736 -15.975646,4.9318 l -5.353316,-4.97395 q 1.896844,-8.26181 6.744336,-14.964 5.521925,-7.54522 13.404367,-10.87524 l 8.008899,5.77484 q -1.095954,3.58293 -3.962297,8.30396 -0.80089,1.30672 -1.517476,2.31837 l -4.889643,-2.69774 q 2.866342,-4.93179 3.835841,-8.30396 -5.269013,2.61343 -9.315614,8.0089 -3.877993,5.26901 -4.763188,10.83309 z"
         id="path13485" /><path
         d="m 112.91772,340.35012 q -3.11925,-2.0233 -5.69053,-3.41432 -3.58293,6.82864 -5.85914,12.22411 l -4.931799,-4.51027 q 2.107604,-4.67889 5.437619,-10.45372 l -3.330015,-1.60178 2.866345,-4.9318 3.37217,1.60178 q 3.87799,-6.32282 6.95509,-10.24296 l 4.55243,4.08875 q -1.72824,2.27622 -6.0699,8.8941 2.69773,1.51747 5.47977,3.24571 6.15421,-10.58018 10.0322,-15.46982 l 4.55243,4.08875 q -4.97395,6.70218 -9.56853,14.79539 l 3.58293,2.65558 -3.28787,4.80534 -2.99279,-2.27621 q -1.81254,3.58292 -2.9085,6.53357 l -4.88964,-4.51027 q 1.01165,-2.27622 2.69773,-5.52193 z"
         id="path13487" /><path
         d="m 134.20452,342.33127 q 5.73268,1.26456 12.85639,1.51748 l -1.72824,5.43762 q -6.36496,-0.12646 -13.48867,-1.68609 l -4.80534,-4.38382 q 2.95065,-6.78648 8.76764,-15.1326 1.64393,-2.40267 3.20356,-4.29951 -2.95065,-0.46368 -4.84749,-0.46368 l 1.98114,-5.22686 q 11.84474,0.37937 21.0339,4.29952 l -2.40267,6.1542 q -6.36496,-3.03495 -14.45817,-4.55242 l 3.62508,2.9928 q -2.0233,2.44482 -3.66723,4.97394 4.17306,0.92735 8.30396,1.30672 l -1.89684,5.35332 q -6.44927,-1.13811 -9.44207,-1.939 -1.60178,2.65558 -3.03495,5.64838 z"
         id="path13489" /><path
         d="m 152.49854,344.05951 q 2.65558,-5.9856 4.67888,-9.44207 3.37217,-5.69054 7.29232,-10.45372 -3.24572,-0.46368 -5.26902,-0.46368 l 1.81254,-5.0161 q 5.05826,0.21076 9.73714,1.01165 4.67888,0.75874 9.147,2.69774 l 2.48698,5.64838 q -2.0233,8.55688 -8.9784,14.1631 -6.40712,5.14256 -15.51197,6.82864 z m 7.41877,-1.30672 q 5.73268,-1.64393 10.15865,-5.64838 4.67889,-4.21521 6.15421,-9.82144 -4.51027,-1.89684 -10.53802,-2.90849 l 3.70938,3.03495 q -5.90129,7.46092 -9.48422,15.34336 z"
         id="path13491" /><path
         d="m 195.57797,345.53483 q -3.07711,1.60178 -8.30397,3.45647 l -5.31116,-5.1004 q 5.22686,-13.78374 14.03665,-25.24911 l 4.55242,4.51028 q -4.55242,5.52192 -8.89409,13.99449 -1.26456,2.52913 -2.27621,4.88965 5.05825,-1.13811 8.51472,-2.52913 v 0.0843 q 6.70219,-13.82588 11.33892,-19.47427 l 4.63673,4.51028 q -6.57573,7.92459 -13.53083,25.41771 z"
         id="path13493" /><path
         d="m 218.00289,342.03621 q 4.38382,0.92734 11.21246,1.60178 l -1.81254,5.85914 q -5.77484,-0.50583 -8.30396,-0.9695 -2.48698,-0.46367 -3.92015,-0.75874 l -5.05825,-4.59458 q 5.14256,-10.70663 15.1326,-24.27961 l 4.34167,4.38382 q -5.52192,7.58738 -11.59183,18.75769 z"
         id="path13495" /><path
         d="m 239.1211,342.33127 q 5.73268,1.26456 12.85639,1.51748 l -1.72824,5.43762 q -6.36496,-0.12646 -13.48867,-1.68609 l -4.80534,-4.38382 q 2.95065,-6.78648 8.76764,-15.1326 1.64393,-2.40267 3.20356,-4.29951 -2.95065,-0.46368 -4.84749,-0.46368 l 1.98114,-5.22686 q 11.84474,0.37937 21.0339,4.29952 l -2.40267,6.1542 q -6.36496,-3.03495 -14.45817,-4.55242 l 3.62508,2.9928 q -2.0233,2.44482 -3.66723,4.97394 4.17306,0.92735 8.30396,1.30672 l -1.89684,5.35332 q -6.44927,-1.13811 -9.44207,-1.939 -1.60178,2.65558 -3.03495,5.64838 z"
         id="path13497" /></g><g
       aria-label="SOCIALS"
       id="text13376"
       style="font-size:42.1521px;font-family:'Vampiro One';-inkscape-font-specification:'Vampiro One';text-align:center;text-anchor:middle;display:none;fill:#00d4ff;stroke-width:0.21076"
       inkscape:label="socials"><path
         d="m 87.331391,323.19422 q -4.510274,2.40267 -8.177507,6.40712 0.463673,1.47532 1.348867,3.1614 0.885194,1.64394 1.854693,3.54078 2.571278,4.80534 3.667232,8.21966 l -3.540776,5.64838 q -7.882443,-2.06545 -13.994497,-5.77484 -1.896845,-1.18026 -3.751537,-2.44482 l 2.824191,-5.14255 q 6.407119,4.42597 11.718283,6.49142 -1.01165,-2.48697 -3.034951,-5.9856 -2.023301,-3.54078 -2.950647,-5.31116 -0.885194,-1.81254 -1.391019,-3.58293 2.61343,-3.24571 6.660032,-6.40712 3.709384,-2.9085 7.081552,-4.51028 l 8.135356,5.43762 q -0.80089,3.58293 -3.667233,8.8941 -0.716586,1.34887 -1.264563,2.14976 l -5.058252,-2.9085 q 1.686084,-2.69773 3.540776,-7.88244 z"
         id="path13468" /><path
         d="m 118.9876,331.66679 q -4.46813,-4.00445 -8.34612,-6.36497 -4.29951,2.23406 -7.62953,7.58738 -3.456471,5.52193 -3.877992,11.21246 6.617882,-1.81254 11.296762,-8.9784 1.55963,-2.44482 2.73989,-5.56408 l 5.81699,2.10761 q -2.82419,7.92459 -7.37662,12.26626 -4.9318,4.72104 -12.729934,6.19636 l -6.238511,-5.73269 q 1.222411,-12.98284 10.664485,-20.90744 3.28786,-2.78204 7.71383,-4.84749 5.60623,2.86634 9.86359,7.33447 z"
         id="path13470" /><path
         d="m 127.67097,342.71064 q 6.66003,-0.46367 12.1398,-3.16141 l 1.64393,4.80534 q -6.91294,4.25736 -15.97564,4.9318 l -5.35332,-4.97395 q 1.89684,-8.26181 6.74434,-14.964 5.52192,-7.54522 13.40436,-10.87524 l 8.0089,5.77484 q -1.09595,3.58293 -3.9623,8.30396 -0.80089,1.30672 -1.51747,2.31837 l -4.88964,-2.69774 q 2.86634,-4.93179 3.83584,-8.30396 -5.26902,2.61343 -9.31562,8.0089 -3.87799,5.26901 -4.76318,10.83309 z"
         id="path13472" /><path
         d="m 145.29053,344.69179 q 6.19636,-13.95235 15.09045,-25.79709 l 4.29952,4.38382 q -4.29952,5.94345 -7.0394,10.87524 -4.8475,8.76764 -7.50308,15.00615 z"
         id="path13474" /><path
         d="m 171.63562,337.14656 q -4.67888,5.9856 -7.37662,12.01335 l -4.59458,-4.25736 q 2.73989,-5.14256 7.20801,-10.74879 l -2.52912,-1.43317 3.62508,-4.55242 2.73988,1.51747 q 5.14256,-5.47977 9.9479,-9.10485 l 3.11925,2.82419 q 0.63228,-2.61343 1.01165,-5.14256 l 5.26902,4.55243 q -2.48698,12.64563 -10.07436,27.1038 l -4.80534,-4.38382 q 1.34887,-2.44482 1.939,-3.58293 -2.31836,-2.57128 -5.47977,-4.80534 z m 3.66723,-4.29951 q 2.27621,1.72823 4.17306,3.75154 2.57128,-6.40712 3.79369,-11.25462 -3.70939,2.9085 -7.96675,7.50308 z"
         id="path13476" /><path
         d="m 197.30628,342.03621 q 4.38382,0.92734 11.21246,1.60178 l -1.81254,5.85914 q -5.77484,-0.50583 -8.30396,-0.9695 -2.48698,-0.46367 -3.92015,-0.75874 l -5.05825,-4.59458 q 5.14255,-10.70663 15.1326,-24.27961 l 4.34167,4.38382 q -5.52193,7.58738 -11.59183,18.75769 z"
         id="path13478" /><path
         d="m 233.26202,323.19422 q -4.51027,2.40267 -8.1775,6.40712 0.46367,1.47532 1.34886,3.1614 0.8852,1.64394 1.8547,3.54078 2.57128,4.80534 3.66723,8.21966 l -3.54078,5.64838 q -7.88244,-2.06545 -13.99449,-5.77484 -1.89685,-1.18026 -3.75154,-2.44482 l 2.82419,-5.14255 q 6.40712,4.42597 11.71828,6.49142 -1.01165,-2.48697 -3.03495,-5.9856 -2.0233,-3.54078 -2.95064,-5.31116 -0.8852,-1.81254 -1.39102,-3.58293 2.61343,-3.24571 6.66003,-6.40712 3.70938,-2.9085 7.08155,-4.51028 l 8.13536,5.43762 q -0.80089,3.58293 -3.66724,8.8941 -0.71658,1.34887 -1.26456,2.14976 l -5.05825,-2.9085 q 1.68608,-2.69773 3.54077,-7.88244 z"
         id="path13480" /></g><g
       aria-label="PERIPHERALS"
       id="text13380"
       style="font-size:42.1521px;font-family:'Vampiro One';-inkscape-font-specification:'Vampiro One';text-align:center;text-anchor:middle;display:none;fill:#00d4ff;stroke-width:0.21076"
       inkscape:label="peripherals"><path
         d="m 7.0316696,344.77609 q 2.8241907,-6.23851 5.0582524,-9.90574 3.62508,-6.02775 7.545225,-10.66448 -2.908494,-0.50583 -5.22686,-0.50583 l 1.81254,-5.0161 q 7.924595,0.25292 13.783737,2.06546 2.191909,0.67443 4.42597,1.64393 l 3.287864,7.37662 q -2.908495,4.1309 -7.460921,7.16585 -4.510275,2.9928 -9.779288,4.42597 l -2.782038,-3.96229 q -3.287864,5.52192 -5.859142,11.80258 z m 11.2967624,-8.43042 q 8.894093,-3.0771 13.362216,-8.47257 -4.00445,-2.1076 -10.748785,-3.45647 l 3.62508,2.9928 q -3.372168,4.25736 -6.238511,8.93624 z"
         id="path13443" /><path
         d="m 43.113857,342.33127 q 5.732686,1.26456 12.85639,1.51748 l -1.728236,5.43762 q -6.364967,-0.12646 -13.488672,-1.68609 L 35.948,343.21646 q 2.950647,-6.78648 8.767637,-15.1326 1.643932,-2.40267 3.203559,-4.29951 -2.950647,-0.46368 -4.847491,-0.46368 l 1.981149,-5.22686 q 11.84474,0.37937 21.033897,4.29952 l -2.402669,6.1542 q -6.364967,-3.03495 -14.45817,-4.55242 l 3.62508,2.9928 q -2.023301,2.44482 -3.667233,4.97394 4.173058,0.92735 8.303964,1.30672 l -1.896844,5.35332 q -6.449272,-1.13811 -9.442071,-1.939 -1.60178,2.65558 -3.034951,5.64838 z"
         id="path13445" /><path
         d="m 78.057963,338.9591 q 2.529126,4.0466 6.069902,7.79814 l -5.606229,3.62508 q -3.877993,-5.0161 -7.460921,-11.97119 -2.908495,5.0161 -5.269013,10.74878 l -4.763187,-4.38382 q 2.824191,-6.23851 5.058252,-9.90574 3.62508,-6.02775 7.545226,-10.66448 -2.908495,-0.50583 -5.269013,-0.50583 l 1.81254,-5.0161 q 7.924595,0.25292 13.783737,2.06546 2.191909,0.67443 4.425971,1.64393 l 3.287863,7.25016 q -4.299514,5.69053 -13.615128,9.31561 z m -5.311164,-3.37217 q 5.732685,-2.1919 10.200808,-5.52192 1.517475,-1.09595 2.61343,-2.23406 -4.00445,-2.10761 -10.622329,-3.37217 l 3.62508,2.95065 q -3.372168,4.29951 -5.816989,8.1775 z"
         id="path13447" /><path
         d="m 89.734069,344.69179 q 6.196359,-13.95235 15.090451,-25.79709 l 4.29951,4.38382 q -4.29951,5.94345 -7.0394,10.87524 -4.847487,8.76764 -7.50307,15.00615 z"
         id="path13449" /><path
         d="m 104.7824,344.77609 q 2.82419,-6.23851 5.05825,-9.90574 3.62508,-6.02775 7.54523,-10.66448 -2.9085,-0.50583 -5.22686,-0.50583 l 1.81254,-5.0161 q 7.92459,0.25292 13.78374,2.06546 2.19191,0.67443 4.42597,1.64393 l 3.28786,7.37662 q -2.90849,4.1309 -7.46092,7.16585 -4.51028,2.9928 -9.77929,4.42597 l -2.78204,-3.96229 q -3.28786,5.52192 -5.85914,11.80258 z m 11.29676,-8.43042 q 8.8941,-3.0771 13.36222,-8.47257 -4.00445,-2.1076 -10.74879,-3.45647 l 3.62509,2.9928 q -3.37217,4.25736 -6.23852,8.93624 z"
         id="path13451" /><path
         d="m 150.34881,340.35012 q -3.11926,-2.0233 -5.69054,-3.41432 -3.58293,6.82864 -5.85914,12.22411 l -4.93179,-4.51027 q 2.1076,-4.67889 5.43762,-10.45372 l -3.33002,-1.60178 2.86634,-4.9318 3.37217,1.60178 q 3.87799,-6.32282 6.9551,-10.24296 l 4.55242,4.08875 q -1.72823,2.27622 -6.0699,8.8941 2.69774,1.51747 5.47977,3.24571 6.15421,-10.58018 10.0322,-15.46982 l 4.55243,4.08875 q -4.97395,6.70218 -9.56853,14.79539 l 3.58293,2.65558 -3.28786,4.80534 -2.9928,-2.27621 q -1.81254,3.58292 -2.90849,6.53357 l -4.88965,-4.51027 q 1.01165,-2.27622 2.69774,-5.52193 z"
         id="path13453" /><path
         d="m 171.6356,342.33127 q 5.73269,1.26456 12.85639,1.51748 l -1.72823,5.43762 q -6.36497,-0.12646 -13.48867,-1.68609 l -4.80534,-4.38382 q 2.95064,-6.78648 8.76763,-15.1326 1.64393,-2.40267 3.20356,-4.29951 -2.95064,-0.46368 -4.84749,-0.46368 l 1.98115,-5.22686 q 11.84474,0.37937 21.0339,4.29952 l -2.40267,6.1542 q -6.36497,-3.03495 -14.45817,-4.55242 l 3.62508,2.9928 q -2.0233,2.44482 -3.66723,4.97394 4.17305,0.92735 8.30396,1.30672 l -1.89685,5.35332 q -6.44927,-1.13811 -9.44207,-1.939 -1.60178,2.65558 -3.03495,5.64838 z"
         id="path13455" /><path
         d="m 206.5797,338.9591 q 2.52913,4.0466 6.06991,7.79814 l -5.60623,3.62508 q -3.878,-5.0161 -7.46093,-11.97119 -2.90849,5.0161 -5.26901,10.74878 l -4.76319,-4.38382 q 2.8242,-6.23851 5.05826,-9.90574 3.62508,-6.02775 7.54522,-10.66448 -2.90849,-0.50583 -5.26901,-0.50583 l 1.81254,-5.0161 q 7.9246,0.25292 13.78374,2.06546 2.19191,0.67443 4.42597,1.64393 l 3.28786,7.25016 q -4.29951,5.69053 -13.61513,9.31561 z m -5.31116,-3.37217 q 5.73268,-2.1919 10.20081,-5.52192 1.51747,-1.09595 2.61343,-2.23406 -4.00445,-2.10761 -10.62233,-3.37217 l 3.62508,2.95065 q -3.37217,4.29951 -5.81699,8.1775 z"
         id="path13457" /><path
         d="m 229.42612,337.14656 q -4.67888,5.9856 -7.37662,12.01335 l -4.59458,-4.25736 q 2.73989,-5.14256 7.20801,-10.74879 l -2.52912,-1.43317 3.62508,-4.55242 2.73988,1.51747 q 5.14256,-5.47977 9.9479,-9.10485 l 3.11925,2.82419 q 0.63229,-2.61343 1.01165,-5.14256 l 5.26902,4.55243 q -2.48698,12.64563 -10.07436,27.1038 l -4.80533,-4.38382 q 1.34886,-2.44482 1.93899,-3.58293 -2.31836,-2.57128 -5.47977,-4.80534 z m 3.66723,-4.29951 q 2.27622,1.72823 4.17306,3.75154 2.57128,-6.40712 3.79369,-11.25462 -3.70939,2.9085 -7.96675,7.50308 z"
         id="path13459" /><path
         d="m 255.09679,342.03621 q 4.38382,0.92734 11.21246,1.60178 l -1.81254,5.85914 q -5.77484,-0.50583 -8.30397,-0.9695 -2.48697,-0.46367 -3.92014,-0.75874 l -5.05825,-4.59458 q 5.14255,-10.70663 15.1326,-24.27961 l 4.34167,4.38382 q -5.52193,7.58738 -11.59183,18.75769 z"
         id="path13461" /><path
         d="m 291.05255,323.19422 q -4.51028,2.40267 -8.17751,6.40712 0.46367,1.47532 1.34887,3.1614 0.88519,1.64394 1.85469,3.54078 2.57128,4.80534 3.66723,8.21966 l -3.54077,5.64838 q -7.88245,-2.06545 -13.9945,-5.77484 -1.89684,-1.18026 -3.75154,-2.44482 l 2.82419,-5.14255 q 6.40712,4.42597 11.71829,6.49142 -1.01165,-2.48697 -3.03495,-5.9856 -2.0233,-3.54078 -2.95065,-5.31116 -0.88519,-1.81254 -1.39102,-3.58293 2.61343,-3.24571 6.66003,-6.40712 3.70939,-2.9085 7.08155,-4.51028 l 8.13536,5.43762 q -0.80089,3.58293 -3.66723,8.8941 -0.71659,1.34887 -1.26457,2.14976 l -5.05825,-2.9085 q 1.68609,-2.69773 3.54078,-7.88244 z"
         id="path13463" /></g></g></svg>
