<?xml version="1.0" encoding="UTF-8" standalone="no"?>
<!-- Created with Inkscape (http://www.inkscape.org/) -->

<svg
   width="1200"
   height="480"
   viewBox="0 0 317.49999 127"
   version="1.1"
   id="svg5"
   inkscape:version="1.2.2 (b0a8486541, 2022-12-01)"
   sodipodi:docname="profilebanner.svg"
   xml:space="preserve"
   inkscape:export-filename="profilebanner.png"
   inkscape:export-xdpi="96"
   inkscape:export-ydpi="96"
   xmlns:inkscape="http://www.inkscape.org/namespaces/inkscape"
   xmlns:sodipodi="http://sodipodi.sourceforge.net/DTD/sodipodi-0.dtd"
   xmlns="http://www.w3.org/2000/svg"
   xmlns:svg="http://www.w3.org/2000/svg"><sodipodi:namedview
     id="namedview7"
     pagecolor="#505050"
     bordercolor="#eeeeee"
     borderopacity="1"
     inkscape:showpageshadow="0"
     inkscape:pageopacity="0"
     inkscape:pagecheckerboard="0"
     inkscape:deskcolor="#505050"
     inkscape:document-units="px"
     showgrid="false"
     inkscape:zoom="0.5"
     inkscape:cx="574"
     inkscape:cy="348"
     inkscape:window-width="1366"
     inkscape:window-height="713"
     inkscape:window-x="0"
     inkscape:window-y="31"
     inkscape:window-maximized="1"
     inkscape:current-layer="layer1" /><defs
     id="defs2"><filter
       style="color-interpolation-filters:sRGB;"
       inkscape:label="Drop Shadow"
       id="filter5053"
       x="-0.15756321"
       y="-0.53173773"
       width="1.3718201"
       height="2.2548028"><feFlood
         flood-opacity="0.929412"
         flood-color="rgb(0,0,0)"
         result="flood"
         id="feFlood5043" /><feComposite
         in="flood"
         in2="SourceGraphic"
         operator="in"
         result="composite1"
         id="feComposite5045" /><feGaussianBlur
         in="composite1"
         stdDeviation="6.94801"
         result="blur"
         id="feGaussianBlur5047" /><feOffset
         dx="6"
         dy="6"
         result="offset"
         id="feOffset5049" /><feComposite
         in="SourceGraphic"
         in2="offset"
         operator="over"
         result="fbSourceGraphic"
         id="feComposite5051" /><feColorMatrix
         result="fbSourceGraphicAlpha"
         in="fbSourceGraphic"
         values="0 0 0 -1 0 0 0 0 -1 0 0 0 0 -1 0 0 0 0 1 0"
         id="feColorMatrix5055" /><feFlood
         id="feFlood5057"
         flood-opacity="0.929412"
         flood-color="rgb(0,0,0)"
         result="flood"
         in="fbSourceGraphic" /><feComposite
         in2="fbSourceGraphic"
         id="feComposite5059"
         in="flood"
         operator="in"
         result="composite1" /><feGaussianBlur
         id="feGaussianBlur5061"
         in="composite1"
         stdDeviation="6.94801"
         result="blur" /><feOffset
         id="feOffset5063"
         dx="6"
         dy="6"
         result="offset" /><feComposite
         in2="offset"
         id="feComposite5065"
         in="fbSourceGraphic"
         operator="over"
         result="fbSourceGraphic" /><feColorMatrix
         result="fbSourceGraphicAlpha"
         in="fbSourceGraphic"
         values="0 0 0 -1 0 0 0 0 -1 0 0 0 0 -1 0 0 0 0 1 0"
         id="feColorMatrix5067" /><feFlood
         id="feFlood5069"
         flood-opacity="0.929412"
         flood-color="rgb(0,0,0)"
         result="flood"
         in="fbSourceGraphic" /><feComposite
         in2="fbSourceGraphic"
         id="feComposite5071"
         in="flood"
         operator="in"
         result="composite1" /><feGaussianBlur
         id="feGaussianBlur5073"
         in="composite1"
         stdDeviation="6.94801"
         result="blur" /><feOffset
         id="feOffset5075"
         dx="6"
         dy="6"
         result="offset" /><feComposite
         in2="offset"
         id="feComposite5077"
         in="fbSourceGraphic"
         operator="over"
         result="composite2" /></filter></defs><g
     inkscape:label="Layer 1"
     inkscape:groupmode="layer"
     id="layer1"><rect
       style="display:inline;fill:#ffffff;fill-opacity:1;stroke-width:1.08463;stroke-dasharray:4.33852, 1.08463"
       id="rect358"
       width="317.5"
       height="127"
       x="0"
       y="-3.5527137e-15"
       inkscape:label="bg-b"
       sodipodi:insensitive="true" /><path
       id="rect3799"
       style="display:inline;fill:#ffffff;stroke-width:0.883548;stroke-dasharray:3.53419, 0.883548;filter:url(#filter5053)"
       d="m 0,100.54102 c 64.283002,0.18929 128.57028,-0.43492 192.84961,0.50976 4.93151,0.6435 9.77622,2.51513 14.8125,1.92774 3.86385,-0.72966 7.71883,-2.16343 11.70787,-1.62675 1.97484,0.20692 3.82648,0.98826 5.56227,1.91138 3.72007,1.52276 8.16722,1.92686 11.82817,0.0218 2.55491,-1.48614 5.79848,-2.37289 8.64064,-1.17339 1.70445,0.78897 3.33668,1.77044 5.1829,2.20733 2.46112,0.70142 5.19493,0.64805 7.51188,-0.51201 3.23245,-1.30802 6.44702,-3.19986 10.0508,-3.03994 2.72967,0.18421 4.97118,2.00026 6.79054,3.89536 1.74449,1.66344 3.68118,3.50957 6.20344,3.73813 2.50986,0.0815 4.56993,-1.68276 6.16916,-3.42426 1.13666,-1.24297 2.45824,-2.74082 4.29764,-2.68707 1.44175,0.0346 2.64107,1.14097 3.10742,2.45508 1.40358,2.90572 1.5611,6.19375 2.51943,9.24246 0.62559,2.33294 1.6053,4.81911 3.71732,6.18646 2.16161,1.05898 4.85308,-0.3205 5.8411,-2.37734 0.76818,-1.59877 1.01232,-3.37984 1.51461,-5.06786 0.79235,-3.32416 1.49648,-6.91318 3.89581,-9.50651 1.1323,-1.19204 2.83312,-1.50358 4.14064,-2.42447 0.82158,-0.66779 1.12292,-1.774465 0.96859,-2.792578 0.40084,-23.657363 -0.005,-47.318236 0.16032,-70.976958 L 133.17283,26.697399 0,26.458984 Z"
       sodipodi:nodetypes="cccccccccccccccccccccccccc"
       sodipodi:insensitive="true"
       inkscape:label="bg-f" /><rect
       style="display:none;fill:#00ffff;fill-opacity:1;stroke-width:0.424094;stroke-dasharray:1.69637, 0.424094"
       id="rect3314"
       width="74.083336"
       height="74.083336"
       x="-3.5527137e-15"
       y="26.458332"
       inkscape:label="guideSH"
       sodipodi:insensitive="true" /><g
       id="g541"
       inkscape:label="HS"
       transform="matrix(0.04382931,0,0,0.04382931,55.278613,41.585344)"
       inkscape:export-filename="hidarishoya.png"
       inkscape:export-xdpi="96"
       inkscape:export-ydpi="96"
       style="display:inline"><g
         inkscape:groupmode="layer"
         id="g531"
         inkscape:label="S"
         transform="translate(100)"><path
           style="fill:#000800;fill-opacity:1"
           d="M 700,787.5 775,1000 H 625 V 787.5 Z"
           id="path525"
           sodipodi:nodetypes="ccccc" /><path
           style="fill:#000800;fill-opacity:1"
           d="M 500,0 H 600 L 900,850 V 999.99997 H 800 L 500,150 Z"
           id="path527"
           sodipodi:nodetypes="ccccccc" /><path
           style="fill:#000800;fill-opacity:1"
           d="m 700,212.5 h 75 V 0 H 625 Z"
           id="path529"
           sodipodi:nodetypes="ccccc" /></g><g
         inkscape:groupmode="layer"
         id="g539"
         inkscape:label="H"><path
           style="fill:#000800;fill-opacity:1"
           d="m 100,0 h 100 l 300,850 v 150 H 400 L 100,150 Z"
           id="path533"
           sodipodi:nodetypes="ccccccc" /><path
           style="fill:#000800;fill-opacity:1"
           d="m 300,0 h 100 l 300,850 v 150 H 600 L 300,150 Z"
           id="path535"
           sodipodi:nodetypes="ccccccc" /><path
           style="fill:#000800;fill-opacity:1"
           d="m 350.913,415 h 38 l 60,170 h -38 z"
           id="path537"
           sodipodi:nodetypes="ccccc" /></g></g><g
       aria-label="hidarishoya"
       id="text3465"
       style="font-size:39.6875px;font-family:'Nova Flat';-inkscape-font-specification:'Nova Flat';display:inline;fill:#000002;stroke-width:0.79375;stroke-dasharray:3.175, 0.79375"
       inkscape:label="hidarishoya"
       transform="matrix(0.64329082,0,0,0.64329082,56.44266,32.348894)"><path
         d="M 107.46354,75.320984 V 46.252991 l 3.68194,-1.74408 h 0.19379 v 9.321137 q 0.85266,-0.600739 1.93787,-0.600739 h 4.45709 q 5.8136,0 5.8136,5.813599 v 14.533996 l -3.68195,1.74408 H 119.6721 V 59.042908 q 0,-2.32544 -1.93787,-2.32544 h -4.45709 q -1.93787,0 -1.93787,2.32544 v 14.533996 l -3.68194,1.74408 z"
         style="font-family:'Nova Square';-inkscape-font-specification:'Nova Square'"
         id="path3517" /><path
         d="m 130.62104,48.946625 q -0.67825,-0.697632 -0.67825,-1.666565 0,-0.988312 0.67825,-1.685944 0.67825,-0.697632 1.64719,-0.697632 0.96893,0 1.64718,0.697632 0.67826,0.697632 0.67826,1.685944 0,0.968933 -0.67826,1.666565 -0.67825,0.697632 -1.64718,0.697632 -0.96894,0 -1.64719,-0.697632 z m -0.29068,26.374359 V 54.198242 l 3.68195,-1.744079 h 0.19378 v 21.122741 l -3.68194,1.74408 z"
         style="font-family:'Nova Square';-inkscape-font-specification:'Nova Square'"
         id="path3519" /><path
         d="m 146.80222,74.545837 q -5.8136,0 -5.8136,-5.813598 v -9.689331 q 0,-5.813599 5.8136,-5.813599 h 4.4571 q 1.31774,0 1.93786,0.600739 v -7.577057 l 3.68195,-1.74408 h 0.19378 v 24.223328 q 0,5.813598 -5.81359,5.813598 z m 0,-3.488159 h 4.4571 q 1.93786,0 1.93786,-2.325439 v -9.689331 q 0,-2.32544 -1.93786,-2.32544 h -4.4571 q -1.93786,0 -1.93786,2.32544 v 9.689331 q 0,2.325439 1.93786,2.325439 z"
         style="font-family:'Nova Square';-inkscape-font-specification:'Nova Square'"
         id="path3521" /><path
         d="m 168.70011,71.057678 h 4.06952 q 1.93787,0 1.93787,-2.325439 v -2.654877 q 0,-2.325439 -1.93787,-2.325439 h -4.06952 q -1.93786,0 -1.93786,2.325439 v 2.654877 q 0,2.325439 1.93786,2.325439 z m 0,3.488159 q -5.8136,0 -5.8136,-5.813598 v -2.654877 q 0,-5.813599 5.8136,-5.813599 h 4.06952 q 1.00769,0 1.93787,0.58136 v -1.802215 q 0,-2.32544 -1.93787,-2.32544 h -6.93756 v -0.193786 l 1.55029,-3.294373 h 5.38727 q 5.8136,0 5.8136,5.813599 v 14.533996 l -3.68195,1.74408 h -0.19378 v -1.356506 q -0.73639,0.581359 -1.93787,0.581359 z"
         style="font-family:'Nova Square';-inkscape-font-specification:'Nova Square'"
         id="path3523" /><path
         d="M 184.39683,75.320984 V 59.042908 q 0,-5.813599 5.8136,-5.813599 h 4.84466 v 0.193787 l -1.55029,3.294372 h -3.29437 q -1.93787,0 -1.93787,2.32544 v 14.533996 l -3.68195,1.74408 z"
         style="font-family:'Nova Square';-inkscape-font-specification:'Nova Square'"
         id="path3525" /><path
         d="m 199.60908,48.946625 q -0.67826,-0.697632 -0.67826,-1.666565 0,-0.988312 0.67826,-1.685944 0.67825,-0.697632 1.64718,-0.697632 0.96894,0 1.64719,0.697632 0.67825,0.697632 0.67825,1.685944 0,0.968933 -0.67825,1.666565 -0.67825,0.697632 -1.64719,0.697632 -0.96893,0 -1.64718,-0.697632 z M 199.3184,75.320984 V 54.198242 l 3.68194,-1.744079 h 0.19379 v 21.122741 l -3.68195,1.74408 z"
         style="font-family:'Nova Square';-inkscape-font-specification:'Nova Square'"
         id="path3527" /><path
         d="m 215.2089,74.545837 q -5.8136,0 -5.8136,-5.813598 v -0.697632 l 3.68195,-1.74408 h 0.19378 v 2.441712 q 0,2.325439 1.93787,2.325439 h 4.45709 q 1.93787,0 1.93787,-2.325439 v -1.530915 q 0,-2.325439 -1.93787,-2.325439 h -3.64319 q -5.81359,0 -5.81359,-5.832977 0,-5.813599 5.81359,-5.813599 h 2.26731 q 5.8136,0 5.8136,4.689636 l -3.68195,1.74408 h -0.19379 v -0.620117 q 0,-2.32544 -1.93786,-2.32544 h -2.26731 q -1.93786,0 -1.93786,2.32544 0,2.344818 1.93786,2.344818 h 3.64319 q 5.8136,0 5.8136,5.813598 v 1.530915 q 0,5.813598 -5.8136,5.813598 z"
         style="font-family:'Nova Square';-inkscape-font-specification:'Nova Square'"
         id="path3529" /><path
         d="M 231.68076,75.320984 V 46.252991 l 3.68195,-1.74408 h 0.19379 v 9.321137 q 0.85266,-0.600739 1.93786,-0.600739 h 4.45709 q 5.8136,0 5.8136,5.813599 v 14.533996 l -3.68194,1.74408 h -0.19379 V 59.042908 q 0,-2.32544 -1.93787,-2.32544 h -4.45709 q -1.93786,0 -1.93786,2.32544 v 14.533996 l -3.68195,1.74408 z"
         style="font-family:'Nova Square';-inkscape-font-specification:'Nova Square'"
         id="path3531" /><path
         d="m 259.39225,71.057678 h 4.45709 q 1.93787,0 1.93787,-2.325439 v -9.689331 q 0,-2.32544 -1.93787,-2.32544 h -4.45709 q -1.93787,0 -1.93787,2.32544 v 9.689331 q 0,2.325439 1.93787,2.325439 z m 0,3.488159 q -5.8136,0 -5.8136,-5.813598 v -9.689331 q 0,-5.813599 5.8136,-5.813599 h 4.45709 q 5.8136,0 5.8136,5.813599 v 9.689331 q 0,5.813598 -5.8136,5.813598 z"
         style="font-family:'Nova Square';-inkscape-font-specification:'Nova Square'"
         id="path3533" /><path
         d="m 281.29014,74.545837 q -5.8136,0 -5.8136,-5.813598 V 54.198242 l 3.68195,-1.744079 h 0.19378 v 16.278076 q 0,2.325439 1.93787,2.325439 h 4.45709 q 1.93787,0 1.93787,-2.325439 V 54.198242 l 3.68194,-1.744079 h 0.19379 V 76.67749 q 0,5.813599 -5.8136,5.813599 h -8.25531 v -0.193787 l 1.55029,-3.294372 h 6.70502 q 1.93787,0 1.93787,-2.32544 v -2.713012 q -0.75577,0.581359 -1.93787,0.581359 z"
         style="font-family:'Nova Square';-inkscape-font-specification:'Nova Square'"
         id="path3535" /><path
         d="m 303.18803,71.057678 h 4.06952 q 1.93786,0 1.93786,-2.325439 v -2.654877 q 0,-2.325439 -1.93786,-2.325439 h -4.06952 q -1.93787,0 -1.93787,2.325439 v 2.654877 q 0,2.325439 1.93787,2.325439 z m 0,3.488159 q -5.8136,0 -5.8136,-5.813598 v -2.654877 q 0,-5.813599 5.8136,-5.813599 h 4.06952 q 1.00769,0 1.93786,0.58136 v -1.802215 q 0,-2.32544 -1.93786,-2.32544 h -6.93757 v -0.193786 l 1.5503,-3.294373 h 5.38727 q 5.81359,0 5.81359,5.813599 v 14.533996 l -3.68194,1.74408 h -0.19379 v -1.356506 q -0.73639,0.581359 -1.93786,0.581359 z"
         style="font-family:'Nova Square';-inkscape-font-specification:'Nova Square'"
         id="path3537" /></g><g
       aria-label="@"
       id="text3594"
       style="font-size:39.6875px;font-family:'Comic Neue';-inkscape-font-specification:'Comic Neue';fill:#000002;stroke-width:0.79375;stroke-dasharray:3.175, 0.79375"
       inkscape:label="@"
       transform="matrix(0.64329082,0,0,0.64329082,56.74246,32.348891)"><path
         d="m 88.172402,77.628754 q -3.849687,0 -7.064375,-1.706563 -3.214687,-1.706562 -5.119687,-4.841875 -1.905,-3.135312 -1.905,-7.223125 0,-4.087812 1.865312,-7.381875 1.865313,-3.33375 5.159375,-5.199062 3.294063,-1.905 7.381875,-1.905 3.65125,0 6.6675,1.74625 3.055938,1.706562 4.802188,4.722812 1.74625,3.01625 1.74625,6.6675 0,3.571875 -1.74625,5.635625 -1.74625,2.024063 -4.683125,2.024063 -1.508125,0 -3.095625,-0.79375 -1.547813,-0.79375 -2.2225,-2.420938 -2.103438,2.69875 -4.564063,2.69875 -2.143125,0 -3.413125,-1.389062 -1.27,-1.42875 -1.27,-3.81 0,-1.984375 0.873125,-3.730625 0.912813,-1.74625 2.460625,-2.817813 1.5875,-1.071562 3.452813,-1.071562 1.865312,0 3.690937,1.11125 0.912813,0.595312 0.912813,1.230312 0,0.515938 -0.357188,0.873125 -0.357187,0.3175 -0.873125,0.3175 -0.357187,0 -0.873125,-0.357187 -1.389062,-0.79375 -2.460625,-0.79375 -1.230312,0 -2.262187,0.754062 -0.992188,0.714375 -1.5875,1.944688 -0.555625,1.190625 -0.555625,2.54 0,1.349375 0.595312,2.103437 0.595313,0.714375 1.627188,0.714375 1.389062,0 2.659062,-1.666875 1.27,-1.706562 1.825625,-3.175 0.357188,-0.79375 1.150938,-0.79375 0.47625,0 0.833437,0.357188 0.357188,0.3175 0.357188,0.833437 0,0.277813 -0.15875,0.833438 -0.15875,0.555625 -0.15875,1.190625 0,1.349375 1.031875,2.182812 1.031875,0.79375 2.460625,0.79375 1.74625,0 2.817812,-1.309687 1.11125,-1.349375 1.11125,-4.008438 0,-2.738437 -1.27,-5.199062 -1.230312,-2.460625 -3.690937,-3.96875 -2.460625,-1.547813 -5.834063,-1.547813 -3.095625,0 -5.834062,1.42875 -2.738438,1.389063 -4.445,4.1275 -1.706563,2.69875 -1.706563,6.50875 0,3.690938 1.74625,6.310313 1.785938,2.579687 4.484688,3.849687 2.738437,1.309688 5.516562,1.309688 3.611563,0 6.865938,-2.103438 0.555625,-0.396875 0.912812,-0.396875 0.515938,0 0.833438,0.357188 0.357187,0.357187 0.357187,0.833437 0,0.3175 -0.198437,0.595313 -0.15875,0.277812 -0.595313,0.595312 -1.349375,0.992188 -3.4925,1.706563 -2.103437,0.714375 -4.7625,0.714375 z"
         id="path4588" /></g></g></svg>
