<?xml version="1.0" encoding="UTF-8" standalone="no"?>
<!-- Created with Inkscape (http://www.inkscape.org/) -->

<svg
   width="1920"
   height="1080"
   viewBox="0 0 507.99999 285.75"
   version="1.1"
   id="svg5"
   inkscape:version="1.2.2 (b0a8486541, 2022-12-01)"
   sodipodi:docname="brb.svg"
   xml:space="preserve"
   inkscape:export-filename="output/offline.png"
   inkscape:export-xdpi="96"
   inkscape:export-ydpi="96"
   xmlns:inkscape="http://www.inkscape.org/namespaces/inkscape"
   xmlns:sodipodi="http://sodipodi.sourceforge.net/DTD/sodipodi-0.dtd"
   xmlns="http://www.w3.org/2000/svg"
   xmlns:svg="http://www.w3.org/2000/svg"
   xmlns:rdf="http://www.w3.org/1999/02/22-rdf-syntax-ns#"
   xmlns:cc="http://creativecommons.org/ns#"
   xmlns:dc="http://purl.org/dc/elements/1.1/"><title
     id="title1616">Hidari Shoya Stream Screen</title><sodipodi:namedview
     id="namedview7"
     pagecolor="#505050"
     bordercolor="#eeeeee"
     borderopacity="1"
     inkscape:showpageshadow="0"
     inkscape:pageopacity="0"
     inkscape:pagecheckerboard="true"
     inkscape:deskcolor="#505050"
     inkscape:document-units="px"
     showgrid="false"
     inkscape:zoom="0.1767767"
     inkscape:cx="390.32294"
     inkscape:cy="749.53319"
     inkscape:window-width="1366"
     inkscape:window-height="714"
     inkscape:window-x="0"
     inkscape:window-y="0"
     inkscape:window-maximized="1"
     inkscape:current-layer="layer1"
     borderlayer="true" /><defs
     id="defs2"><rect
       x="570.17016"
       y="226.22029"
       width="714.59668"
       height="726.20619"
       id="rect260" /></defs><g
     inkscape:label="Layer 1"
     inkscape:groupmode="layer"
     id="layer1"><rect
       style="fill:#7e0000;fill-opacity:1;stroke-width:0.478395;stroke-linejoin:round"
       id="rect340"
       width="508"
       height="285.75"
       x="0"
       y="0"
       inkscape:label="bg" /><path
       style="fill:#000301;fill-opacity:1;stroke-width:2.64583;stroke-linejoin:round"
       d="M 156.79952,30.24135 112.86377,17.949961 84.151507,36.462825 48.895506,39.024649 29.733306,67.517042 56.415753,61.39868 77.417857,73.495528 90.155047,192.85346 74.132897,222.63726 130.71747,268.78528 0,285.75 221.26351,370.63455 508,285.75 299.30091,269.19299 l 16.29654,-24.08028 92.34615,-38.77445 43.55734,-50.03042 -100.74668,33.96931 4.43496,-55.27442 -158.08851,38.79635 -28.98031,-35.00007 z"
       id="path8124"
       sodipodi:nodetypes="cccccccccccccccccccccc"
       inkscape:label="crow" /><circle
       style="fill:#fefffd;fill-opacity:1;stroke-width:0.699098;stroke-linejoin:round"
       id="path6826"
       cx="129.78131"
       cy="50.747803"
       r="14.418218"
       inkscape:label="eye out" /><circle
       style="display:inline;fill:#000301;fill-opacity:1;stroke-width:0.476718;stroke-linejoin:round"
       id="path6824"
       cx="129.93846"
       cy="50.007751"
       r="5.7672868"
       inkscape:label="eye in" /><g
       id="g6682"
       inkscape:label="HS"
       transform="matrix(0.02645833,0,0,0.02645833,447.9341,239.9949)"
       inkscape:export-filename="hidarishoya.png"
       inkscape:export-xdpi="96"
       inkscape:export-ydpi="96"
       style="display:inline;fill:#fffffd;fill-opacity:1"><g
         inkscape:groupmode="layer"
         id="g6672"
         inkscape:label="S"
         transform="translate(100)"
         style="fill:#fffffd;fill-opacity:1"><path
           style="fill:#fffffd;fill-opacity:1"
           d="M 700,787.5 775,1000 H 625 V 787.5 Z"
           id="path6666"
           sodipodi:nodetypes="ccccc" /><path
           style="fill:#fffffd;fill-opacity:1"
           d="M 500,0 H 600 L 900,850 V 999.99997 H 800 L 500,150 Z"
           id="path6668"
           sodipodi:nodetypes="ccccccc" /><path
           style="fill:#fffffd;fill-opacity:1"
           d="m 700,212.5 h 75 V 0 H 625 Z"
           id="path6670"
           sodipodi:nodetypes="ccccc" /></g><g
         inkscape:groupmode="layer"
         id="g6680"
         inkscape:label="H"
         style="fill:#fffffd;fill-opacity:1"><path
           style="fill:#fffffd;fill-opacity:1"
           d="m 100,0 h 100 l 300,850 v 150 H 400 L 100,150 Z"
           id="path6674"
           sodipodi:nodetypes="ccccccc" /><path
           style="fill:#fffffd;fill-opacity:1"
           d="m 300,0 h 100 l 300,850 v 150 H 600 L 300,150 Z"
           id="path6676"
           sodipodi:nodetypes="ccccccc" /><path
           style="fill:#fffffd;fill-opacity:1"
           d="m 350.913,415 h 38 l 60,170 h -38 z"
           id="path6678"
           sodipodi:nodetypes="ccccc" /></g></g><g
       id="g6301"
       transform="matrix(0.26458333,0,0,0.26458333,-44.734169,-139.02686)"
       style="display:none"><g
         inkscape:label="Layer 1"
         id="layer1-3"><path
           style="display:none;fill:none;stroke:#000002;stroke-width:4.51024;stroke-dasharray:none;stroke-opacity:1"
           d="M 474.20118,899.04695 102.04383,100.95306"
           id="path233"
           sodipodi:nodetypes="cc" /><path
           style="display:none;fill:none;stroke:#000002;stroke-width:4.51024;stroke-dasharray:none;stroke-opacity:1"
           d="M 624.20118,899.04695 252.04383,100.95306"
           id="path3320"
           sodipodi:nodetypes="cc" /><path
           style="display:none;fill:none;stroke:#000002;stroke-width:4.51024;stroke-dasharray:none;stroke-opacity:1"
           d="M 549.20118,899.04695 177.04383,100.95306"
           id="path3322"
           sodipodi:nodetypes="cc" /><rect
           style="display:none;fill:#000000;fill-opacity:1;stroke:none;stroke-width:1.92186;stroke-dasharray:none;stroke-opacity:1"
           id="rect3454"
           width="569.48157"
           height="800"
           x="-601.508"
           y="8.725811" /><path
           style="display:none;fill:none;fill-opacity:1;stroke:#000002;stroke-width:1.05538;stroke-dasharray:none;stroke-opacity:1"
           d="M 100.37313,178.56286 249.62686,29.309134"
           id="path4910"
           sodipodi:nodetypes="cc" /><path
           id="rect5020"
           style="display:none;fill:none;stroke:#000002;stroke-width:1.2038"
           d="M 100.85122,171.42135 241.42136,30.851215 381.9915,171.42135 241.42136,311.99149 Z" /></g><g
         id="layer2"
         inkscape:label="Ref1"
         style="display:none"><path
           style="fill:#ff0000;fill-opacity:1;stroke:none;stroke-width:1;stroke-dasharray:none;stroke-opacity:1"
           d="M 623.047,900 250,100 h 373.047 z"
           id="path16362"
           sodipodi:nodetypes="cccc"
           inkscape:label="rr" /><path
           style="display:inline;fill:#ffff00;fill-opacity:1;stroke:none;stroke-width:1;stroke-dasharray:none;stroke-opacity:1"
           d="m 623.047,900 h -100 l 100,-100 z"
           id="path16364"
           sodipodi:nodetypes="cccc"
           inkscape:label="yr" /><path
           style="fill:#ff0000;fill-opacity:1;stroke:none;stroke-width:1;stroke-dasharray:none;stroke-opacity:1"
           d="M 100,100 473.047,900 H 100 Z"
           id="path5079"
           sodipodi:nodetypes="cccc"
           inkscape:label="rl" /><path
           style="fill:#ffff00;fill-opacity:1;stroke:none;stroke-width:1;stroke-dasharray:none;stroke-opacity:1"
           d="M 100,100 H 200 L 100,200 Z"
           id="path5023"
           sodipodi:nodetypes="cccc"
           inkscape:label="yl" /></g><path
         id="path16455"
         style="display:none;fill:#ff0000;fill-opacity:1;stroke:none;stroke-width:1;stroke-dasharray:none;stroke-opacity:1"
         inkscape:label="rr"
         d="M 100,100 V 200 300 H -26.953125 V 900 L 100,773.04688 V 900 H 473.04688 L 314.03906,559.00781 382.23828,490.80859 573.04688,900 V 300 100 H 200 l 93.26172,200 h -100 L 131.80078,168.19922 200,100 Z"
         sodipodi:nodetypes="ccccccccccccccccccc" /><g
         id="layer3"
         inkscape:label="reference-1"
         style="display:none"
         transform="translate(-652.40327,401.48671)"><path
           id="path16406"
           style="fill:#ff0000;fill-opacity:1;stroke:none;stroke-width:1;stroke-dasharray:none;stroke-opacity:1"
           inkscape:label="reference-right"
           d="M 250,100 591.24609,831.80078 523.04688,900 h 100 V 800 100 Z"
           sodipodi:nodetypes="ccccccc" /><path
           id="path16399"
           style="fill:#ff0000;fill-opacity:1;stroke:none;stroke-width:1;stroke-dasharray:none;stroke-opacity:1"
           inkscape:label="reference-left"
           d="M 100,100 V 200 900 H 473.04688 L 131.80078,168.19922 200,100 Z"
           sodipodi:nodetypes="ccccccc" /><path
           style="fill:#ff00ff;fill-opacity:1;stroke:none;stroke-width:1;stroke-dasharray:none;stroke-opacity:1"
           d="m -347.59673,-2133.4867 v 1731.99999 h 1000 z"
           id="path17385"
           sodipodi:nodetypes="cccc" /><path
           style="display:inline;fill:#0300ff;fill-opacity:1;stroke:none;stroke-width:5;stroke-dasharray:none;stroke-opacity:1"
           d="M 1752.4033,-401.48671 V -1401.4867 L 752.40327,-401.48671 Z"
           id="path17335"
           sodipodi:nodetypes="cccc" /><path
           style="display:inline;fill:#0300ff;fill-opacity:1;stroke:none;stroke-width:5;stroke-dasharray:none;stroke-opacity:1"
           d="M -347.59673,-2401.4867 H 652.4032 l -999.99993,1000 z"
           id="path18979"
           sodipodi:nodetypes="cccc" /><path
           style="fill:#ff00ff;fill-opacity:1;stroke:none;stroke-width:1;stroke-dasharray:none;stroke-opacity:1"
           d="M 918.4033,-409.48677 V -2141.4867 H -81.59673 Z"
           id="path18981"
           sodipodi:nodetypes="cccc" /></g><path
         style="display:none;fill:#000000;fill-opacity:1;stroke:none;stroke-width:1;stroke-dasharray:none;stroke-opacity:1"
         d="M 357.38679,900 16.140688,168.19922 84.33991,100 136.38374,100.95306 475.586,831.80078 407.38679,900 Z"
         id="path3456"
         sodipodi:nodetypes="ccccccc"
         inkscape:label="1"
         inkscape:export-filename="hidarishoya.png.png"
         inkscape:export-xdpi="96"
         inkscape:export-ydpi="96" /><path
         style="display:none;fill:#030000;fill-opacity:1;stroke:none;stroke-width:1;stroke-dasharray:none;stroke-opacity:1"
         d="m -584.74176,204.74974 -68.19922,68.19922 61.46094,131.80078 h 100 z"
         id="path16494"
         sodipodi:nodetypes="ccccc"
         inkscape:label="1s" /><path
         id="rect16686"
         style="display:none;fill:#030000;stroke-width:0.426771"
         d="m 314.95319,449.60865 46.63281,100 h 60 l -46.63086,-100 z"
         inkscape:label="2h"
         sodipodi:nodetypes="ccccc" /><path
         style="display:none;fill:#000000;fill-opacity:1;stroke:none;stroke-width:1;stroke-dasharray:none;stroke-opacity:1"
         d="m -751.27479,1854.2582 -341.24611,-731.8008 68.1992,-68.1992 52.04386,0.953 339.20226,730.8478 -68.19921,68.1992 z"
         id="path16755"
         sodipodi:nodetypes="ccccccc"
         inkscape:label="1" /><g
         id="layer4"
         inkscape:label="design"
         style="display:none" /><path
         style="display:none;fill:#000000;fill-opacity:1;stroke:none;stroke-width:1;stroke-dasharray:none;stroke-opacity:1"
         d="M 601.58574,900 260.33963,168.1992 328.53883,100 380.58269,100.953 719.78495,831.8008 651.58574,900 Z"
         id="path16791"
         sodipodi:nodetypes="ccccccc"
         inkscape:label="1" /><path
         style="display:none;fill:#000000;fill-opacity:1;stroke:none;stroke-width:1;stroke-dasharray:none;stroke-opacity:1"
         d="M 941.24611,900 600,168.1992 668.1992,100 720.24306,100.953 1059.4453,831.8008 991.24611,900 Z"
         id="path16793"
         sodipodi:nodetypes="ccccccc"
         inkscape:label="1" /><path
         style="display:none;fill:#030000;fill-opacity:1;stroke:none;stroke-width:1;stroke-dasharray:none;stroke-opacity:1"
         d="M 843.50478,300.95298 911.704,232.75378 850.24306,100.953 h -100 z"
         id="path16795"
         sodipodi:nodetypes="ccccc"
         inkscape:label="1s" /><path
         style="display:none;fill:#030000;fill-opacity:1;stroke:none;stroke-width:1;stroke-dasharray:none;stroke-opacity:1"
         d="M 817.98428,700 749.78506,768.19922 811.246,900 h 100 z"
         id="path16797"
         sodipodi:nodetypes="ccccc"
         inkscape:label="1s" /><g
         id="layer5"
         inkscape:label="g"
         style="display:none"><path
           id="rect16801"
           style="fill:#030000;stroke-width:0.448579"
           d="m 720.24306,-22.934495 h 30 V 100.953 h -30 z"
           sodipodi:nodetypes="ccccc"
           inkscape:label="g1" /><path
           id="path16856"
           style="fill:#030000;stroke-width:0.460344"
           d="m 911.246,900 h 30 l 1.1e-4,150.1155 H 911.246 Z"
           sodipodi:nodetypes="ccccc"
           inkscape:label="g2" /><path
           id="path16858"
           style="fill:#030000;stroke-width:0.650774"
           d="m 719.78495,600 h 30 l 1.1e-4,300 h -30.00011 z"
           sodipodi:nodetypes="ccccc"
           inkscape:label="g3" /><path
           id="path16964"
           style="fill:#030000;stroke-width:1.40302"
           d="m 421.586,47.63913 h 30 l -2.6e-4,1087.01957 H 421.586 Z"
           sodipodi:nodetypes="ccccc"
           inkscape:label="g4" /><path
           id="path16968"
           style="display:inline;fill:#030000;stroke-width:1.45517"
           d="m 451.586,900.78919 h 150 l -10e-4,233.86951 H 451.5863 Z"
           sodipodi:nodetypes="ccccc"
           inkscape:label="g5" /></g><g
         id="layer6"
         inkscape:label="space"
         style="display:none"><path
           style="fill:#0300ff;fill-opacity:1;stroke:none;stroke-width:1;stroke-dasharray:none;stroke-opacity:1"
           d="M 1.9488268,143.06211 H 31.845308 L 404.89219,943.06209 H 374.9957 Z"
           id="path17111"
           sodipodi:nodetypes="ccccc"
           inkscape:label="space-guide" /><path
           id="rect17166"
           style="fill:#0300ff"
           d="M 1.9488268,143.06211 H 31.845308 V -0.93789306 H 1.9488268 Z"
           sodipodi:nodetypes="ccccc" /><path
           id="path17183"
           style="fill:#0300ff"
           d="m 374.99571,1087.0621 h 29.89648 V 943.06209 h -29.89648 z"
           sodipodi:nodetypes="ccccc" /></g><path
         id="rect493"
         style="display:none;fill:#ffffff;fill-opacity:1"
         d="M 1000,0 V 1000 H 0 V 0 Z"
         inkscape:label="bg"
         sodipodi:nodetypes="ccccc" /><g
         id="layer7"
         inkscape:label="angle"
         style="display:inline"><path
           style="display:none;fill:#ff00ff"
           d="M 0,200 100,0 H 0 Z"
           id="path390"
           sodipodi:nodetypes="cccc"
           inkscape:label="angle-top" /><path
           style="display:none;fill:#ff00ff"
           d="M 400,1000 500,800 v 200 z"
           id="path1109"
           sodipodi:nodetypes="cccc"
           inkscape:label="angle-bottom" /></g><g
         id="g3641"
         inkscape:label="HS-profile-dark"
         transform="matrix(0.75,0,0,0.75,87.5,125)"
         inkscape:export-filename="hidarishoya.png"
         inkscape:export-xdpi="96"
         inkscape:export-ydpi="96"
         style="display:none"><g
           inkscape:groupmode="layer"
           id="g3631"
           inkscape:label="S"
           transform="translate(100)"><path
             style="fill:#000800;fill-opacity:1"
             d="M 700,787.5 775,1000 H 625 V 787.5 Z"
             id="path3625"
             sodipodi:nodetypes="ccccc" /><path
             style="fill:#000800;fill-opacity:1"
             d="M 500,0 H 600 L 900,850 V 999.99997 H 800 L 500,150 Z"
             id="path3627"
             sodipodi:nodetypes="ccccccc" /><path
             style="fill:#000800;fill-opacity:1"
             d="m 700,212.5 h 75 V 0 H 625 Z"
             id="path3629"
             sodipodi:nodetypes="ccccc" /></g><g
           inkscape:groupmode="layer"
           id="g3639"
           inkscape:label="H"><path
             style="fill:#000800;fill-opacity:1"
             d="m 100,0 h 100 l 300,850 v 150 H 400 L 100,150 Z"
             id="path3633"
             sodipodi:nodetypes="ccccccc" /><path
             style="fill:#000800;fill-opacity:1"
             d="m 300,0 h 100 l 300,850 v 150 H 600 L 300,150 Z"
             id="path3635"
             sodipodi:nodetypes="ccccccc" /><path
             style="fill:#000800;fill-opacity:1"
             d="m 350.913,415 h 38 l 60,170 h -38 z"
             id="path3637"
             sodipodi:nodetypes="ccccc" /></g></g><g
         id="g541"
         inkscape:label="HS"
         transform="translate(-50)"
         inkscape:export-filename="hidarishoya.png"
         inkscape:export-xdpi="96"
         inkscape:export-ydpi="96"
         style="display:none"><g
           inkscape:groupmode="layer"
           id="g531"
           inkscape:label="S"
           transform="translate(100)"><path
             style="fill:#000800;fill-opacity:1"
             d="M 700,787.5 775,1000 H 625 V 787.5 Z"
             id="path525"
             sodipodi:nodetypes="ccccc" /><path
             style="fill:#000800;fill-opacity:1"
             d="M 500,0 H 600 L 900,850 V 999.99997 H 800 L 500,150 Z"
             id="path527"
             sodipodi:nodetypes="ccccccc" /><path
             style="fill:#000800;fill-opacity:1"
             d="m 700,212.5 h 75 V 0 H 625 Z"
             id="path529"
             sodipodi:nodetypes="ccccc" /></g><g
           inkscape:groupmode="layer"
           id="g539"
           inkscape:label="H"><path
             style="fill:#000800;fill-opacity:1"
             d="m 100,0 h 100 l 300,850 v 150 H 400 L 100,150 Z"
             id="path533"
             sodipodi:nodetypes="ccccccc" /><path
             style="fill:#000800;fill-opacity:1"
             d="m 300,0 h 100 l 300,850 v 150 H 600 L 300,150 Z"
             id="path535"
             sodipodi:nodetypes="ccccccc" /><path
             style="fill:#000800;fill-opacity:1"
             d="m 350.913,415 h 38 l 60,170 h -38 z"
             id="path537"
             sodipodi:nodetypes="ccccc" /></g></g></g><g
       aria-label="@hidarishoya"
       id="text718"
       style="font-size:10.5833px;font-family:Roboto;-inkscape-font-specification:Roboto;text-align:end;text-anchor:end;fill:#fffffe;stroke-width:2.64583;stroke-linejoin:round"
       inkscape:label="@hidarishoya@VampiroOne"><path
         d="m 433.70483,274.30601 q -2.64583,2.13782 -5.43982,2.13782 -0.91016,0 -1.66158,-0.29633 -0.75141,-0.29633 -1.29116,-0.80433 -0.52917,-0.508 -0.8255,-1.19591 -0.29633,-0.68792 -0.29633,-1.53458 0,-0.84667 0.23283,-1.64041 0.24342,-0.80433 0.66675,-1.47108 0.42333,-0.67733 0.99483,-1.21708 0.5715,-0.53975 1.23825,-0.91016 1.40758,-0.77259 2.89982,-0.77259 0.85725,0 1.5875,0.30692 0.74083,0.30692 1.28057,0.84666 0.53975,0.53975 0.85725,1.28058 0.58208,1.38642 0.0741,3.06916 -1.16417,0.74083 -2.99508,1.48166 -0.49741,0.1905 -0.84666,0.30692 l -0.6985,-0.78317 q -0.73025,0.52917 -1.651,0.81492 l -1.12182,-1.03717 q 0,-1.53457 0.86783,-2.64582 0.93133,-1.22766 2.50824,-1.36525 l 0.59266,0.91017 q 0.0847,-0.11642 0.46567,-0.58208 l 0.88899,0.70908 q -0.57149,0.74083 -1.19591,1.88382 -0.1905,0.34925 -0.32808,0.66675 0.65616,-0.15875 1.38641,-0.42333 0.74083,-0.27517 0.91017,-0.37042 0.1905,-0.57149 0.1905,-1.18532 0,-0.61384 -0.23284,-1.10067 -0.22225,-0.48683 -0.61383,-0.83608 -0.8255,-0.77258 -1.97908,-0.77258 -0.82549,0 -1.66157,0.35983 -0.83608,0.34925 -1.50283,0.98425 -0.66675,0.62441 -1.09008,1.49224 -0.41275,0.85725 -0.41275,1.87325 0,1.22766 0.77258,2.00024 0.79375,0.79375 2.05316,0.79375 1.25941,0 2.41299,-0.47625 1.16417,-0.46566 2.41299,-1.39699 z m -5.66207,-1.68275 q 1.38641,-0.381 1.82033,-1.57691 0.13758,-0.39158 0.22225,-0.889 -0.99483,0.20109 -1.53458,0.889 -0.48683,0.64558 -0.508,1.57691 z"
         style="-inkscape-font-specification:'Vampiro One'"
         id="path1398" /><path
         d="m 437.69474,270.3161 q 0.98424,-0.75141 2.26482,-1.42874 l 1.28058,1.00541 q -0.34925,1.50283 -1.22766,2.70933 1.05833,-0.35984 2.40241,-1.04775 l 0.22225,1.06891 q -0.43392,0.28575 -1.32292,0.73025 -1.52399,0.75141 -2.10607,0.94191 l -1.31233,-0.93133 q 0.635,-0.76199 1.05833,-1.50283 0.43391,-0.75141 0.56091,-1.31232 -1.38641,0.68791 -1.83091,0.97366 -0.43391,0.28575 -0.78316,0.52916 -0.51858,1.28058 -0.79375,2.24366 l -1.25941,-0.81491 q 0.34925,-1.19591 1.53458,-3.57716 1.07949,-2.18016 1.93674,-3.45015 l 1.0795,0.81491 q -0.889,1.43933 -1.70391,3.04799 z"
         style="-inkscape-font-specification:'Vampiro One'"
         id="path1400" /><path
         d="m 444.93371,268.01953 q -0.24342,-0.254 -0.24342,-0.61383 0,-0.35984 0.24342,-0.60325 0.254,-0.254 0.61383,-0.254 0.35983,0 0.60325,0.254 0.254,0.24341 0.254,0.60325 0,0.35983 -0.254,0.61383 -0.24342,0.24341 -0.60325,0.24341 -0.35983,0 -0.61383,-0.24341 z m -1.59808,4.65665 q 1.0795,-0.32808 2.59291,-1.12183 l 0.22225,1.06891 q -1.02658,0.66675 -2.47649,1.30175 -0.48683,0.21166 -0.9525,0.37041 l -1.21708,-1.12183 q 0.51858,-1.41816 1.86266,-3.53482 0.40217,-0.635 0.78317,-1.11125 l 1.04774,0.77259 q -0.77258,1.05833 -1.50283,2.55057 -0.21166,0.4445 -0.35983,0.8255 z"
         style="-inkscape-font-specification:'Vampiro One'"
         id="path1402" /><path
         d="m 448.75429,273.34293 q -0.83608,0.65616 -1.92616,0.95249 l -1.31233,-1.21708 q 0,-0.83608 0.254,-1.64041 0.254,-0.80433 0.75141,-1.44991 0.49742,-0.64558 1.22766,-1.06891 0.74084,-0.43392 1.70392,-0.51858 l 0.58208,0.88899 q 0.82549,-1.59808 1.73566,-2.83632 l 1.02658,0.889 q -1.04775,1.33349 -2.16958,3.78882 -0.33866,0.74083 -0.60325,1.44991 1.13242,-0.33867 2.37066,-1.02658 l 0.23284,1.06891 q -0.71967,0.53975 -2.32833,1.32291 -0.45508,0.21167 -0.73025,0.30692 z m -1.75683,-0.5715 q 1.13241,-0.30692 2.06374,-1.50283 0.27517,-0.60325 0.41275,-1.50283 -1.09008,0.10583 -1.78858,0.96308 -0.68791,0.84667 -0.68791,2.04258 z"
         style="-inkscape-font-specification:'Vampiro One'"
         id="path1404" /><path
         d="m 455.22068,273.34293 q -0.83608,0.65616 -1.92616,0.95249 l -1.31233,-1.21708 q 0,-0.83608 0.254,-1.64041 0.254,-0.80433 0.75142,-1.44991 0.49741,-0.64558 1.22766,-1.06891 0.74083,-0.43392 1.70391,-0.51858 l 0.6985,1.06891 q 0.127,-0.20108 0.53975,-0.6985 l 1.03716,0.889 q -1.04775,1.36524 -1.73566,2.92099 l -0.0317,0.0212 q 0.61383,-0.15875 1.43933,-0.53975 0.8255,-0.39159 1.04775,-0.508 l 0.23283,1.06891 q -0.62442,0.45508 -2.07433,1.17475 -0.5715,0.28575 -1.03716,0.45508 z m -1.75682,-0.5715 q 1.13241,-0.30692 2.06374,-1.50283 0.27517,-0.60325 0.41275,-1.50283 -1.09008,0.10583 -1.78858,0.96308 -0.68791,0.84667 -0.68791,2.04258 z"
         style="-inkscape-font-specification:'Vampiro One'"
         id="path1406" /><path
         d="m 459.2635,269.26836 q 0.508,-0.68792 1.26999,-1.42875 l 0.98425,0.762 q -0.11642,0.48683 -0.20108,0.70908 1.36524,-0.14817 1.96849,-0.29633 0.60325,-0.14817 1.04775,-0.26459 l 0.29633,1.25942 q -0.43391,0.127 -0.91016,0.22225 -0.73025,1.15358 -1.21708,2.44474 1.75683,-0.60325 2.59291,-1.12183 l 0.23283,1.06891 q -0.97366,0.635 -2.55058,1.30175 -0.50799,0.21166 -0.97366,0.37041 l -1.12183,-1.12183 q 0.68791,-1.57691 1.47108,-2.7199 -0.74083,0.0635 -1.31233,0.0847 -0.16933,0.3175 -0.91016,1.5875 l -0.78317,0.49741 -1.00541,-0.59266 q 0.87841,-0.9525 1.18533,-1.3335 0.30691,-0.381 0.52916,-0.65616 -0.30691,-0.33867 -0.59266,-0.77258 z"
         style="-inkscape-font-specification:'Vampiro One'"
         id="path1408" /><path
         d="m 467.61372,268.01953 q -0.24342,-0.254 -0.24342,-0.61383 0,-0.35984 0.24342,-0.60325 0.254,-0.254 0.61383,-0.254 0.35983,0 0.60325,0.254 0.25399,0.24341 0.25399,0.60325 0,0.35983 -0.25399,0.61383 -0.24342,0.24341 -0.60325,0.24341 -0.35983,0 -0.61383,-0.24341 z m -1.59808,4.65665 q 1.07949,-0.32808 2.59291,-1.12183 l 0.22225,1.06891 q -1.02658,0.66675 -2.4765,1.30175 -0.48683,0.21166 -0.95249,0.37041 l -1.21708,-1.12183 q 0.51858,-1.41816 1.86266,-3.53482 0.40216,-0.635 0.78316,-1.11125 l 1.04775,0.77259 q -0.77258,1.05833 -1.50283,2.55057 -0.21167,0.4445 -0.35983,0.8255 z"
         style="-inkscape-font-specification:'Vampiro One'"
         id="path1410" /><path
         d="m 469.98438,274.38009 q -0.76199,-0.508 -1.33349,-0.96308 -0.51858,-0.45508 -1.13242,-1.09008 l 1.09008,-0.77258 q 0.74084,0.77258 1.09008,1.03716 0.34925,0.254 0.62442,0.43392 0.29633,-0.0317 0.96308,-0.20109 l -1.75683,-1.66157 q -0.24341,-0.254 -0.381,-0.45509 0.40217,-0.71966 1.38642,-1.49224 0.92074,-0.71967 1.75682,-0.96308 l 1.69333,1.36524 q -0.17992,0.71967 -0.84666,1.905 l -1.13242,-0.84667 q 0.22225,-0.32808 0.39159,-0.70908 0.16933,-0.381 0.20108,-0.50799 -0.59267,0.22224 -1.21708,0.80433 -0.22225,0.21166 -0.40217,0.43391 0.20109,0.30692 0.61384,0.64558 0.69849,0.60325 1.17474,1.03717 1.17475,-0.40217 1.98966,-0.8255 l 0.22225,1.06891 q -0.84666,0.60325 -2.38124,1.12183 -1.41816,0.47625 -2.61408,0.635 z"
         style="-inkscape-font-specification:'Vampiro One'"
         id="path1412" /><path
         d="m 476.69419,270.3161 q 0.98425,-0.75141 2.26483,-1.42874 l 1.28058,1.00541 q -0.34925,1.50283 -1.22767,2.70933 1.05833,-0.35984 2.40241,-1.04775 l 0.22225,1.06891 q -0.43391,0.28575 -1.32291,0.73025 -1.524,0.75141 -2.10608,0.94191 l -1.31233,-0.93133 q 0.635,-0.76199 1.05833,-1.50283 0.43392,-0.75141 0.56092,-1.31232 -1.38641,0.68791 -1.83091,0.97366 -0.43392,0.28575 -0.78317,0.52916 -0.51858,1.28058 -0.79374,2.24366 l -1.25942,-0.81491 q 0.34925,-1.19591 1.53458,-3.57716 1.0795,-2.18016 1.93674,-3.45015 l 1.0795,0.81491 q -0.889,1.43933 -1.70391,3.04799 z"
         style="-inkscape-font-specification:'Vampiro One'"
         id="path1414" /><path
         d="m 485.18199,272.81376 q -1.01599,1.17475 -2.67757,1.48166 l -1.50283,-1.25941 q 0,-1.016 0.40216,-2.01083 0.508,-1.24883 1.67217,-2.02141 0.80433,-0.53974 1.74624,-0.66674 l 1.68274,1.43932 q -0.17991,1.143 -0.61383,1.98966 0.762,-0.0423 1.72508,-0.21166 l 0.23283,1.06891 q -1.37583,0.5715 -2.15899,0.77258 z m -2.76224,0.0423 q 1.2065,-0.27516 2.01083,-1.49224 0.33866,-0.51858 0.48683,-0.99483 0.14817,-0.47625 0.15875,-0.762 -0.85725,0.11642 -1.62983,0.91017 -0.96308,0.98424 -1.02658,2.3389 z"
         style="-inkscape-font-specification:'Vampiro One'"
         id="path1416" /><path
         d="m 491.62723,272.45393 q 1.71449,-0.49742 2.40241,-0.89958 l 0.23283,1.06891 q -0.84666,0.635 -1.89441,1.15358 -0.37042,0.1905 -0.64558,0.28575 l -0.51858,-0.5715 q -0.29634,1.34408 -0.6985,2.14841 -0.381,0.74083 -1.0795,1.48166 -1.16416,-0.0317 -2.55057,-0.37041 -0.43392,-0.10583 -0.79375,-0.23283 l -0.0635,-1.74625 q 0.70908,-0.62441 1.57691,-1.05833 l -0.61383,-0.4445 q 0.0953,-1.39699 1.44991,-3.59832 0.42333,-0.68791 0.93133,-1.37583 l 1.10067,0.83608 q -1.85208,2.60349 -2.00025,3.83116 0.56092,-0.0847 0.89958,-0.26459 0.67733,-0.35983 1.0795,-1.04774 0.91016,-1.82033 1.62983,-2.83633 l 1.12183,0.87842 q -1.03717,1.58749 -1.56633,2.76224 z m -4.54024,3.09032 q 0.97367,0.22225 1.60866,0.24342 0.68792,-0.58208 1.0795,-1.83091 -1.72508,0.6985 -2.68816,1.58749 z"
         style="-inkscape-font-specification:'Vampiro One'"
         id="path1418" /><path
         d="m 496.85539,273.34293 q -0.83609,0.65616 -1.92617,0.95249 l -1.31232,-1.21708 q 0,-0.83608 0.25399,-1.64041 0.254,-0.80433 0.75142,-1.44991 0.49741,-0.64558 1.22766,-1.06891 0.74083,-0.43392 1.70391,-0.51858 l 0.6985,1.06891 q 0.127,-0.20108 0.53975,-0.6985 l 1.03716,0.889 q -1.04774,1.36524 -1.73566,2.92099 l -0.0318,0.0212 q 0.61383,-0.15875 1.43933,-0.53975 0.8255,-0.39159 1.04775,-0.508 l 0.23283,1.06891 q -0.62442,0.45508 -2.07433,1.17475 -0.5715,0.28575 -1.03716,0.45508 z m -1.75683,-0.5715 q 1.13241,-0.30692 2.06374,-1.50283 0.27517,-0.60325 0.41275,-1.50283 -1.09008,0.10583 -1.78858,0.96308 -0.68791,0.84667 -0.68791,2.04258 z"
         style="-inkscape-font-specification:'Vampiro One'"
         id="path1420" /></g><g
       aria-label="Nok start doh ni"
       transform="rotate(-15)"
       id="text1562"
       style="font-size:39.6875px;font-family:'Vampiro One';-inkscape-font-specification:'Vampiro One';text-align:end;text-anchor:end;display:none;fill:#fffffe;stroke-width:2.64583;stroke-linejoin:round"
       inkscape:label="Nok start doh ni@VampiroOne-150px15d"><path
         d="m 39.084335,213.95833 q 2.262188,-5.43719 6.548438,-12.89844 3.849687,-6.74687 7.858125,-11.98562 l 3.929062,3.84968 q 0.07937,6.62782 0.714375,13.93032 4.246563,-8.92969 9.564688,-16.23219 l 4.048125,3.73062 q -6.50875,9.08844 -12.422188,23.05844 l -5.278437,1.07156 q -1.27,-9.36625 -1.666875,-17.85937 -5.318125,8.92969 -8.691563,17.54187 z"
         id="path1953" /><path
         d="m 85.042431,212.52958 q -3.81,4.40531 -10.040937,5.55625 l -5.635625,-4.72281 q 0,-3.81 1.508125,-7.54063 1.905,-4.68312 6.270625,-7.58031 3.01625,-2.02406 6.548437,-2.50031 l 6.310313,5.3975 q -0.674688,4.28625 -2.301875,7.46125 2.8575,-0.15875 6.469062,-0.79375 l 0.873125,4.00843 q -5.159375,2.14313 -8.09625,2.89719 z m -10.358437,0.15875 q 4.524375,-1.03188 7.540625,-5.59594 1.27,-1.94469 1.825625,-3.73062 0.555625,-1.78594 0.595312,-2.8575 -3.214687,0.43656 -6.111875,3.41312 -3.611562,3.69094 -3.849687,8.77094 z"
         id="path1955" /><path
         d="m 116.9512,211.8152 q -5.3975,3.61157 -11.07281,6.27063 l -4.96094,-3.4925 q -1.230313,-3.4925 -1.627188,-6.74688 -2.024063,4.60375 -4.008438,10.23938 l -4.722812,-3.05594 q 3.452812,-9.28687 9.485308,-19.92312 1.905,-3.33375 3.88938,-6.42938 l 4.08781,3.05594 q -4.00844,5.91344 -7.50094,13.335 5.31813,-4.96094 11.03313,-9.04875 l 4.04812,3.77031 q -7.3025,4.64344 -11.27125,7.50094 0.67469,1.905 2.02407,4.64344 5.04031,-1.70657 9.72343,-4.1275 z"
         id="path1957" /><path
         d="m 135.60431,218.40333 q -2.8575,-1.905 -5.00063,-3.61156 -1.94469,-1.70657 -4.24656,-4.08782 l 4.08781,-2.89718 q 2.77813,2.89718 4.08781,3.88937 1.30969,0.9525 2.34157,1.62719 1.11125,-0.11906 3.61156,-0.75406 l -6.58813,-6.23094 q -0.91281,-0.9525 -1.42875,-1.70656 1.50813,-2.69875 5.19907,-5.59594 3.45281,-2.69875 6.58812,-3.61156 l 6.35,5.11968 q -0.67469,2.69875 -3.175,7.14375 l -4.24656,-3.175 q 0.83344,-1.23031 1.46844,-2.65906 0.635,-1.42875 0.75406,-1.905 -2.2225,0.83344 -4.56406,3.01625 -0.83344,0.79375 -1.50813,1.62719 0.75406,1.15094 2.30188,2.42094 2.61937,2.26218 4.40531,3.88937 4.40531,-1.50812 7.46125,-3.09562 l 0.83344,4.00843 q -3.175,2.26219 -8.92969,4.20688 -5.31813,1.78594 -9.80281,2.38125 z"
         id="path1959" /><path
         d="m 163.18709,199.47239 q 3.69094,-0.39687 5.43719,-0.87312 l 0.91281,4.28625 q -3.4925,0.87312 -8.89,1.03187 -2.42094,4.7625 -3.61156,8.65188 3.21469,-0.55563 6.86594,-1.5875 3.65125,-1.07157 7.34218,-3.175 l 0.83344,4.00843 q -3.61156,2.50032 -8.255,4.28625 -4.56406,1.74625 -8.09625,1.98438 l -4.92125,-4.56406 q 2.34156,-7.77875 7.97719,-16.39094 1.74625,-2.69875 3.73062,-5.19906 l 3.53219,3.25437 q -1.54781,2.14313 -2.8575,4.28625 z"
         id="path1961" /><path
         d="m 181.84023,214.51395 q -3.13531,2.46063 -7.22312,3.57188 l -4.92125,-4.56406 q 0,-3.13532 0.9525,-6.15157 0.9525,-3.01625 2.81781,-5.43718 1.86531,-2.42094 4.60375,-4.00844 2.77812,-1.62719 6.38969,-1.94469 l 2.61937,4.00844 q 0.47625,-0.75406 2.02406,-2.61938 l 3.88938,3.33375 q -3.92906,5.11969 -6.50875,10.95375 l -0.11906,0.0794 q 2.30187,-0.59531 5.3975,-2.02406 3.09562,-1.46844 3.92906,-1.905 l 0.87312,4.00843 q -2.34156,1.70657 -7.77875,4.40532 -2.14312,1.07156 -3.88937,1.70656 z m -6.58812,-2.14312 q 4.24656,-1.15094 7.73906,-5.63563 1.03187,-2.26218 1.54781,-5.63562 -4.08781,0.39687 -6.70719,3.61156 -2.57968,3.175 -2.57968,7.65969 z"
         id="path1963" /><path
         d="m 197.00083,199.23427 q 1.905,-2.57969 4.7625,-5.35782 l 3.69094,2.8575 q -0.43656,1.82563 -0.75406,2.65907 5.11969,-0.55563 7.38187,-1.11125 2.26219,-0.55563 3.92907,-0.99219 l 1.11125,4.72281 q -1.62719,0.47625 -3.41313,0.83344 -2.73844,4.32594 -4.56406,9.16781 6.58812,-2.26219 9.72344,-4.20687 l 0.87312,4.00843 q -3.65125,2.38125 -9.56469,4.88157 -1.905,0.79375 -3.65125,1.38906 l -4.20687,-4.20688 q 2.57969,-5.91343 5.51656,-10.19968 -2.77812,0.23812 -4.92125,0.3175 -0.635,1.19062 -3.41312,5.95312 l -2.93688,1.86531 -3.77031,-2.2225 q 3.29406,-3.57187 4.445,-5.00062 1.15094,-1.42875 1.98437,-2.46063 -1.15093,-1.27 -2.2225,-2.89718 z"
         id="path1965" /><path
         d="m 228.55239,199.47239 q 3.69093,-0.39687 5.43718,-0.87312 l 0.91282,4.28625 q -3.4925,0.87312 -8.89,1.03187 -2.42094,4.7625 -3.61157,8.65188 3.21469,-0.55563 6.86594,-1.5875 3.65125,-1.07157 7.34219,-3.175 l 0.83344,4.00843 q -3.61157,2.50032 -8.255,4.28625 -4.56407,1.74625 -8.09625,1.98438 l -4.92125,-4.56406 q 2.34156,-7.77875 7.97718,-16.39094 1.74625,-2.69875 3.73063,-5.19906 l 3.53219,3.25437 q -1.54782,2.14313 -2.8575,4.28625 z"
         id="path1967" /><path
         d="m 261.57238,214.51395 q -3.13532,2.46063 -7.22313,3.57188 l -4.92125,-4.56406 q 0,-3.13532 0.9525,-6.15157 0.9525,-3.01625 2.81781,-5.43718 1.86532,-2.42094 4.60375,-4.00844 2.77813,-1.62719 6.38969,-1.94469 l 2.18281,3.33375 q 3.09563,-5.99281 6.50875,-10.63625 l 3.84969,3.33375 q -3.92906,5.00063 -8.13594,14.20813 -1.27,2.77812 -2.26218,5.43718 4.24656,-1.27 8.89,-3.84968 l 0.87312,4.00843 q -2.69875,2.02407 -8.73125,4.96094 -1.70656,0.79375 -2.73844,1.15094 z m -6.58813,-2.14312 q 4.24656,-1.15094 7.73906,-5.63563 1.03188,-2.26218 1.54782,-5.63562 -4.08782,0.39687 -6.70719,3.61156 -2.57969,3.175 -2.57969,7.65969 z"
         id="path1969" /><path
         d="m 289.35363,212.52958 q -3.81,4.40531 -10.04093,5.55625 l -5.63563,-4.72281 q 0,-3.81 1.50813,-7.54063 1.905,-4.68312 6.27062,-7.58031 3.01625,-2.02406 6.54844,-2.50031 l 6.31031,5.3975 q -0.67469,4.28625 -2.30187,7.46125 2.8575,-0.15875 6.46906,-0.79375 l 0.87312,4.00843 q -5.15937,2.14313 -8.09625,2.89719 z m -10.35843,0.15875 q 4.52437,-1.03188 7.54062,-5.59594 1.27,-1.94469 1.82563,-3.73062 0.55562,-1.78594 0.59531,-2.8575 -3.21469,0.43656 -6.11188,3.41312 -3.61156,3.69094 -3.84968,8.77094 z"
         id="path1971" /><path
         d="m 305.74458,203.16333 q 3.69094,-2.81781 8.49312,-5.35781 l 4.80219,3.77031 q -1.30969,5.63562 -4.60375,10.16 3.96875,-1.34938 9.00906,-3.92906 l 0.83344,4.00843 q -1.62719,1.07157 -4.96094,2.73844 -5.715,2.81781 -7.89781,3.53219 l -4.92125,-3.4925 q 2.38125,-2.8575 3.96875,-5.63563 1.62719,-2.81781 2.10344,-4.92125 -5.19906,2.57969 -6.86594,3.65125 -1.62719,1.07157 -2.93687,1.98438 -1.94469,4.80219 -2.97657,8.41375 l -4.72281,-3.05594 q 1.30969,-4.48469 5.75469,-13.41437 4.04812,-8.17563 7.26281,-12.93813 l 4.04813,3.05594 q -3.33375,5.3975 -6.38969,11.43 z"
         id="path1973" /><path
         d="m 345.35268,203.20302 q 3.96875,-3.13532 8.21532,-5.3975 l 4.80218,3.77031 q -1.30968,5.63562 -4.60375,10.16 3.96875,-1.34938 9.00907,-3.92906 l 0.83343,4.00843 q -1.62718,1.07157 -4.96093,2.73844 -5.715,2.81781 -7.89782,3.53219 l -4.92125,-3.4925 q 2.38125,-2.8575 3.96875,-5.63563 1.62719,-2.81781 2.10344,-4.92125 -5.08,2.38125 -9.68375,5.55625 -1.82562,4.36563 -3.09562,8.49313 l -4.72282,-3.05594 q 1.34938,-4.56406 4.20688,-10.27906 2.57969,-5.11969 5.3975,-8.65188 l 4.00844,2.89719 q -1.38907,1.86531 -2.65907,4.20688 z"
         id="path1975" /><path
         d="m 372.22112,194.55114 q -0.91281,-0.9525 -0.91281,-2.30187 0,-1.34938 0.91281,-2.26219 0.9525,-0.9525 2.30188,-0.9525 1.34937,0 2.26218,0.9525 0.9525,0.91281 0.9525,2.26219 0,1.34937 -0.9525,2.30187 -0.91281,0.91281 -2.26218,0.91281 -1.34938,0 -2.30188,-0.91281 z m -5.99281,17.4625 q 4.04812,-1.23031 9.72344,-4.20687 l 0.83343,4.00843 q -3.84968,2.50032 -9.28687,4.88157 -1.82563,0.79375 -3.57188,1.38906 l -4.56406,-4.20688 q 1.94469,-5.31812 6.985,-13.25562 1.50813,-2.38125 2.93688,-4.16719 l 3.92906,2.89719 q -2.89719,3.96875 -5.63563,9.56469 -0.79375,1.66687 -1.34937,3.09562 z"
         id="path1977" /></g><g
       aria-label="Tunggu mmeta"
       transform="rotate(-15)"
       id="text1620"
       style="font-size:39.6875px;font-family:'Vampiro One';-inkscape-font-specification:'Vampiro One';text-align:end;text-anchor:end;display:none;fill:#fffffe;stroke-width:2.64583;stroke-linejoin:round"
       inkscape:label="Tunggu mmeta@VampiroOne-150px15d"><path
         d="m 61.358868,210.8573 q 2.420937,-6.0325 5.278437,-10.59656 2.897188,-4.60375 5.476875,-8.17563 -4.7625,-1.50812 -8.374062,-2.42093 l 2.936875,-4.56407 q 8.73125,1.66688 20.081875,6.07219 l -2.738438,5.47688 q -6.19125,-2.57969 -10.715625,-4.16719 l 3.373438,3.01625 q -4.564063,6.19125 -8.135938,13.93031 -1.230312,2.57969 -2.54,5.67531 z"
         id="path1908" /><path
         d="m 93.505751,210.97636 q -2.500313,2.38125 -6.429375,4.04813 l -5.278438,-4.56406 q 0.555625,-4.48469 2.778125,-8.85032 2.2225,-4.36562 5.715,-9.08843 l 4.087813,3.13531 q -5.55625,7.50094 -7.024688,13.6525 0.03969,0 0.714375,-0.19844 0.714375,-0.23812 1.825625,-0.87312 2.817813,-1.5875 5.199063,-4.56407 2.778125,-5.63562 5.318129,-9.2075 l 4.24656,3.29407 q -3.73063,5.47687 -6.072189,10.83468 l -0.15875,0.0794 q 2.539999,-0.67469 5.516559,-2.06375 3.01625,-1.38906 3.84969,-1.86531 l 0.83344,4.00843 q -2.46063,1.78594 -7.73906,4.40532 -2.143129,1.07156 -3.889379,1.70656 z"
         id="path1910" /><path
         d="m 115.33389,200.14168 q 3.96875,-3.13532 8.21531,-5.3975 l 4.80219,3.77031 q -1.30969,5.63562 -4.60375,10.16 3.96875,-1.34938 9.00906,-3.92906 l 0.83344,4.00843 q -1.62719,1.07157 -4.96094,2.73844 -5.715,2.81781 -7.89781,3.53219 l -4.92125,-3.4925 q 2.38125,-2.8575 3.96875,-5.63563 1.62719,-2.81781 2.10344,-4.92125 -5.08,2.38125 -9.68375,5.55625 -1.82563,4.36563 -3.09563,8.49313 l -4.72281,-3.05594 q 1.34938,-4.56406 4.20688,-10.27906 2.57968,-5.11969 5.3975,-8.65188 l 4.00843,2.89719 q -1.38906,1.86531 -2.65906,4.20688 z"
         id="path1912" /><path
         d="m 127.59732,216.81043 q 2.46062,-2.2225 5.715,-3.84969 l -2.2225,-2.10344 q 0,-3.13531 1.03187,-6.11187 0.99219,-2.97657 2.93688,-5.31813 1.94468,-2.38125 4.7625,-3.92906 2.81781,-1.54781 6.42937,-1.86531 l 2.2225,3.73062 q 1.23031,-1.78594 2.30188,-3.05594 l 3.84968,3.33375 q -2.30187,3.05594 -4.92125,7.73907 -0.79375,1.42875 -1.38906,2.77812 6.07219,-1.74625 9.04875,-3.41312 l 0.83344,4.00843 q -3.25438,2.42094 -7.06438,4.32594 -1.38906,0.71438 -2.42093,1.07156 l -1.70657,-1.905 q -1.54781,6.90563 -4.445,10.75532 -0.99218,1.34937 -2.18281,2.61937 -4.48469,-0.11906 -9.56469,-1.38906 -1.62718,-0.39688 -3.01625,-0.87313 z m 9.04875,-6.94532 q 2.34156,-0.67468 3.57187,-1.38906 2.30188,-1.42875 3.96875,-3.61156 1.19063,-2.61938 1.74625,-6.07219 -4.04812,0.39688 -6.70719,3.4925 -2.57968,3.05594 -2.57968,7.58031 z m -5.04032,9.8425 q 3.88938,0.91282 6.0325,0.91282 2.46063,-2.10344 4.04813,-6.86594 -6.23094,2.50031 -10.08063,5.95312 z"
         id="path1914" /><path
         d="m 152.2036,216.81043 q 2.46063,-2.2225 5.715,-3.84969 l -2.2225,-2.10344 q 0,-3.13531 1.03188,-6.11187 0.99218,-2.97657 2.93687,-5.31813 1.94469,-2.38125 4.7625,-3.92906 2.81781,-1.54781 6.42938,-1.86531 l 2.2225,3.73062 q 1.23031,-1.78594 2.30187,-3.05594 l 3.84969,3.33375 q -2.30188,3.05594 -4.92125,7.73907 -0.79375,1.42875 -1.38906,2.77812 6.07218,-1.74625 9.04875,-3.41312 l 0.83343,4.00843 q -3.25437,2.42094 -7.06437,4.32594 -1.38906,0.71438 -2.42094,1.07156 l -1.70656,-1.905 q -1.54781,6.90563 -4.445,10.75532 -0.99219,1.34937 -2.18281,2.61937 -4.48469,-0.11906 -9.56469,-1.38906 -1.62719,-0.39688 -3.01625,-0.87313 z m 9.04875,-6.94532 q 2.34156,-0.67468 3.57188,-1.38906 2.30187,-1.42875 3.96875,-3.61156 1.19062,-2.61938 1.74625,-6.07219 -4.04813,0.39688 -6.70719,3.4925 -2.57969,3.05594 -2.57969,7.58031 z m -5.04031,9.8425 q 3.88937,0.91282 6.0325,0.91282 2.46062,-2.10344 4.04812,-6.86594 -6.23093,2.50031 -10.08062,5.95312 z"
         id="path1916" /><path
         d="m 191.49426,210.97636 q -2.50031,2.38125 -6.42937,4.04813 l -5.27844,-4.56406 q 0.55562,-4.48469 2.77812,-8.85032 2.2225,-4.36562 5.715,-9.08843 l 4.08782,3.13531 q -5.55625,7.50094 -7.02469,13.6525 0.0397,0 0.71437,-0.19844 0.71438,-0.23812 1.82563,-0.87312 2.81781,-1.5875 5.19906,-4.56407 2.77813,-5.63562 5.31813,-9.2075 l 4.24656,3.29407 q -3.73063,5.47687 -6.07219,10.83468 l -0.15875,0.0794 q 2.54,-0.67469 5.51656,-2.06375 3.01625,-1.38906 3.84969,-1.86531 l 0.83344,4.00843 q -2.46063,1.78594 -7.73906,4.40532 -2.14313,1.07156 -3.88938,1.70656 z"
         id="path1918" /><path
         d="m 239.83364,200.49886 q 3.21468,-2.57968 7.14375,-4.68312 l 4.80218,3.77031 q -1.27,5.27844 -4.20687,9.08844 3.84969,-1.30969 8.96937,-3.92906 l 0.83344,4.00843 q -1.62719,1.07157 -4.96094,2.73844 -5.715,2.81781 -7.89781,3.53219 l -4.92125,-3.4925 q 4.92125,-5.91344 5.79438,-9.60438 -4.16719,2.02407 -7.85813,4.68313 -1.94469,4.36562 -4.80219,8.41375 l -4.56406,-3.13531 q 1.905,-2.54 3.21469,-4.92125 2.10344,-3.88938 2.57969,-6.11188 -3.81,1.78594 -7.02469,4.04813 -1.11125,0.75406 -2.34156,1.62718 -1.78594,4.20688 -3.13532,8.49313 l -4.72281,-3.05594 q 1.34938,-4.56406 4.20688,-10.27906 2.57968,-5.11969 5.3975,-8.65188 l 4.00843,2.89719 q -1.42875,1.94469 -2.54,4.00844 3.61157,-2.97656 7.73907,-5.19906 l 4.80218,3.77031 z"
         id="path1920" /><path
         d="m 276.22705,200.49886 q 3.21469,-2.57968 7.14375,-4.68312 l 4.80219,3.77031 q -1.27,5.27844 -4.20687,9.08844 3.84968,-1.30969 8.96937,-3.92906 l 0.83344,4.00843 q -1.62719,1.07157 -4.96094,2.73844 -5.715,2.81781 -7.89781,3.53219 l -4.92125,-3.4925 q 4.92125,-5.91344 5.79437,-9.60438 -4.16718,2.02407 -7.85812,4.68313 -1.94469,4.36562 -4.80219,8.41375 l -4.56406,-3.13531 q 1.905,-2.54 3.21469,-4.92125 2.10343,-3.88938 2.57968,-6.11188 -3.81,1.78594 -7.02468,4.04813 -1.11125,0.75406 -2.34157,1.62718 -1.78593,4.20688 -3.13531,8.49313 l -4.72281,-3.05594 q 1.34937,-4.56406 4.20687,-10.27906 2.57969,-5.11969 5.3975,-8.65188 l 4.00844,2.89719 q -1.42875,1.94469 -2.54,4.00844 3.61156,-2.97656 7.73906,-5.19906 l 4.80219,3.77031 z"
         id="path1922" /><path
         d="m 300.71424,206.29324 q -1.86532,0 -2.93688,-0.27781 -0.635,1.54781 -0.79375,3.84968 6.82625,-0.39687 13.17625,-3.05593 2.14313,-0.87313 4.1275,-2.06375 l 0.83344,4.00843 q -3.69094,2.34157 -8.73125,4.1275 -5.35781,1.905 -10.12031,2.14313 l -4.92125,-4.56406 q 0,-5.47688 2.97656,-10.00125 2.14312,-3.13532 4.84187,-4.96094 2.73844,-1.82563 5.23875,-2.61938 l 6.70719,5.55625 q -0.99219,4.1275 -3.77031,5.99282 -2.77813,1.86531 -6.62781,1.86531 z m -1.27,-3.84969 q 2.30187,0 4.00843,-1.27 1.98438,-1.50812 1.98438,-4.20687 -4.00844,2.18281 -5.99281,5.47687 z"
         id="path1924" /><path
         d="m 323.97112,196.41105 q 3.69094,-0.39687 5.43719,-0.87312 l 0.91281,4.28625 q -3.4925,0.87312 -8.89,1.03187 -2.42094,4.7625 -3.61156,8.65188 3.21468,-0.55563 6.86593,-1.5875 3.65125,-1.07157 7.34219,-3.175 l 0.83344,4.00843 q -3.61156,2.50032 -8.255,4.28625 -4.56406,1.74625 -8.09625,1.98438 l -4.92125,-4.56406 q 2.34156,-7.77875 7.97719,-16.39094 1.74625,-2.69875 3.73062,-5.19906 l 3.53219,3.25437 q -1.54781,2.14313 -2.8575,4.28625 z"
         id="path1926" /><path
         d="m 342.62426,211.45261 q -3.13532,2.46063 -7.22313,3.57188 l -4.92125,-4.56406 q 0,-3.13532 0.9525,-6.15157 0.9525,-3.01625 2.81781,-5.43718 1.86532,-2.42094 4.60375,-4.00844 2.77813,-1.62719 6.38969,-1.94469 l 2.61938,4.00844 q 0.47625,-0.75406 2.02406,-2.61938 l 3.88937,3.33375 q -3.92906,5.11969 -6.50875,10.95375 l -0.11906,0.0794 q 2.30188,-0.59531 5.3975,-2.02406 3.09563,-1.46844 3.92906,-1.905 l 0.87313,4.00843 q -2.34156,1.70657 -7.77875,4.40532 -2.14313,1.07156 -3.88938,1.70656 z m -6.58813,-2.14312 q 4.24656,-1.15094 7.73906,-5.63563 1.03188,-2.26218 1.54782,-5.63562 -4.08782,0.39687 -6.70719,3.61156 -2.57969,3.175 -2.57969,7.65969 z"
         id="path1928" /></g><g
       aria-label="Takdok dumoh loni"
       transform="rotate(-15)"
       id="text1822"
       style="font-size:39.6875px;font-family:'Vampiro One';-inkscape-font-specification:'Vampiro One';text-align:end;text-anchor:end;display:inline;fill:#fffffe;stroke-width:2.64583;stroke-linejoin:round"
       inkscape:label="Takdok dumoh loni@VampiroOne-150px15d"><path
         d="m 17.231371,214.09734 q 2.420937,-6.0325 5.278437,-10.59656 2.897188,-4.60375 5.476875,-8.17563 -4.7625,-1.50812 -8.374062,-2.42094 l 2.936875,-4.56406 q 8.73125,1.66688 20.081875,6.07219 l -2.738438,5.47687 q -6.19125,-2.57968 -10.715625,-4.16718 l 3.373438,3.01625 q -4.564063,6.19125 -8.135938,13.93031 -1.230312,2.57969 -2.54,5.67531 z"
         id="path1847" /><path
         d="m 50.449816,214.69265 q -3.135312,2.46063 -7.223125,3.57188 l -4.92125,-4.56407 q 0,-3.13531 0.9525,-6.15156 0.9525,-3.01625 2.817813,-5.43719 1.865312,-2.42093 4.60375,-4.00843 2.778125,-1.62719 6.389687,-1.94469 l 2.619375,4.00844 q 0.47625,-0.75407 2.024063,-2.61938 l 3.889375,3.33375 q -3.929063,5.11969 -6.50875,10.95375 l -0.119063,0.0794 q 2.301875,-0.59532 5.3975,-2.02407 3.095625,-1.46843 3.929063,-1.905 l 0.873125,4.00844 q -2.341563,1.70656 -7.77875,4.40531 -2.143125,1.07157 -3.889375,1.70657 z m -6.588125,-2.14312 q 4.246563,-1.15094 7.739063,-5.63563 1.031875,-2.26219 1.547812,-5.63562 -4.087812,0.39687 -6.707187,3.61156 -2.579688,3.175 -2.579688,7.65969 z"
         id="path1849" /><path
         d="m 87.08135,211.9939 q -5.3975,3.61156 -11.072812,6.27063 l -4.960938,-3.4925 q -1.230312,-3.4925 -1.627187,-6.74688 -2.024063,4.60375 -4.008438,10.23938 l -4.722812,-3.05594 q 3.452812,-9.28688 9.485312,-19.92313 1.905,-3.33375 3.889375,-6.42937 l 4.087813,3.05594 q -4.008438,5.91343 -7.500938,13.335 5.318125,-4.96094 11.033125,-9.04875 l 4.048125,3.77031 q -7.3025,4.64344 -11.27125,7.50094 0.674688,1.905 2.024063,4.64343 5.040312,-1.70656 9.723437,-4.1275 z"
         id="path1851" /><path
         d="m 96.804789,214.69265 q -3.135312,2.46063 -7.223125,3.57188 l -4.92125,-4.56407 q 0,-3.13531 0.9525,-6.15156 0.9525,-3.01625 2.817813,-5.43719 1.865312,-2.42093 4.60375,-4.00843 2.778125,-1.62719 6.389687,-1.94469 l 2.182816,3.33375 q 3.09562,-5.99281 6.50875,-10.63625 l 3.84968,3.33375 q -3.92906,5.00062 -8.13593,14.20812 -1.27,2.77813 -2.26219,5.43719 4.24656,-1.27 8.89,-3.84969 l 0.87312,4.00844 q -2.69875,2.02406 -8.73125,4.96094 -1.70656,0.79375 -2.738433,1.15094 z m -6.588125,-2.14312 q 4.246563,-1.15094 7.739063,-5.63563 1.031875,-2.26219 1.547812,-5.63562 -4.087812,0.39687 -6.707187,3.61156 -2.579688,3.175 -2.579688,7.65969 z"
         id="path1853" /><path
         d="m 124.58604,212.70828 q -3.81,4.40531 -10.04094,5.55625 l -5.63562,-4.72282 q 0,-3.81 1.50812,-7.54062 1.905,-4.68313 6.27063,-7.58031 3.01625,-2.02407 6.54843,-2.50032 l 6.31032,5.3975 q -0.67469,4.28625 -2.30188,7.46125 2.8575,-0.15875 6.46906,-0.79375 l 0.87313,4.00844 q -5.15938,2.14313 -8.09625,2.89719 z m -10.35844,0.15875 q 4.52438,-1.03188 7.54063,-5.59594 1.27,-1.94469 1.82562,-3.73063 0.55563,-1.78593 0.59531,-2.8575 -3.21468,0.43657 -6.11187,3.41313 -3.61156,3.69094 -3.84969,8.77094 z"
         id="path1855" /><path
         d="m 156.49481,211.9939 q -5.3975,3.61156 -11.07281,6.27063 l -4.96094,-3.4925 q -1.23031,-3.4925 -1.62719,-6.74688 -2.02406,4.60375 -4.00843,10.23938 l -4.72282,-3.05594 q 3.45282,-9.28688 9.48532,-19.92313 1.905,-3.33375 3.88937,-6.42937 l 4.08781,3.05594 q -4.00843,5.91343 -7.50093,13.335 5.31812,-4.96094 11.03312,-9.04875 l 4.04813,3.77031 q -7.3025,4.64344 -11.27125,7.50094 0.67468,1.905 2.02406,4.64343 5.04031,-1.70656 9.72344,-4.1275 z"
         id="path1857" /><path
         d="m 180.58511,214.69265 q -3.13531,2.46063 -7.22313,3.57188 l -4.92125,-4.56407 q 0,-3.13531 0.9525,-6.15156 0.9525,-3.01625 2.81782,-5.43719 1.86531,-2.42093 4.60375,-4.00843 2.77812,-1.62719 6.38968,-1.94469 l 2.18282,3.33375 q 3.09562,-5.99281 6.50875,-10.63625 l 3.84968,3.33375 q -3.92906,5.00062 -8.13593,14.20812 -1.27,2.77813 -2.26219,5.43719 4.24656,-1.27 8.89,-3.84969 l 0.87312,4.00844 q -2.69875,2.02406 -8.73125,4.96094 -1.70656,0.79375 -2.73843,1.15094 z m -6.58813,-2.14312 q 4.24657,-1.15094 7.73907,-5.63563 1.03187,-2.26219 1.54781,-5.63562 -4.08781,0.39687 -6.70719,3.61156 -2.57969,3.175 -2.57969,7.65969 z"
         id="path1859" /><path
         d="m 203.7626,214.2164 q -2.50031,2.38125 -6.42938,4.04813 l -5.27843,-4.56407 q 0.55562,-4.48468 2.77812,-8.85031 2.2225,-4.36562 5.715,-9.08844 l 4.08781,3.13532 q -5.55625,7.50093 -7.02468,13.6525 0.0397,0 0.71437,-0.19844 0.71438,-0.23813 1.82563,-0.87313 2.81781,-1.5875 5.19906,-4.56406 2.77812,-5.63562 5.31812,-9.2075 l 4.24657,3.29406 q -3.73063,5.47688 -6.07219,10.83469 l -0.15875,0.0794 q 2.54,-0.67469 5.51656,-2.06375 3.01625,-1.38907 3.84969,-1.86532 l 0.83344,4.00844 q -2.46063,1.78594 -7.73907,4.40531 -2.14312,1.07157 -3.88937,1.70657 z"
         id="path1861" /><path
         d="m 237.73512,203.7389 q 3.21468,-2.57969 7.14375,-4.68312 l 4.80218,3.77031 q -1.27,5.27844 -4.20687,9.08844 3.84969,-1.30969 8.96937,-3.92907 l 0.83344,4.00844 q -1.62719,1.07156 -4.96094,2.73844 -5.715,2.81781 -7.89781,3.53219 l -4.92125,-3.4925 q 4.92125,-5.91344 5.79438,-9.60438 -4.16719,2.02406 -7.85813,4.68313 -1.94469,4.36562 -4.80219,8.41375 l -4.56406,-3.13532 q 1.905,-2.54 3.21469,-4.92125 2.10344,-3.88937 2.57969,-6.11187 -3.81,1.78594 -7.02469,4.04812 -1.11125,0.75407 -2.34156,1.62719 -1.78594,4.20688 -3.13532,8.49313 l -4.72281,-3.05594 q 1.34938,-4.56406 4.20688,-10.27906 2.57968,-5.11969 5.3975,-8.65188 l 4.00843,2.89719 q -1.42875,1.94469 -2.54,4.00844 3.61157,-2.97657 7.73907,-5.19907 l 4.80218,3.77032 z"
         id="path1863" /><path
         d="m 268.5723,212.70828 q -3.81,4.40531 -10.04094,5.55625 l -5.63562,-4.72282 q 0,-3.81 1.50812,-7.54062 1.905,-4.68313 6.27063,-7.58031 3.01625,-2.02407 6.54843,-2.50032 l 6.31032,5.3975 q -0.67469,4.28625 -2.30188,7.46125 2.8575,-0.15875 6.46906,-0.79375 l 0.87313,4.00844 q -5.15938,2.14313 -8.09625,2.89719 z m -10.35844,0.15875 q 4.52438,-1.03188 7.54063,-5.59594 1.27,-1.94469 1.82562,-3.73063 0.55563,-1.78593 0.59531,-2.8575 -3.21468,0.43657 -6.11187,3.41313 -3.61156,3.69094 -3.84969,8.77094 z"
         id="path1865" /><path
         d="m 284.96324,203.34203 q 3.69094,-2.81782 8.49313,-5.35782 l 4.80218,3.77032 q -1.30968,5.63562 -4.60375,10.16 3.96875,-1.34938 9.00907,-3.92907 l 0.83343,4.00844 q -1.62718,1.07156 -4.96093,2.73844 -5.715,2.81781 -7.89782,3.53219 l -4.92125,-3.4925 q 2.38125,-2.8575 3.96875,-5.63563 1.62719,-2.81781 2.10344,-4.92125 -5.19906,2.57969 -6.86594,3.65125 -1.62718,1.07156 -2.93687,1.98438 -1.94469,4.80218 -2.97656,8.41375 l -4.72282,-3.05594 q 1.30969,-4.48469 5.75469,-13.41438 4.04813,-8.17562 7.26281,-12.93812 l 4.04813,3.05594 q -3.33375,5.3975 -6.38969,11.43 z"
         id="path1867" /><path
         d="m 314.33197,213.70046 q 1.70656,-6.15156 6.07219,-13.93031 2.89719,-5.15937 6.50875,-9.16781 1.82562,-2.02406 3.77031,-3.41313 l 6.70719,4.72282 q -1.34938,10.83468 -9.8425,15.27968 -2.73844,1.42875 -6.11188,2.26219 -0.9525,2.34156 -1.46843,4.00844 4.92125,-0.67469 7.65968,-1.50813 5.35782,-1.5875 8.92969,-3.96875 l 0.83344,4.00844 q -5.83406,4.04813 -13.25563,5.63563 -2.46062,0.51593 -4.88156,0.635 z m 9.40594,-9.2075 q 3.61156,-1.70656 5.75469,-4.92125 2.14312,-3.21468 2.8575,-7.54062 -3.13532,2.81781 -6.70719,8.96937 -1.03188,1.74625 -1.905,3.4925 z"
         id="path1869" /><path
         d="m 350.68575,212.70828 q -3.81,4.40531 -10.04094,5.55625 l -5.63563,-4.72282 q 0,-3.81 1.50813,-7.54062 1.905,-4.68313 6.27062,-7.58031 3.01625,-2.02407 6.54844,-2.50032 l 6.31031,5.3975 q -0.67468,4.28625 -2.30187,7.46125 2.8575,-0.15875 6.46906,-0.79375 l 0.87313,4.00844 q -5.15938,2.14313 -8.09625,2.89719 z m -10.35844,0.15875 q 4.52437,-1.03188 7.54062,-5.59594 1.27,-1.94469 1.82563,-3.73063 0.55562,-1.78593 0.59531,-2.8575 -3.21469,0.43657 -6.11187,3.41313 -3.61157,3.69094 -3.84969,8.77094 z"
         id="path1871" /><path
         d="m 367.35452,203.38171 q 3.96875,-3.13531 8.21531,-5.3975 l 4.80219,3.77032 q -1.30969,5.63562 -4.60375,10.16 3.96875,-1.34938 9.00906,-3.92907 l 0.83344,4.00844 q -1.62719,1.07156 -4.96094,2.73844 -5.715,2.81781 -7.89781,3.53219 l -4.92125,-3.4925 q 2.38125,-2.8575 3.96875,-5.63563 1.62719,-2.81781 2.10344,-4.92125 -5.08,2.38125 -9.68375,5.55625 -1.82563,4.36563 -3.09563,8.49313 l -4.72281,-3.05594 q 1.34937,-4.56406 4.20687,-10.27906 2.57969,-5.11969 5.3975,-8.65188 l 4.00844,2.89719 q -1.38906,1.86531 -2.65906,4.20687 z"
         id="path1873" /><path
         d="m 394.22293,194.72984 q -0.91281,-0.9525 -0.91281,-2.30188 0,-1.34937 0.91281,-2.26218 0.9525,-0.9525 2.30187,-0.9525 1.34938,0 2.26219,0.9525 0.9525,0.91281 0.9525,2.26218 0,1.34938 -0.9525,2.30188 -0.91281,0.91281 -2.26219,0.91281 -1.34937,0 -2.30187,-0.91281 z m -5.99281,17.4625 q 4.04812,-1.23031 9.72343,-4.20688 l 0.83344,4.00844 q -3.84969,2.50031 -9.28687,4.88156 -1.82563,0.79375 -3.57188,1.38907 l -4.56406,-4.20688 q 1.94469,-5.31812 6.985,-13.25562 1.50812,-2.38125 2.93687,-4.16719 l 3.92907,2.89719 q -2.89719,3.96875 -5.63563,9.56468 -0.79375,1.66688 -1.34937,3.09563 z"
         id="path1875" /></g><g
       inkscape:groupmode="layer"
       id="layer8"
       inkscape:label="edit"
       style="display:none"><text
         xml:space="preserve"
         style="font-style:normal;font-variant:normal;font-weight:normal;font-stretch:normal;font-size:39.6875px;font-family:'Vampiro One';-inkscape-font-specification:'Vampiro One';text-align:end;text-anchor:end;display:inline;fill:#fffffe;fill-opacity:1;stroke-width:2.64583;stroke-linejoin:round"
         x="375.75333"
         y="217.01427"
         id="text1826"
         transform="rotate(-15)"
         inkscape:label="Nok start doh ni@VampiroOne-150px15d"><tspan
           sodipodi:role="line"
           id="tspan1824"
           style="stroke-width:2.64583"
           x="375.75333"
           y="217.01427">Nok start doh ni</tspan></text><text
         xml:space="preserve"
         style="font-style:normal;font-variant:normal;font-weight:normal;font-stretch:normal;font-size:39.6875px;font-family:'Vampiro One';-inkscape-font-specification:'Vampiro One';text-align:end;text-anchor:end;display:inline;fill:#fffffe;fill-opacity:1;stroke-width:2.64583;stroke-linejoin:round"
         x="356.27673"
         y="213.95293"
         id="text1830"
         transform="rotate(-15)"
         inkscape:label="Tunggu mmeta@VampiroOne-150px15d"><tspan
           sodipodi:role="line"
           id="tspan1828"
           style="stroke-width:2.64583"
           x="356.27673"
           y="213.95293">Tunggu mmeta</tspan></text><text
         xml:space="preserve"
         style="font-style:normal;font-variant:normal;font-weight:normal;font-stretch:normal;font-size:39.6875px;font-family:'Vampiro One';-inkscape-font-specification:'Vampiro One';text-align:end;text-anchor:end;fill:#fffffe;fill-opacity:1;stroke-width:2.64583;stroke-linejoin:round"
         x="397.75516"
         y="217.19296"
         id="text1834"
         transform="rotate(-15)"
         inkscape:label="Takdok dumoh loni@VampiroOne-150px15d"><tspan
           sodipodi:role="line"
           id="tspan1832"
           style="stroke-width:2.64583"
           x="397.75516"
           y="217.19296">Takdok dumoh loni</tspan></text></g></g><metadata
     id="metadata1614"><rdf:RDF><cc:Work
         rdf:about=""><dc:description>Title Text Vampiro One 150px 15 degree
7e0000ff</dc:description><dc:title>Hidari Shoya Stream Screen</dc:title></cc:Work></rdf:RDF></metadata></svg>
