<?xml version="1.0" encoding="UTF-8" standalone="no"?>
<!-- Created with Inkscape (http://www.inkscape.org/) -->

<svg
   width="793.70081"
   height="1122.5197"
   viewBox="0 0 210 296.99999"
   version="1.1"
   id="svg5"
   inkscape:version="1.2.2 (b0a8486541, 2022-12-01)"
   sodipodi:docname="shuriken.svg"
   inkscape:export-filename="../../../upload/shuriken.pdf"
   inkscape:export-xdpi="96"
   inkscape:export-ydpi="96"
   xmlns:inkscape="http://www.inkscape.org/namespaces/inkscape"
   xmlns:sodipodi="http://sodipodi.sourceforge.net/DTD/sodipodi-0.dtd"
   xmlns="http://www.w3.org/2000/svg"
   xmlns:svg="http://www.w3.org/2000/svg">
  <sodipodi:namedview
     id="namedview7"
     pagecolor="#505050"
     bordercolor="#eeeeee"
     borderopacity="1"
     inkscape:showpageshadow="0"
     inkscape:pageopacity="0"
     inkscape:pagecheckerboard="0"
     inkscape:deskcolor="#505050"
     inkscape:document-units="px"
     showgrid="false"
     inkscape:zoom="1.6207662"
     inkscape:cx="198.67147"
     inkscape:cy="95.633781"
     inkscape:window-width="1366"
     inkscape:window-height="695"
     inkscape:window-x="0"
     inkscape:window-y="0"
     inkscape:window-maximized="1"
     inkscape:current-layer="layer13" />
  <defs
     id="defs2" />
  <rect
     style="fill:#fffffe;fill-opacity:1;stroke:none;stroke-width:0.53188;stroke-dasharray:none;stroke-dashoffset:0;stroke-opacity:1"
     id="rect3450"
     width="210.00005"
     height="297.00009"
     x="0"
     y="0"
     inkscape:label="background"
     sodipodi:insensitive="true" />
  <g
     inkscape:label="Layer 1"
     inkscape:groupmode="layer"
     id="layer1"
     style="display:none">
    <path
       style="fill:#000000;stroke-width:0.79375;stroke-dasharray:3.175, 0.79375"
       d="M 0,52.916667 52.916667,0 H 0 Z"
       id="path288"
       sodipodi:nodetypes="cccc" />
    <path
       style="fill:#000000;stroke-width:0.79375;stroke-dasharray:3.175, 0.79375"
       d="M 52.916666,0 V 52.916666 H 0 Z"
       id="path386"
       sodipodi:nodetypes="cccc" />
    <path
       style="fill:#000000;stroke-width:0.79375;stroke-dasharray:3.175, 0.79375"
       d="M 0,0 V 211.66666 H 52.916666 V 0 Z"
       id="path388"
       sodipodi:nodetypes="ccccc"
       inkscape:label="right" />
    <path
       style="fill:#000000;stroke-width:0.79375;stroke-dasharray:3.175, 0.79375"
       d="M 52.916666,0 V 211.66666 H 105.83333 V 0 Z"
       id="path413"
       sodipodi:nodetypes="ccccc"
       inkscape:label="left" />
  </g>
  <g
     inkscape:groupmode="layer"
     id="layer7"
     inkscape:label="folddirection-source"
     style="display:none">
    <path
       style="fill:#000000;fill-opacity:1;stroke:none;stroke-width:0.264583;stroke-dasharray:none;stroke-dashoffset:0;stroke-opacity:1"
       d="M 7.937502,15.875 15.875,7.9375 v 7.9375 z"
       id="path1233"
       sodipodi:nodetypes="cccc"
       inkscape:label="BR" />
    <path
       style="fill:#000000;fill-opacity:1;stroke:none;stroke-width:0.264583;stroke-dasharray:none;stroke-dashoffset:0;stroke-opacity:1"
       d="M 7.937502,15.875 0,7.9375 v 7.9375 z"
       id="path1237"
       sodipodi:nodetypes="cccc"
       inkscape:label="BL" />
    <path
       style="fill:#000000;fill-opacity:1;stroke:none;stroke-width:0.264583;stroke-dasharray:none;stroke-dashoffset:0;stroke-opacity:1"
       d="M 7.937502,0 15.875,7.9375 V 0 Z"
       id="path1239"
       sodipodi:nodetypes="cccc"
       inkscape:label="TR" />
    <path
       style="fill:#000000;fill-opacity:1;stroke:none;stroke-width:0.264583;stroke-dasharray:none;stroke-dashoffset:0;stroke-opacity:1"
       d="M 7.937502,0 0,7.9375 V 0 Z"
       id="path1241"
       sodipodi:nodetypes="cccc"
       inkscape:label="TL" />
  </g>
  <g
     inkscape:groupmode="layer"
     id="layer8"
     inkscape:label="folddirection"
     style="display:none;stroke:#000000;stroke-opacity:1">
    <path
       style="fill:#000000;fill-opacity:1;stroke:#000000;stroke-width:0.264583;stroke-dasharray:none;stroke-dashoffset:0;stroke-opacity:1"
       d="m -30.427082,-128.32291 7.937498,-7.9375 v 7.9375 z"
       id="path1301"
       sodipodi:nodetypes="cccc"
       inkscape:label="BR" />
    <path
       style="fill:#000000;fill-opacity:1;stroke:#000000;stroke-width:0.264583;stroke-dasharray:none;stroke-dashoffset:0;stroke-opacity:1"
       d="m -75.406247,-128.32291 -7.937502,-7.9375 v 7.9375 z"
       id="path1303"
       sodipodi:nodetypes="cccc"
       inkscape:label="BL" />
    <path
       style="fill:#000000;fill-opacity:1;stroke:#000000;stroke-width:0.264583;stroke-dasharray:none;stroke-dashoffset:0;stroke-opacity:1"
       d="m -83.343747,-83.343748 7.937498,7.9375 v -7.9375 z"
       id="path1305"
       sodipodi:nodetypes="cccc"
       inkscape:label="TR" />
    <path
       style="fill:#000000;fill-opacity:1;stroke:#000000;stroke-width:0.264583;stroke-dasharray:none;stroke-dashoffset:0;stroke-opacity:1"
       d="m -22.489582,-83.343748 -7.937502,7.9375 v -7.9375 z"
       id="path1307"
       sodipodi:nodetypes="cccc"
       inkscape:label="TL" />
    <path
       style="fill:#000000;fill-opacity:1;stroke:#000000;stroke-width:0.264583;stroke-dasharray:none;stroke-dashoffset:0;stroke-opacity:1"
       d="m -83.343747,-181.23958 7.937498,-7.9375 v 7.9375 z"
       id="path1255"
       sodipodi:nodetypes="cccc"
       inkscape:label="BR" />
    <path
       style="fill:#000000;fill-opacity:1;stroke:#000000;stroke-width:0.264583;stroke-dasharray:none;stroke-dashoffset:0;stroke-opacity:1"
       d="m -22.489582,-181.23958 -7.937502,-7.9375 v 7.9375 z"
       id="path1257"
       sodipodi:nodetypes="cccc"
       inkscape:label="BL" />
    <path
       style="fill:#000000;fill-opacity:1;stroke:#000000;stroke-width:0.264583;stroke-dasharray:none;stroke-dashoffset:0;stroke-opacity:1"
       d="m -75.406247,-30.427083 -7.937502,7.9375 v -7.9375 z"
       id="path1249"
       sodipodi:nodetypes="cccc"
       inkscape:label="TL" />
    <path
       style="fill:#000000;fill-opacity:1;stroke:#000000;stroke-width:0.264583;stroke-dasharray:none;stroke-dashoffset:0;stroke-opacity:1"
       d="m -30.427082,-30.427083 7.937498,7.9375 v -7.9375 z"
       id="path1252"
       sodipodi:nodetypes="cccc"
       inkscape:label="TR" />
  </g>
  <text
     xml:space="preserve"
     style="font-size:7.9375px;font-family:Amiri;-inkscape-font-specification:Amiri;display:none;fill:none;fill-opacity:1;stroke:#000000;stroke-width:0.26379;stroke-dasharray:none;stroke-dashoffset:0;stroke-opacity:1"
     x="-220.10422"
     y="127.30122"
     id="text3310"
     transform="rotate(-90)"><tspan
       sodipodi:role="line"
       id="tspan3308"
       style="font-style:normal;font-variant:normal;font-weight:normal;font-stretch:normal;font-family:'Comic Neue';-inkscape-font-specification:'Comic Neue';stroke-width:0.26379"
       x="-220.10422"
       y="127.30122">1. Potong kertas pada garisan putus-putus.</tspan><tspan
       sodipodi:role="line"
       style="font-style:normal;font-variant:normal;font-weight:normal;font-stretch:normal;font-family:'Comic Neue';-inkscape-font-specification:'Comic Neue';stroke-width:0.26379"
       x="-220.10422"
       y="138.36011"
       id="tspan3312">2. Lipat kertas pada garisan hijau.</tspan><tspan
       sodipodi:role="line"
       style="font-style:normal;font-variant:normal;font-weight:normal;font-stretch:normal;font-family:'Comic Neue';-inkscape-font-specification:'Comic Neue';stroke-width:0.26379"
       x="-220.10422"
       y="149.41901"
       id="tspan3314">3. Lipat kertas pada garisan kuning.</tspan><tspan
       sodipodi:role="line"
       style="font-style:normal;font-variant:normal;font-weight:normal;font-stretch:normal;font-family:'Comic Neue';-inkscape-font-specification:'Comic Neue';stroke-width:0.26379"
       x="-220.10422"
       y="160.47789"
       id="tspan3316">4.Lipat kertas pada garisan merah.</tspan></text>
  <g
     inkscape:groupmode="layer"
     id="layer2"
     inkscape:label="line"
     style="display:inline">
    <g
       inkscape:groupmode="layer"
       id="layer3"
       inkscape:label="row">
      <path
         id="path1103"
         style="fill:none;stroke:#000000;stroke-width:0.264583;stroke-dasharray:none;stroke-dashoffset:0;stroke-opacity:1"
         inkscape:label="3"
         d="M 60.854164,60.85416 H 7.9375 m 105.83333,0 H 60.854164" />
      <path
         id="path1128"
         style="fill:none;stroke:#000000;stroke-width:0.264583;stroke-dasharray:none;stroke-dashoffset:0;stroke-opacity:1"
         d="M 60.854164,166.6875 H 7.9375 m 105.83333,0 H 60.854164"
         inkscape:label="1" />
      <path
         style="fill:none;fill-opacity:1;stroke:#000000;stroke-width:0.26379;stroke-dasharray:none;stroke-dashoffset:0;stroke-opacity:1"
         d="M 113.77083,7.9374999 H 166.6875 V 219.60416 h -52.91667"
         id="path3306"
         sodipodi:nodetypes="cccc"
         inkscape:label="info" />
    </g>
    <g
       inkscape:groupmode="layer"
       id="layer4"
       inkscape:label="diagonal">
      <path
         style="fill:none;stroke:#000000;stroke-width:0.264583;stroke-dasharray:none;stroke-dashoffset:0;stroke-opacity:1"
         d="M 7.9375,219.60416 60.854164,166.6875"
         id="path1167"
         sodipodi:nodetypes="cc"
         inkscape:label="1dU" />
      <path
         style="fill:none;stroke:#000000;stroke-width:0.264583;stroke-dasharray:none;stroke-dashoffset:0;stroke-opacity:1"
         d="M 113.77083,219.60416 60.854164,166.6875"
         id="path1169"
         sodipodi:nodetypes="cc"
         inkscape:label="2dD" />
      <path
         style="fill:none;stroke:#000000;stroke-width:0.264583;stroke-dasharray:none;stroke-dashoffset:0;stroke-opacity:1"
         d="M 7.9375,60.85416 60.854164,7.9375"
         id="path1171"
         sodipodi:nodetypes="cc"
         inkscape:label="1dU" />
      <path
         style="fill:none;stroke:#000000;stroke-width:0.264583;stroke-dasharray:none;stroke-dashoffset:0;stroke-opacity:1"
         d="M 113.77083,60.85416 60.854164,7.9375"
         id="path1173"
         sodipodi:nodetypes="cc"
         inkscape:label="2dD" />
      <path
         style="fill:none;stroke:#000000;stroke-width:0.264583;stroke-dasharray:none;stroke-dashoffset:0;stroke-opacity:1"
         d="m 7.9375,60.85421 52.916664,52.91657"
         id="path1175"
         sodipodi:nodetypes="cc"
         inkscape:label="1dD" />
      <path
         style="fill:none;stroke:#000000;stroke-width:0.264583;stroke-dasharray:none;stroke-dashoffset:0;stroke-opacity:1"
         d="M 113.77083,60.85412 60.854164,113.77087"
         id="path1177"
         sodipodi:nodetypes="cc"
         inkscape:label="2dU" />
      <path
         style="fill:none;stroke:#000000;stroke-width:0.264583;stroke-dasharray:none;stroke-dashoffset:0;stroke-opacity:1"
         d="M 7.9375,113.77083 60.854164,166.6875"
         id="path1179"
         sodipodi:nodetypes="cc"
         inkscape:label="1dD" />
      <path
         style="fill:none;stroke:#000000;stroke-width:0.264583;stroke-dasharray:none;stroke-dashoffset:0;stroke-opacity:1"
         d="M 113.77083,113.77083 60.854164,166.6875"
         id="path1181"
         sodipodi:nodetypes="cc"
         inkscape:label="2dU" />
    </g>
    <g
       inkscape:groupmode="layer"
       id="layer5"
       inkscape:label="cut"
       style="display:inline">
      <path
         style="fill:none;stroke:#000000;stroke-width:0.264583;stroke-dasharray:2.38125, 1.32291;stroke-dashoffset:0;stroke-opacity:1"
         d="M 113.90312,7.9375 V 219.60416"
         id="path415"
         sodipodi:nodetypes="cc"
         inkscape:label="col2" />
      <path
         style="fill:none;stroke:#000000;stroke-width:0.264583;stroke-dasharray:2.38125, 1.32291;stroke-dashoffset:0;stroke-opacity:1"
         d="M 60.986454,7.9375 V 219.60416"
         id="path973"
         sodipodi:nodetypes="cc"
         inkscape:label="col1" />
      <path
         style="fill:none;stroke:#000000;stroke-width:0.264583;stroke-dasharray:2.38125, 1.32291;stroke-dashoffset:0;stroke-opacity:1"
         d="M 8.06979,7.9375 V 219.60416"
         id="path975"
         sodipodi:nodetypes="cc"
         inkscape:label="col0" />
      <path
         id="path1132"
         style="fill:none;stroke:#000000;stroke-width:0.264583;stroke-dasharray:2.38125, 1.32291;stroke-dashoffset:0;stroke-opacity:1"
         inkscape:label="row8"
         d="M 60.854164,8.06979 H 7.9375 m 105.83333,0 H 60.854164" />
      <path
         id="path1107"
         style="fill:none;stroke:#000000;stroke-width:0.264583;stroke-dasharray:2.38125, 1.32291;stroke-dashoffset:0;stroke-opacity:1"
         inkscape:label="row0"
         d="M 60.854164,219.73646 H 7.9375 m 105.83333,0 H 60.854164" />
    </g>
  </g>
  <g
     inkscape:groupmode="layer"
     id="layer9"
     inkscape:label="number"
     sodipodi:insensitive="true">
    <g
       id="g3095"
       inkscape:label="1"
       transform="translate(27.144317,99.957536)">
      <text
         xml:space="preserve"
         style="font-size:7.9375px;font-family:Amiri;-inkscape-font-specification:Amiri;fill:none;fill-opacity:1;stroke:#000000;stroke-width:0.264583;stroke-dasharray:none;stroke-dashoffset:0;stroke-opacity:1"
         x="5.1393466"
         y="16.422081"
         id="text2913"
         inkscape:label="1"><tspan
           sodipodi:role="line"
           id="tspan2911"
           style="font-size:7.9375px;stroke-width:0.264583"
           x="5.1393466"
           y="16.422081">1</tspan></text>
      <rect
         style="fill:none;fill-opacity:1;stroke:#000000;stroke-width:0.228461;stroke-dasharray:none;stroke-dashoffset:0;stroke-opacity:1"
         id="rect1405"
         width="9.0319557"
         height="9.0319557"
         x="2.7355375"
         y="9.4296026"
         inkscape:label="1" />
    </g>
    <g
       id="g3102"
       inkscape:label="2"
       transform="translate(80.060984,90.697116)">
      <text
         xml:space="preserve"
         style="font-size:7.9375px;font-family:Amiri;-inkscape-font-specification:Amiri;fill:none;fill-opacity:1;stroke:#000000;stroke-width:0.264583;stroke-dasharray:none;stroke-dashoffset:0;stroke-opacity:1"
         x="5.1361718"
         y="25.694405"
         id="text2967"
         inkscape:label="2"><tspan
           sodipodi:role="line"
           id="tspan2965"
           style="font-size:7.9375px;stroke-width:0.264583"
           x="5.1361718"
           y="25.694405">2</tspan></text>
      <rect
         style="fill:none;fill-opacity:1;stroke:#000000;stroke-width:0.228461;stroke-dasharray:none;stroke-dashoffset:0;stroke-opacity:1"
         id="rect2969"
         width="9.0319557"
         height="9.0319557"
         x="2.7355375"
         y="18.69002"
         inkscape:label="2" />
    </g>
    <path
       id="path3106"
       style="display:none;fill:none;stroke:#000000;stroke-width:0.264583;stroke-dasharray:none;stroke-dashoffset:0;stroke-opacity:1"
       d="m -52.916666,-105.70104 h -52.916664 m 105.83333,0 h -52.916666"
       inkscape:label="1" />
  </g>
  <g
     inkscape:groupmode="layer"
     id="layer10"
     inkscape:label="QR">
    <rect
       style="fill:none;fill-opacity:1;stroke:#000000;stroke-width:0.79375;stroke-dasharray:none;stroke-dashoffset:0;stroke-opacity:1"
       id="rect4803"
       width="38.893749"
       height="38.893749"
       x="120.84824"
       y="116.68967"
       inkscape:label="download" />
    <rect
       style="fill:none;fill-opacity:1;stroke:#000000;stroke-width:0.79375;stroke-dasharray:none;stroke-dashoffset:0;stroke-opacity:1"
       id="rect4868"
       width="38.893749"
       height="38.893749"
       x="120.84824"
       y="174.67307"
       inkscape:label="watch" />
  </g>
  <g
     inkscape:groupmode="layer"
     id="layer13"
     inkscape:label="arrow"
     style="display:inline">
    <g
       id="g5158"
       inkscape:label="arrowBR"
       transform="translate(30.61417,30.61417)"
       style="display:inline">
      <path
         style="fill:none;fill-opacity:1;stroke:#000000;stroke-width:0.529167;stroke-dasharray:none;stroke-dashoffset:0;stroke-opacity:1"
         d="M 0,0 6.4274944,6.4274944"
         id="path5117"
         sodipodi:nodetypes="cc"
         inkscape:label="straight" />
      <path
         style="fill:#000001;fill-opacity:1;stroke:none;stroke-width:0.529167;stroke-dasharray:none;stroke-dashoffset:0;stroke-opacity:1"
         d="m 7.9374999,3.9687499 -3.96875,3.96875 h 3.96875 z"
         id="path5163"
         sodipodi:nodetypes="cccc"
         transform="translate(-0.18708879,-0.18708879)"
         inkscape:label="triangle" />
      <circle
         style="display:inline;fill:none;stroke:#000000;stroke-width:0.79375;stroke-dasharray:none;stroke-dashoffset:0;stroke-opacity:1"
         id="circle1184"
         cx="-2.9652133"
         cy="-2.9652133"
         r="3.9687495"
         inkscape:label="1" />
    </g>
    <g
       id="g5209"
       inkscape:label="arrowBL"
       transform="rotate(90,30.239995,60.854165)"
       style="display:inline">
      <path
         style="fill:none;fill-opacity:1;stroke:#000000;stroke-width:0.529167;stroke-dasharray:none;stroke-dashoffset:0;stroke-opacity:1"
         d="M 0,0 6.4274944,6.4274944"
         id="path5205"
         sodipodi:nodetypes="cc"
         inkscape:label="straight" />
      <path
         style="fill:#000001;fill-opacity:1;stroke:none;stroke-width:0.529167;stroke-dasharray:none;stroke-dashoffset:0;stroke-opacity:1"
         d="m 7.9374999,3.9687499 -3.96875,3.96875 h 3.96875 z"
         id="path5207"
         sodipodi:nodetypes="cccc"
         transform="translate(-0.18708879,-0.18708879)"
         inkscape:label="triangle" />
      <circle
         style="display:inline;fill:none;stroke:#000000;stroke-width:0.79375;stroke-dasharray:none;stroke-dashoffset:0;stroke-opacity:1"
         id="circle1186"
         cx="2.9652133"
         cy="-2.9652133"
         r="3.9687495"
         inkscape:label="1"
         transform="rotate(-90)" />
    </g>
    <g
       id="g5217"
       inkscape:label="arrowTL"
       transform="rotate(180,19.088747,98.463746)"
       style="display:inline">
      <path
         style="fill:none;fill-opacity:1;stroke:#000000;stroke-width:0.529167;stroke-dasharray:none;stroke-dashoffset:0;stroke-opacity:1"
         d="M 0,0 6.4274944,6.4274944"
         id="path5213"
         sodipodi:nodetypes="cc"
         inkscape:label="straight" />
      <path
         style="fill:#000001;fill-opacity:1;stroke:none;stroke-width:0.529167;stroke-dasharray:none;stroke-dashoffset:0;stroke-opacity:1"
         d="m 7.9374999,3.9687499 -3.96875,3.96875 h 3.96875 z"
         id="path5215"
         sodipodi:nodetypes="cccc"
         transform="translate(-0.18708879,-0.18708879)"
         inkscape:label="triangle" />
      <circle
         style="display:inline;fill:none;stroke:#000000;stroke-width:0.79375;stroke-dasharray:none;stroke-dashoffset:0;stroke-opacity:1"
         id="circle1013"
         cx="2.9652114"
         cy="2.9652171"
         r="3.9687495"
         inkscape:label="1"
         transform="scale(-1)" />
    </g>
    <g
       id="g5225"
       inkscape:label="arrowTR"
       transform="rotate(-90,140.22916,56.698327)"
       style="display:inline">
      <path
         style="fill:none;fill-opacity:1;stroke:#000000;stroke-width:0.529167;stroke-dasharray:none;stroke-dashoffset:0;stroke-opacity:1"
         d="M 0,0 6.4274944,6.4274944"
         id="path5221"
         sodipodi:nodetypes="cc"
         inkscape:label="straight" />
      <path
         style="fill:#000001;fill-opacity:1;stroke:none;stroke-width:0.529167;stroke-dasharray:none;stroke-dashoffset:0;stroke-opacity:1"
         d="m 7.9374999,3.9687499 -3.96875,3.96875 h 3.96875 z"
         id="path5223"
         sodipodi:nodetypes="cccc"
         transform="translate(-0.18708879,-0.18708879)"
         inkscape:label="triangle" />
      <circle
         style="display:inline;fill:none;stroke:#000000;stroke-width:0.79375;stroke-dasharray:none;stroke-dashoffset:0;stroke-opacity:1"
         id="circle783"
         cx="-2.9652143"
         cy="2.9652071"
         r="3.9687495"
         inkscape:label="1"
         transform="rotate(90)" />
    </g>
    <g
       id="g5308"
       inkscape:label="arrowTR"
       transform="rotate(-90,87.312499,56.698329)"
       style="display:inline">
      <path
         style="fill:none;fill-opacity:1;stroke:#000000;stroke-width:0.529167;stroke-dasharray:none;stroke-dashoffset:0;stroke-opacity:1"
         d="M 0,0 6.4274944,6.4274944"
         id="path5304"
         sodipodi:nodetypes="cc"
         inkscape:label="straight" />
      <path
         style="fill:#000001;fill-opacity:1;stroke:none;stroke-width:0.529167;stroke-dasharray:none;stroke-dashoffset:0;stroke-opacity:1"
         d="m 7.9374999,3.9687499 -3.96875,3.96875 h 3.96875 z"
         id="path5306"
         sodipodi:nodetypes="cccc"
         transform="translate(-0.18708879,-0.18708879)"
         inkscape:label="triangle" />
      <circle
         style="display:inline;fill:none;stroke:#000000;stroke-width:0.79375;stroke-dasharray:none;stroke-dashoffset:0;stroke-opacity:1"
         id="circle898"
         cx="-2.9652133"
         cy="2.9652095"
         r="3.9687495"
         inkscape:label="1"
         transform="rotate(90)" />
    </g>
    <g
       id="g5322"
       inkscape:label="arrowTL"
       transform="rotate(180,45.54708,72.005413)"
       style="display:inline">
      <path
         style="fill:none;fill-opacity:1;stroke:#000000;stroke-width:0.529167;stroke-dasharray:none;stroke-dashoffset:0;stroke-opacity:1"
         d="M 0,0 6.4274944,6.4274944"
         id="path5318"
         sodipodi:nodetypes="cc"
         inkscape:label="straight" />
      <path
         style="fill:#000001;fill-opacity:1;stroke:none;stroke-width:0.529167;stroke-dasharray:none;stroke-dashoffset:0;stroke-opacity:1"
         d="m 7.9374999,3.9687499 -3.96875,3.96875 h 3.96875 z"
         id="path5320"
         sodipodi:nodetypes="cccc"
         transform="translate(-0.18708879,-0.18708879)"
         inkscape:label="triangle" />
      <circle
         style="display:inline;fill:none;stroke:#000000;stroke-width:0.79375;stroke-dasharray:none;stroke-dashoffset:0;stroke-opacity:1"
         id="circle450"
         cx="2.9652133"
         cy="2.9652114"
         r="3.9687495"
         inkscape:label="1"
         transform="scale(-1)" />
    </g>
    <g
       id="g5328"
       inkscape:label="arrowBR"
       transform="translate(83.530836,83.530833)"
       style="display:inline">
      <path
         style="fill:none;fill-opacity:1;stroke:#000000;stroke-width:0.529167;stroke-dasharray:none;stroke-dashoffset:0;stroke-opacity:1"
         d="M 0,0 6.4274944,6.4274944"
         id="path5324"
         sodipodi:nodetypes="cc"
         inkscape:label="straight" />
      <path
         style="fill:#000001;fill-opacity:1;stroke:none;stroke-width:0.529167;stroke-dasharray:none;stroke-dashoffset:0;stroke-opacity:1"
         d="m 7.9374999,3.9687499 -3.96875,3.96875 h 3.96875 z"
         id="path5326"
         sodipodi:nodetypes="cccc"
         transform="translate(-0.18708879,-0.18708879)"
         inkscape:label="triangle" />
      <circle
         style="display:inline;fill:none;stroke:#000000;stroke-width:0.79375;stroke-dasharray:none;stroke-dashoffset:0;stroke-opacity:1"
         id="circle670"
         cx="-2.9652171"
         cy="-2.9652138"
         r="3.9687495"
         inkscape:label="1" />
    </g>
    <g
       id="g5334"
       inkscape:label="arrowBL"
       transform="rotate(90,-22.67667,60.854163)"
       style="display:inline">
      <path
         style="fill:none;fill-opacity:1;stroke:#000000;stroke-width:0.529167;stroke-dasharray:none;stroke-dashoffset:0;stroke-opacity:1"
         d="M 0,0 6.4274944,6.4274944"
         id="path5330"
         sodipodi:nodetypes="cc"
         inkscape:label="straight" />
      <path
         style="fill:#000001;fill-opacity:1;stroke:none;stroke-width:0.529167;stroke-dasharray:none;stroke-dashoffset:0;stroke-opacity:1"
         d="m 7.9374999,3.9687499 -3.96875,3.96875 h 3.96875 z"
         id="path5332"
         sodipodi:nodetypes="cccc"
         transform="translate(-0.18708879,-0.18708879)"
         inkscape:label="triangle" />
      <circle
         style="display:inline;fill:none;stroke:#000000;stroke-width:0.79375;stroke-dasharray:none;stroke-dashoffset:0;stroke-opacity:1"
         id="circle1002"
         cx="2.9652123"
         cy="-2.9652138"
         r="3.9687495"
         inkscape:label="1"
         transform="rotate(-90)" />
    </g>
    <g
       id="g5429"
       inkscape:label="arrowU"
       transform="rotate(45,-49.644161,69.206338)"
       style="display:inline">
      <path
         style="fill:none;fill-opacity:1;stroke:#000000;stroke-width:0.529167;stroke-dasharray:none;stroke-dashoffset:0;stroke-opacity:1"
         d="M 0,0 6.4274944,6.4274944"
         id="path5425"
         sodipodi:nodetypes="cc"
         inkscape:label="straight" />
      <path
         style="fill:#000001;fill-opacity:1;stroke:none;stroke-width:0.529167;stroke-dasharray:none;stroke-dashoffset:0;stroke-opacity:1"
         d="m 7.9374999,3.9687499 -3.96875,3.96875 h 3.96875 z"
         id="path5427"
         sodipodi:nodetypes="cccc"
         transform="translate(-0.18708879,-0.18708879)"
         inkscape:label="triangle" />
      <circle
         style="display:inline;fill:none;stroke:#000000;stroke-width:0.79375;stroke-dasharray:none;stroke-dashoffset:0;stroke-opacity:1"
         id="path383"
         cx="34.395832"
         cy="51.008167"
         r="3.9687495"
         inkscape:label="1"
         transform="rotate(-45,-49.644161,69.206338)" />
    </g>
    <g
       id="g5435"
       inkscape:label="arrowD"
       transform="rotate(-135,79.313382,68.000923)"
       style="display:inline">
      <path
         style="fill:none;fill-opacity:1;stroke:#000000;stroke-width:0.529167;stroke-dasharray:none;stroke-dashoffset:0;stroke-opacity:1"
         d="M 0,0 6.4274944,6.4274944"
         id="path5431"
         sodipodi:nodetypes="cc"
         inkscape:label="straight" />
      <path
         style="fill:#000001;fill-opacity:1;stroke:none;stroke-width:0.529167;stroke-dasharray:none;stroke-dashoffset:0;stroke-opacity:1"
         d="m 7.9374999,3.9687499 -3.96875,3.96875 h 3.96875 z"
         id="path5433"
         sodipodi:nodetypes="cccc"
         transform="translate(-0.18708879,-0.18708879)"
         inkscape:label="triangle" />
      <circle
         style="display:inline;fill:none;stroke:#000000;stroke-width:0.79375;stroke-dasharray:none;stroke-dashoffset:0;stroke-opacity:1"
         id="circle939"
         cx="87.3125"
         cy="176.53349"
         r="3.9687495"
         inkscape:label="1"
         transform="rotate(135,79.313382,68.000923)" />
    </g>
    <g
       id="g5441"
       inkscape:label="arrowU"
       transform="rotate(45,-23.18583,133.0824)"
       style="display:inline">
      <path
         style="fill:none;fill-opacity:1;stroke:#000000;stroke-width:0.529167;stroke-dasharray:none;stroke-dashoffset:0;stroke-opacity:1"
         d="M 0,0 6.4274944,6.4274944"
         id="path5437"
         sodipodi:nodetypes="cc"
         inkscape:label="straight" />
      <path
         style="fill:#000001;fill-opacity:1;stroke:none;stroke-width:0.529167;stroke-dasharray:none;stroke-dashoffset:0;stroke-opacity:1"
         d="m 7.9374999,3.9687499 -3.96875,3.96875 h 3.96875 z"
         id="path5439"
         sodipodi:nodetypes="cccc"
         transform="translate(-0.18708879,-0.18708879)"
         inkscape:label="triangle" />
      <circle
         style="display:inline;fill:none;stroke:#000000;stroke-width:0.79375;stroke-dasharray:none;stroke-dashoffset:0;stroke-opacity:1"
         id="circle996"
         cx="87.312492"
         cy="51.008167"
         r="3.9687495"
         inkscape:label="1"
         transform="rotate(-45,-23.185831,133.0824)" />
    </g>
    <g
       id="g5447"
       inkscape:label="arrowD"
       transform="rotate(-135,52.855049,78.960324)"
       style="display:inline">
      <path
         style="fill:none;fill-opacity:1;stroke:#000000;stroke-width:0.529167;stroke-dasharray:none;stroke-dashoffset:0;stroke-opacity:1"
         d="M 0,0 6.4274944,6.4274944"
         id="path5443"
         sodipodi:nodetypes="cc"
         inkscape:label="straight" />
      <path
         style="fill:#000001;fill-opacity:1;stroke:none;stroke-width:0.529167;stroke-dasharray:none;stroke-dashoffset:0;stroke-opacity:1"
         d="m 7.9374999,3.9687499 -3.96875,3.96875 h 3.96875 z"
         id="path5445"
         sodipodi:nodetypes="cccc"
         transform="translate(-0.18708879,-0.18708879)"
         inkscape:label="triangle" />
      <circle
         style="display:inline;fill:none;stroke:#000000;stroke-width:0.79375;stroke-dasharray:none;stroke-dashoffset:0;stroke-opacity:1"
         id="circle999"
         cx="34.395832"
         cy="176.53349"
         r="3.9687495"
         inkscape:label="1"
         transform="rotate(135,52.855049,78.960324)" />
    </g>
    <g
       aria-label="https://jeli.com.my/pages/download.php"
       id="text393"
       style="font-size:3.96875px;font-family:Roboto;-inkscape-font-specification:Roboto;text-align:end;text-anchor:end;fill:#000002;stroke-width:0.264583;stroke-linejoin:round"
       inkscape:label="url">
      <path
         d="M 8.2960052,2.2620049 V 5.2385674 H 7.9375 V 2.2620049 Z M 8.2107391,4.1107292 8.0615234,4.1049156 Q 8.0634613,3.8898125 8.125473,3.707653 8.1874847,3.5235558 8.299881,3.3879051 8.4122772,3.2522545 8.5673065,3.1786156 q 0.1569672,-0.075577 0.3468781,-0.075577 0.1550293,0 0.2790527,0.042633 0.1240234,0.040695 0.2112274,0.1317749 0.089142,0.09108 0.1356507,0.2364197 0.046509,0.1434021 0.046509,0.3507538 V 5.2385674 H 9.226181 V 3.8607445 q 0,-0.1647187 -0.048447,-0.2635498 -0.048447,-0.1007691 -0.1414643,-0.14534 -0.093018,-0.046509 -0.2286682,-0.046509 -0.1337127,0 -0.2441711,0.056198 -0.1085205,0.056198 -0.187973,0.1550293 -0.077515,0.098831 -0.1220856,0.2267304 -0.042633,0.1259613 -0.042633,0.2674255 z"
         id="path1114" />
      <path
         d="m 11.001266,3.1417961 v 0.275177 H 9.8676147 V 3.1417961 Z M 10.251312,2.6321373 h 0.358506 v 2.0870819 q 0,0.1065826 0.03294,0.1608429 0.03294,0.05426 0.08527,0.071701 0.05232,0.017441 0.112397,0.017441 0.04457,0 0.09302,-0.00775 0.05039,-0.00969 0.07558,-0.015503 l 0.0019,0.2926178 q -0.04263,0.013565 -0.112396,0.025192 -0.06783,0.013565 -0.164719,0.013565 -0.131775,0 -0.242233,-0.052322 -0.110459,-0.052322 -0.176346,-0.174408 -0.06395,-0.1240234 -0.06395,-0.333313 z"
         id="path1116" />
      <path
         d="m 12.299637,3.1417961 v 0.275177 H 11.165985 V 3.1417961 Z M 11.549683,2.6321373 h 0.358505 v 2.0870819 q 0,0.1065826 0.03294,0.1608429 0.03294,0.05426 0.08527,0.071701 0.05232,0.017441 0.112396,0.017441 0.04457,0 0.09302,-0.00775 0.05038,-0.00969 0.07558,-0.015503 l 0.0019,0.2926178 q -0.04263,0.013565 -0.112396,0.025192 -0.06783,0.013565 -0.164719,0.013565 -0.131775,0 -0.242233,-0.052322 -0.110458,-0.052322 -0.176346,-0.174408 -0.06395,-0.1240234 -0.06395,-0.333313 z"
         id="path1118" />
      <path
         d="M 13.078659,3.5448723 V 6.0447197 H 12.718216 V 3.1417961 h 0.329437 z m 1.412705,0.6278686 v 0.040695 q 0,0.2286682 -0.05426,0.4243927 -0.05426,0.1937866 -0.158905,0.3371887 -0.102707,0.1434021 -0.25386,0.2228547 -0.151154,0.079453 -0.346878,0.079453 -0.199601,0 -0.352692,-0.065888 Q 13.171677,5.1455498 13.065094,5.0195885 12.958511,4.8936272 12.894562,4.7172813 12.83255,4.5409355 12.809296,4.3200188 v -0.217041 q 0.02325,-0.232544 0.0872,-0.4166413 0.06395,-0.1840973 0.168594,-0.3139343 0.106583,-0.1317749 0.257736,-0.1996002 0.151154,-0.069763 0.348816,-0.069763 0.197662,0 0.350754,0.077515 0.153091,0.075577 0.257736,0.2170411 0.104645,0.1414642 0.156967,0.3391265 0.05426,0.1957245 0.05426,0.4360199 z m -0.360444,0.040695 v -0.040695 q 0,-0.1569671 -0.03294,-0.2945556 -0.03294,-0.1395264 -0.102707,-0.2441712 -0.06783,-0.1065826 -0.174408,-0.1666565 -0.106583,-0.062012 -0.253861,-0.062012 -0.13565,0 -0.236419,0.046509 -0.09883,0.046509 -0.168595,0.1259613 -0.06976,0.077515 -0.114334,0.1782837 -0.04263,0.098831 -0.06395,0.2054138 v 0.5019074 q 0.03876,0.1356506 0.10852,0.2557983 0.06976,0.1182098 0.186035,0.1918488 0.116272,0.071701 0.292618,0.071701 0.14534,0 0.249985,-0.060074 0.106582,-0.062012 0.174408,-0.1685944 0.06976,-0.1065826 0.102707,-0.2441711 0.03294,-0.1395264 0.03294,-0.2964936 z"
         id="path1120" />
      <path
         d="m 16.169556,4.6823997 q 0,-0.077515 -0.03488,-0.143402 -0.03294,-0.067825 -0.137588,-0.1220856 -0.102707,-0.056198 -0.310059,-0.096893 -0.174408,-0.03682 -0.315872,-0.087204 -0.139527,-0.050384 -0.238358,-0.1220856 -0.09689,-0.071701 -0.149215,-0.1685943 -0.05232,-0.096893 -0.05232,-0.2267304 0,-0.1240234 0.05426,-0.2344818 0.0562,-0.1104584 0.156968,-0.1957245 0.102706,-0.085266 0.246109,-0.1337128 0.143402,-0.048447 0.319748,-0.048447 0.251922,0 0.430206,0.089142 0.178283,0.089142 0.273239,0.2383576 0.09496,0.1472778 0.09496,0.3274994 h -0.358505 q 0,-0.087204 -0.05232,-0.1685944 -0.05038,-0.083328 -0.149216,-0.1375885 -0.09689,-0.05426 -0.238357,-0.05426 -0.149216,0 -0.242234,0.046509 -0.09108,0.044571 -0.133713,0.1143341 -0.04069,0.069763 -0.04069,0.1472779 0,0.058136 0.01938,0.1046448 0.02132,0.044571 0.07364,0.083328 0.05232,0.03682 0.147278,0.069763 0.09496,0.032944 0.242233,0.065887 0.257736,0.058136 0.424393,0.1395264 0.166656,0.08139 0.248047,0.1996002 0.08139,0.1182099 0.08139,0.2868042 0,0.1375885 -0.05814,0.2519226 -0.0562,0.1143341 -0.164719,0.1976624 -0.106582,0.08139 -0.255798,0.1278992 -0.147278,0.044571 -0.331375,0.044571 -0.277115,0 -0.468964,-0.098831 Q 15.05722,5.0796623 14.958389,4.9226952 14.859558,4.765728 14.859558,4.59132 h 0.360443 q 0.0078,0.1472779 0.08527,0.2344818 0.07752,0.085266 0.189911,0.1220856 0.112396,0.034882 0.222855,0.034882 0.147278,0 0.246109,-0.038757 0.100769,-0.038757 0.153091,-0.1065827 0.05232,-0.067825 0.05232,-0.1550293 z"
         id="path1122" />
      <path
         d="m 16.981522,5.0486565 q 0,-0.09108 0.0562,-0.1530915 0.05814,-0.06395 0.166656,-0.06395 0.108521,0 0.164719,0.06395 0.05814,0.062012 0.05814,0.1530915 0,0.089142 -0.05814,0.1511535 -0.0562,0.062012 -0.164719,0.062012 -0.10852,0 -0.166656,-0.062012 -0.0562,-0.062012 -0.0562,-0.1511535 z m 0.0019,-1.7111359 q 0,-0.09108 0.0562,-0.1530914 0.05814,-0.06395 0.166656,-0.06395 0.108521,0 0.164719,0.06395 0.05814,0.062012 0.05814,0.1530914 0,0.089142 -0.05814,0.1511536 -0.0562,0.062012 -0.164719,0.062012 -0.10852,0 -0.166656,-0.062012 -0.0562,-0.062012 -0.0562,-0.1511536 z"
         id="path1124" />
      <path
         d="M 19.206192,2.4170341 18.029907,5.4808006 H 17.721786 L 18.900009,2.4170341 Z"
         id="path1126" />
      <path
         d="M 20.409607,2.4170341 19.233322,5.4808006 H 18.925201 L 20.103424,2.4170341 Z"
         id="path1129" />
      <path
         d="m 20.808807,3.1417961 h 0.360443 v 2.346756 q 0,0.1918487 -0.06201,0.3255615 -0.06007,0.1337128 -0.18216,0.2015381 -0.120147,0.069763 -0.304245,0.069763 -0.04845,0 -0.112396,-0.00969 -0.06589,-0.00969 -0.110458,-0.023254 l 0.0019,-0.2887421 q 0.03682,0.00775 0.08333,0.011627 0.04651,0.00581 0.08139,0.00581 0.07945,0 0.133713,-0.029068 0.05426,-0.029068 0.08139,-0.093018 0.02907,-0.06395 0.02907,-0.1705322 z m -0.03682,-0.5561676 q 0,-0.087204 0.05426,-0.1472778 0.05426,-0.060074 0.156967,-0.060074 0.104645,0 0.158905,0.060074 0.05426,0.060074 0.05426,0.1472778 0,0.083328 -0.05426,0.1434021 -0.05426,0.058136 -0.158905,0.058136 -0.102707,0 -0.156967,-0.058136 -0.05426,-0.060074 -0.05426,-0.1434021 z"
         id="path1131" />
      <path
         d="m 22.618774,5.2773247 q -0.218978,0 -0.397262,-0.073639 Q 22.045166,5.128109 21.917267,4.9924583 21.791306,4.8568077 21.72348,4.6707726 21.655655,4.4847374 21.655655,4.2638206 v -0.08139 q 0,-0.2557984 0.07558,-0.4553986 0.07558,-0.2015381 0.205414,-0.3410644 0.129837,-0.1395264 0.294555,-0.2112275 0.164719,-0.071701 0.341065,-0.071701 0.224792,0 0.387573,0.077515 0.164718,0.077515 0.269363,0.2170411 0.104645,0.1375885 0.15503,0.3255615 0.05038,0.1860351 0.05038,0.4069519 V 4.2909508 H 21.86882 V 3.998333 h 1.207291 v -0.02713 q -0.0078,-0.1395264 -0.05814,-0.2713013 -0.04845,-0.1317749 -0.155029,-0.217041 -0.106583,-0.085266 -0.29068,-0.085266 -0.122086,0 -0.224793,0.052322 -0.102707,0.050385 -0.176346,0.1511536 -0.07364,0.100769 -0.114334,0.246109 -0.04069,0.14534 -0.04069,0.3352509 v 0.08139 q 0,0.1492157 0.04069,0.2809906 0.04263,0.1298371 0.122086,0.2286683 0.08139,0.098831 0.195724,0.1550293 0.116272,0.056198 0.26355,0.056198 0.189911,0 0.321686,-0.077515 0.131775,-0.077515 0.230606,-0.2073517 l 0.217041,0.1724701 q -0.06782,0.1027069 -0.17247,0.1957245 -0.104645,0.093018 -0.257736,0.1511536 -0.151154,0.058136 -0.358506,0.058136 z"
         id="path1133" />
      <path
         d="M 24.242706,2.2620049 V 5.2385674 H 23.882263 V 2.2620049 Z"
         id="path1135" />
      <path
         d="M 25.207764,3.1417961 V 5.2385674 H 24.847321 V 3.1417961 Z M 24.82019,2.5856285 q 0,-0.087204 0.05232,-0.1472778 0.05426,-0.060074 0.158905,-0.060074 0.102707,0 0.156967,0.060074 0.0562,0.060074 0.0562,0.1472778 0,0.083328 -0.0562,0.1434021 -0.05426,0.058136 -0.156967,0.058136 -0.104645,0 -0.158905,-0.058136 -0.05232,-0.060074 -0.05232,-0.1434021 z"
         id="path1137" />
      <path
         d="m 25.789124,5.0486565 q 0,-0.09108 0.0562,-0.1530915 0.05814,-0.06395 0.166656,-0.06395 0.108521,0 0.164719,0.06395 0.05814,0.062012 0.05814,0.1530915 0,0.089142 -0.05814,0.1511535 -0.0562,0.062012 -0.164719,0.062012 -0.10852,0 -0.166656,-0.062012 -0.0562,-0.062012 -0.0562,-0.1511535 z"
         id="path1139" />
      <path
         d="m 27.668854,4.982769 q 0.127899,0 0.236419,-0.052322 0.108521,-0.052322 0.178284,-0.1434021 0.06976,-0.093018 0.07945,-0.2112274 h 0.341064 q -0.0097,0.1860352 -0.125961,0.3468781 -0.114334,0.158905 -0.300369,0.2577362 -0.186036,0.096893 -0.40889,0.096893 -0.23642,0 -0.412766,-0.083328 -0.174408,-0.083328 -0.29068,-0.2286682 -0.114334,-0.1453399 -0.17247,-0.333313 -0.0562,-0.1899109 -0.0562,-0.4011383 v -0.08139 q 0,-0.2112274 0.0562,-0.3992004 0.05814,-0.1899109 0.17247,-0.3352509 0.116272,-0.1453399 0.29068,-0.2286682 0.176346,-0.083328 0.412766,-0.083328 0.246109,0 0.430206,0.100769 0.184097,0.098831 0.288742,0.2713013 0.106583,0.1705322 0.116272,0.3875732 H 28.16301 q -0.0097,-0.129837 -0.07364,-0.2344818 -0.06201,-0.1046447 -0.170532,-0.1666565 -0.106583,-0.06395 -0.249985,-0.06395 -0.164719,0 -0.277115,0.065887 -0.110458,0.06395 -0.176346,0.174408 -0.06395,0.1085205 -0.09302,0.2422332 -0.02713,0.1317749 -0.02713,0.2693634 v 0.08139 q 0,0.1375885 0.02713,0.2713013 0.02713,0.1337128 0.09108,0.2422333 0.06589,0.1085205 0.176346,0.1744079 0.112396,0.06395 0.279053,0.06395 z"
         id="path1141" />
      <path
         d="m 28.812195,4.2134361 v -0.044571 q 0,-0.2267303 0.06589,-0.420517 0.06589,-0.1957245 0.189911,-0.3391266 0.124024,-0.1453399 0.300369,-0.2247924 0.176346,-0.08139 0.395325,-0.08139 0.220917,0 0.397263,0.08139 0.178283,0.079453 0.302307,0.2247924 0.125961,0.1434021 0.191849,0.3391266 0.06589,0.1937867 0.06589,0.420517 v 0.044571 q 0,0.2267304 -0.06589,0.420517 -0.06589,0.1937866 -0.191849,0.3391266 -0.124024,0.1434021 -0.300369,0.2247925 -0.174408,0.079453 -0.395325,0.079453 -0.220917,0 -0.397263,-0.079453 -0.176346,-0.08139 -0.302307,-0.2247925 -0.124023,-0.14534 -0.189911,-0.3391266 -0.06589,-0.1937866 -0.06589,-0.420517 z M 29.1707,4.1688652 v 0.044571 q 0,0.1569672 0.03682,0.2964936 0.03682,0.1375885 0.110458,0.2441711 0.07558,0.1065826 0.187973,0.1685944 0.112396,0.060074 0.261612,0.060074 0.147278,0 0.257736,-0.060074 0.112396,-0.062012 0.186035,-0.1685944 0.07364,-0.1065826 0.110459,-0.2441711 0.03876,-0.1395264 0.03876,-0.2964936 v -0.044571 q 0,-0.1550293 -0.03876,-0.2926178 -0.03682,-0.1395264 -0.112397,-0.246109 -0.07364,-0.1085205 -0.186035,-0.1705322 -0.110458,-0.062012 -0.259674,-0.062012 -0.147278,0 -0.259674,0.062012 -0.110458,0.062012 -0.186035,0.1705322 -0.07364,0.1065826 -0.110458,0.246109 -0.03682,0.1375885 -0.03682,0.2926178 z"
         id="path1143" />
      <path
         d="M 31.527145,3.5584373 V 5.2385674 H 31.166702 V 3.1417961 h 0.341065 z m -0.07364,0.5522919 -0.166656,-0.00581 q 0.0019,-0.2151031 0.0562,-0.3972626 0.05426,-0.1840972 0.160843,-0.3197479 0.106583,-0.1356506 0.265488,-0.2092895 0.158905,-0.075577 0.368194,-0.075577 0.147278,0 0.271302,0.042633 0.124023,0.040695 0.215103,0.1298371 0.09108,0.089142 0.141464,0.2286682 0.05038,0.1395264 0.05038,0.3371887 V 5.2385674 H 32.457321 V 3.8588066 q 0,-0.1647186 -0.0562,-0.2635498 -0.05426,-0.098831 -0.155029,-0.1434021 -0.100769,-0.046509 -0.23642,-0.046509 -0.158905,0 -0.265488,0.056198 -0.106582,0.056198 -0.170532,0.1550293 -0.06395,0.098831 -0.09302,0.2267304 -0.02713,0.1259613 -0.02713,0.2674255 z m 1.358445,-0.1976623 -0.240296,0.073639 q 0.0019,-0.1724701 0.0562,-0.3313751 0.0562,-0.1589051 0.160843,-0.2829285 0.106583,-0.1240234 0.261612,-0.1957245 0.15503,-0.073639 0.35463,-0.073639 0.168594,0 0.298431,0.044571 0.131775,0.044571 0.220917,0.1375885 0.09108,0.09108 0.137588,0.2344818 0.04651,0.1434021 0.04651,0.3410645 V 5.2385674 H 33.74794 V 3.8568687 q 0,-0.1763458 -0.0562,-0.2732391 -0.05426,-0.098831 -0.155029,-0.1375885 -0.09883,-0.040695 -0.23642,-0.040695 -0.11821,0 -0.20929,0.040695 -0.09108,0.040695 -0.153091,0.1123962 -0.06201,0.069763 -0.09495,0.1608429 -0.03101,0.09108 -0.03101,0.1937867 z"
         id="path1145" />
      <path
         d="m 34.656799,5.0486565 q 0,-0.09108 0.0562,-0.1530915 0.05814,-0.06395 0.166657,-0.06395 0.10852,0 0.164719,0.06395 0.05814,0.062012 0.05814,0.1530915 0,0.089142 -0.05814,0.1511535 -0.0562,0.062012 -0.164719,0.062012 -0.108521,0 -0.166657,-0.062012 -0.0562,-0.062012 -0.0562,-0.1511535 z"
         id="path1147" />
      <path
         d="M 36.054001,3.5584373 V 5.2385674 H 35.693558 V 3.1417961 h 0.341064 z m -0.07364,0.5522919 -0.166657,-0.00581 q 0.0019,-0.2151031 0.0562,-0.3972626 0.05426,-0.1840972 0.160842,-0.3197479 0.106583,-0.1356506 0.265488,-0.2092895 0.158905,-0.075577 0.368195,-0.075577 0.147278,0 0.271301,0.042633 0.124023,0.040695 0.215103,0.1298371 0.09108,0.089142 0.141464,0.2286682 0.05039,0.1395264 0.05039,0.3371887 V 5.2385674 H 36.984177 V 3.8588066 q 0,-0.1647186 -0.0562,-0.2635498 -0.05426,-0.098831 -0.15503,-0.1434021 -0.100769,-0.046509 -0.236419,-0.046509 -0.158905,0 -0.265488,0.056198 -0.106583,0.056198 -0.170532,0.1550293 -0.06395,0.098831 -0.09302,0.2267304 -0.02713,0.1259613 -0.02713,0.2674255 z m 1.358444,-0.1976623 -0.240295,0.073639 q 0.0019,-0.1724701 0.0562,-0.3313751 0.0562,-0.1589051 0.160843,-0.2829285 0.106582,-0.1240234 0.261612,-0.1957245 0.155029,-0.073639 0.354629,-0.073639 0.168595,0 0.298432,0.044571 0.131775,0.044571 0.220916,0.1375885 0.09108,0.09108 0.137589,0.2344818 0.04651,0.1434021 0.04651,0.3410645 V 5.2385674 H 38.274796 V 3.8568687 q 0,-0.1763458 -0.0562,-0.2732391 -0.05426,-0.098831 -0.155029,-0.1375885 -0.09883,-0.040695 -0.23642,-0.040695 -0.118209,0 -0.209289,0.040695 -0.09108,0.040695 -0.153092,0.1123962 -0.06201,0.069763 -0.09495,0.1608429 -0.03101,0.09108 -0.03101,0.1937867 z"
         id="path1149" />
      <path
         d="M 39.766953,5.0215263 40.35025,3.1417961 h 0.383698 L 39.892914,5.562191 q -0.02907,0.077515 -0.07751,0.1666565 -0.04651,0.09108 -0.120148,0.1724701 -0.07364,0.08139 -0.178283,0.1317749 -0.102707,0.052322 -0.246109,0.052322 -0.04263,0 -0.108521,-0.011627 -0.06589,-0.011627 -0.09302,-0.019379 l -0.0019,-0.2906799 q 0.0155,0.00194 0.04845,0.00388 0.03488,0.00388 0.04845,0.00388 0.122086,0 0.207352,-0.032944 0.08527,-0.031006 0.143402,-0.1065826 0.06007,-0.073639 0.102707,-0.203476 z m -0.428269,-1.8797302 0.54454,1.6278076 0.09302,0.3778839 -0.257736,0.1317749 -0.771271,-2.1374664 z"
         id="path1151" />
      <path
         d="M 42.303619,2.4170341 41.127335,5.4808006 H 40.819214 L 41.997437,2.4170341 Z"
         id="path1153" />
      <path
         d="M 43.051636,3.5448723 V 6.0447197 H 42.691193 V 3.1417961 h 0.329437 z m 1.412704,0.6278686 v 0.040695 q 0,0.2286682 -0.05426,0.4243927 -0.05426,0.1937866 -0.158905,0.3371887 -0.102707,0.1434021 -0.253861,0.2228547 -0.151153,0.079453 -0.346878,0.079453 -0.1996,0 -0.352691,-0.065888 Q 43.144653,5.1455498 43.038071,5.0195885 42.931488,4.8936272 42.867538,4.7172813 42.805527,4.5409355 42.782272,4.3200188 v -0.217041 q 0.02325,-0.232544 0.0872,-0.4166413 0.06395,-0.1840973 0.168595,-0.3139343 0.106582,-0.1317749 0.257736,-0.1996002 0.151153,-0.069763 0.348816,-0.069763 0.197662,0 0.350754,0.077515 0.153091,0.075577 0.257736,0.2170411 0.104645,0.1414642 0.156967,0.3391265 0.05426,0.1957245 0.05426,0.4360199 z m -0.360443,0.040695 v -0.040695 q 0,-0.1569671 -0.03294,-0.2945556 -0.03294,-0.1395264 -0.102707,-0.2441712 -0.06782,-0.1065826 -0.174407,-0.1666565 -0.106583,-0.062012 -0.253861,-0.062012 -0.135651,0 -0.23642,0.046509 -0.09883,0.046509 -0.168594,0.1259613 -0.06976,0.077515 -0.114334,0.1782837 -0.04263,0.098831 -0.06395,0.2054138 v 0.5019074 q 0.03876,0.1356506 0.108521,0.2557983 0.06976,0.1182098 0.186035,0.1918488 0.116272,0.071701 0.292618,0.071701 0.14534,0 0.249985,-0.060074 0.106582,-0.062012 0.174407,-0.1685944 0.06976,-0.1065826 0.102707,-0.2441711 0.03294,-0.1395264 0.03294,-0.2964936 z"
         id="path1155" />
      <path
         d="M 46.158035,4.8800621 V 3.8006706 q 0,-0.1240234 -0.05038,-0.2151031 -0.04845,-0.093018 -0.147278,-0.1434021 -0.09883,-0.050384 -0.244171,-0.050384 -0.135651,0 -0.238358,0.046509 -0.100769,0.046509 -0.158905,0.1220856 -0.0562,0.075577 -0.0562,0.1627808 h -0.358505 q 0,-0.1123963 0.05814,-0.2228546 0.05814,-0.1104584 0.166656,-0.1996003 0.110459,-0.09108 0.26355,-0.1434021 0.155029,-0.05426 0.34494,-0.05426 0.228669,0 0.403076,0.077515 0.176346,0.077515 0.275177,0.2344818 0.10077,0.1550293 0.10077,0.3895112 v 0.9766845 q 0,0.1046448 0.01744,0.2228546 0.01938,0.1182099 0.0562,0.203476 v 0.031006 h -0.374008 q -0.02713,-0.062012 -0.04263,-0.1647187 -0.0155,-0.1046448 -0.0155,-0.1937866 z m 0.06201,-0.912735 0.0039,0.2519226 h -0.362381 q -0.153092,0 -0.273239,0.025192 -0.120148,0.023254 -0.201538,0.071701 -0.08139,0.048447 -0.124024,0.1220856 -0.04263,0.071701 -0.04263,0.1685944 0,0.098831 0.04457,0.1802215 0.04457,0.08139 0.133713,0.1298371 0.09108,0.046509 0.222854,0.046509 0.164719,0 0.29068,-0.069763 0.125962,-0.069763 0.1996,-0.1705323 0.07558,-0.100769 0.08139,-0.1957244 l 0.153091,0.17247 q -0.01356,0.08139 -0.07364,0.1802216 -0.06007,0.098831 -0.160843,0.1899109 -0.09883,0.089142 -0.236419,0.1492157 -0.135651,0.058136 -0.306183,0.058136 -0.213165,0 -0.374008,-0.083328 -0.158905,-0.083328 -0.248047,-0.2228546 -0.0872,-0.1414642 -0.0872,-0.3158722 0,-0.1685943 0.06589,-0.2964935 0.06589,-0.129837 0.189911,-0.2151032 0.124024,-0.087204 0.298432,-0.1317749 0.174408,-0.044571 0.389511,-0.044571 z"
         id="path1157" />
      <path
         d="m 48.438904,3.1417961 h 0.325561 v 2.0522003 q 0,0.2771149 -0.112396,0.4728394 -0.112396,0.1957245 -0.313934,0.2964935 -0.1996,0.1027069 -0.461212,0.1027069 -0.108521,0 -0.255799,-0.034882 Q 47.475784,5.9982109 47.33432,5.9168205 47.194794,5.837368 47.099838,5.7017174 l 0.187973,-0.2131653 q 0.131775,0.158905 0.275177,0.2209167 0.14534,0.062012 0.286804,0.062012 0.170533,0 0.294556,-0.06395 0.124024,-0.06395 0.191849,-0.1899109 0.06976,-0.1240235 0.06976,-0.3061829 V 3.6030083 Z m -1.443711,1.07164 v -0.040695 q 0,-0.2402954 0.0562,-0.4360199 0.05814,-0.1976623 0.164718,-0.3391265 0.108521,-0.1414643 0.261612,-0.2170411 0.153092,-0.077515 0.34494,-0.077515 0.197663,0 0.344941,0.069763 0.149215,0.067825 0.251922,0.1996002 0.104645,0.129837 0.164719,0.3139343 0.06007,0.1840973 0.08333,0.4166413 v 0.1782836 q -0.02132,0.2306061 -0.08333,0.4147034 -0.06007,0.1840973 -0.164719,0.3139343 -0.102707,0.1298371 -0.251922,0.1996003 -0.149216,0.067825 -0.348816,0.067825 -0.187973,0 -0.341065,-0.079453 -0.151153,-0.079453 -0.259674,-0.2228547 -0.10852,-0.1434021 -0.166656,-0.3371887 -0.0562,-0.1957245 -0.0562,-0.4243927 z m 0.358506,-0.040695 v 0.040695 q 0,0.1569672 0.03101,0.2945557 0.03294,0.1375885 0.09883,0.2422333 0.06782,0.1046447 0.17247,0.1647186 0.104645,0.058136 0.249985,0.058136 0.178283,0 0.294555,-0.075577 0.116272,-0.075577 0.184098,-0.1996002 0.06976,-0.1240235 0.10852,-0.2693634 V 3.9615135 q -0.02132,-0.1065826 -0.06589,-0.2054138 -0.04263,-0.100769 -0.112397,-0.1782837 -0.06782,-0.079452 -0.168594,-0.1259613 -0.100769,-0.046509 -0.23642,-0.046509 -0.147277,0 -0.25386,0.062012 -0.104645,0.060074 -0.17247,0.1666565 -0.06589,0.1046448 -0.09883,0.2441712 -0.03101,0.1375885 -0.03101,0.2945556 z"
         id="path1159" />
      <path
         d="m 50.179108,5.2773247 q -0.218979,0 -0.397263,-0.073639 Q 49.605499,5.128109 49.4776,4.9924583 49.351639,4.8568077 49.283813,4.6707726 49.215988,4.4847374 49.215988,4.2638206 v -0.08139 q 0,-0.2557984 0.07558,-0.4553986 0.07558,-0.2015381 0.205414,-0.3410644 0.129837,-0.1395264 0.294555,-0.2112275 0.164719,-0.071701 0.341065,-0.071701 0.224792,0 0.387573,0.077515 0.164719,0.077515 0.269364,0.2170411 0.104644,0.1375885 0.155029,0.3255615 0.05038,0.1860351 0.05038,0.4069519 V 4.2909508 H 49.429153 V 3.998333 h 1.207291 v -0.02713 q -0.0078,-0.1395264 -0.05814,-0.2713013 -0.04845,-0.1317749 -0.155029,-0.217041 -0.106583,-0.085266 -0.29068,-0.085266 -0.122086,0 -0.224793,0.052322 -0.102707,0.050385 -0.176345,0.1511536 -0.07364,0.100769 -0.114335,0.246109 -0.04069,0.14534 -0.04069,0.3352509 v 0.08139 q 0,0.1492157 0.04069,0.2809906 0.04263,0.1298371 0.122086,0.2286683 0.08139,0.098831 0.195725,0.1550293 0.116271,0.056198 0.263549,0.056198 0.189911,0 0.321686,-0.077515 0.131775,-0.077515 0.230606,-0.2073517 l 0.217041,0.1724701 q -0.06782,0.1027069 -0.17247,0.1957245 -0.104645,0.093018 -0.257736,0.1511536 -0.151154,0.058136 -0.358505,0.058136 z"
         id="path1161" />
      <path
         d="m 52.634384,4.6823997 q 0,-0.077515 -0.03488,-0.143402 -0.03294,-0.067825 -0.137589,-0.1220856 -0.102707,-0.056198 -0.310059,-0.096893 -0.174407,-0.03682 -0.315872,-0.087204 -0.139526,-0.050384 -0.238357,-0.1220856 -0.09689,-0.071701 -0.149216,-0.1685943 -0.05232,-0.096893 -0.05232,-0.2267304 0,-0.1240234 0.05426,-0.2344818 0.0562,-0.1104584 0.156967,-0.1957245 0.102707,-0.085266 0.246109,-0.1337128 0.143402,-0.048447 0.319748,-0.048447 0.251923,0 0.430206,0.089142 0.178284,0.089142 0.273239,0.2383576 0.09496,0.1472778 0.09496,0.3274994 h -0.358505 q 0,-0.087204 -0.05232,-0.1685944 -0.05038,-0.083328 -0.149215,-0.1375885 -0.09689,-0.05426 -0.238358,-0.05426 -0.149216,0 -0.242233,0.046509 -0.09108,0.044571 -0.133713,0.1143341 -0.04069,0.069763 -0.04069,0.1472779 0,0.058136 0.01938,0.1046448 0.02132,0.044571 0.07364,0.083328 0.05232,0.03682 0.147278,0.069763 0.09496,0.032944 0.242233,0.065887 0.257737,0.058136 0.424393,0.1395264 0.166657,0.08139 0.248047,0.1996002 0.08139,0.1182099 0.08139,0.2868042 0,0.1375885 -0.05814,0.2519226 -0.0562,0.1143341 -0.164718,0.1976624 -0.106583,0.08139 -0.255799,0.1278992 -0.147277,0.044571 -0.331375,0.044571 -0.277115,0 -0.468963,-0.098831 Q 51.522049,5.0796623 51.423218,4.9226952 51.324387,4.765728 51.324387,4.59132 h 0.360443 q 0.0078,0.1472779 0.08527,0.2344818 0.07751,0.085266 0.189911,0.1220856 0.112396,0.034882 0.222854,0.034882 0.147278,0 0.246109,-0.038757 0.100769,-0.038757 0.153092,-0.1065827 0.05232,-0.067825 0.05232,-0.1550293 z"
         id="path1163" />
      <path
         d="M 54.709839,2.4170341 53.533554,5.4808006 H 53.225433 L 54.403656,2.4170341 Z"
         id="path1165" />
      <path
         d="M 56.420975,4.8316154 V 2.2620049 h 0.360443 V 5.2385674 H 56.451981 Z M 55.010208,4.2134361 v -0.040695 q 0,-0.2402954 0.05814,-0.4360199 0.06007,-0.1976623 0.168594,-0.3391265 0.110459,-0.1414643 0.261612,-0.2170411 0.153092,-0.077515 0.341065,-0.077515 0.197662,0 0.34494,0.069763 0.149216,0.067825 0.251923,0.1996002 0.104644,0.129837 0.164718,0.3139343 0.06007,0.1840973 0.08333,0.4166413 v 0.1782836 q -0.02132,0.2306061 -0.08333,0.4147034 -0.06007,0.1840973 -0.164718,0.3139343 -0.102707,0.1298371 -0.251923,0.1996003 -0.149216,0.067825 -0.348816,0.067825 -0.184097,0 -0.337189,-0.079453 -0.151153,-0.079453 -0.261612,-0.2228547 -0.10852,-0.1434021 -0.168594,-0.3371887 -0.05814,-0.1957245 -0.05814,-0.4243927 z m 0.360443,-0.040695 v 0.040695 q 0,0.1569672 0.03101,0.2945557 0.03294,0.1375885 0.100769,0.2422333 0.06782,0.1046447 0.17247,0.1647186 0.104645,0.058136 0.249985,0.058136 0.178284,0 0.292618,-0.075577 0.116272,-0.075577 0.186035,-0.1996002 0.06976,-0.1240235 0.10852,-0.2693634 V 3.9615135 Q 56.4888,3.8549309 56.444229,3.7560997 56.401596,3.6553307 56.331833,3.577816 q -0.06783,-0.079452 -0.168594,-0.1259613 -0.09883,-0.046509 -0.234482,-0.046509 -0.147278,0 -0.253861,0.062012 -0.104645,0.060074 -0.17247,0.1666565 -0.06782,0.1046448 -0.100769,0.2441712 -0.03101,0.1375885 -0.03101,0.2945556 z"
         id="path1168" />
      <path
         d="m 57.24263,4.2134361 v -0.044571 q 0,-0.2267303 0.06589,-0.420517 0.06589,-0.1957245 0.189911,-0.3391266 0.124024,-0.1453399 0.30037,-0.2247924 0.176345,-0.08139 0.395324,-0.08139 0.220917,0 0.397263,0.08139 0.178284,0.079453 0.302307,0.2247924 0.125961,0.1434021 0.191849,0.3391266 0.06589,0.1937867 0.06589,0.420517 v 0.044571 q 0,0.2267304 -0.06589,0.420517 -0.06589,0.1937866 -0.191849,0.3391266 -0.124023,0.1434021 -0.300369,0.2247925 -0.174408,0.079453 -0.395325,0.079453 -0.220917,0 -0.397263,-0.079453 -0.176345,-0.08139 -0.302307,-0.2247925 -0.124023,-0.14534 -0.189911,-0.3391266 -0.06589,-0.1937866 -0.06589,-0.420517 z m 0.358505,-0.044571 v 0.044571 q 0,0.1569672 0.03682,0.2964936 0.03682,0.1375885 0.110458,0.2441711 0.07558,0.1065826 0.187973,0.1685944 0.112396,0.060074 0.261612,0.060074 0.147278,0 0.257736,-0.060074 0.112396,-0.062012 0.186035,-0.1685944 0.07364,-0.1065826 0.110459,-0.2441711 0.03876,-0.1395264 0.03876,-0.2964936 v -0.044571 q 0,-0.1550293 -0.03876,-0.2926178 -0.03682,-0.1395264 -0.112396,-0.246109 -0.07364,-0.1085205 -0.186036,-0.1705322 -0.110458,-0.062012 -0.259674,-0.062012 -0.147278,0 -0.259674,0.062012 -0.110458,0.062012 -0.186035,0.1705322 -0.07364,0.1065826 -0.110458,0.246109 -0.03682,0.1375885 -0.03682,0.2926178 z"
         id="path1170" />
      <path
         d="m 60.131989,4.866497 0.538726,-1.7247009 h 0.23642 l -0.04651,0.3430023 -0.548416,1.753769 h -0.230606 z m -0.362381,-1.7247009 0.459274,1.7440796 0.03294,0.3526917 h -0.242234 l -0.60849,-2.0967713 z m 1.652999,1.7305145 0.437958,-1.7305145 h 0.356568 l -0.60849,2.0967713 h -0.240296 z m -0.46315,-1.7305145 0.5271,1.6956329 0.06007,0.4011384 H 61.317963 L 60.754044,3.4809227 60.707535,3.1417961 Z"
         id="path1172" />
      <path
         d="M 62.941895,3.5894432 V 5.2385674 H 62.583389 V 3.1417961 h 0.339127 z m -0.08527,0.521286 -0.149215,-0.00581 q 0.0019,-0.2151031 0.06395,-0.3972626 0.06201,-0.1840972 0.174408,-0.3197479 0.112397,-0.1356506 0.267426,-0.2092895 0.156967,-0.075577 0.346878,-0.075577 0.155029,0 0.279053,0.042633 0.124023,0.040695 0.211227,0.1317749 0.08914,0.09108 0.135651,0.2364197 0.04651,0.1434021 0.04651,0.3507538 V 5.2385674 H 63.87207 V 3.8607445 q 0,-0.1647187 -0.04845,-0.2635498 -0.04845,-0.1007691 -0.141465,-0.14534 -0.09302,-0.046509 -0.228668,-0.046509 -0.133713,0 -0.244171,0.056198 -0.10852,0.056198 -0.187973,0.1550293 -0.07751,0.098831 -0.122086,0.2267304 -0.04263,0.1259613 -0.04263,0.2674255 z"
         id="path1174" />
      <path
         d="M 65.164627,2.2620049 V 5.2385674 H 64.804184 V 2.2620049 Z"
         id="path1176" />
      <path
         d="m 65.645218,4.2134361 v -0.044571 q 0,-0.2267303 0.06589,-0.420517 0.06589,-0.1957245 0.189911,-0.3391266 0.124024,-0.1453399 0.300369,-0.2247924 0.176346,-0.08139 0.395325,-0.08139 0.220917,0 0.397263,0.08139 0.178283,0.079453 0.302307,0.2247924 0.125961,0.1434021 0.191849,0.3391266 0.06589,0.1937867 0.06589,0.420517 v 0.044571 q 0,0.2267304 -0.06589,0.420517 -0.06589,0.1937866 -0.191849,0.3391266 -0.124024,0.1434021 -0.300369,0.2247925 -0.174408,0.079453 -0.395325,0.079453 -0.220917,0 -0.397263,-0.079453 -0.176345,-0.08139 -0.302307,-0.2247925 -0.124023,-0.14534 -0.189911,-0.3391266 -0.06589,-0.1937866 -0.06589,-0.420517 z m 0.358505,-0.044571 v 0.044571 q 0,0.1569672 0.03682,0.2964936 0.03682,0.1375885 0.110458,0.2441711 0.07558,0.1065826 0.187973,0.1685944 0.112396,0.060074 0.261612,0.060074 0.147278,0 0.257736,-0.060074 0.112396,-0.062012 0.186035,-0.1685944 0.07364,-0.1065826 0.110459,-0.2441711 0.03876,-0.1395264 0.03876,-0.2964936 v -0.044571 q 0,-0.1550293 -0.03876,-0.2926178 -0.03682,-0.1395264 -0.112397,-0.246109 -0.07364,-0.1085205 -0.186035,-0.1705322 -0.110458,-0.062012 -0.259674,-0.062012 -0.147278,0 -0.259674,0.062012 -0.110458,0.062012 -0.186035,0.1705322 -0.07364,0.1065826 -0.110458,0.246109 -0.03682,0.1375885 -0.03682,0.2926178 z"
         id="path1178" />
      <path
         d="M 69.23996,4.8800621 V 3.8006706 q 0,-0.1240234 -0.05038,-0.2151031 -0.04845,-0.093018 -0.147278,-0.1434021 -0.09883,-0.050384 -0.244171,-0.050384 -0.13565,0 -0.238357,0.046509 -0.100769,0.046509 -0.158905,0.1220856 -0.0562,0.075577 -0.0562,0.1627808 H 67.98616 q 0,-0.1123963 0.05814,-0.2228546 0.05814,-0.1104584 0.166657,-0.1996003 0.110458,-0.09108 0.26355,-0.1434021 0.155029,-0.05426 0.34494,-0.05426 0.228668,0 0.403076,0.077515 0.176346,0.077515 0.275177,0.2344818 0.100769,0.1550293 0.100769,0.3895112 v 0.9766845 q 0,0.1046448 0.01744,0.2228546 0.01938,0.1182099 0.0562,0.203476 v 0.031006 h -0.374008 q -0.02713,-0.062012 -0.04263,-0.1647187 -0.0155,-0.1046448 -0.0155,-0.1937866 z m 0.06201,-0.912735 0.0039,0.2519226 h -0.362381 q -0.153091,0 -0.273239,0.025192 -0.120148,0.023254 -0.201538,0.071701 -0.08139,0.048447 -0.124023,0.1220856 -0.04263,0.071701 -0.04263,0.1685944 0,0.098831 0.04457,0.1802215 0.04457,0.08139 0.133713,0.1298371 0.09108,0.046509 0.222855,0.046509 0.164718,0 0.29068,-0.069763 0.125961,-0.069763 0.1996,-0.1705323 0.07558,-0.100769 0.08139,-0.1957244 l 0.153092,0.17247 q -0.01356,0.08139 -0.07364,0.1802216 -0.06007,0.098831 -0.160843,0.1899109 -0.09883,0.089142 -0.23642,0.1492157 -0.13565,0.058136 -0.306183,0.058136 -0.213165,0 -0.374008,-0.083328 -0.158905,-0.083328 -0.248047,-0.2228546 -0.0872,-0.1414642 -0.0872,-0.3158722 0,-0.1685943 0.06589,-0.2964935 0.06589,-0.129837 0.189911,-0.2151032 0.124023,-0.087204 0.298431,-0.1317749 0.174408,-0.044571 0.389511,-0.044571 z"
         id="path1180" />
      <path
         d="M 71.484009,4.8316154 V 2.2620049 h 0.360443 V 5.2385674 H 71.515015 Z M 70.073242,4.2134361 v -0.040695 q 0,-0.2402954 0.05814,-0.4360199 0.06007,-0.1976623 0.168595,-0.3391265 0.110458,-0.1414643 0.261611,-0.2170411 0.153092,-0.077515 0.341065,-0.077515 0.197662,0 0.34494,0.069763 0.149216,0.067825 0.251923,0.1996002 0.104644,0.129837 0.164718,0.3139343 0.06007,0.1840973 0.08333,0.4166413 v 0.1782836 q -0.02132,0.2306061 -0.08333,0.4147034 -0.06007,0.1840973 -0.164718,0.3139343 -0.102707,0.1298371 -0.251923,0.1996003 -0.149216,0.067825 -0.348816,0.067825 -0.184097,0 -0.337189,-0.079453 Q 70.410431,5.1184196 70.299973,4.9750175 70.191452,4.8316154 70.131378,4.6378288 70.073242,4.4421043 70.073242,4.2134361 Z m 0.360443,-0.040695 v 0.040695 q 0,0.1569672 0.03101,0.2945557 0.03294,0.1375885 0.100769,0.2422333 0.06783,0.1046447 0.17247,0.1647186 0.104645,0.058136 0.249985,0.058136 0.178284,0 0.292618,-0.075577 0.116272,-0.075577 0.186035,-0.1996002 0.06976,-0.1240235 0.108521,-0.2693634 V 3.9615135 q -0.02326,-0.1065826 -0.06783,-0.2054138 -0.04263,-0.100769 -0.112396,-0.1782837 -0.06782,-0.079452 -0.168594,-0.1259613 -0.09883,-0.046509 -0.234482,-0.046509 -0.147278,0 -0.253861,0.062012 -0.104644,0.060074 -0.17247,0.1666565 -0.06782,0.1046448 -0.100769,0.2441712 -0.03101,0.1375885 -0.03101,0.2945556 z"
         id="path1182" />
      <path
         d="m 72.406433,5.0486565 q 0,-0.09108 0.0562,-0.1530915 0.05814,-0.06395 0.166657,-0.06395 0.10852,0 0.164718,0.06395 0.05814,0.062012 0.05814,0.1530915 0,0.089142 -0.05814,0.1511535 -0.0562,0.062012 -0.164718,0.062012 -0.108521,0 -0.166657,-0.062012 -0.0562,-0.062012 -0.0562,-0.1511535 z"
         id="path1184" />
      <path
         d="M 73.805573,3.5448723 V 6.0447197 H 73.445129 V 3.1417961 h 0.329438 z m 1.412704,0.6278686 v 0.040695 q 0,0.2286682 -0.05426,0.4243927 -0.05426,0.1937866 -0.158905,0.3371887 -0.102707,0.1434021 -0.253861,0.2228547 -0.151153,0.079453 -0.346878,0.079453 -0.1996,0 -0.352691,-0.065888 Q 73.89859,5.1455498 73.792007,5.0195885 73.685425,4.8936272 73.621475,4.7172813 73.559464,4.5409355 73.536209,4.3200188 v -0.217041 q 0.02326,-0.232544 0.0872,-0.4166413 0.06395,-0.1840973 0.168594,-0.3139343 0.106583,-0.1317749 0.257737,-0.1996002 0.151153,-0.069763 0.348816,-0.069763 0.197662,0 0.350753,0.077515 0.153092,0.075577 0.257737,0.2170411 0.104644,0.1414642 0.156967,0.3391265 0.05426,0.1957245 0.05426,0.4360199 z m -0.360443,0.040695 v -0.040695 q 0,-0.1569671 -0.03294,-0.2945556 -0.03294,-0.1395264 -0.102707,-0.2441712 -0.06782,-0.1065826 -0.174408,-0.1666565 -0.106582,-0.062012 -0.25386,-0.062012 -0.135651,0 -0.23642,0.046509 -0.09883,0.046509 -0.168594,0.1259613 -0.06976,0.077515 -0.114334,0.1782837 -0.04263,0.098831 -0.06395,0.2054138 v 0.5019074 q 0.03876,0.1356506 0.108521,0.2557983 0.06976,0.1182098 0.186035,0.1918488 0.116272,0.071701 0.292618,0.071701 0.145339,0 0.249984,-0.060074 0.106583,-0.062012 0.174408,-0.1685944 0.06976,-0.1065826 0.102707,-0.2441711 0.03294,-0.1395264 0.03294,-0.2964936 z"
         id="path1186" />
      <path
         d="M 76.034119,2.2620049 V 5.2385674 H 75.675613 V 2.2620049 Z m -0.08527,1.8487243 -0.149216,-0.00581 q 0.0019,-0.2151031 0.06395,-0.3972626 0.06201,-0.1840972 0.174408,-0.3197479 0.112397,-0.1356506 0.267426,-0.2092895 0.156967,-0.075577 0.346878,-0.075577 0.155029,0 0.279053,0.042633 0.124023,0.040695 0.211227,0.1317749 0.08914,0.09108 0.135651,0.2364197 0.04651,0.1434021 0.04651,0.3507538 V 5.2385674 H 76.964294 V 3.8607445 q 0,-0.1647187 -0.04845,-0.2635498 -0.04845,-0.1007691 -0.141464,-0.14534 -0.09302,-0.046509 -0.228669,-0.046509 -0.133712,0 -0.244171,0.056198 -0.10852,0.056198 -0.187973,0.1550293 -0.07751,0.098831 -0.122085,0.2267304 -0.04263,0.1259613 -0.04263,0.2674255 z"
         id="path1188" />
      <path
         d="M 78.220032,3.5448723 V 6.0447197 H 77.859589 V 3.1417961 h 0.329437 z m 1.412704,0.6278686 v 0.040695 q 0,0.2286682 -0.05426,0.4243927 -0.05426,0.1937866 -0.158905,0.3371887 -0.102707,0.1434021 -0.253861,0.2228547 -0.151153,0.079453 -0.346878,0.079453 -0.1996,0 -0.352691,-0.065888 Q 78.313049,5.1455498 78.206467,5.0195885 78.099884,4.8936272 78.035934,4.7172813 77.973923,4.5409355 77.950668,4.3200188 v -0.217041 q 0.02326,-0.232544 0.0872,-0.4166413 0.06395,-0.1840973 0.168595,-0.3139343 0.106582,-0.1317749 0.257736,-0.1996002 0.151153,-0.069763 0.348816,-0.069763 0.197662,0 0.350754,0.077515 0.153091,0.075577 0.257736,0.2170411 0.104645,0.1414642 0.156967,0.3391265 0.05426,0.1957245 0.05426,0.4360199 z m -0.360443,0.040695 v -0.040695 q 0,-0.1569671 -0.03294,-0.2945556 -0.03294,-0.1395264 -0.102707,-0.2441712 -0.06782,-0.1065826 -0.174408,-0.1666565 -0.106582,-0.062012 -0.25386,-0.062012 -0.135651,0 -0.23642,0.046509 -0.09883,0.046509 -0.168594,0.1259613 -0.06976,0.077515 -0.114334,0.1782837 -0.04263,0.098831 -0.06395,0.2054138 v 0.5019074 q 0.03876,0.1356506 0.108521,0.2557983 0.06976,0.1182098 0.186035,0.1918488 0.116272,0.071701 0.292618,0.071701 0.14534,0 0.249984,-0.060074 0.106583,-0.062012 0.174408,-0.1685944 0.06976,-0.1065826 0.102707,-0.2441711 0.03294,-0.1395264 0.03294,-0.2964936 z"
         id="path1190" />
    </g>
  </g>
</svg>
