<svg version="1.0" xmlns="http://www.w3.org/2000/svg" class="w-auto h-full group-hover:scale-105 group-hover:animate-rotate group-hover:fill-primary transition-all duration-300 fill-primary" viewBox="0 0 1292.000000 1260.000000" preserveAspectRatio="xMidYMid meet"><g transform="translate(0.000000,1260.000000) scale(0.100000,-0.100000)" stroke="none"><path d="M2200 12574 c-1406 -13 -1352 -10 -1542 -70 -158 -50 -276 -122 -380 -233 -87 -91 -147 -195 -191 -329 -67 -202 -65 -125 -77 -2327 -13 -2425 -13 -3237 0 -3985 13 -752 27 -1148 46 -1345 71 -730 314 -1443 698 -2048 724 -1140 1912 -1918 3279 -2147 265 -44 425 -59 767 -71 437 -14 7079 -6 7175 9 319 52 487 119 630 253 115 109 190 244 241 438 55 211 56 229 64 1416 18 2468 7 5707 -20 6025 -100 1168 -585 2215 -1405 3035 -742 743 -1659 1194 -2683 1319 -212 26 -734 47 -1672 66 -622 13 -3295 10 -4930 -6z m6095 -1693 c187 -14 374 -41 530 -76 1058 -237 1880 -973 2227 -1995 72 -211 125 -453 154 -705 22 -181 34 -1954 26 -3732 l-7 -1493 -190 228 c-2057 2463 -3658 3890 -5535 4933 -203 112 -752 390 -759 384 -4 -4 89 -102 634 -670 633 -659 1066 -1148 1523 -1723 951 -1195 1681 -2381 2247 -3654 206 -461 219 -571 80 -641 -61 -30 -146 -38 -550 -48 -528 -14 -3783 -5 -4005 11 -364 25 -690 94 -1005 211 -144 53 -423 191 -553 273 -693 438 -1165 1131 -1332 1956 -41 202 -59 358 -71 620 -13 266 -28 5552 -17 5675 26 268 159 411 420 450 114 17 5958 13 6183 -4z"></path></g></svg>