<?xml version="1.0" encoding="UTF-8" standalone="no"?>
<svg
   width="512"
   height="512"
   version="1.1"
   viewBox="0 0 135 135"
   id="svg10"
   sodipodi:docname="SCP_Foundation_%28emblem%29.svg"
   inkscape:export-filename="scp.png"
   inkscape:export-xdpi="96"
   inkscape:export-ydpi="96"
   inkscape:version="1.2.2 (b0a8486541, 2022-12-01)"
   xmlns:inkscape="http://www.inkscape.org/namespaces/inkscape"
   xmlns:sodipodi="http://sodipodi.sourceforge.net/DTD/sodipodi-0.dtd"
   xmlns:xlink="http://www.w3.org/1999/xlink"
   xmlns="http://www.w3.org/2000/svg"
   xmlns:svg="http://www.w3.org/2000/svg">
  <defs
     id="defs14" />
  <sodipodi:namedview
     id="namedview12"
     pagecolor="#505050"
     bordercolor="#eeeeee"
     borderopacity="1"
     inkscape:showpageshadow="0"
     inkscape:pageopacity="0"
     inkscape:pagecheckerboard="0"
     inkscape:deskcolor="#505050"
     showgrid="false"
     inkscape:zoom="1.0410156"
     inkscape:cx="158.49906"
     inkscape:cy="256.4803"
     inkscape:window-width="1366"
     inkscape:window-height="715"
     inkscape:window-x="0"
     inkscape:window-y="0"
     inkscape:window-maximized="1"
     inkscape:current-layer="svg10" />
  <circle
     cx="67.7"
     cy="71.5"
     r="33"
     fill="none"
     stroke="#000"
     stroke-width="6"
     id="circle2" />
  <path
     d="m51.9 11.9h31.7l3.07 11.4.944.391c19.4 8.03 32 26.9 32 47.9 0 2.26-.149 4.53-.445 6.77l-.133 1.01 8.37 8.37-15.8 27.4-11.4-3.06-.809.623c-9.06 6.95-20.2 10.7-31.6 10.7-11.4 6e-5-22.5-3.77-31.6-10.7l-.81-.623-11.4 3.06-15.8-27.4 8.37-8.37-.133-1.01c-.296-2.25-.445-4.51-.445-6.77.000141-21 12.6-39.9 32-47.9l.944-.391z"
     fill="none"
     stroke="#000"
     stroke-width="4"
     id="path4" />
  <path
     id="b"
     d="m64.7 30.6v24h-5.08l8.08 14 8.08-14h-5.08l-.000265-24h-5.99" />
  <use
     id="a"
     transform="rotate(120 67.7 71.5)"
     xlink:href="#b" />
  <use
     transform="rotate(120 67.7 71.5)"
     xlink:href="#a"
     id="use8" />
</svg>
