<?xml version="1.0" encoding="UTF-8" standalone="no"?>
<!-- Created with Inkscape (http://www.inkscape.org/) -->

<svg
   id="svg4914"
   version="1.1"
   viewBox="0 0 88.9 50.8"
   height="192"
   width="336"
   xmlns="http://www.w3.org/2000/svg"
   xmlns:svg="http://www.w3.org/2000/svg">
  <defs
     id="defs4911" />
  <g
     id="layer3"
     style="display:inline"
     transform="translate(0,10.599707)">
    <g
       id="g1020"
       transform="translate(0,-10.599707)">
      <rect
         style="display:inline;fill:#00ac9f;fill-opacity:1;stroke:none;stroke-width:1.03118;stroke-linejoin:round;stroke-dasharray:none;stroke-opacity:1"
         id="rect1016"
         width="88.900002"
         height="50.799999"
         x="-7.1054274e-15"
         y="-10.599707"
         transform="translate(0,10.599707)" />
      <path
         style="display:inline;fill:none;fill-opacity:1;stroke:#fffff9;stroke-width:0.264583;stroke-linejoin:round;stroke-dasharray:none;stroke-opacity:1"
         d="M 88.9,25.929167 H 46.06785"
         id="path1215" />
      <path
         style="display:inline;fill:none;fill-opacity:1;stroke:#fffff9;stroke-width:0.264583;stroke-linejoin:round;stroke-dasharray:none;stroke-opacity:1"
         d="M 33.759608,25.929167 H 0"
         id="path1218" />
    </g>
    <g
       id="layer5"
       transform="matrix(1.051082,0,0,1.051082,-2.2528155,-3.2965959)"
       style="display:none">
      <g
         aria-label="darwishzainstd"
         id="text6388"
         style="font-size:2.79326px;font-family:'Comic Neue';-inkscape-font-specification:'Comic Neue';stroke:#000000;stroke-width:0.0692408"
         transform="translate(3.963449e-4,-9.8434102)">
        <path
           d="m 36.439292,41.241428 q -0.409169,0 -0.409169,-0.409169 v -0.681948 q 0,-0.409169 0.409169,-0.409169 h 0.313696 q 0.09275,0 0.13639,0.04228 v -0.533284 l 0.25914,-0.12275 h 0.01364 v 1.70487 q 0,0.409169 -0.409169,0.409169 z m 0,-0.245501 h 0.313696 q 0.13639,0 0.13639,-0.163668 v -0.681948 q 0,-0.163667 -0.13639,-0.163667 h -0.313696 q -0.13639,0 -0.13639,0.163667 v 0.681948 q 0,0.163668 0.13639,0.163668 z"
           style="-inkscape-font-specification:'Nova Square';stroke:none"
           id="path5041" />
        <path
           d="m 37.980495,40.995927 h 0.286418 q 0.13639,0 0.13639,-0.163668 v -0.186853 q 0,-0.163668 -0.13639,-0.163668 h -0.286418 q -0.13639,0 -0.13639,0.163668 v 0.186853 q 0,0.163668 0.13639,0.163668 z m 0,0.245501 q -0.409169,0 -0.409169,-0.409169 v -0.186853 q 0,-0.409169 0.409169,-0.409169 h 0.286418 q 0.07092,0 0.13639,0.04092 v -0.126843 q 0,-0.163667 -0.13639,-0.163667 h -0.488275 v -0.01364 l 0.109112,-0.231863 h 0.379163 q 0.409169,0 0.409169,0.409169 v 1.022923 l -0.25914,0.12275 h -0.01364 v -0.09547 q -0.05183,0.04092 -0.13639,0.04092 z"
           style="-inkscape-font-specification:'Nova Square';stroke:none"
           id="path5043" />
        <path
           d="m 39.085251,41.295984 v -1.145673 q 0,-0.409169 0.409169,-0.409169 h 0.340974 v 0.01364 l -0.109111,0.231863 H 39.49442 q -0.136389,0 -0.136389,0.163667 v 1.022923 l -0.259141,0.12275 z"
           style="-inkscape-font-specification:'Nova Square';stroke:none"
           id="path5045" />
        <path
           d="m 40.476426,41.241428 q -0.409169,0 -0.409169,-0.409169 v -1.022922 l 0.25914,-0.122751 h 0.01364 v 1.145673 q 0,0.163668 0.13639,0.163668 h 0.313696 q 0.13639,0 0.13639,-0.163668 v -1.022922 l 0.25914,-0.122751 h 0.01364 v 1.145673 q 0,0.163668 0.13639,0.163668 h 0.313696 q 0.136389,0 0.136389,-0.163668 v -1.022922 l 0.259141,-0.122751 h 0.01364 v 1.145673 q 0,0.409169 -0.409169,0.409169 h -0.313696 q -0.188218,0 -0.27278,-0.100928 -0.09002,0.100928 -0.272779,0.100928 z"
           style="-inkscape-font-specification:'Nova Square';stroke:none"
           id="path5047" />
        <path
           d="m 42.556368,39.439721 q -0.04774,-0.0491 -0.04774,-0.117295 0,-0.06956 0.04774,-0.118659 0.04774,-0.0491 0.115931,-0.0491 0.06819,0 0.115931,0.0491 0.04774,0.0491 0.04774,0.118659 0,0.0682 -0.04774,0.117295 -0.04774,0.0491 -0.115931,0.0491 -0.0682,0 -0.115931,-0.0491 z m -0.02046,1.856263 v -1.486647 l 0.259141,-0.122751 h 0.01364 v 1.486648 l -0.259141,0.12275 z"
           style="-inkscape-font-specification:'Nova Square';stroke:none"
           id="path5049" />
        <path
           d="m 43.654305,41.241428 q -0.409169,0 -0.409169,-0.409169 v -0.0491 l 0.25914,-0.122751 h 0.01364 v 0.171851 q 0,0.163668 0.13639,0.163668 h 0.313696 q 0.13639,0 0.13639,-0.163668 v -0.107747 q 0,-0.163668 -0.13639,-0.163668 h -0.256413 q -0.409169,0 -0.409169,-0.410533 0,-0.409169 0.409169,-0.409169 h 0.159576 q 0.409169,0 0.409169,0.330063 l -0.25914,0.122751 h -0.01364 v -0.04364 q 0,-0.163667 -0.13639,-0.163667 h -0.159576 q -0.136389,0 -0.136389,0.163667 0,0.165032 0.136389,0.165032 h 0.256413 q 0.409169,0 0.409169,0.409169 v 0.107747 q 0,0.409169 -0.409169,0.409169 z"
           style="-inkscape-font-specification:'Nova Square';stroke:none"
           id="path5051" />
        <path
           d="m 44.813617,41.295984 v -2.045845 l 0.25914,-0.12275 h 0.01364 v 0.656034 q 0.06001,-0.04228 0.13639,-0.04228 h 0.313696 q 0.409169,0 0.409169,0.409169 v 1.022923 l -0.259141,0.12275 h -0.01364 v -1.145673 q 0,-0.163667 -0.136389,-0.163667 h -0.313696 q -0.13639,0 -0.13639,0.163667 v 1.022923 l -0.25914,0.12275 z"
           style="-inkscape-font-specification:'Nova Square';stroke:none"
           id="path5053" />
        <path
           d="m 46.21843,41.241428 v -0.01364 l 0.713318,-1.238418 h -0.699679 v -0.01364 l 0.110476,-0.23459 h 1.02565 v 0.01364 l -0.711954,1.238418 h 0.725593 v 0.01364 l -0.110475,0.23459 z"
           style="-inkscape-font-specification:'Nova Square';stroke:none"
           id="path5055" />
        <path
           d="m 47.995587,40.995927 h 0.286418 q 0.13639,0 0.13639,-0.163668 v -0.186853 q 0,-0.163668 -0.13639,-0.163668 h -0.286418 q -0.13639,0 -0.13639,0.163668 v 0.186853 q 0,0.163668 0.13639,0.163668 z m 0,0.245501 q -0.409169,0 -0.409169,-0.409169 v -0.186853 q 0,-0.409169 0.409169,-0.409169 h 0.286418 q 0.07092,0 0.13639,0.04092 v -0.126843 q 0,-0.163667 -0.13639,-0.163667 H 47.79373 v -0.01364 l 0.109112,-0.231863 h 0.379163 q 0.409169,0 0.409169,0.409169 v 1.022923 l -0.25914,0.12275 h -0.01364 v -0.09547 q -0.05183,0.04092 -0.13639,0.04092 z"
           style="-inkscape-font-specification:'Nova Square';stroke:none"
           id="path5057" />
        <path
           d="m 49.188996,39.439721 q -0.04774,-0.0491 -0.04774,-0.117295 0,-0.06956 0.04774,-0.118659 0.04774,-0.0491 0.115932,-0.0491 0.06819,0 0.115931,0.0491 0.04774,0.0491 0.04774,0.118659 0,0.0682 -0.04774,0.117295 -0.04774,0.0491 -0.115931,0.0491 -0.06819,0 -0.115932,-0.0491 z m -0.02046,1.856263 v -1.486647 l 0.25914,-0.122751 h 0.01364 v 1.486648 l -0.25914,0.12275 z"
           style="-inkscape-font-specification:'Nova Square';stroke:none"
           id="path5059" />
        <path
           d="m 49.918682,41.295984 v -1.145673 q 0,-0.409169 0.409168,-0.409169 h 0.313697 q 0.409169,0 0.409169,0.409169 v 1.022923 l -0.259141,0.12275 h -0.01364 v -1.145673 q 0,-0.163667 -0.136389,-0.163667 H 50.32785 q -0.136389,0 -0.136389,0.163667 v 1.022923 l -0.259141,0.12275 z"
           style="-inkscape-font-specification:'Nova Square';stroke:none"
           id="path5061" />
        <path
           d="m 51.828136,41.241428 q -0.409169,0 -0.409169,-0.409169 v -0.0491 l 0.25914,-0.122751 h 0.01364 v 0.171851 q 0,0.163668 0.13639,0.163668 h 0.313696 q 0.13639,0 0.13639,-0.163668 v -0.107747 q 0,-0.163668 -0.13639,-0.163668 H 51.88542 q -0.409169,0 -0.409169,-0.410533 0,-0.409169 0.409169,-0.409169 h 0.159576 q 0.409169,0 0.409169,0.330063 l -0.259141,0.122751 h -0.01364 v -0.04364 q 0,-0.163667 -0.136389,-0.163667 H 51.88542 q -0.13639,0 -0.13639,0.163667 0,0.165032 0.13639,0.165032 h 0.256412 q 0.409169,0 0.409169,0.409169 v 0.107747 q 0,0.409169 -0.409169,0.409169 z"
           style="-inkscape-font-specification:'Nova Square';stroke:none"
           id="path5063" />
        <path
           d="m 53.099287,41.295984 v -1.306613 h -0.350521 v -0.01364 l 0.110475,-0.23459 h 0.240046 v -0.491003 l 0.25914,-0.12275 h 0.01364 v 0.613753 h 0.350522 v 0.01364 l -0.110476,0.23459 h -0.240046 v 1.183863 l -0.25914,0.12275 z"
           style="-inkscape-font-specification:'Nova Square';stroke:none"
           id="path5065" />
        <path
           d="m 54.370441,41.241428 q -0.409169,0 -0.409169,-0.409169 v -0.681948 q 0,-0.409169 0.409169,-0.409169 h 0.313696 q 0.09275,0 0.136389,0.04228 v -0.533284 l 0.259141,-0.12275 h 0.01364 v 1.70487 q 0,0.409169 -0.409169,0.409169 z m 0,-0.245501 h 0.313696 q 0.136389,0 0.136389,-0.163668 v -0.681948 q 0,-0.163667 -0.136389,-0.163667 h -0.313696 q -0.13639,0 -0.13639,0.163667 v 0.681948 q 0,0.163668 0.13639,0.163668 z"
           style="-inkscape-font-specification:'Nova Square';stroke:none"
           id="path5067" />
        <path
           d="m 34.798299,41.295981 q -0.270946,0 -0.497201,-0.12011 -0.226254,-0.12011 -0.36033,-0.340778 -0.134077,-0.220667 -0.134077,-0.508373 0,-0.287706 0.131284,-0.519547 0.131283,-0.234634 0.363123,-0.365917 0.231841,-0.134076 0.519547,-0.134076 0.25698,0 0.469268,0.122903 0.215081,0.12011 0.337984,0.332398 0.122903,0.212288 0.122903,0.469268 0,0.251393 -0.122903,0.396643 -0.122903,0.142456 -0.329605,0.142456 -0.106144,0 -0.217874,-0.05587 -0.108937,-0.05586 -0.156423,-0.170389 -0.148042,0.189942 -0.321224,0.189942 -0.150837,0 -0.240221,-0.09776 -0.08938,-0.100558 -0.08938,-0.268153 0,-0.139663 0.06145,-0.262567 0.06424,-0.122903 0.173182,-0.198321 0.11173,-0.07542 0.243013,-0.07542 0.131284,0 0.259774,0.07821 0.06424,0.0419 0.06424,0.08659 0,0.03631 -0.02514,0.06145 -0.02514,0.02235 -0.06145,0.02235 -0.02514,0 -0.06145,-0.02514 -0.09776,-0.05587 -0.173182,-0.05587 -0.08659,0 -0.159216,0.05307 -0.06983,0.05028 -0.111731,0.13687 -0.0391,0.0838 -0.0391,0.178769 0,0.09497 0.0419,0.148042 0.0419,0.05028 0.114523,0.05028 0.09776,0 0.187149,-0.117317 0.08938,-0.12011 0.12849,-0.223461 0.02514,-0.05587 0.081,-0.05587 0.03352,0 0.05866,0.02514 0.02514,0.02235 0.02514,0.05866 0,0.01955 -0.01117,0.05866 -0.01117,0.03911 -0.01117,0.0838 0,0.09497 0.07262,0.15363 0.07262,0.05586 0.173182,0.05586 0.122903,0 0.198321,-0.09218 0.07821,-0.09497 0.07821,-0.282119 0,-0.192735 -0.08939,-0.365917 -0.08659,-0.173182 -0.259773,-0.279326 -0.173182,-0.108937 -0.410609,-0.108937 -0.217874,0 -0.410609,0.100557 -0.192735,0.09776 -0.312846,0.290499 -0.12011,0.189942 -0.12011,0.458095 0,0.259773 0.122904,0.444128 0.125696,0.181562 0.315638,0.270946 0.192735,0.09218 0.388263,0.09218 0.254187,0 0.483234,-0.148043 0.03911,-0.02793 0.06424,-0.02793 0.03631,0 0.05866,0.02514 0.02514,0.02514 0.02514,0.05866 0,0.02235 -0.01397,0.0419 -0.01117,0.01955 -0.0419,0.0419 -0.09497,0.06983 -0.245807,0.12011 -0.148043,0.05028 -0.335191,0.05028 z"
           id="path5098"
           style="font-size:2.79326px;font-family:'Comic Neue';-inkscape-font-specification:'Comic Neue';display:inline;stroke-width:0.0692408" />
      </g>
      <g
         id="layer6"
         transform="matrix(0.95140057,0,0,0.95140057,-27.136163,-8.2727828)"
         style="display:inline">
        <path
           style="display:inline;fill:none;fill-opacity:1;stroke:#000000;stroke-width:0.396875;stroke-linecap:butt;stroke-linejoin:round;stroke-dasharray:none;stroke-dashoffset:0;stroke-opacity:1"
           d="M 75.225112,38.450302 V 11.991969 h -6.614584 z"
           id="path4861" />
        <path
           style="display:inline;fill:none;fill-opacity:1;stroke:#000000;stroke-width:0.396875;stroke-linecap:butt;stroke-linejoin:round;stroke-dasharray:none;stroke-dashoffset:0;stroke-opacity:1"
           d="m 88.454324,25.221136 -9.1e-5,13.229166 H 75.225112 Z"
           id="path4863" />
        <path
           style="display:inline;fill:none;fill-opacity:1;stroke:#000000;stroke-width:0.396875;stroke-linecap:butt;stroke-linejoin:round;stroke-dasharray:none;stroke-dashoffset:0;stroke-opacity:1"
           d="M 72.579278,27.866969 61.995945,38.450302 h 13.229167 z"
           id="path4865" />
        <path
           style="display:inline;fill:none;fill-opacity:1;stroke:#000000;stroke-width:0.396875;stroke-linecap:butt;stroke-linejoin:round;stroke-dasharray:none;stroke-dashoffset:0;stroke-opacity:1"
           d="m 75.22501,25.244324 1.02e-4,13.205978 13.229166,-13.252355 z"
           id="path4867" />
      </g>
      <path
         id="rect5320"
         style="display:none;fill:#00fb00;fill-opacity:0.674367;stroke:none;stroke-width:0.373487;stroke-linejoin:round"
         d="m 31.220834,26.65677 h 26.458333 v 3.96875 H 31.220834 Z"
         transform="matrix(0.95140057,0,0,0.95140057,2.1433299,3.1363832)" />
    </g>
    <g
       id="layer2"
       style="display:inline"
       transform="matrix(1.25,0,0,1.25,-11.112506,-2.4437945)">
      <path
         id="path663"
         style="display:none;fill:#00fb00;fill-opacity:0.674367;stroke:none;stroke-width:0.373487;stroke-linejoin:round"
         d="m 31.220834,26.65677 h 26.458333 v 3.96875 H 31.220834 Z" />
      <g
         id="layer7"
         transform="matrix(0.80000003,0,0,0.80000003,-24.024165,0.11322073)">
        <g
           aria-label="جلي"
           id="g682"
           style="font-size:2.64583px;font-family:Amiri;-inkscape-font-specification:Amiri;text-align:end;text-anchor:end;display:inline;fill:#ffffff;fill-opacity:1;stroke-width:0.396891;stroke-linejoin:round;stroke-dasharray:none"
           transform="matrix(7.7196804,0,0,7.7196804,-82.942028,-202.86513)">
          <path
             d="m 22.729974,28.016632 q 0.05292,0.02381 0.119063,0.04763 0.06615,0.02117 0.14552,0.04233 0.07937,0.01852 0.156104,0.03175 0.07673,0.01058 0.150812,0.0079 0.02381,0 0.03704,0.01058 0.01323,0.01058 0.0026,0.03704 -0.02381,0.05027 -0.04233,0.08731 -0.01588,0.03704 -0.0291,0.05821 -0.02646,0.04233 -0.04763,0.04233 -0.07144,-0.0079 -0.153459,-0.0053 -0.07937,0.0026 -0.169333,0.01852 -0.08996,0.01588 -0.169333,0.0344 -0.07937,0.01852 -0.148166,0.04233 -0.396875,0.132292 -0.49477,0.140229 -0.0979,0.0079 -0.182563,0 -0.0079,-0.253999 0.0079,-0.283104 0.03704,-0.07144 0.07937,-0.137583 0.04233,-0.06615 0.08996,-0.127 0.153458,-0.193145 0.248708,-0.187854 0.04763,0.0026 0.148166,0.03704 0.100542,0.0344 0.251354,0.103187 z m -0.169333,0.211667 q -0.164041,-0.0926 -0.317499,-0.0979 -0.07937,0 -0.150813,0.0635 -0.06879,0.06085 -0.108479,0.174625 0.121708,0.0079 0.46302,-0.07938 l 0.113771,-0.0291 q 0.01323,-0.0053 0.01588,-0.01058 0.0053,-0.0079 -0.01588,-0.02117 z m 0.07673,0.597957 q 0.0053,-0.0079 0.02117,-0.0053 0.105833,0.03704 0.187854,0.111125 0.01058,0.01058 0.0026,0.02117 l -0.124354,0.201083 q -0.0079,0.01323 -0.02646,-0.0026 -0.01058,-0.0079 -0.05556,-0.03704 -0.04498,-0.0291 -0.129646,-0.07937 -0.01323,-0.0079 -0.0053,-0.01588 z"
             id="path676"
             style="fill:#ffffff;fill-opacity:1;stroke-width:0.396891;stroke-dasharray:none" />
          <path
             d="m 21.433518,26.799551 q 0.0053,-0.01588 0.02911,-0.01852 0.02381,-0.0026 0.02646,0.01587 0.108479,0.828145 0.15875,1.05304 0.103187,0.447145 0.259291,0.523875 0.0979,0.05027 0.0635,0.171978 -0.01852,0.07408 -0.0635,0.06615 -0.161396,-0.01852 -0.301625,-0.362478 -0.01588,0.293687 -0.126999,0.492124 -0.02646,0.05027 -0.07937,0.09525 -0.05292,0.04498 -0.08467,0.05556 l 0.01588,-0.103187 q 0.108479,-0.08467 0.15875,-0.214312 0.05292,-0.134938 0.0291,-0.473604 0,-0.01852 -0.01587,-0.132291 -0.01588,-0.116417 -0.04498,-0.325438 l -0.07408,-0.507999 q -0.0026,-0.02646 -0.0026,-0.05292 -0.0026,-0.0291 0,-0.05821 0.0026,-0.0291 0.01588,-0.08467 0.01323,-0.05821 0.03704,-0.140229 z"
             id="path678"
             style="fill:#ffffff;fill-opacity:1;stroke-width:0.396891;stroke-dasharray:none" />
          <path
             d="m 21.330331,28.789215 q 0.02646,-0.02381 0.04233,-0.03969 0.01852,-0.01323 0.02381,-0.02117 0.330729,0.04498 0.407458,0.105833 0.07408,0.06085 0.07938,0.08731 0.0079,0.103188 -0.02646,0.198438 -0.0344,0.0979 -0.111125,0.156104 -0.111125,0.08731 -0.232833,0.150812 -0.119063,0.06615 -0.254,0.105833 -0.267229,0.07938 -0.529166,0.02646 -0.182562,-0.03969 -0.296333,-0.169333 -0.28575,-0.322791 0.134937,-1.042457 0.01058,-0.01852 0.02646,-0.01852 0.01852,0 0.02646,0.01323 0.01058,0.01323 -0.0026,0.03439 -0.06879,0.121709 -0.113771,0.219604 -0.04233,0.09525 -0.05556,0.171979 -0.02646,0.150812 0.05556,0.309562 0.08202,0.156104 0.248708,0.203729 0.164042,0.04233 0.357188,0.01852 0.193145,-0.02117 0.410103,-0.116417 0.169333,-0.07673 0.256646,-0.171978 -0.08996,-0.05556 -0.463021,-0.119063 z m -0.222249,1.026582 q 0.0053,-0.0079 0.02117,-0.0053 0.05292,0.01852 0.0979,0.04498 0.04763,0.02646 0.08996,0.0635 0.01058,0.01058 0.0026,0.02381 l -0.127,0.201083 q -0.0053,0.0079 -0.02381,-0.0053 -0.0079,-0.0079 -0.04498,-0.03175 -0.03704,-0.02117 -0.105834,-0.06085 l -0.100541,0.156104 q -0.0079,0.01323 -0.02646,-0.0026 -0.01058,-0.0079 -0.05556,-0.03704 -0.04498,-0.0291 -0.129645,-0.07937 -0.01058,-0.0079 -0.0026,-0.01588 l 0.129645,-0.193146 q 0.0053,-0.0079 0.02117,-0.0053 0.04498,0.01323 0.08467,0.0344 0.03969,0.02381 0.07408,0.05292 z"
             id="path680"
             style="fill:#ffffff;fill-opacity:1;stroke-width:0.396891;stroke-dasharray:none" />
        </g>
      </g>
    </g>
    <g
       id="g1117"
       transform="translate(42.432533,6.7298634)">
      <g
         id="rect3989"
         transform="matrix(0.41862881,0,0,0.41862881,17.381788,17.064625)">
        <rect
           style="display:inline;fill:#fbfff9;fill-opacity:1;stroke:#ffffff;stroke-width:2.64583;stroke-linejoin:round;stroke-dasharray:none;stroke-opacity:1"
           id="rect1108"
           width="26.458334"
           height="26.458334"
           x="31.220833"
           y="1.571126" />
        <g
           transform="matrix(0.17877252,0,0,0.17877252,31.220834,1.5711265)"
           id="g1215"
           style="display:inline;stroke:none;stroke-opacity:1">
          <rect
             x="0"
             y="0"
             width="148"
             height="148"
             style="fill:#ffffff;stroke:none;stroke-opacity:1"
             id="rect1209" />
          <g
             style="fill:#000000;stroke:none;stroke-opacity:1"
             id="g1213">
            <path
               d="m 127.6,132 h -3.2 c -0.22091,0 -0.4,-0.17909 -0.4,-0.4 v -7.2 c 0,-0.22091 0.17909,-0.4 0.4,-0.4 h 3.6 v 7.6 c 0,0.22091 -0.17909,0.4 -0.4,0.4 z m -16,0 h -7.2 c -0.22091,0 -0.4,-0.17909 -0.4,-0.4 v -7.2 c 0,-0.22091 0.17909,-0.4 0.4,-0.4 h 3.6 v 3.6 c 0,0.22091 0.17909,0.4 0.4,0.4 h 3.6 v 3.6 c 0,0.22091 -0.17909,0.4 -0.4,0.4 z m -16,0 h -7.2 c -0.220914,0 -0.4,-0.17909 -0.4,-0.4 v -3.2 c 0,-0.22091 -0.179086,-0.4 -0.4,-0.4 h -7.2 c -0.220914,0 -0.4,0.17909 -0.4,0.4 v 3.2 c 0,0.22091 -0.179086,0.4 -0.4,0.4 h -7.2 c -0.220914,0 -0.4,-0.17909 -0.4,-0.4 v -3.2 c 0,-0.22091 -0.179086,-0.4 -0.4,-0.4 h -3.2 c -0.220914,0 -0.4,-0.17909 -0.4,-0.4 v -3.2 C 68,124.17909 67.820914,124 67.6,124 H 64 v -4 h 3.6 c 0.220914,0 0.4,-0.17909 0.4,-0.4 v -3.2 c 0,-0.22091 0.179086,-0.4 0.4,-0.4 h 3.2 c 0.220914,0 0.4,-0.17909 0.4,-0.4 V 108 h 11.6 c 0.220914,0 0.4,-0.17909 0.4,-0.4 v -3.2 C 84,104.17909 83.820914,104 83.6,104 H 72 v -3.6 c 0,-0.22091 0.179086,-0.4 0.4,-0.4 h 3.2 c 0.220914,0 0.4,-0.179086 0.4,-0.4 V 96.4 C 76,96.179086 76.179086,96 76.4,96 h 3.2 c 0.220914,0 0.4,0.179086 0.4,0.4 v 3.2 c 0,0.220914 0.179086,0.4 0.4,0.4 h 3.2 c 0.220914,0 0.4,-0.179086 0.4,-0.4 V 88 h 3.6 C 87.820914,88 88,87.820914 88,87.6 V 84.4 C 88,84.179086 88.179086,84 88.4,84 h 3.2 C 91.820914,84 92,83.820914 92,83.6 V 80.4 C 92,80.179086 91.820914,80 91.6,80 H 76.4 C 76.179086,80 76,80.179086 76,80.4 v 3.2 c 0,0.220914 0.179086,0.4 0.4,0.4 h 7.2 c 0.220914,0 0.4,0.179086 0.4,0.4 V 88 H 80.4 C 80.179086,88 80,88.179086 80,88.4 v 3.2 C 80,91.820914 79.820914,92 79.6,92 H 72 V 84.4 C 72,84.179086 71.820914,84 71.6,84 H 60.4 C 60.179086,84 60,83.820914 60,83.6 V 80.4 C 60,80.179086 60.179086,80 60.4,80 h 3.2 C 63.820914,80 64,79.820914 64,79.6 V 68.4 C 64,68.179086 64.179086,68 64.4,68 h 3.2 C 67.820914,68 68,67.820914 68,67.6 V 64.4 C 68,64.179086 67.820914,64 67.6,64 H 56.4 C 56.179086,64 56,63.820914 56,63.6 V 60.4 C 56,60.179086 55.820914,60 55.6,60 H 52.4 C 52.179086,60 52,59.820914 52,59.6 V 56.4 C 52,56.179086 51.820914,56 51.6,56 H 48.4 C 48.179086,56 48,56.179086 48,56.4 v 3.2 C 48,59.820914 47.820914,60 47.6,60 H 40 v -4 h 3.6 C 43.820914,56 44,55.820914 44,55.6 V 52.4 C 44,52.179086 43.820914,52 43.6,52 H 40 V 48.4 C 40,48.179086 40.179086,48 40.4,48 h 7.2 C 47.820914,48 48,47.820914 48,47.6 V 40.4 C 48,40.179086 48.179086,40 48.4,40 h 3.2 c 0.220914,0 0.4,0.179086 0.4,0.4 v 7.2 c 0,0.220914 0.179086,0.4 0.4,0.4 H 56 v 7.6 c 0,0.220914 0.179086,0.4 0.4,0.4 h 3.2 c 0.220914,0 0.4,0.179086 0.4,0.4 v 3.2 c 0,0.220914 0.179086,0.4 0.4,0.4 h 3.2 C 63.820914,60 64,59.820914 64,59.6 V 56.4 C 64,56.179086 64.179086,56 64.4,56 H 72 v 3.6 c 0,0.220914 0.179086,0.4 0.4,0.4 H 76 v 4 H 72.4 C 72.179086,64 72,64.179086 72,64.4 v 11.2 c 0,0.220914 0.179086,0.4 0.4,0.4 h 3.2 C 75.820914,76 76,75.820914 76,75.6 V 72.4 C 76,72.179086 76.179086,72 76.4,72 h 3.2 C 79.820914,72 80,71.820914 80,71.6 V 68 h 3.6 C 83.820914,68 84,67.820914 84,67.6 V 64.4 C 84,64.179086 84.179086,64 84.4,64 h 3.2 C 87.820914,64 88,63.820914 88,63.6 V 56.4 C 88,56.179086 87.820914,56 87.6,56 H 84.4 C 84.179086,56 84,56.179086 84,56.4 v 3.2 C 84,59.820914 83.820914,60 83.6,60 H 76 V 56.4 C 76,56.179086 75.820914,56 75.6,56 H 72 V 52 H 87.6 C 87.820914,52 88,51.820914 88,51.6 V 48.4 C 88,48.179086 88.179086,48 88.4,48 h 7.2 c 0.220914,0 0.4,0.179086 0.4,0.4 V 52 H 92.4 C 92.179086,52 92,52.179086 92,52.4 v 3.2 c 0,0.220914 0.179086,0.4 0.4,0.4 h 3.2 C 95.820914,56 96,55.820914 96,55.6 V 52 h 4 V 64 H 96 V 60.4 C 96,60.179086 95.820914,60 95.6,60 H 92.4 C 92.179086,60 92,60.179086 92,60.4 v 3.2 c 0,0.220914 0.179086,0.4 0.4,0.4 H 96 V 88 H 92.4 C 92.179086,88 92,88.179086 92,88.4 v 3.2 C 92,91.820914 91.820914,92 91.6,92 H 88.4 C 88.179086,92 88,92.179086 88,92.4 v 3.2 c 0,0.220914 0.179086,0.4 0.4,0.4 h 7.2 C 95.820914,96 96,95.820914 96,95.6 V 88 h 3.6 c 0.220914,0 0.4,0.179086 0.4,0.4 v 3.2 c 0,0.220914 0.17909,0.4 0.4,0.4 h 3.2 c 0.22091,0 0.4,-0.179086 0.4,-0.4 v -7.2 c 0,-0.220914 0.17909,-0.4 0.4,-0.4 h 3.2 c 0.22091,0 0.4,-0.179086 0.4,-0.4 v -3.2 c 0,-0.220914 0.17909,-0.4 0.4,-0.4 h 3.2 c 0.22091,0 0.4,-0.179086 0.4,-0.4 v -3.2 c 0,-0.220914 -0.17909,-0.4 -0.4,-0.4 h -3.2 c -0.22091,0 -0.4,-0.179086 -0.4,-0.4 v -3.2 c 0,-0.220914 -0.17909,-0.4 -0.4,-0.4 h -3.2 C 104.17909,72 104,71.820914 104,71.6 V 68 h 3.6 c 0.22091,0 0.4,-0.179086 0.4,-0.4 V 60 h 8 v 3.6 c 0,0.220914 -0.17909,0.4 -0.4,0.4 h -3.2 c -0.22091,0 -0.4,0.179086 -0.4,0.4 v 7.2 c 0,0.220914 0.17909,0.4 0.4,0.4 h 3.2 c 0.22091,0 0.4,-0.179086 0.4,-0.4 v -3.2 c 0,-0.220914 0.17909,-0.4 0.4,-0.4 h 3.2 c 0.22091,0 0.4,-0.179086 0.4,-0.4 v -3.2 c 0,-0.220914 0.17909,-0.4 0.4,-0.4 h 7.2 c 0.22091,0 0.4,-0.179086 0.4,-0.4 V 60 h 3.6 c 0.22091,0 0.4,0.179086 0.4,0.4 v 23.2 c 0,0.220914 -0.17909,0.4 -0.4,0.4 H 124 V 72 h 3.6 c 0.22091,0 0.4,-0.179086 0.4,-0.4 v -3.2 c 0,-0.220914 -0.17909,-0.4 -0.4,-0.4 h -3.2 c -0.22091,0 -0.4,0.179086 -0.4,0.4 V 72 h -3.6 c -0.22091,0 -0.4,0.179086 -0.4,0.4 V 84 h -7.6 c -0.22091,0 -0.4,0.179086 -0.4,0.4 v 3.2 c 0,0.220914 -0.17909,0.4 -0.4,0.4 h -3.2 c -0.22091,0 -0.4,0.179086 -0.4,0.4 v 7.2 c 0,0.220914 0.17909,0.4 0.4,0.4 h 3.2 c 0.22091,0 0.4,-0.179086 0.4,-0.4 v -3.2 c 0,-0.220914 0.17909,-0.4 0.4,-0.4 h 3.2 c 0.22091,0 0.4,-0.179086 0.4,-0.4 v -3.2 c 0,-0.220914 0.17909,-0.4 0.4,-0.4 h 3.2 c 0.22091,0 0.4,-0.179086 0.4,-0.4 V 84 h 4 v 7.6 c 0,0.220914 0.17909,0.4 0.4,0.4 h 7.2 c 0.22091,0 0.4,0.179086 0.4,0.4 v 11.2 c 0,0.22091 -0.17909,0.4 -0.4,0.4 H 124 v -4 h 3.6 c 0.22091,0 0.4,-0.179086 0.4,-0.4 v -3.2 c 0,-0.220914 -0.17909,-0.4 -0.4,-0.4 h -3.2 c -0.22091,0 -0.4,0.179086 -0.4,0.4 v 3.6 h -3.6 c -0.22091,0 -0.4,0.17909 -0.4,0.4 v 3.6 h -3.6 c -0.22091,0 -0.4,0.17909 -0.4,0.4 v 7.2 c 0,0.22091 0.17909,0.4 0.4,0.4 h 7.2 c 0.22091,0 0.4,-0.17909 0.4,-0.4 V 108 h 7.6 c 0.22091,0 0.4,0.17909 0.4,0.4 v 7.2 c 0,0.22091 -0.17909,0.4 -0.4,0.4 h -3.2 c -0.22091,0 -0.4,0.17909 -0.4,0.4 v 3.6 h -3.6 c -0.22091,0 -0.4,-0.17909 -0.4,-0.4 v -3.2 c 0,-0.22091 -0.17909,-0.4 -0.4,-0.4 h -3.2 c -0.22091,0 -0.4,0.17909 -0.4,0.4 v 3.2 c 0,0.22091 -0.17909,0.4 -0.4,0.4 H 112 v -3.6 c 0,-0.22091 -0.17909,-0.4 -0.4,-0.4 H 96 v -7.6 c 0,-0.22091 -0.179086,-0.4 -0.4,-0.4 h -7.2 c -0.220914,0 -0.4,0.17909 -0.4,0.4 v 7.2 c 0,0.22091 -0.179086,0.4 -0.4,0.4 h -3.2 c -0.220914,0 -0.4,-0.17909 -0.4,-0.4 v -3.2 c 0,-0.22091 -0.179086,-0.4 -0.4,-0.4 h -3.2 c -0.220914,0 -0.4,0.17909 -0.4,0.4 v 7.2 c 0,0.22091 0.179086,0.4 0.4,0.4 h 3.2 c 0.220914,0 0.4,0.17909 0.4,0.4 v 3.2 c 0,0.22091 0.179086,0.4 0.4,0.4 h 3.2 c 0.220914,0 0.4,-0.17909 0.4,-0.4 v -3.2 c 0,-0.22091 0.179086,-0.4 0.4,-0.4 H 92 v 7.6 c 0,0.22091 0.179086,0.4 0.4,0.4 h 3.2 c 0.220914,0 0.4,0.17909 0.4,0.4 v 3.2 c 0,0.22091 -0.179086,0.4 -0.4,0.4 z m -32,0 H 52.4 C 52.179086,132 52,131.82091 52,131.6 V 124 h 3.6 c 0.220914,0 0.4,-0.17909 0.4,-0.4 v -3.2 c 0,-0.22091 0.179086,-0.4 0.4,-0.4 H 60 v 3.6 c 0,0.22091 0.179086,0.4 0.4,0.4 H 64 v 7.6 c 0,0.22091 -0.179086,0.4 -0.4,0.4 z m -20,0 H 16.4 c -0.220914,0 -0.4,-0.17909 -0.4,-0.4 v -27.2 c 0,-0.22091 0.179086,-0.4 0.4,-0.4 h 27.2 c 0.220914,0 0.4,0.17909 0.4,0.4 v 27.2 c 0,0.22091 -0.179086,0.4 -0.4,0.4 z m 72,-4 H 112 v -4 h 3.6 c 0.22091,0 0.4,0.17909 0.4,0.4 v 3.2 c 0,0.22091 -0.17909,0.4 -0.4,0.4 z M 40,127.6 V 108.4 C 40,108.17909 39.820914,108 39.6,108 H 20.4 c -0.220914,0 -0.4,0.17909 -0.4,0.4 v 19.2 c 0,0.22091 0.179086,0.4 0.4,0.4 h 19.2 c 0.220914,0 0.4,-0.17909 0.4,-0.4 z M 131.6,124 H 128 v -4 h 3.6 c 0.22091,0 0.4,0.17909 0.4,0.4 v 3.2 c 0,0.22091 -0.17909,0.4 -0.4,0.4 z m -20,0 H 108 v -3.6 c 0,-0.22091 0.17909,-0.4 0.4,-0.4 h 3.6 v 4 z m -12,0 H 96.4 C 96.179086,124 96,123.82091 96,123.6 V 120 h 3.6 c 0.220914,0 0.4,0.17909 0.4,0.4 v 3.2 c 0,0.22091 -0.179086,0.4 -0.4,0.4 z M 76,123.6 v -3.2 c 0,-0.22091 -0.179086,-0.4 -0.4,-0.4 h -3.2 c -0.220914,0 -0.4,0.17909 -0.4,0.4 v 3.2 c 0,0.22091 0.179086,0.4 0.4,0.4 h 3.2 c 0.220914,0 0.4,-0.17909 0.4,-0.4 z M 51.6,124 h -3.2 c -0.220914,0 -0.4,-0.17909 -0.4,-0.4 v -7.2 c 0,-0.22091 0.179086,-0.4 0.4,-0.4 H 52 v 8 z m -16,0 H 24.4 c -0.220914,0 -0.4,-0.17909 -0.4,-0.4 v -11.2 c 0,-0.22091 0.179086,-0.4 0.4,-0.4 h 11.2 c 0.220914,0 0.4,0.17909 0.4,0.4 v 11.2 c 0,0.22091 -0.179086,0.4 -0.4,0.4 z m 60,-4 H 92 v -3.6 c 0,-0.22091 0.179086,-0.4 0.4,-0.4 H 96 v 4 z m -32,0 H 60 v -11.6 c 0,-0.22091 0.179086,-0.4 0.4,-0.4 H 68 v 3.6 c 0,0.22091 -0.179086,0.4 -0.4,0.4 h -3.2 c -0.220914,0 -0.4,0.17909 -0.4,0.4 v 7.6 z m -8,-4 H 52 v -3.6 c 0,-0.22091 0.179086,-0.4 0.4,-0.4 h 3.2 c 0.220914,0 0.4,0.17909 0.4,0.4 v 3.2 c 0,0.22091 -0.179086,0.4 -0.4,0.4 z m 56.4,-4.4 v -11.2 c 0,-0.22091 -0.17909,-0.4 -0.4,-0.4 h -11.2 c -0.22091,0 -0.4,0.17909 -0.4,0.4 v 11.2 c 0,0.22091 0.17909,0.4 0.4,0.4 h 11.2 c 0.22091,0 0.4,-0.17909 0.4,-0.4 z m 11.6,-3.6 h -3.2 c -0.22091,0 -0.4,-0.17909 -0.4,-0.4 V 104 h 4 v 4 z m -16,0 h -3.2 c -0.22091,0 -0.4,-0.17909 -0.4,-0.4 v -3.2 c 0,-0.22091 0.17909,-0.4 0.4,-0.4 h 3.2 c 0.22091,0 0.4,0.17909 0.4,0.4 v 3.2 c 0,0.22091 -0.17909,0.4 -0.4,0.4 z m -36,0 H 68 v -3.6 c 0,-0.22091 0.179086,-0.4 0.4,-0.4 H 72 v 4 z m -20,0 H 48.4 C 48.179086,108 48,107.82091 48,107.6 V 100 h 4 v 7.6 c 0,0.22091 -0.179086,0.4 -0.4,0.4 z M 96,103.6 v -3.2 c 0,-0.22091 -0.179086,-0.4 -0.4,-0.4 h -7.2 c -0.220914,0 -0.4,0.17909 -0.4,0.4 v 3.2 c 0,0.22091 0.179086,0.4 0.4,0.4 h 7.2 c 0.220914,0 0.4,-0.17909 0.4,-0.4 z M 59.6,104 h -3.2 c -0.220914,0 -0.4,-0.17909 -0.4,-0.4 v -3.2 C 56,100.17909 55.820914,100 55.6,100 H 52 V 96.4 C 52,96.179086 52.179086,96 52.4,96 h 7.2 c 0.220914,0 0.4,0.179086 0.4,0.4 v 7.2 c 0,0.22091 -0.179086,0.4 -0.4,0.4 z m 8,-4 H 64.4 C 64.179086,100 64,99.820914 64,99.6 V 92.4 C 64,92.179086 64.179086,92 64.4,92 H 72 v 3.6 C 72,95.820914 71.820914,96 71.6,96 H 68.4 C 68.179086,96 68,96.179086 68,96.4 v 3.2 c 0,0.220914 -0.179086,0.4 -0.4,0.4 z m -20,0 H 40.4 C 40.179086,100 40,99.820914 40,99.6 V 96.4 C 40,96.179086 40.179086,96 40.4,96 h 3.2 C 43.820914,96 44,95.820914 44,95.6 V 92 h 3.6 c 0.220914,0 0.4,0.179086 0.4,0.4 v 7.6 z m -20,0 H 20.4 C 20.179086,100 20,99.820914 20,99.6 V 96.4 C 20,96.179086 20.179086,96 20.4,96 h 3.2 C 23.820914,96 24,95.820914 24,95.6 V 92.4 C 24,92.179086 24.179086,92 24.4,92 H 28 v 7.6 c 0,0.220914 -0.179086,0.4 -0.4,0.4 z m 8,-4 H 32.4 C 32.179086,96 32,95.820914 32,95.6 V 92.4 C 32,92.179086 31.820914,92 31.6,92 H 28 V 88.4 C 28,88.179086 27.820914,88 27.6,88 H 24.4 C 24.179086,88 24,87.820914 24,87.6 V 84.4 C 24,84.179086 23.820914,84 23.6,84 H 20.4 C 20.179086,84 20,83.820914 20,83.6 V 80 H 35.6 C 35.820914,80 36,79.820914 36,79.6 V 76 h 4 v 3.6 c 0,0.220914 0.179086,0.4 0.4,0.4 h 3.2 c 0.220914,0 0.4,0.179086 0.4,0.4 v 3.2 C 44,83.820914 43.820914,84 43.6,84 H 40.4 C 40.179086,84 40,84.179086 40,84.4 V 88 H 36 V 84.4 C 36,84.179086 35.820914,84 35.6,84 H 32.4 C 32.179086,84 32,84.179086 32,84.4 v 3.2 c 0,0.220914 0.179086,0.4 0.4,0.4 H 36 v 7.6 c 0,0.220914 -0.179086,0.4 -0.4,0.4 z m 24,-4 H 56.4 C 56.179086,92 56,91.820914 56,91.6 V 88 h 3.6 c 0.220914,0 0.4,0.179086 0.4,0.4 v 3.2 c 0,0.220914 -0.179086,0.4 -0.4,0.4 z m -16,0 H 40.4 C 40.179086,92 40,91.820914 40,91.6 V 88 h 3.6 c 0.220914,0 0.4,0.179086 0.4,0.4 V 92 Z m -24,0 H 16.4 C 16.179086,92 16,91.820914 16,91.6 V 88.4 C 16,88.179086 16.179086,88 16.4,88 h 3.2 c 0.220914,0 0.4,0.179086 0.4,0.4 v 3.2 c 0,0.220914 -0.179086,0.4 -0.4,0.4 z m 36,-4 H 52.4 C 52.179086,88 52,87.820914 52,87.6 V 84.4 C 52,84.179086 52.179086,84 52.4,84 h 3.2 c 0.220914,0 0.4,0.179086 0.4,0.4 V 88 Z m 0,-8 H 52.4 C 52.179086,80 52,79.820914 52,79.6 V 76 h 4 v 3.6 c 0,0.220914 -0.179086,0.4 -0.4,0.4 z m -36,0 H 16.4 C 16.179086,80 16,79.820914 16,79.6 V 64.4 C 16,64.179086 16.179086,64 16.4,64 H 20 v 3.6 c 0,0.220914 0.179086,0.4 0.4,0.4 H 24 v 7.6 C 24,75.820914 23.820914,76 23.6,76 H 20.4 C 20.179086,76 20,76.179086 20,76.4 V 80 Z M 92,75.6 V 68.4 C 92,68.179086 91.820914,68 91.6,68 H 88.4 C 88.179086,68 88,68.179086 88,68.4 v 3.2 C 88,71.820914 87.820914,72 87.6,72 H 84.4 C 84.179086,72 84,72.179086 84,72.4 v 3.2 c 0,0.220914 0.179086,0.4 0.4,0.4 h 7.2 C 91.820914,76 92,75.820914 92,75.6 Z M 59.6,76 H 56 v -4 h 3.6 c 0.220914,0 0.4,0.179086 0.4,0.4 v 3.2 c 0,0.220914 -0.179086,0.4 -0.4,0.4 z m -8,0 H 48.4 C 48.179086,76 48,75.820914 48,75.6 V 72 h 4 v 4 z m -8,0 H 40 V 72.4 C 40,72.179086 40.179086,72 40.4,72 H 44 v 3.6 c 0,0.220914 -0.179086,0.4 -0.4,0.4 z m -8,0 H 28.4 C 28.179086,76 28,75.820914 28,75.6 V 68 h 4 v 3.6 c 0,0.220914 0.179086,0.4 0.4,0.4 h 3.2 c 0.220914,0 0.4,0.179086 0.4,0.4 V 76 Z m 20,-4 H 52 v -4 h 3.6 c 0.220914,0 0.4,0.179086 0.4,0.4 V 72 Z m -8,0 H 44 v -4 h 4 v 4 z m 56,-4 h -3.2 C 100.17909,68 100,67.820914 100,67.6 V 64 h 3.6 c 0.22091,0 0.4,0.179086 0.4,0.4 V 68 Z m -24,0 H 76.4 C 76.179086,68 76,67.820914 76,67.6 V 64 h 3.6 c 0.220914,0 0.4,0.179086 0.4,0.4 V 68 Z m -28,0 H 48 V 64.4 C 48,64.179086 48.179086,64 48.4,64 h 3.2 c 0.220914,0 0.4,0.179086 0.4,0.4 V 68 Z m -8,0 H 32 v -4 h 3.6 C 35.820914,64 36,63.820914 36,63.6 V 60 h 4 v 3.6 c 0,0.220914 0.179086,0.4 0.4,0.4 h 3.2 c 0.220914,0 0.4,0.179086 0.4,0.4 V 68 Z m -16,0 H 24 V 64.4 C 24,64.179086 23.820914,64 23.6,64 H 20 V 56.4 C 20,56.179086 19.820914,56 19.6,56 H 16.4 C 16.179086,56 16,55.820914 16,55.6 V 52.4 C 16,52.179086 16.179086,52 16.4,52 h 7.2 C 23.820914,52 24,51.820914 24,51.6 V 48.4 C 24,48.179086 24.179086,48 24.4,48 h 7.2 c 0.220914,0 0.4,0.179086 0.4,0.4 v 3.2 c 0,0.220914 0.179086,0.4 0.4,0.4 H 40 v 4 H 36.4 C 36.179086,56 36,56.179086 36,56.4 V 60 H 32 V 56.4 C 32,56.179086 31.820914,56 31.6,56 H 24.4 C 24.179086,56 24,56.179086 24,56.4 v 3.2 c 0,0.220914 0.179086,0.4 0.4,0.4 H 32 v 4 H 28.4 C 28.179086,64 28,64.179086 28,64.4 V 68 Z m 100,-8 h -3.2 c -0.22091,0 -0.4,-0.179086 -0.4,-0.4 v -3.2 c 0,-0.220914 0.17909,-0.4 0.4,-0.4 h 3.6 v 4 z m -8,0 H 116 v -4 h 3.6 c 0.22091,0 0.4,0.179086 0.4,0.4 v 3.2 c 0,0.220914 -0.17909,0.4 -0.4,0.4 z m -12,0 h -3.2 C 104.17909,60 104,59.820914 104,59.6 V 52.4 C 104,52.179086 103.82091,52 103.6,52 H 100 v -3.6 c 0,-0.220914 0.17909,-0.4 0.4,-0.4 h 7.2 c 0.22091,0 0.4,0.179086 0.4,0.4 v 3.2 c 0,0.220914 0.17909,0.4 0.4,0.4 h 3.2 c 0.22091,0 0.4,-0.179086 0.4,-0.4 v -3.2 c 0,-0.220914 0.17909,-0.4 0.4,-0.4 h 3.2 c 0.22091,0 0.4,0.179086 0.4,0.4 V 56 h -7.6 c -0.22091,0 -0.4,0.179086 -0.4,0.4 V 60 Z m 24,-4 H 128 v -3.6 c 0,-0.220914 0.17909,-0.4 0.4,-0.4 h 3.2 c 0.22091,0 0.4,0.179086 0.4,0.4 v 3.2 c 0,0.220914 -0.17909,0.4 -0.4,0.4 z m -60,-4 H 68.4 C 68.179086,52 68,51.820914 68,51.6 V 44 h 3.6 C 71.820914,44 72,43.820914 72,43.6 V 36.4 C 72,36.179086 71.820914,36 71.6,36 H 64.4 C 64.179086,36 64,35.820914 64,35.6 V 32 h 7.6 C 71.820914,32 72,31.820914 72,31.6 V 28.4 C 72,28.179086 72.179086,28 72.4,28 h 7.2 c 0.220914,0 0.4,0.179086 0.4,0.4 V 32 H 76.4 C 76.179086,32 76,32.179086 76,32.4 V 47.6 C 76,47.820914 75.820914,48 75.6,48 H 72.4 C 72.179086,48 72,48.179086 72,48.4 V 52 Z m -8,0 H 60.4 C 60.179086,52 60,51.820914 60,51.6 V 48.4 C 60,48.179086 59.820914,48 59.6,48 H 56 V 36 h 3.6 c 0.220914,0 0.4,0.179086 0.4,0.4 v 7.2 c 0,0.220914 0.179086,0.4 0.4,0.4 H 64 v 7.6 c 0,0.220914 -0.179086,0.4 -0.4,0.4 z m 68,-8 H 104.4 C 104.17909,44 104,43.820914 104,43.6 V 16.4 c 0,-0.220914 0.17909,-0.4 0.4,-0.4 h 27.2 c 0.22091,0 0.4,0.179086 0.4,0.4 v 27.2 c 0,0.220914 -0.17909,0.4 -0.4,0.4 z m -32,0 H 96.4 C 96.179086,44 96,43.820914 96,43.6 V 40.4 C 96,40.179086 95.820914,40 95.6,40 H 92.4 C 92.179086,40 92,40.179086 92,40.4 v 3.2 C 92,43.820914 91.820914,44 91.6,44 H 88.4 C 88.179086,44 88,43.820914 88,43.6 V 40.4 C 88,40.179086 87.820914,40 87.6,40 H 84.4 C 84.179086,40 84,40.179086 84,40.4 v 3.2 C 84,43.820914 83.820914,44 83.6,44 H 80.4 C 80.179086,44 80,43.820914 80,43.6 V 32 h 4 v 3.6 c 0,0.220914 0.179086,0.4 0.4,0.4 h 7.2 C 91.820914,36 92,35.820914 92,35.6 V 32.4 C 92,32.179086 92.179086,32 92.4,32 h 3.2 c 0.220914,0 0.4,0.179086 0.4,0.4 v 3.2 c 0,0.220914 0.179086,0.4 0.4,0.4 h 3.2 c 0.220914,0 0.4,0.179086 0.4,0.4 v 7.2 c 0,0.220914 -0.179086,0.4 -0.4,0.4 z m -32,0 H 64 V 40.4 C 64,40.179086 64.179086,40 64.4,40 h 3.2 c 0.220914,0 0.4,0.179086 0.4,0.4 V 44 Z m -24,0 H 16.4 C 16.179086,44 16,43.820914 16,43.6 V 16.4 C 16,16.179086 16.179086,16 16.4,16 h 27.2 c 0.220914,0 0.4,0.179086 0.4,0.4 V 43.6 C 44,43.820914 43.820914,44 43.6,44 Z M 128,39.6 V 20.4 c 0,-0.220914 -0.17909,-0.4 -0.4,-0.4 h -19.2 c -0.22091,0 -0.4,0.179086 -0.4,0.4 v 19.2 c 0,0.220914 0.17909,0.4 0.4,0.4 h 19.2 c 0.22091,0 0.4,-0.179086 0.4,-0.4 z m -88,0 V 20.4 C 40,20.179086 39.820914,20 39.6,20 H 20.4 C 20.179086,20 20,20.179086 20,20.4 v 19.2 c 0,0.220914 0.179086,0.4 0.4,0.4 H 39.6 C 39.820914,40 40,39.820914 40,39.6 Z M 123.6,36 H 112.4 C 112.17909,36 112,35.820914 112,35.6 V 24.4 c 0,-0.220914 0.17909,-0.4 0.4,-0.4 h 11.2 c 0.22091,0 0.4,0.179086 0.4,0.4 v 11.2 c 0,0.220914 -0.17909,0.4 -0.4,0.4 z m -68,0 H 48.4 C 48.179086,36 48,35.820914 48,35.6 V 32.4 C 48,32.179086 48.179086,32 48.4,32 h 3.2 C 51.820914,32 52,31.820914 52,31.6 V 24.4 C 52,24.179086 52.179086,24 52.4,24 H 56 v 12 z m -20,0 H 24.4 C 24.179086,36 24,35.820914 24,35.6 V 24.4 C 24,24.179086 24.179086,24 24.4,24 h 11.2 c 0.220914,0 0.4,0.179086 0.4,0.4 v 11.2 c 0,0.220914 -0.179086,0.4 -0.4,0.4 z m 52,-4 H 84 V 28.4 C 84,28.179086 84.179086,28 84.4,28 h 3.2 c 0.220914,0 0.4,0.179086 0.4,0.4 v 3.2 c 0,0.220914 -0.179086,0.4 -0.4,0.4 z m -24,0 H 60.4 C 60.179086,32 60,31.820914 60,31.6 V 28.4 C 60,28.179086 60.179086,28 60.4,28 H 64 v 4 z m 32,-4 H 92.4 C 92.179086,28 92,27.820914 92,27.6 V 24 h 3.6 c 0.220914,0 0.4,0.179086 0.4,0.4 v 3.2 c 0,0.220914 -0.179086,0.4 -0.4,0.4 z m -28,0 H 64 v -4 h 4 v 3.6 c 0,0.220914 -0.179086,0.4 -0.4,0.4 z m 24,-4 H 84.4 C 84.179086,24 84,23.820914 84,23.6 V 16.4 C 84,16.179086 84.179086,16 84.4,16 h 3.2 c 0.220914,0 0.4,0.179086 0.4,0.4 v 3.2 c 0,0.220914 0.179086,0.4 0.4,0.4 h 3.2 c 0.220914,0 0.4,0.179086 0.4,0.4 V 24 Z m -12,0 H 76.4 C 76.179086,24 76,23.820914 76,23.6 V 20 h 3.6 c 0.220914,0 0.4,0.179086 0.4,0.4 v 3.2 c 0,0.220914 -0.179086,0.4 -0.4,0.4 z m -8,0 H 68 v -4 h 4 v 3.6 c 0,0.220914 -0.179086,0.4 -0.4,0.4 z m -8,0 H 56 V 16.4 C 56,16.179086 56.179086,16 56.4,16 h 11.2 c 0.220914,0 0.4,0.179086 0.4,0.4 V 20 H 64.4 C 64.179086,20 64,20.179086 64,20.4 V 24 Z m 12,-4 H 72 V 16.4 C 72,16.179086 72.179086,16 72.4,16 h 3.2 c 0.220914,0 0.4,0.179086 0.4,0.4 V 20 Z"
               id="path1211"
               style="stroke:none;stroke-opacity:1" />
          </g>
        </g>
      </g>
    </g>
    <g
       aria-label="https://jeli.com.my"
       id="text4185"
       style="font-size:2.64583px;font-family:Roboto;-inkscape-font-specification:Roboto;text-align:end;text-anchor:end;display:inline;fill:#ffffff;fill-opacity:1;stroke-width:0.396875;stroke-linejoin:round"
       transform="translate(3.2872053,-23.741483)">
      <path
         d="m 59.601819,35.422423 v 1.984373 h -0.239003 v -1.984373 z m -0.05684,1.232481 -0.09948,-0.0039 q 0.0013,-0.143402 0.04263,-0.264842 0.04134,-0.122731 0.116272,-0.213165 0.07493,-0.09043 0.178284,-0.139526 0.104644,-0.05038 0.231251,-0.05038 0.103353,0 0.186035,0.02842 0.08268,0.02713 0.140818,0.08785 0.05943,0.06072 0.09043,0.157613 0.03101,0.0956 0.03101,0.233836 v 0.915964 h -0.240295 v -0.918548 q 0,-0.109812 -0.0323,-0.1757 -0.0323,-0.06718 -0.09431,-0.09689 -0.06201,-0.03101 -0.152446,-0.03101 -0.08914,0 -0.16278,0.03747 -0.07235,0.03746 -0.125315,0.103353 -0.05168,0.06589 -0.08139,0.151153 -0.02842,0.08397 -0.02842,0.178283 z"
         id="path2163"
         style="fill:#ffffff;fill-opacity:1" />
      <path
         d="m 61.405324,36.00895 v 0.183451 H 60.649558 V 36.00895 Z m -0.499968,-0.339772 h 0.239003 v 1.391386 q 0,0.07106 0.02196,0.107228 0.02196,0.03617 0.05684,0.0478 0.03488,0.01163 0.07493,0.01163 0.02971,0 0.06201,-0.0052 0.03359,-0.0065 0.05038,-0.01033 l 0.0013,0.195079 q -0.02842,0.009 -0.07493,0.01679 -0.04522,0.009 -0.109812,0.009 -0.08785,0 -0.161489,-0.03488 -0.07364,-0.03488 -0.117563,-0.116272 -0.04263,-0.08268 -0.04263,-0.222208 z"
         id="path2165"
         style="fill:#ffffff;fill-opacity:1" />
      <path
         d="m 62.270904,36.00895 v 0.183451 H 61.515137 V 36.00895 Z m -0.499969,-0.339772 h 0.239003 v 1.391386 q 0,0.07106 0.02196,0.107228 0.02196,0.03617 0.05684,0.0478 0.03488,0.01163 0.07493,0.01163 0.02971,0 0.06201,-0.0052 0.03359,-0.0065 0.05038,-0.01033 l 0.0013,0.195079 q -0.02842,0.009 -0.07493,0.01679 -0.04522,0.009 -0.109812,0.009 -0.08785,0 -0.161488,-0.03488 -0.07364,-0.03488 -0.117564,-0.116272 -0.04263,-0.08268 -0.04263,-0.222208 z"
         id="path2167"
         style="fill:#ffffff;fill-opacity:1" />
      <path
         d="m 62.790251,36.277667 v 1.666563 h -0.240295 v -1.93528 h 0.219625 z m 0.941802,0.418578 v 0.02713 q 0,0.152445 -0.03617,0.282928 -0.03617,0.129191 -0.105936,0.224792 -0.06847,0.0956 -0.16924,0.148569 -0.100769,0.05297 -0.231252,0.05297 -0.133067,0 -0.235127,-0.04393 -0.102061,-0.04393 -0.173116,-0.127899 -0.07106,-0.08397 -0.113688,-0.201538 -0.04134,-0.117564 -0.05684,-0.264841 v -0.144694 q 0.0155,-0.155029 0.05814,-0.277761 0.04263,-0.122731 0.112396,-0.209289 0.07106,-0.08785 0.171824,-0.133067 0.100769,-0.04651 0.232543,-0.04651 0.131775,0 0.233836,0.05168 0.102061,0.05038 0.171824,0.144694 0.06976,0.09431 0.104644,0.226084 0.03617,0.130483 0.03617,0.290679 z m -0.240295,0.02713 v -0.02713 q 0,-0.104644 -0.02196,-0.19637 -0.02196,-0.09302 -0.06847,-0.16278 -0.04522,-0.07106 -0.116272,-0.111104 -0.07106,-0.04134 -0.16924,-0.04134 -0.09043,0 -0.157613,0.03101 -0.06589,0.03101 -0.112396,0.08397 -0.04651,0.05168 -0.07622,0.118856 -0.02842,0.06589 -0.04263,0.136942 v 0.334605 q 0.02584,0.09043 0.07235,0.170532 0.04651,0.07881 0.124024,0.127899 0.07751,0.0478 0.195078,0.0478 0.09689,0 0.166656,-0.04005 0.07106,-0.04134 0.116272,-0.112396 0.04651,-0.07106 0.06847,-0.16278 0.02196,-0.09302 0.02196,-0.197662 z"
         id="path2169"
         style="fill:#ffffff;fill-opacity:1" />
      <path
         d="m 64.850846,37.036018 q 0,-0.05168 -0.02325,-0.0956 -0.02196,-0.04522 -0.09173,-0.08139 -0.06847,-0.03746 -0.206705,-0.06459 -0.116272,-0.02455 -0.210582,-0.05814 -0.09302,-0.03359 -0.158904,-0.08139 -0.0646,-0.0478 -0.09948,-0.112396 -0.03488,-0.06459 -0.03488,-0.151153 0,-0.08268 0.03617,-0.156321 0.03746,-0.07364 0.104644,-0.130483 0.06847,-0.05684 0.164073,-0.08914 0.0956,-0.0323 0.213165,-0.0323 0.167948,0 0.286803,0.05943 0.118856,0.05943 0.18216,0.158905 0.0633,0.09819 0.0633,0.218333 h -0.239003 q 0,-0.05814 -0.03488,-0.112396 -0.03359,-0.05555 -0.09948,-0.09173 -0.06459,-0.03617 -0.158904,-0.03617 -0.09948,0 -0.161489,0.03101 -0.06072,0.02971 -0.08914,0.07622 -0.02713,0.04651 -0.02713,0.09819 0,0.03876 0.01292,0.06976 0.01421,0.02971 0.04909,0.05555 0.03488,0.02455 0.09819,0.04651 0.0633,0.02196 0.161489,0.04393 0.171823,0.03876 0.282928,0.09302 0.111104,0.05426 0.165364,0.133066 0.05426,0.07881 0.05426,0.191203 0,0.09173 -0.03876,0.167948 -0.03746,0.07622 -0.109812,0.131775 -0.07106,0.05426 -0.170532,0.08527 -0.09819,0.02971 -0.220917,0.02971 -0.184743,0 -0.312642,-0.06589 -0.127899,-0.06589 -0.193786,-0.170532 -0.06589,-0.104644 -0.06589,-0.220916 h 0.240296 q 0.0052,0.09819 0.05684,0.156321 0.05168,0.05684 0.126607,0.08139 0.07493,0.02325 0.148569,0.02325 0.09819,0 0.164073,-0.02584 0.06718,-0.02584 0.10206,-0.07106 0.03488,-0.04522 0.03488,-0.103352 z"
         id="path2171"
         style="fill:#ffffff;fill-opacity:1" />
      <path
         d="m 65.392156,37.280188 q 0,-0.06072 0.03746,-0.10206 0.03876,-0.04263 0.111105,-0.04263 0.07235,0 0.109812,0.04263 0.03876,0.04134 0.03876,0.10206 0,0.05943 -0.03876,0.100769 -0.03746,0.04134 -0.109812,0.04134 -0.07235,0 -0.111105,-0.04134 -0.03746,-0.04134 -0.03746,-0.100769 z m 0.0013,-1.140755 q 0,-0.06072 0.03746,-0.102061 0.03876,-0.04263 0.111105,-0.04263 0.07235,0 0.109812,0.04263 0.03876,0.04134 0.03876,0.102061 0,0.05943 -0.03876,0.100769 -0.03747,0.04134 -0.109812,0.04134 -0.07235,0 -0.111105,-0.04134 -0.03746,-0.04134 -0.03746,-0.100769 z"
         id="path2173"
         style="fill:#ffffff;fill-opacity:1" />
      <path
         d="m 66.875268,35.525776 -0.784189,2.042508 h -0.205413 l 0.78548,-2.042508 z"
         id="path2175"
         style="fill:#ffffff;fill-opacity:1" />
      <path
         d="m 67.677543,35.525776 -0.784189,2.042508 h -0.205413 l 0.785481,-2.042508 z"
         id="path2177"
         style="fill:#ffffff;fill-opacity:1" />
      <path
         d="m 67.943677,36.00895 h 0.240295 v 1.564502 q 0,0.127899 -0.04134,0.217041 -0.04005,0.08914 -0.12144,0.134358 -0.0801,0.04651 -0.20283,0.04651 -0.0323,0 -0.07493,-0.0065 -0.04393,-0.0065 -0.07364,-0.0155 l 0.0013,-0.192494 q 0.02455,0.0052 0.05555,0.0078 0.03101,0.0039 0.05426,0.0039 0.05297,0 0.08914,-0.01938 0.03617,-0.01938 0.05426,-0.06201 0.01938,-0.04263 0.01938,-0.113688 z m -0.02455,-0.370778 q 0,-0.05814 0.03617,-0.09818 0.03617,-0.04005 0.104644,-0.04005 0.06976,0 0.105937,0.04005 0.03617,0.04005 0.03617,0.09818 0,0.05555 -0.03617,0.0956 -0.03617,0.03876 -0.105937,0.03876 -0.06847,0 -0.104644,-0.03876 -0.03617,-0.04005 -0.03617,-0.0956 z"
         id="path2179"
         style="fill:#ffffff;fill-opacity:1" />
      <path
         d="m 69.15032,37.432634 q -0.145986,0 -0.264841,-0.04909 -0.117564,-0.05038 -0.20283,-0.140818 -0.08397,-0.09043 -0.129191,-0.214457 -0.04522,-0.124023 -0.04522,-0.271301 v -0.05426 q 0,-0.170532 0.05039,-0.303599 0.05038,-0.134358 0.136942,-0.227376 0.08656,-0.09302 0.19637,-0.140818 0.109812,-0.0478 0.227376,-0.0478 0.149862,0 0.258382,0.05168 0.109812,0.05168 0.179575,0.144694 0.06976,0.09172 0.103353,0.217041 0.03359,0.124023 0.03359,0.2713 v 0.107229 h -1.043863 v -0.195078 h 0.804859 v -0.01809 q -0.0052,-0.09302 -0.03876,-0.180867 -0.0323,-0.08785 -0.103353,-0.144694 -0.07106,-0.05684 -0.193786,-0.05684 -0.08139,0 -0.149861,0.03488 -0.06847,0.03359 -0.117564,0.100769 -0.04909,0.06718 -0.07622,0.164073 -0.02713,0.09689 -0.02713,0.2235 v 0.05426 q 0,0.09948 0.02713,0.187327 0.02842,0.08656 0.08139,0.152445 0.05426,0.06589 0.130482,0.103353 0.07752,0.03746 0.1757,0.03746 0.126607,0 0.214457,-0.05168 0.08785,-0.05168 0.153737,-0.138234 l 0.144694,0.11498 q -0.04522,0.06847 -0.11498,0.130482 -0.06976,0.06201 -0.171824,0.100769 -0.100769,0.03876 -0.239004,0.03876 z"
         id="path2181"
         style="fill:#ffffff;fill-opacity:1" />
      <path
         d="m 70.23294,35.422423 v 1.984373 h -0.240295 v -1.984373 z"
         id="path2183"
         style="fill:#ffffff;fill-opacity:1" />
      <path
         d="m 70.87631,36.00895 v 1.397846 H 70.636015 V 36.00895 Z m -0.258382,-0.370778 q 0,-0.05814 0.03488,-0.09818 0.03617,-0.04005 0.105937,-0.04005 0.06847,0 0.104644,0.04005 0.03747,0.04005 0.03747,0.09818 0,0.05555 -0.03747,0.0956 -0.03617,0.03876 -0.104644,0.03876 -0.06976,0 -0.105937,-0.03876 -0.03488,-0.04005 -0.03488,-0.0956 z"
         id="path2185"
         style="fill:#ffffff;fill-opacity:1" />
      <path
         d="m 71.263883,37.280188 q 0,-0.06072 0.03746,-0.10206 0.03876,-0.04263 0.111104,-0.04263 0.07235,0 0.109813,0.04263 0.03876,0.04134 0.03876,0.10206 0,0.05943 -0.03876,0.100769 -0.03747,0.04134 -0.109813,0.04134 -0.07235,0 -0.111104,-0.04134 -0.03746,-0.04134 -0.03746,-0.100769 z"
         id="path2187"
         style="fill:#ffffff;fill-opacity:1" />
      <path
         d="m 72.517035,37.236263 q 0.08527,0 0.157613,-0.03488 0.07235,-0.03488 0.118855,-0.0956 0.04651,-0.06201 0.05297,-0.140818 h 0.227376 q -0.0065,0.124023 -0.08397,0.231251 -0.07622,0.105937 -0.200245,0.171824 -0.124024,0.0646 -0.272593,0.0646 -0.157613,0 -0.275177,-0.05555 -0.116272,-0.05555 -0.193786,-0.152446 -0.07622,-0.09689 -0.11498,-0.222208 -0.03747,-0.126607 -0.03747,-0.267425 v -0.05426 q 0,-0.140819 0.03747,-0.266134 0.03876,-0.126607 0.11498,-0.2235 0.07751,-0.09689 0.193786,-0.152445 0.117564,-0.05555 0.275177,-0.05555 0.164072,0 0.286804,0.06718 0.122731,0.06589 0.192494,0.180867 0.07105,0.113688 0.07751,0.258382 h -0.227376 q -0.0065,-0.08656 -0.04909,-0.156321 -0.04134,-0.06976 -0.113688,-0.111104 -0.07106,-0.04263 -0.166656,-0.04263 -0.109813,0 -0.184743,0.04393 -0.07364,0.04263 -0.117564,0.116272 -0.04263,0.07235 -0.06201,0.161488 -0.01809,0.08785 -0.01809,0.179576 v 0.05426 q 0,0.09173 0.01809,0.180867 0.01809,0.08914 0.06072,0.161489 0.04393,0.07235 0.117564,0.116271 0.07493,0.04263 0.186035,0.04263 z"
         id="path2189"
         style="fill:#ffffff;fill-opacity:1" />
      <path
         d="m 73.279261,36.723376 v -0.02971 q 0,-0.151154 0.04393,-0.280345 0.04392,-0.130482 0.126607,-0.226084 0.08268,-0.09689 0.200246,-0.149861 0.117564,-0.05426 0.26355,-0.05426 0.147277,0 0.264841,0.05426 0.118856,0.05297 0.201538,0.149861 0.08397,0.0956 0.127899,0.226084 0.04393,0.129191 0.04393,0.280345 v 0.02971 q 0,0.151153 -0.04393,0.280344 -0.04393,0.129191 -0.127899,0.226084 -0.08268,0.0956 -0.200246,0.149861 -0.116272,0.05297 -0.263549,0.05297 -0.147278,0 -0.264842,-0.05297 -0.117564,-0.05426 -0.201538,-0.149861 -0.08268,-0.09689 -0.126607,-0.226084 -0.04393,-0.129191 -0.04393,-0.280344 z m 0.239004,-0.02971 v 0.02971 q 0,0.104644 0.02455,0.197662 0.02455,0.09172 0.07364,0.16278 0.05038,0.07106 0.125315,0.112396 0.07493,0.04005 0.174408,0.04005 0.09819,0 0.171823,-0.04005 0.07493,-0.04134 0.124024,-0.112396 0.04909,-0.07106 0.07364,-0.16278 0.02584,-0.09302 0.02584,-0.197662 v -0.02971 q 0,-0.103353 -0.02584,-0.195079 -0.02455,-0.09302 -0.07493,-0.164072 -0.04909,-0.07235 -0.124023,-0.113688 -0.07364,-0.04134 -0.173116,-0.04134 -0.09819,0 -0.173116,0.04134 -0.07364,0.04134 -0.124023,0.113688 -0.04909,0.07106 -0.07364,0.164072 -0.02455,0.09173 -0.02455,0.195079 z"
         id="path2191"
         style="fill:#ffffff;fill-opacity:1" />
      <path
         d="m 75.089226,36.28671 v 1.120086 H 74.848931 V 36.00895 h 0.227376 z m -0.04909,0.368194 -0.111104,-0.0039 q 0.0013,-0.143402 0.03746,-0.264842 0.03617,-0.122731 0.107228,-0.213165 0.07106,-0.09043 0.176992,-0.139526 0.105937,-0.05038 0.245463,-0.05038 0.09819,0 0.180867,0.02842 0.08268,0.02713 0.143402,0.08656 0.06072,0.05943 0.09431,0.152445 0.03359,0.09302 0.03359,0.224792 v 0.931467 h -0.239003 v -0.91984 q 0,-0.109812 -0.03747,-0.175699 -0.03617,-0.06589 -0.103352,-0.0956 -0.06718,-0.03101 -0.157613,-0.03101 -0.105937,0 -0.176992,0.03747 -0.07106,0.03746 -0.113688,0.103353 -0.04263,0.06589 -0.06201,0.151153 -0.01809,0.08397 -0.01809,0.178283 z m 0.905628,-0.131774 -0.160197,0.04909 q 0.0013,-0.11498 0.03747,-0.220916 0.03746,-0.105937 0.107228,-0.188619 0.07105,-0.08268 0.174408,-0.130483 0.103353,-0.04909 0.236419,-0.04909 0.112396,0 0.198954,0.02971 0.08785,0.02971 0.147278,0.09173 0.06072,0.06072 0.09173,0.156321 0.03101,0.0956 0.03101,0.227376 v 0.918548 h -0.240295 v -0.921132 q 0,-0.117563 -0.03746,-0.182159 -0.03617,-0.06589 -0.103353,-0.09173 -0.06589,-0.02713 -0.157613,-0.02713 -0.07881,0 -0.139526,0.02713 -0.06072,0.02713 -0.102061,0.07493 -0.04134,0.04651 -0.0633,0.107229 -0.02067,0.06072 -0.02067,0.129191 z"
         id="path2193"
         style="fill:#ffffff;fill-opacity:1" />
      <path
         d="m 77.175659,37.280188 q 0,-0.06072 0.03747,-0.10206 0.03876,-0.04263 0.111104,-0.04263 0.07235,0 0.109812,0.04263 0.03876,0.04134 0.03876,0.10206 0,0.05943 -0.03876,0.100769 -0.03746,0.04134 -0.109812,0.04134 -0.07235,0 -0.111104,-0.04134 -0.03747,-0.04134 -0.03747,-0.100769 z"
         id="path2195"
         style="fill:#ffffff;fill-opacity:1" />
      <path
         d="m 78.107127,36.28671 v 1.120086 H 77.866832 V 36.00895 h 0.227376 z m -0.04909,0.368194 -0.111104,-0.0039 q 0.0013,-0.143402 0.03747,-0.264842 0.03617,-0.122731 0.107228,-0.213165 0.07106,-0.09043 0.176992,-0.139526 0.105936,-0.05038 0.245462,-0.05038 0.09819,0 0.180868,0.02842 0.08268,0.02713 0.143401,0.08656 0.06072,0.05943 0.09431,0.152445 0.03359,0.09302 0.03359,0.224792 v 0.931467 h -0.239003 v -0.91984 q 0,-0.109812 -0.03746,-0.175699 -0.03617,-0.06589 -0.103353,-0.0956 -0.06718,-0.03101 -0.157613,-0.03101 -0.105936,0 -0.176991,0.03747 -0.07106,0.03746 -0.113688,0.103353 -0.04263,0.06589 -0.06201,0.151153 -0.01809,0.08397 -0.01809,0.178283 z m 0.905629,-0.131774 -0.160197,0.04909 q 0.0013,-0.11498 0.03746,-0.220916 0.03747,-0.105937 0.107229,-0.188619 0.07106,-0.08268 0.174407,-0.130483 0.103353,-0.04909 0.23642,-0.04909 0.112396,0 0.198954,0.02971 0.08785,0.02971 0.147277,0.09173 0.06072,0.06072 0.09173,0.156321 0.03101,0.0956 0.03101,0.227376 v 0.918548 h -0.240295 v -0.921132 q 0,-0.117563 -0.03747,-0.182159 -0.03617,-0.06589 -0.103352,-0.09173 -0.06589,-0.02713 -0.157613,-0.02713 -0.07881,0 -0.139526,0.02713 -0.06072,0.02713 -0.102061,0.07493 -0.04134,0.04651 -0.0633,0.107229 -0.02067,0.06072 -0.02067,0.129191 z"
         id="path2197"
         style="fill:#ffffff;fill-opacity:1" />
      <path
         d="m 80.582425,37.262102 0.388864,-1.253152 h 0.255798 l -0.560688,1.613594 q -0.01938,0.05168 -0.05168,0.111105 -0.03101,0.06072 -0.0801,0.114979 -0.04909,0.05426 -0.118856,0.08785 -0.06847,0.03488 -0.164072,0.03488 -0.02842,0 -0.07235,-0.0078 -0.04393,-0.0078 -0.06201,-0.01292 l -0.0013,-0.193786 q 0.01034,0.0013 0.0323,0.0026 0.02325,0.0026 0.0323,0.0026 0.08139,0 0.138234,-0.02196 0.05684,-0.02067 0.0956,-0.07106 0.04005,-0.04909 0.06847,-0.13565 z m -0.285512,-1.253152 0.363026,1.085203 0.06201,0.251923 -0.171824,0.08785 -0.51418,-1.424976 z"
         id="path2199"
         style="fill:#ffffff;fill-opacity:1" />
    </g>
  </g>
</svg>
